<svg width="428" height="77" viewBox="0 0 428 77" fill="none" xmlns="http://www.w3.org/2000/svg">
<path d="M0.606445 20.3179H4.50293V20.5229C4.50293 21.6737 4.896 22.5908 5.68213 23.2744C6.46826 23.958 7.53353 24.2998 8.87793 24.2998C10.3932 24.2998 11.561 23.9238 12.3813 23.1719C13.2131 22.4085 13.6289 21.3148 13.6289 19.8906C13.6289 18.3981 13.2017 17.2759 12.3472 16.5239C11.5041 15.7606 10.2394 15.3789 8.55322 15.3789C8.47347 15.3789 8.34814 15.3846 8.17725 15.396C8.00635 15.4074 7.87533 15.4131 7.78418 15.4131V12.1318C7.86393 12.1318 7.98356 12.1375 8.14307 12.1489C8.31396 12.1603 8.43929 12.166 8.51904 12.166C10.0002 12.166 11.1167 11.8584 11.8687 11.2432C12.6206 10.6165 12.9966 9.69938 12.9966 8.4917C12.9966 7.42074 12.6548 6.57194 11.9712 5.94531C11.299 5.30729 10.3932 4.98828 9.25391 4.98828C8.03483 4.98828 7.0778 5.28451 6.38281 5.87695C5.69922 6.45801 5.34033 7.27832 5.30615 8.33789H1.63184C1.74577 6.20736 2.46924 4.57243 3.80225 3.43311C5.13525 2.29378 6.98665 1.72412 9.35645 1.72412C11.6465 1.72412 13.458 2.32227 14.791 3.51855C16.1354 4.71484 16.8076 6.33268 16.8076 8.37207C16.8076 9.91016 16.4259 11.1748 15.6626 12.166C14.9106 13.1458 13.8625 13.7383 12.5181 13.9434C14.1017 14.2282 15.3037 14.9232 16.124 16.0283C16.9557 17.1335 17.3716 18.5975 17.3716 20.4204C17.3716 22.6421 16.5911 24.408 15.0303 25.7183C13.4808 27.0171 11.3787 27.6665 8.72412 27.6665C6.32015 27.6665 4.3833 27.0057 2.91357 25.6841C1.44385 24.3511 0.674805 22.5623 0.606445 20.3179ZM22.7904 21.0186C23.3715 22.0895 24.1177 22.9098 25.0292 23.4795C25.9407 24.0492 26.9547 24.334 28.0712 24.334C29.7232 24.334 31.0619 23.8099 32.0873 22.7617C33.1127 21.7021 33.6254 20.3122 33.6254 18.5918C33.6254 16.9398 33.0842 15.5954 32.0019 14.5586C30.9309 13.5218 29.5238 13.0034 27.7807 13.0034C26.7325 13.0034 25.7584 13.1857 24.8583 13.5503C23.9696 13.9035 23.1835 14.4333 22.4999 15.1396L21.4916 14.9175L24.602 2.21973H36.4281V5.51807H27.0458L25.5761 11.0381C26.2597 10.7533 26.9205 10.5425 27.5585 10.4058C28.1965 10.269 28.8345 10.2007 29.4726 10.2007C31.8537 10.2007 33.7906 10.964 35.2831 12.4907C36.7756 14.0174 37.5219 16.0055 37.5219 18.4551C37.5219 21.2578 36.6503 23.4966 34.9071 25.1714C33.164 26.8348 30.8284 27.6665 27.9003 27.6665C26.1685 27.6665 24.6646 27.3703 23.3886 26.7778C22.1125 26.174 21.0131 25.2454 20.0902 23.9922L22.7904 21.0186ZM55.8278 17.1733H62.8005L60.237 11.4653C60.0889 11.1007 59.9351 10.6849 59.7756 10.2178C59.6161 9.73926 59.4566 9.20947 59.2971 8.62842C59.1604 9.17529 59.0122 9.68799 58.8527 10.1665C58.7046 10.6336 58.5508 11.0666 58.3913 11.4653L55.8278 17.1733ZM67.0729 27L64.236 20.5571H54.3239L51.4187 27H47.1462L59.2629 0.989258L71.3625 27H67.0729ZM84.1129 15.4131C83.5432 14.7865 82.8767 14.3079 82.1134 13.9775C81.3614 13.6471 80.5468 13.4819 79.6695 13.4819C78.1542 13.4819 76.9409 13.9718 76.0294 14.9517C75.1179 15.9315 74.6622 17.2303 74.6622 18.8481C74.6622 20.5343 75.1179 21.8617 76.0294 22.8301C76.9522 23.7871 78.2226 24.2656 79.8404 24.2656C80.7405 24.2656 81.5437 24.1004 82.2501 23.77C82.9565 23.4282 83.5774 22.9155 84.1129 22.2319V26.5044C83.4293 26.8918 82.6944 27.1823 81.9083 27.376C81.1336 27.5697 80.3076 27.6665 79.4303 27.6665C76.8896 27.6665 74.816 26.8576 73.2096 25.2397C71.6145 23.6219 70.817 21.5256 70.817 18.9507C70.817 16.3416 71.643 14.2396 73.295 12.6445C74.9584 11.0381 77.1288 10.2349 79.8063 10.2349C80.6494 10.2349 81.4241 10.3203 82.1305 10.4912C82.8369 10.6507 83.4977 10.9014 84.1129 11.2432V15.4131ZM90.2153 13.3794C90.6141 12.3084 91.1382 11.5166 91.7876 11.0039C92.4484 10.4912 93.263 10.2349 94.2314 10.2349C94.7555 10.2349 95.2682 10.2975 95.7695 10.4229C96.2822 10.5482 96.7835 10.7305 97.2734 10.9697L95.9404 14.1143C95.6214 13.8864 95.2739 13.7212 94.8979 13.6187C94.5334 13.5047 94.1232 13.4478 93.6675 13.4478C92.437 13.4478 91.554 13.9434 91.0186 14.9346C90.4831 15.9144 90.2153 17.5664 90.2153 19.8906V27H86.5068V10.7646H90.2153V13.3794ZM113.596 19.4463H100.642C100.733 20.9616 101.183 22.1465 101.992 23.001C102.801 23.8441 103.877 24.2656 105.222 24.2656C106.418 24.2656 107.415 24.015 108.212 23.5137C109.01 23.0124 109.705 22.2035 110.297 21.0869L113.425 22.8301C112.513 24.4593 111.385 25.6727 110.041 26.4702C108.697 27.2677 107.119 27.6665 105.307 27.6665C102.709 27.6665 100.642 26.8747 99.1034 25.291C97.5653 23.7074 96.7963 21.5939 96.7963 18.9507C96.7963 16.41 97.5881 14.325 99.1718 12.6958C100.767 11.0552 102.812 10.2349 105.307 10.2349C107.916 10.2349 109.95 10.9811 111.408 12.4736C112.866 13.9661 113.596 16.0568 113.596 18.7456V19.4463ZM109.75 16.9512C109.602 15.7891 109.158 14.9061 108.417 14.3022C107.677 13.687 106.663 13.3794 105.375 13.3794C104.156 13.3794 103.176 13.6756 102.436 14.2681C101.695 14.8605 101.177 15.7549 100.881 16.9512H109.75ZM114.212 24.0605L117.288 22.3857C117.516 23.1947 117.938 23.8099 118.553 24.2314C119.168 24.653 119.96 24.8638 120.929 24.8638C121.76 24.8638 122.41 24.6758 122.877 24.2998C123.355 23.9124 123.595 23.3883 123.595 22.7275C123.595 21.8503 122.751 21.0983 121.065 20.4717C120.496 20.2666 120.057 20.0957 119.749 19.959C118.018 19.2412 116.804 18.512 116.109 17.7715C115.426 17.0309 115.084 16.1309 115.084 15.0713C115.084 13.6243 115.648 12.4508 116.776 11.5508C117.915 10.6507 119.419 10.2007 121.287 10.2007C122.541 10.2007 123.612 10.4342 124.5 10.9014C125.4 11.3571 126.055 12.0122 126.466 12.8667L123.834 14.6782C123.64 14.1655 123.298 13.7611 122.808 13.4648C122.33 13.1572 121.772 13.0034 121.134 13.0034C120.427 13.0034 119.858 13.1743 119.425 13.5161C119.003 13.8465 118.792 14.2909 118.792 14.8491C118.792 15.6922 119.749 16.4613 121.663 17.1562C122.267 17.3727 122.734 17.5493 123.065 17.686C124.557 18.2785 125.623 18.9507 126.261 19.7026C126.91 20.4432 127.235 21.3717 127.235 22.4883C127.235 24.1061 126.648 25.3765 125.474 26.2993C124.301 27.2108 122.683 27.6665 120.621 27.6665C119.037 27.6665 117.721 27.3703 116.673 26.7778C115.625 26.1854 114.805 25.2796 114.212 24.0605ZM151.471 18.9507C151.471 17.4468 150.987 16.1764 150.018 15.1396C149.05 14.0915 147.865 13.5674 146.463 13.5674C145.073 13.5674 143.889 14.0915 142.909 15.1396C141.94 16.1764 141.456 17.4468 141.456 18.9507C141.456 20.4546 141.94 21.7306 142.909 22.7788C143.889 23.8156 145.073 24.334 146.463 24.334C147.853 24.334 149.033 23.8156 150.001 22.7788C150.981 21.7306 151.471 20.4546 151.471 18.9507ZM137.543 18.9165C137.543 17.7316 137.765 16.6151 138.209 15.5669C138.665 14.5073 139.314 13.5674 140.157 12.7471C140.989 11.9382 141.946 11.3172 143.028 10.8843C144.111 10.4513 145.244 10.2349 146.429 10.2349C147.648 10.2349 148.793 10.4513 149.864 10.8843C150.947 11.3172 151.915 11.9552 152.77 12.7983C153.624 13.63 154.274 14.57 154.718 15.6182C155.162 16.6663 155.384 17.7658 155.384 18.9165C155.384 20.1128 155.162 21.235 154.718 22.2832C154.285 23.3314 153.647 24.2599 152.804 25.0688C151.915 25.9233 150.93 26.5671 149.847 27C148.765 27.4443 147.626 27.6665 146.429 27.6665C145.256 27.6665 144.128 27.4443 143.046 27C141.963 26.5671 141 25.9347 140.157 25.103C139.303 24.2599 138.653 23.3143 138.209 22.2661C137.765 21.2179 137.543 20.1014 137.543 18.9165ZM161.504 10.7988V19.9248C161.504 21.4971 161.829 22.625 162.478 23.3086C163.127 23.9922 164.181 24.334 165.64 24.334C167.098 24.334 168.152 23.9922 168.801 23.3086C169.451 22.625 169.775 21.4971 169.775 19.9248V10.7988H173.484V18.814C173.484 21.9129 172.863 24.1631 171.621 25.5645C170.379 26.9658 168.397 27.6665 165.674 27.6665C162.905 27.6665 160.9 26.9715 159.658 25.5815C158.416 24.1916 157.795 21.9357 157.795 18.814V10.7988H161.504ZM177.963 27V14.0459H175.126V10.7988H177.963V4.66357H181.671V10.7988H184.508V14.0459H181.671V27H177.963ZM208.215 18.9507C208.215 17.4468 207.73 16.1764 206.762 15.1396C205.793 14.0915 204.609 13.5674 203.207 13.5674C201.817 13.5674 200.632 14.0915 199.653 15.1396C198.684 16.1764 198.2 17.4468 198.2 18.9507C198.2 20.4546 198.684 21.7306 199.653 22.7788C200.632 23.8156 201.817 24.334 203.207 24.334C204.597 24.334 205.776 23.8156 206.745 22.7788C207.725 21.7306 208.215 20.4546 208.215 18.9507ZM194.286 18.9165C194.286 17.7316 194.508 16.6151 194.953 15.5669C195.409 14.5073 196.058 13.5674 196.901 12.7471C197.733 11.9382 198.69 11.3172 199.772 10.8843C200.855 10.4513 201.988 10.2349 203.173 10.2349C204.392 10.2349 205.537 10.4513 206.608 10.8843C207.69 11.3172 208.659 11.9552 209.513 12.7983C210.368 13.63 211.017 14.57 211.462 15.6182C211.906 16.6663 212.128 17.7658 212.128 18.9165C212.128 20.1128 211.906 21.235 211.462 22.2832C211.029 23.3314 210.391 24.2599 209.548 25.0688C208.659 25.9233 207.673 26.5671 206.591 27C205.509 27.4443 204.369 27.6665 203.173 27.6665C202 27.6665 200.872 27.4443 199.789 27C198.707 26.5671 197.744 25.9347 196.901 25.103C196.047 24.2599 195.397 23.3143 194.953 22.2661C194.508 21.2179 194.286 20.1014 194.286 18.9165ZM215.171 27V14.0459H212.335V10.7988H215.171V6.45801C215.171 4.30469 215.616 2.71533 216.504 1.68994C217.405 0.664551 218.795 0.151855 220.674 0.151855C221.073 0.151855 221.483 0.180339 221.905 0.237305C222.326 0.294271 222.754 0.385417 223.187 0.510742V3.86035C222.89 3.68945 222.588 3.56413 222.281 3.48438C221.985 3.39323 221.683 3.34766 221.375 3.34766C220.486 3.34766 219.848 3.62109 219.461 4.16797C219.074 4.71484 218.88 5.6377 218.88 6.93652V10.7988H222.776V14.0459H218.88V27H215.171ZM234.622 21.0186C235.204 22.0895 235.95 22.9098 236.861 23.4795C237.773 24.0492 238.787 24.334 239.903 24.334C241.555 24.334 242.894 23.8099 243.919 22.7617C244.945 21.7021 245.457 20.3122 245.457 18.5918C245.457 16.9398 244.916 15.5954 243.834 14.5586C242.763 13.5218 241.356 13.0034 239.613 13.0034C238.565 13.0034 237.59 13.1857 236.69 13.5503C235.802 13.9035 235.016 14.4333 234.332 15.1396L233.324 14.9175L236.434 2.21973H248.26V5.51807H238.878L237.408 11.0381C238.092 10.7533 238.753 10.5425 239.391 10.4058C240.029 10.269 240.667 10.2007 241.305 10.2007C243.686 10.2007 245.623 10.964 247.115 12.4907C248.608 14.0174 249.354 16.0055 249.354 18.4551C249.354 21.2578 248.482 23.4966 246.739 25.1714C244.996 26.8348 242.66 27.6665 239.732 27.6665C238.001 27.6665 236.497 27.3703 235.221 26.7778C233.945 26.174 232.845 25.2454 231.922 23.9922L234.622 21.0186ZM269.914 14.9517C269.914 18.9279 269.111 22.0439 267.505 24.2998C265.91 26.5443 263.711 27.6665 260.908 27.6665C258.071 27.6665 255.861 26.5329 254.277 24.2656C252.705 21.987 251.919 18.7912 251.919 14.6782C251.919 10.5994 252.716 7.42074 254.311 5.14209C255.906 2.86344 258.122 1.72412 260.959 1.72412C263.83 1.72412 266.041 2.86914 267.59 5.15918C269.14 7.43783 269.914 10.702 269.914 14.9517ZM260.84 24.1631C262.503 24.1631 263.751 23.3713 264.582 21.7876C265.425 20.1925 265.847 17.8114 265.847 14.644C265.847 11.5679 265.431 9.22656 264.599 7.62012C263.779 6.00228 262.577 5.19336 260.993 5.19336C259.341 5.19336 258.094 5.99658 257.251 7.60303C256.408 9.20947 255.986 11.5793 255.986 14.7124C255.986 17.7544 256.402 20.09 257.234 21.7192C258.077 23.3485 259.279 24.1631 260.84 24.1631ZM287.417 17.1733H294.39L291.826 11.4653C291.678 11.1007 291.524 10.6849 291.365 10.2178C291.205 9.73926 291.046 9.20947 290.886 8.62842C290.75 9.17529 290.601 9.68799 290.442 10.1665C290.294 10.6336 290.14 11.0666 289.981 11.4653L287.417 17.1733ZM298.662 27L295.825 20.5571H285.913L283.008 27H278.735L290.852 0.989258L302.952 27H298.662ZM315.702 15.4131C315.132 14.7865 314.466 14.3079 313.703 13.9775C312.951 13.6471 312.136 13.4819 311.259 13.4819C309.743 13.4819 308.53 13.9718 307.619 14.9517C306.707 15.9315 306.251 17.2303 306.251 18.8481C306.251 20.5343 306.707 21.8617 307.619 22.8301C308.542 23.7871 309.812 24.2656 311.43 24.2656C312.33 24.2656 313.133 24.1004 313.839 23.77C314.546 23.4282 315.167 22.9155 315.702 22.2319V26.5044C315.019 26.8918 314.284 27.1823 313.498 27.376C312.723 27.5697 311.897 27.6665 311.02 27.6665C308.479 27.6665 306.405 26.8576 304.799 25.2397C303.204 23.6219 302.406 21.5256 302.406 18.9507C302.406 16.3416 303.232 14.2396 304.884 12.6445C306.548 11.0381 308.718 10.2349 311.396 10.2349C312.239 10.2349 313.013 10.3203 313.72 10.4912C314.426 10.6507 315.087 10.9014 315.702 11.2432V15.4131ZM321.805 13.3794C322.203 12.3084 322.727 11.5166 323.377 11.0039C324.038 10.4912 324.852 10.2349 325.821 10.2349C326.345 10.2349 326.857 10.2975 327.359 10.4229C327.871 10.5482 328.373 10.7305 328.863 10.9697L327.53 14.1143C327.211 13.8864 326.863 13.7212 326.487 13.6187C326.123 13.5047 325.712 13.4478 325.257 13.4478C324.026 13.4478 323.143 13.9434 322.608 14.9346C322.072 15.9144 321.805 17.5664 321.805 19.8906V27H318.096V10.7646H321.805V13.3794ZM345.185 19.4463H332.231C332.322 20.9616 332.772 22.1465 333.581 23.001C334.39 23.8441 335.466 24.2656 336.811 24.2656C338.007 24.2656 339.004 24.015 339.802 23.5137C340.599 23.0124 341.294 22.2035 341.887 21.0869L345.014 22.8301C344.103 24.4593 342.975 25.6727 341.63 26.4702C340.286 27.2677 338.708 27.6665 336.896 27.6665C334.299 27.6665 332.231 26.8747 330.693 25.291C329.155 23.7074 328.386 21.5939 328.386 18.9507C328.386 16.41 329.177 14.325 330.761 12.6958C332.356 11.0552 334.401 10.2349 336.896 10.2349C339.505 10.2349 341.539 10.9811 342.997 12.4736C344.456 13.9661 345.185 16.0568 345.185 18.7456V19.4463ZM341.34 16.9512C341.192 15.7891 340.747 14.9061 340.007 14.3022C339.266 13.687 338.252 13.3794 336.965 13.3794C335.746 13.3794 334.766 13.6756 334.025 14.2681C333.285 14.8605 332.766 15.7549 332.47 16.9512H341.34ZM345.801 24.0605L348.878 22.3857C349.105 23.1947 349.527 23.8099 350.142 24.2314C350.758 24.653 351.549 24.8638 352.518 24.8638C353.349 24.8638 353.999 24.6758 354.466 24.2998C354.945 23.9124 355.184 23.3883 355.184 22.7275C355.184 21.8503 354.341 21.0983 352.654 20.4717C352.085 20.2666 351.646 20.0957 351.339 19.959C349.607 19.2412 348.393 18.512 347.698 17.7715C347.015 17.0309 346.673 16.1309 346.673 15.0713C346.673 13.6243 347.237 12.4508 348.365 11.5508C349.504 10.6507 351.008 10.2007 352.877 10.2007C354.13 10.2007 355.201 10.4342 356.09 10.9014C356.99 11.3571 357.645 12.0122 358.055 12.8667L355.423 14.6782C355.229 14.1655 354.888 13.7611 354.398 13.4648C353.919 13.1572 353.361 13.0034 352.723 13.0034C352.016 13.0034 351.447 13.1743 351.014 13.5161C350.592 13.8465 350.382 14.2909 350.382 14.8491C350.382 15.6922 351.339 16.4613 353.253 17.1562C353.856 17.3727 354.324 17.5493 354.654 17.686C356.147 18.2785 357.212 18.9507 357.85 19.7026C358.499 20.4432 358.824 21.3717 358.824 22.4883C358.824 24.1061 358.237 25.3765 357.064 26.2993C355.89 27.2108 354.272 27.6665 352.21 27.6665C350.626 27.6665 349.311 27.3703 348.262 26.7778C347.214 26.1854 346.394 25.2796 345.801 24.0605ZM1.23877 45.792C1.23877 45.1654 1.46663 44.6242 1.92236 44.1685C2.38949 43.7127 2.94206 43.4849 3.58008 43.4849C4.24089 43.4849 4.78776 43.707 5.2207 44.1514C5.66504 44.5843 5.88721 45.1312 5.88721 45.792C5.88721 46.4528 5.66504 47.0111 5.2207 47.4668C4.77637 47.9111 4.22949 48.1333 3.58008 48.1333C2.94206 48.1333 2.38949 47.9054 1.92236 47.4497C1.46663 46.9826 1.23877 46.43 1.23877 45.792ZM1.73438 69V52.7988H5.44287V69H1.73438ZM7.49502 66.0605L10.5712 64.3857C10.7991 65.1947 11.2206 65.8099 11.8358 66.2314C12.4511 66.653 13.2429 66.8638 14.2113 66.8638C15.043 66.8638 15.6924 66.6758 16.1596 66.2998C16.6381 65.9124 16.8773 65.3883 16.8773 64.7275C16.8773 63.8503 16.0342 63.0983 14.348 62.4717C13.7784 62.2666 13.3397 62.0957 13.0321 61.959C11.3004 61.2412 10.087 60.512 9.39199 59.7715C8.7084 59.0309 8.3666 58.1309 8.3666 57.0713C8.3666 55.6243 8.93057 54.4508 10.0585 53.5508C11.1978 52.6507 12.7017 52.2007 14.5702 52.2007C15.8235 52.2007 16.8944 52.4342 17.7831 52.9014C18.6832 53.3571 19.3383 54.0122 19.7484 54.8667L17.1166 56.6782C16.9229 56.1655 16.5811 55.7611 16.0912 55.4648C15.6127 55.1572 15.0544 55.0034 14.4164 55.0034C13.71 55.0034 13.1404 55.1743 12.7074 55.5161C12.2859 55.8465 12.0751 56.2909 12.0751 56.8491C12.0751 57.6922 13.0321 58.4613 14.9462 59.1562C15.55 59.3727 16.0172 59.5493 16.3476 59.686C17.8401 60.2785 18.9053 60.9507 19.5434 61.7026C20.1928 62.4432 20.5175 63.3717 20.5175 64.4883C20.5175 66.1061 19.9307 67.3765 18.7572 68.2993C17.5837 69.2108 15.9659 69.6665 13.9037 69.6665C12.3201 69.6665 11.0041 69.3703 9.95596 68.7778C8.90778 68.1854 8.08747 67.2796 7.49502 66.0605ZM44.7536 60.9507C44.7536 59.4468 44.2694 58.1764 43.301 57.1396C42.3326 56.0915 41.1477 55.5674 39.7463 55.5674C38.3563 55.5674 37.1714 56.0915 36.1916 57.1396C35.2232 58.1764 34.739 59.4468 34.739 60.9507C34.739 62.4546 35.2232 63.7306 36.1916 64.7788C37.1714 65.8156 38.3563 66.334 39.7463 66.334C41.1363 66.334 42.3155 65.8156 43.2839 64.7788C44.2637 63.7306 44.7536 62.4546 44.7536 60.9507ZM30.8254 60.9165C30.8254 59.7316 31.0476 58.6151 31.4919 57.5669C31.9476 56.5073 32.597 55.5674 33.4401 54.7471C34.2718 53.9382 35.2289 53.3172 36.3112 52.8843C37.3936 52.4513 38.5272 52.2349 39.7121 52.2349C40.9312 52.2349 42.0762 52.4513 43.1472 52.8843C44.2295 53.3172 45.1979 53.9552 46.0524 54.7983C46.9069 55.63 47.5563 56.57 48.0007 57.6182C48.445 58.6663 48.6672 59.7658 48.6672 60.9165C48.6672 62.1128 48.445 63.235 48.0007 64.2832C47.5677 65.3314 46.9297 66.2599 46.0866 67.0688C45.1979 67.9233 44.2124 68.5671 43.1301 69C42.0477 69.4443 40.9084 69.6665 39.7121 69.6665C38.5386 69.6665 37.4107 69.4443 36.3283 69C35.246 68.5671 34.2832 67.9347 33.4401 67.103C32.5856 66.2599 31.9362 65.3143 31.4919 64.2661C31.0476 63.2179 30.8254 62.1014 30.8254 60.9165ZM54.7867 60.8481C54.7867 62.5229 55.2026 63.8617 56.0343 64.8643C56.8774 65.8669 57.9825 66.3682 59.3497 66.3682C60.7511 66.3682 61.8334 65.901 62.5968 64.9668C63.3715 64.0326 63.7589 62.7052 63.7589 60.9849C63.7589 59.2759 63.3544 57.9429 62.5455 56.9858C61.748 56.0174 60.6485 55.5332 59.2472 55.5332C57.8458 55.5332 56.7521 56.0003 55.9659 56.9346C55.1798 57.8688 54.7867 59.1733 54.7867 60.8481ZM51.1979 76.6221V52.7988H54.9063V55.4478C55.3393 54.4224 56.0286 53.6305 56.9742 53.0723C57.9313 52.514 59.0706 52.2349 60.3922 52.2349C62.5455 52.2349 64.2887 53.0324 65.6217 54.6274C66.9661 56.2111 67.6383 58.2961 67.6383 60.8823C67.6383 63.6053 66.9775 65.7529 65.6559 67.3252C64.3456 68.8861 62.5455 69.6665 60.2555 69.6665C59.1161 69.6665 58.1021 69.4386 57.2135 68.9829C56.3362 68.5272 55.5672 67.8322 54.9063 66.8979V76.6221H51.1979ZM85.772 61.4463H72.8179C72.909 62.9616 73.359 64.1465 74.168 65.001C74.9769 65.8441 76.0535 66.2656 77.3979 66.2656C78.5942 66.2656 79.5911 66.015 80.3887 65.5137C81.1862 65.0124 81.8812 64.2035 82.4736 63.0869L85.6011 64.8301C84.6896 66.4593 83.5617 67.6727 82.2173 68.4702C80.8729 69.2677 79.2949 69.6665 77.4834 69.6665C74.8857 69.6665 72.8179 68.8747 71.2798 67.291C69.7417 65.7074 68.9727 63.5939 68.9727 60.9507C68.9727 58.41 69.7645 56.325 71.3481 54.6958C72.9432 53.0552 74.9883 52.2349 77.4834 52.2349C80.0924 52.2349 82.1261 52.9811 83.5845 54.4736C85.0428 55.9661 85.772 58.0568 85.772 60.7456V61.4463ZM81.9268 58.9512C81.7786 57.7891 81.3343 56.9061 80.5938 56.3022C79.8532 55.687 78.8392 55.3794 77.5518 55.3794C76.3327 55.3794 75.3529 55.6756 74.6123 56.2681C73.8717 56.8605 73.3534 57.7549 73.0571 58.9512H81.9268ZM88.2514 69V52.7988H91.7377V55.4478C92.4783 54.3312 93.3498 53.5166 94.3524 53.0039C95.355 52.4912 96.5741 52.2349 98.0097 52.2349C99.2173 52.2349 100.243 52.4285 101.086 52.8159C101.94 53.1919 102.607 53.7559 103.085 54.5078C103.37 54.9521 103.575 55.4705 103.701 56.063C103.826 56.6554 103.889 57.6922 103.889 59.1733V69H100.146V60.6772C100.146 58.5467 99.8839 57.134 99.3598 56.439C98.8471 55.7326 97.9299 55.3794 96.6083 55.3794C95.7424 55.3794 94.9677 55.5389 94.2841 55.8579C93.6119 56.1769 93.0821 56.627 92.6947 57.208C92.4213 57.5954 92.2276 58.0967 92.1137 58.7119C92.0111 59.3158 91.9599 60.2842 91.9599 61.6172V69H88.2514ZM123.784 53.0381L124.707 52.5083C125.345 52.1323 125.823 51.6994 126.142 51.2095C126.461 50.7082 126.621 50.1499 126.621 49.5347C126.621 48.8283 126.404 48.2529 125.971 47.8086C125.538 47.3529 124.974 47.125 124.279 47.125C123.516 47.125 122.901 47.3529 122.434 47.8086C121.967 48.2643 121.733 48.8511 121.733 49.5688C121.733 49.922 121.796 50.2638 121.921 50.5942C122.058 50.9246 122.263 51.238 122.536 51.5342L123.784 53.0381ZM128.279 63.9585L122.81 57.6523L122.177 58.0796C120.981 58.8543 120.144 59.5664 119.665 60.2158C119.198 60.8538 118.965 61.5659 118.965 62.3521C118.965 63.4572 119.352 64.3914 120.127 65.1548C120.901 65.9181 121.864 66.2998 123.015 66.2998C123.869 66.2998 124.73 66.1061 125.595 65.7188C126.473 65.3314 127.367 64.7446 128.279 63.9585ZM132.602 69L130.586 66.6245C129.401 67.6385 128.182 68.3905 126.928 68.8804C125.687 69.3589 124.325 69.5981 122.844 69.5981C120.543 69.5981 118.668 68.9316 117.221 67.5986C115.786 66.2656 115.068 64.5509 115.068 62.4546C115.068 61.0304 115.512 59.7202 116.401 58.5239C117.29 57.3162 118.703 56.1086 120.639 54.9009L119.631 53.8071C119.073 53.2033 118.646 52.5425 118.349 51.8247C118.053 51.1069 117.905 50.3778 117.905 49.6372C117.905 47.9966 118.503 46.6522 119.699 45.604C120.907 44.5444 122.457 44.0146 124.348 44.0146C126.228 44.0146 127.72 44.4932 128.825 45.4502C129.931 46.3958 130.483 47.6776 130.483 49.2954C130.483 50.5145 130.096 51.631 129.321 52.645C128.546 53.6476 127.31 54.6445 125.613 55.6357L130.825 61.6855C131.326 61.1842 131.839 60.6146 132.363 59.9766C132.887 59.3385 133.445 58.6037 134.038 57.772L136.43 60.3184C135.975 61.0475 135.468 61.7425 134.909 62.4033C134.351 63.0527 133.747 63.6623 133.098 64.2319L137.302 69H132.602ZM148.003 69V42.5107H151.711V69H148.003ZM170.871 69H167.162V66.8979C166.501 67.8322 165.726 68.5272 164.838 68.9829C163.961 69.4386 162.952 69.6665 161.813 69.6665C159.523 69.6665 157.717 68.8861 156.395 67.3252C155.085 65.7529 154.43 63.6053 154.43 60.8823C154.43 58.2961 155.102 56.2111 156.447 54.6274C157.791 53.0324 159.546 52.2349 161.71 52.2349C163.032 52.2349 164.16 52.514 165.094 53.0723C166.04 53.6191 166.729 54.411 167.162 55.4478V52.7988H170.871V69ZM167.265 60.8481C167.265 59.1733 166.871 57.8688 166.085 56.9346C165.311 56.0003 164.223 55.5332 162.821 55.5332C161.42 55.5332 160.315 56.0174 159.506 56.9858C158.708 57.9429 158.309 59.2759 158.309 60.9849C158.309 62.7052 158.697 64.0326 159.472 64.9668C160.246 65.901 161.34 66.3682 162.753 66.3682C164.086 66.3682 165.168 65.8612 166 64.8472C166.843 63.8332 167.265 62.5002 167.265 60.8481ZM174.597 69V52.7988H178.084V55.4478C178.824 54.3312 179.696 53.5166 180.699 53.0039C181.701 52.4912 182.92 52.2349 184.356 52.2349C185.563 52.2349 186.589 52.4285 187.432 52.8159C188.286 53.1919 188.953 53.7559 189.431 54.5078C189.716 54.9521 189.921 55.4705 190.047 56.063C190.172 56.6554 190.235 57.6922 190.235 59.1733V69H186.492V60.6772C186.492 58.5467 186.23 57.134 185.706 56.439C185.193 55.7326 184.276 55.3794 182.954 55.3794C182.089 55.3794 181.314 55.5389 180.63 55.8579C179.958 56.1769 179.428 56.627 179.041 57.208C178.767 57.5954 178.574 58.0967 178.46 58.7119C178.357 59.3158 178.306 60.2842 178.306 61.6172V69H174.597ZM205.412 60.8481C205.412 59.1733 205.019 57.8688 204.233 56.9346C203.458 56.0003 202.37 55.5332 200.968 55.5332C199.567 55.5332 198.462 56.0174 197.653 56.9858C196.856 57.9429 196.457 59.2759 196.457 60.9849C196.457 62.7052 196.844 64.0326 197.619 64.9668C198.394 65.901 199.487 66.3682 200.9 66.3682C202.245 66.3682 203.333 65.8669 204.164 64.8643C204.996 63.8503 205.412 62.5116 205.412 60.8481ZM205.309 42.5107H209.018V69H205.309V66.8979C204.648 67.8322 203.874 68.5272 202.985 68.9829C202.108 69.4386 201.099 69.6665 199.96 69.6665C197.67 69.6665 195.864 68.8861 194.543 67.3252C193.232 65.7529 192.577 63.6053 192.577 60.8823C192.577 58.2961 193.25 56.2111 194.594 54.6274C195.938 53.0324 197.693 52.2349 199.858 52.2349C201.179 52.2349 202.307 52.514 203.241 53.0723C204.187 53.6191 204.876 54.411 205.309 55.4478V42.5107ZM210.882 66.0605L213.958 64.3857C214.186 65.1947 214.608 65.8099 215.223 66.2314C215.838 66.653 216.63 66.8638 217.598 66.8638C218.43 66.8638 219.079 66.6758 219.546 66.2998C220.025 65.9124 220.264 65.3883 220.264 64.7275C220.264 63.8503 219.421 63.0983 217.735 62.4717C217.165 62.2666 216.727 62.0957 216.419 61.959C214.687 61.2412 213.474 60.512 212.779 59.7715C212.095 59.0309 211.754 58.1309 211.754 57.0713C211.754 55.6243 212.317 54.4508 213.445 53.5508C214.585 52.6507 216.089 52.2007 217.957 52.2007C219.21 52.2007 220.281 52.4342 221.17 52.9014C222.07 53.3571 222.725 54.0122 223.135 54.8667L220.504 56.6782C220.31 56.1655 219.968 55.7611 219.478 55.4648C219 55.1572 218.441 55.0034 217.803 55.0034C217.097 55.0034 216.527 55.1743 216.094 55.5161C215.673 55.8465 215.462 56.2909 215.462 56.8491C215.462 57.6922 216.419 58.4613 218.333 59.1562C218.937 59.3727 219.404 59.5493 219.734 59.686C221.227 60.2785 222.292 60.9507 222.93 61.7026C223.58 62.4432 223.904 63.3717 223.904 64.4883C223.904 66.1061 223.318 67.3765 222.144 68.2993C220.971 69.2108 219.353 69.6665 217.291 69.6665C215.707 69.6665 214.391 69.3703 213.343 68.7778C212.295 68.1854 211.474 67.2796 210.882 66.0605ZM238.347 57.4131C237.777 56.7865 237.111 56.3079 236.347 55.9775C235.595 55.6471 234.781 55.4819 233.903 55.4819C232.388 55.4819 231.175 55.9718 230.263 56.9517C229.352 57.9315 228.896 59.2303 228.896 60.8481C228.896 62.5343 229.352 63.8617 230.263 64.8301C231.186 65.7871 232.456 66.2656 234.074 66.2656C234.974 66.2656 235.778 66.1004 236.484 65.77C237.19 65.4282 237.811 64.9155 238.347 64.2319V68.5044C237.663 68.8918 236.928 69.1823 236.142 69.376C235.367 69.5697 234.541 69.6665 233.664 69.6665C231.123 69.6665 229.05 68.8576 227.443 67.2397C225.848 65.6219 225.051 63.5256 225.051 60.9507C225.051 58.3416 225.877 56.2396 227.529 54.6445C229.192 53.0381 231.363 52.2349 234.04 52.2349C234.883 52.2349 235.658 52.3203 236.364 52.4912C237.071 52.6507 237.731 52.9014 238.347 53.2432V57.4131ZM255.985 69H252.276V66.8979C251.615 67.8322 250.841 68.5272 249.952 68.9829C249.075 69.4386 248.066 69.6665 246.927 69.6665C244.637 69.6665 242.831 68.8861 241.51 67.3252C240.199 65.7529 239.544 63.6053 239.544 60.8823C239.544 58.2961 240.217 56.2111 241.561 54.6274C242.905 53.0324 244.66 52.2349 246.825 52.2349C248.146 52.2349 249.274 52.514 250.208 53.0723C251.154 53.6191 251.843 54.411 252.276 55.4478V52.7988H255.985V69ZM252.379 60.8481C252.379 59.1733 251.986 57.8688 251.2 56.9346C250.425 56.0003 249.337 55.5332 247.935 55.5332C246.534 55.5332 245.429 56.0174 244.62 56.9858C243.822 57.9429 243.424 59.2759 243.424 60.9849C243.424 62.7052 243.811 64.0326 244.586 64.9668C245.361 65.901 246.454 66.3682 247.867 66.3682C249.2 66.3682 250.282 65.8612 251.114 64.8472C251.957 63.8332 252.379 62.5002 252.379 60.8481ZM263.301 60.8481C263.301 62.5229 263.716 63.8617 264.548 64.8643C265.391 65.8669 266.496 66.3682 267.864 66.3682C269.265 66.3682 270.347 65.901 271.111 64.9668C271.885 64.0326 272.273 62.7052 272.273 60.9849C272.273 59.2759 271.868 57.9429 271.059 56.9858C270.262 56.0174 269.162 55.5332 267.761 55.5332C266.36 55.5332 265.266 56.0003 264.48 56.9346C263.694 57.8688 263.301 59.1733 263.301 60.8481ZM259.712 76.6221V52.7988H263.42V55.4478C263.853 54.4224 264.542 53.6305 265.488 53.0723C266.445 52.514 267.584 52.2349 268.906 52.2349C271.059 52.2349 272.803 53.0324 274.136 54.6274C275.48 56.2111 276.152 58.2961 276.152 60.8823C276.152 63.6053 275.491 65.7529 274.17 67.3252C272.86 68.8861 271.059 69.6665 268.769 69.6665C267.63 69.6665 266.616 69.4386 265.727 68.9829C264.85 68.5272 264.081 67.8322 263.42 66.8979V76.6221H259.712ZM294.286 61.4463H281.332C281.423 62.9616 281.873 64.1465 282.682 65.001C283.491 65.8441 284.567 66.2656 285.912 66.2656C287.108 66.2656 288.105 66.015 288.903 65.5137C289.7 65.0124 290.395 64.2035 290.987 63.0869L294.115 64.8301C293.203 66.4593 292.076 67.6727 290.731 68.4702C289.387 69.2677 287.809 69.6665 285.997 69.6665C283.4 69.6665 281.332 68.8747 279.794 67.291C278.256 65.7074 277.487 63.5939 277.487 60.9507C277.487 58.41 278.278 56.325 279.862 54.6958C281.457 53.0552 283.502 52.2349 285.997 52.2349C288.606 52.2349 290.64 52.9811 292.098 54.4736C293.557 55.9661 294.286 58.0568 294.286 60.7456V61.4463ZM290.441 58.9512C290.293 57.7891 289.848 56.9061 289.108 56.3022C288.367 55.687 287.353 55.3794 286.066 55.3794C284.847 55.3794 283.867 55.6756 283.126 56.2681C282.386 56.8605 281.867 57.7549 281.571 58.9512H290.441ZM308.403 60.8481C308.403 59.1733 308.01 57.8688 307.224 56.9346C306.449 56.0003 305.361 55.5332 303.96 55.5332C302.559 55.5332 301.454 56.0174 300.645 56.9858C299.847 57.9429 299.448 59.2759 299.448 60.9849C299.448 62.7052 299.836 64.0326 300.61 64.9668C301.385 65.901 302.479 66.3682 303.892 66.3682C305.236 66.3682 306.324 65.8669 307.156 64.8643C307.988 63.8503 308.403 62.5116 308.403 60.8481ZM308.301 42.5107H312.009V69H308.301V66.8979C307.64 67.8322 306.865 68.5272 305.977 68.9829C305.099 69.4386 304.091 69.6665 302.952 69.6665C300.662 69.6665 298.856 68.8861 297.534 67.3252C296.224 65.7529 295.569 63.6053 295.569 60.8823C295.569 58.2961 296.241 56.2111 297.586 54.6274C298.93 53.0324 300.684 52.2349 302.849 52.2349C304.171 52.2349 305.299 52.514 306.233 53.0723C307.179 53.6191 307.868 54.411 308.301 55.4478V42.5107ZM323.035 66.0605L326.111 64.3857C326.339 65.1947 326.761 65.8099 327.376 66.2314C327.991 66.653 328.783 66.8638 329.751 66.8638C330.583 66.8638 331.232 66.6758 331.7 66.2998C332.178 65.9124 332.417 65.3883 332.417 64.7275C332.417 63.8503 331.574 63.0983 329.888 62.4717C329.318 62.2666 328.88 62.0957 328.572 61.959C326.84 61.2412 325.627 60.512 324.932 59.7715C324.248 59.0309 323.907 58.1309 323.907 57.0713C323.907 55.6243 324.471 54.4508 325.599 53.5508C326.738 52.6507 328.242 52.2007 330.11 52.2007C331.364 52.2007 332.434 52.4342 333.323 52.9014C334.223 53.3571 334.878 54.0122 335.288 54.8667L332.657 56.6782C332.463 56.1655 332.121 55.7611 331.631 55.4648C331.153 55.1572 330.594 55.0034 329.956 55.0034C329.25 55.0034 328.68 55.1743 328.247 55.5161C327.826 55.8465 327.615 56.2909 327.615 56.8491C327.615 57.6922 328.572 58.4613 330.486 59.1562C331.09 59.3727 331.557 59.5493 331.888 59.686C333.38 60.2785 334.445 60.9507 335.083 61.7026C335.733 62.4432 336.058 63.3717 336.058 64.4883C336.058 66.1061 335.471 67.3765 334.297 68.2993C333.124 69.2108 331.506 69.6665 329.444 69.6665C327.86 69.6665 326.544 69.3703 325.496 68.7778C324.448 68.1854 323.628 67.2796 323.035 66.0605ZM341.989 60.8481C341.989 62.5229 342.405 63.8617 343.237 64.8643C344.08 65.8669 345.185 66.3682 346.552 66.3682C347.953 66.3682 349.036 65.901 349.799 64.9668C350.574 64.0326 350.961 62.7052 350.961 60.9849C350.961 59.2759 350.557 57.9429 349.748 56.9858C348.95 56.0174 347.851 55.5332 346.45 55.5332C345.048 55.5332 343.954 56.0003 343.168 56.9346C342.382 57.8688 341.989 59.1733 341.989 60.8481ZM338.4 76.6221V52.7988H342.109V55.4478C342.542 54.4224 343.231 53.6305 344.177 53.0723C345.134 52.514 346.273 52.2349 347.595 52.2349C349.748 52.2349 351.491 53.0324 352.824 54.6274C354.168 56.2111 354.841 58.2961 354.841 60.8823C354.841 63.6053 354.18 65.7529 352.858 67.3252C351.548 68.8861 349.748 69.6665 347.458 69.6665C346.319 69.6665 345.305 69.4386 344.416 68.9829C343.539 68.5272 342.77 67.8322 342.109 66.8979V76.6221H338.4ZM372.615 69H368.907V66.8979C368.246 67.8322 367.471 68.5272 366.583 68.9829C365.705 69.4386 364.697 69.6665 363.558 69.6665C361.268 69.6665 359.462 68.8861 358.14 67.3252C356.83 65.7529 356.175 63.6053 356.175 60.8823C356.175 58.2961 356.847 56.2111 358.192 54.6274C359.536 53.0324 361.291 52.2349 363.455 52.2349C364.777 52.2349 365.905 52.514 366.839 53.0723C367.785 53.6191 368.474 54.411 368.907 55.4478V52.7988H372.615V69ZM369.009 60.8481C369.009 59.1733 368.616 57.8688 367.83 56.9346C367.056 56.0003 365.967 55.5332 364.566 55.5332C363.165 55.5332 362.06 56.0174 361.251 56.9858C360.453 57.9429 360.054 59.2759 360.054 60.9849C360.054 62.7052 360.442 64.0326 361.216 64.9668C361.991 65.901 363.085 66.3682 364.498 66.3682C365.831 66.3682 366.913 65.8612 367.745 64.8472C368.588 63.8332 369.009 62.5002 369.009 60.8481ZM388.442 57.4131C387.872 56.7865 387.206 56.3079 386.442 55.9775C385.691 55.6471 384.876 55.4819 383.999 55.4819C382.483 55.4819 381.27 55.9718 380.358 56.9517C379.447 57.9315 378.991 59.2303 378.991 60.8481C378.991 62.5343 379.447 63.8617 380.358 64.8301C381.281 65.7871 382.552 66.2656 384.17 66.2656C385.07 66.2656 385.873 66.1004 386.579 65.77C387.286 65.4282 387.907 64.9155 388.442 64.2319V68.5044C387.758 68.8918 387.024 69.1823 386.237 69.376C385.463 69.5697 384.637 69.6665 383.759 69.6665C381.219 69.6665 379.145 68.8576 377.539 67.2397C375.944 65.6219 375.146 63.5256 375.146 60.9507C375.146 58.3416 375.972 56.2396 377.624 54.6445C379.288 53.0381 381.458 52.2349 384.135 52.2349C384.978 52.2349 385.753 52.3203 386.46 52.4912C387.166 52.6507 387.827 52.9014 388.442 53.2432V57.4131ZM406.439 61.4463H393.485C393.576 62.9616 394.026 64.1465 394.835 65.001C395.644 65.8441 396.721 66.2656 398.065 66.2656C399.261 66.2656 400.258 66.015 401.056 65.5137C401.853 65.0124 402.548 64.2035 403.141 63.0869L406.268 64.8301C405.357 66.4593 404.229 67.6727 402.884 68.4702C401.54 69.2677 399.962 69.6665 398.15 69.6665C395.553 69.6665 393.485 68.8747 391.947 67.291C390.409 65.7074 389.64 63.5939 389.64 60.9507C389.64 58.41 390.431 56.325 392.015 54.6958C393.61 53.0552 395.655 52.2349 398.15 52.2349C400.759 52.2349 402.793 52.9811 404.251 54.4736C405.71 55.9661 406.439 58.0568 406.439 60.7456V61.4463ZM402.594 58.9512C402.446 57.7891 402.001 56.9061 401.261 56.3022C400.52 55.687 399.506 55.3794 398.219 55.3794C397 55.3794 396.02 55.6756 395.279 56.2681C394.539 56.8605 394.02 57.7549 393.724 58.9512H402.594ZM407.056 66.0605L410.132 64.3857C410.36 65.1947 410.781 65.8099 411.396 66.2314C412.012 66.653 412.803 66.8638 413.772 66.8638C414.604 66.8638 415.253 66.6758 415.72 66.2998C416.199 65.9124 416.438 65.3883 416.438 64.7275C416.438 63.8503 415.595 63.0983 413.909 62.4717C413.339 62.2666 412.9 62.0957 412.593 61.959C410.861 61.2412 409.648 60.512 408.953 59.7715C408.269 59.0309 407.927 58.1309 407.927 57.0713C407.927 55.6243 408.491 54.4508 409.619 53.5508C410.758 52.6507 412.262 52.2007 414.131 52.2007C415.384 52.2007 416.455 52.4342 417.344 52.9014C418.244 53.3571 418.899 54.0122 419.309 54.8667L416.677 56.6782C416.483 56.1655 416.142 55.7611 415.652 55.4648C415.173 55.1572 414.615 55.0034 413.977 55.0034C413.271 55.0034 412.701 55.1743 412.268 55.5161C411.846 55.8465 411.636 56.2909 411.636 56.8491C411.636 57.6922 412.593 58.4613 414.507 59.1562C415.111 59.3727 415.578 59.5493 415.908 59.686C417.401 60.2785 418.466 60.9507 419.104 61.7026C419.753 62.4432 420.078 63.3717 420.078 64.4883C420.078 66.1061 419.491 67.3765 418.318 68.2993C417.144 69.2108 415.526 69.6665 413.464 69.6665C411.881 69.6665 410.565 69.3703 409.517 68.7778C408.468 68.1854 407.648 67.2796 407.056 66.0605ZM422.899 67.103C422.899 66.4764 423.116 65.9409 423.549 65.4966C423.982 65.0522 424.511 64.8301 425.138 64.8301C425.765 64.8301 426.294 65.0522 426.727 65.4966C427.16 65.9409 427.377 66.4764 427.377 67.103C427.377 67.7183 427.16 68.2424 426.727 68.6753C426.294 69.0968 425.765 69.3076 425.138 69.3076C424.511 69.3076 423.982 69.0968 423.549 68.6753C423.116 68.2424 422.899 67.7183 422.899 67.103Z" fill="white"/>
</svg>
