<svg width="284" height="76" viewBox="0 0 284 76" fill="none" xmlns="http://www.w3.org/2000/svg">
<path d="M12.561 10.0981L6.18652 19.0874H12.4585V12.5762C12.4585 12.2344 12.4642 11.8527 12.4756 11.4312C12.4984 11.0096 12.5269 10.5653 12.561 10.0981ZM12.4585 27V21.9243H0.461426L15.022 1.72412H16.167V19.0874H19.209V21.9243H16.167V27H12.4585ZM35.7718 12.542H37.327C39.2638 12.542 40.631 12.2799 41.4285 11.7559C42.2374 11.2204 42.6419 10.326 42.6419 9.07275C42.6419 7.70557 42.2716 6.74854 41.5311 6.20166C40.7905 5.64339 39.3891 5.36426 37.327 5.36426H35.7718V12.542ZM35.7718 23.5991H37.1731C38.5973 23.5991 39.6626 23.5422 40.3689 23.4282C41.0753 23.3143 41.6336 23.1149 42.0438 22.8301C42.5451 22.4997 42.9324 22.0553 43.2059 21.4971C43.4793 20.9388 43.616 20.3236 43.616 19.6514C43.616 18.8538 43.4508 18.1589 43.1204 17.5664C42.79 16.974 42.3172 16.5125 41.702 16.1821C41.3146 15.9884 40.8702 15.846 40.3689 15.7549C39.879 15.6637 39.2239 15.6182 38.4036 15.6182H37.1731H35.7718V23.5991ZM31.7898 27V1.98047H38.096C39.8961 1.98047 41.2234 2.07731 42.0779 2.271C42.9438 2.46468 43.6787 2.78369 44.2825 3.22803C45.0573 3.79769 45.6554 4.54395 46.077 5.4668C46.5099 6.38965 46.7264 7.40934 46.7264 8.52588C46.7264 9.85889 46.4188 10.9754 45.8035 11.8755C45.1883 12.7642 44.2939 13.3851 43.1204 13.7383C44.5787 13.9661 45.7238 14.6326 46.5555 15.7378C47.3986 16.8315 47.8201 18.2158 47.8201 19.8906C47.8201 20.9046 47.6435 21.8674 47.2903 22.7788C46.9371 23.6903 46.4358 24.465 45.7864 25.103C45.1028 25.798 44.254 26.2879 43.24 26.5728C42.226 26.8576 40.5228 27 38.1302 27H31.7898ZM50.5559 27V1.98047H54.6232V11.209H66.9279V1.98047H70.9953V27H66.9279V14.8491H54.6232V27H50.5559ZM75.3375 27V1.98047H79.4049V12.3369L88.3941 1.98047H93.3673L83.4552 13.106L94.5465 27H89.2999L79.4049 14.2168V27H75.3375ZM112.887 5.43262V27H108.819V5.43262H102.171V1.98047H119.5V5.43262H112.887ZM121.741 13.3794C122.139 12.3084 122.663 11.5166 123.313 11.0039C123.974 10.4912 124.788 10.2349 125.757 10.2349C126.281 10.2349 126.793 10.2975 127.295 10.4229C127.807 10.5482 128.309 10.7305 128.799 10.9697L127.466 14.1143C127.147 13.8864 126.799 13.7212 126.423 13.6187C126.059 13.5047 125.648 13.4478 125.193 13.4478C123.962 13.4478 123.079 13.9434 122.544 14.9346C122.008 15.9144 121.741 17.5664 121.741 19.8906V27H118.032V10.7646H121.741V13.3794ZM129.193 3.79199C129.193 3.16536 129.421 2.62419 129.877 2.16846C130.344 1.71273 130.896 1.48486 131.534 1.48486C132.195 1.48486 132.742 1.70703 133.175 2.15137C133.619 2.58431 133.842 3.13118 133.842 3.79199C133.842 4.4528 133.619 5.01107 133.175 5.4668C132.731 5.91113 132.184 6.1333 131.534 6.1333C130.896 6.1333 130.344 5.90544 129.877 5.44971C129.421 4.98258 129.193 4.43001 129.193 3.79199ZM129.689 27V10.7988H133.397V27H129.689ZM140.901 18.8481C140.901 20.5229 141.317 21.8617 142.149 22.8643C142.992 23.8669 144.097 24.3682 145.464 24.3682C146.865 24.3682 147.948 23.901 148.711 22.9668C149.486 22.0326 149.873 20.7052 149.873 18.9849C149.873 17.2759 149.469 15.9429 148.66 14.9858C147.862 14.0174 146.763 13.5332 145.361 13.5332C143.96 13.5332 142.866 14.0003 142.08 14.9346C141.294 15.8688 140.901 17.1733 140.901 18.8481ZM137.312 34.6221V10.7988H141.021V13.4478C141.454 12.4224 142.143 11.6305 143.088 11.0723C144.046 10.514 145.185 10.2349 146.506 10.2349C148.66 10.2349 150.403 11.0324 151.736 12.6274C153.08 14.2111 153.753 16.2961 153.753 18.8823C153.753 21.6053 153.092 23.7529 151.77 25.3252C150.46 26.8861 148.66 27.6665 146.37 27.6665C145.23 27.6665 144.216 27.4386 143.328 26.9829C142.45 26.5272 141.681 25.8322 141.021 24.8979V34.6221H137.312ZM156.454 27V0.510742H160.163V27H156.454ZM179.681 19.4463H166.726C166.818 20.9616 167.268 22.1465 168.077 23.001C168.885 23.8441 169.962 24.2656 171.307 24.2656C172.503 24.2656 173.5 24.015 174.297 23.5137C175.095 23.0124 175.79 22.2035 176.382 21.0869L179.51 22.8301C178.598 24.4593 177.47 25.6727 176.126 26.4702C174.781 27.2677 173.204 27.6665 171.392 27.6665C168.794 27.6665 166.726 26.8747 165.188 25.291C163.65 23.7074 162.881 21.5939 162.881 18.9507C162.881 16.41 163.673 14.325 165.257 12.6958C166.852 11.0552 168.897 10.2349 171.392 10.2349C174.001 10.2349 176.035 10.9811 177.493 12.4736C178.951 13.9661 179.681 16.0568 179.681 18.7456V19.4463ZM175.835 16.9512C175.687 15.7891 175.243 14.9061 174.502 14.3022C173.762 13.687 172.748 13.3794 171.46 13.3794C170.241 13.3794 169.261 13.6756 168.521 14.2681C167.78 14.8605 167.262 15.7549 166.966 16.9512H175.835ZM183.271 27H179.169L185.304 18.2842L180.058 10.7988H184.142L186.415 14.1484C186.655 14.4902 186.865 14.8206 187.048 15.1396C187.23 15.4587 187.395 15.7834 187.543 16.1138C187.68 15.8403 187.834 15.5555 188.005 15.2593C188.187 14.9517 188.415 14.57 188.688 14.1143L190.944 10.7988H194.994L189.748 18.3184L195.832 27H191.782L188.774 22.7446C188.74 22.6877 188.694 22.6193 188.637 22.5396C188.056 21.6623 187.68 20.9901 187.509 20.5229C187.281 20.9559 187.059 21.3604 186.843 21.7363C186.637 22.1009 186.427 22.4427 186.21 22.7617L183.271 27ZM214.035 27.9741L202.876 1.98047H207.097L212.702 15.3105C213.033 16.0853 213.306 16.8031 213.523 17.4639C213.739 18.1133 213.91 18.7342 214.035 19.3267C214.183 18.7 214.371 18.0506 214.599 17.3784C214.827 16.7062 215.095 16.0169 215.402 15.3105L220.991 1.98047H225.195L214.035 27.9741ZM225.692 3.79199C225.692 3.16536 225.92 2.62419 226.375 2.16846C226.843 1.71273 227.395 1.48486 228.033 1.48486C228.694 1.48486 229.241 1.70703 229.674 2.15137C230.118 2.58431 230.34 3.13118 230.34 3.79199C230.34 4.4528 230.118 5.01107 229.674 5.4668C229.229 5.91113 228.683 6.1333 228.033 6.1333C227.395 6.1333 226.843 5.90544 226.375 5.44971C225.92 4.98258 225.692 4.43001 225.692 3.79199ZM226.188 27V10.7988H229.896V27H226.188ZM233.982 27V0.510742H237.69V27H233.982ZM241.776 27V0.510742H245.485V27H241.776ZM264.644 27H260.935V24.8979C260.274 25.8322 259.5 26.5272 258.611 26.9829C257.734 27.4386 256.725 27.6665 255.586 27.6665C253.296 27.6665 251.49 26.8861 250.169 25.3252C248.858 23.7529 248.203 21.6053 248.203 18.8823C248.203 16.2961 248.876 14.2111 250.22 12.6274C251.564 11.0324 253.319 10.2349 255.484 10.2349C256.805 10.2349 257.933 10.514 258.867 11.0723C259.813 11.6191 260.502 12.411 260.935 13.4478V10.7988H264.644V27ZM261.038 18.8481C261.038 17.1733 260.645 15.8688 259.859 14.9346C259.084 14.0003 257.996 13.5332 256.594 13.5332C255.193 13.5332 254.088 14.0174 253.279 14.9858C252.481 15.9429 252.083 17.2759 252.083 18.9849C252.083 20.7052 252.47 22.0326 253.245 22.9668C254.02 23.901 255.113 24.3682 256.526 24.3682C257.859 24.3682 258.941 23.8612 259.773 22.8472C260.616 21.8332 261.038 20.5002 261.038 18.8481ZM266.508 24.0605L269.584 22.3857C269.812 23.1947 270.233 23.8099 270.849 24.2314C271.464 24.653 272.256 24.8638 273.224 24.8638C274.056 24.8638 274.705 24.6758 275.172 24.2998C275.651 23.9124 275.89 23.3883 275.89 22.7275C275.89 21.8503 275.047 21.0983 273.361 20.4717C272.791 20.2666 272.353 20.0957 272.045 19.959C270.313 19.2412 269.1 18.512 268.405 17.7715C267.721 17.0309 267.379 16.1309 267.379 15.0713C267.379 13.6243 267.943 12.4508 269.071 11.5508C270.211 10.6507 271.715 10.2007 273.583 10.2007C274.836 10.2007 275.907 10.4342 276.796 10.9014C277.696 11.3571 278.351 12.0122 278.761 12.8667L276.129 14.6782C275.936 14.1655 275.594 13.7611 275.104 13.4648C274.626 13.1572 274.067 13.0034 273.429 13.0034C272.723 13.0034 272.153 13.1743 271.72 13.5161C271.299 13.8465 271.088 14.2909 271.088 14.8491C271.088 15.6922 272.045 16.4613 273.959 17.1562C274.563 17.3727 275.03 17.5493 275.36 17.686C276.853 18.2785 277.918 18.9507 278.556 19.7026C279.206 20.4432 279.53 21.3717 279.53 22.4883C279.53 24.1061 278.944 25.3765 277.77 26.2993C276.597 27.2108 274.979 27.6665 272.917 27.6665C271.333 27.6665 270.017 27.3703 268.969 26.7778C267.921 26.1854 267.1 25.2796 266.508 24.0605ZM6.93848 54.6445H7.67334C9.82666 54.6445 11.2565 54.3939 11.9629 53.8926C12.6693 53.3913 13.0225 52.5026 13.0225 51.2266C13.0225 49.848 12.6408 48.8796 11.8774 48.3213C11.1255 47.7516 9.72412 47.4668 7.67334 47.4668H6.93848V54.6445ZM6.68213 57.8062V69H2.87109V43.9805H8.54492C10.2083 43.9805 11.4958 44.0887 12.4072 44.3052C13.3301 44.5216 14.1162 44.8805 14.7656 45.3818C15.5404 45.9857 16.1385 46.7661 16.5601 47.7231C16.9816 48.6802 17.1924 49.7284 17.1924 50.8677C17.1924 52.8729 16.7082 54.4451 15.7397 55.5845C14.7713 56.7124 13.3415 57.3903 11.4502 57.6182L20.0635 69H15.4663L7.14355 57.8062H6.68213ZM35.4115 69H31.703V66.8979C31.0422 67.8322 30.2675 68.5272 29.3788 68.9829C28.5015 69.4386 27.4932 69.6665 26.3539 69.6665C24.0639 69.6665 22.258 68.8861 20.9364 67.3252C19.6262 65.7529 18.9711 63.6053 18.9711 60.8823C18.9711 58.2961 19.6433 56.2111 20.9877 54.6274C22.3321 53.0324 24.0867 52.2349 26.2514 52.2349C27.573 52.2349 28.7009 52.514 29.6352 53.0723C30.5808 53.6191 31.2701 54.411 31.703 55.4478V52.7988H35.4115V69ZM31.8056 60.8481C31.8056 59.1733 31.4125 57.8688 30.6264 56.9346C29.8516 56.0003 28.7636 55.5332 27.3622 55.5332C25.9608 55.5332 24.8557 56.0174 24.0468 56.9858C23.2493 57.9429 22.8505 59.2759 22.8505 60.9849C22.8505 62.7052 23.2379 64.0326 24.0126 64.9668C24.7873 65.901 25.8811 66.3682 27.2938 66.3682C28.6269 66.3682 29.7092 65.8612 30.5409 64.8472C31.384 63.8332 31.8056 62.5002 31.8056 60.8481ZM44.8294 69.9741L36.3357 52.7988H40.386L43.9236 60.9507C44.0376 61.2013 44.1743 61.5773 44.3338 62.0786C44.4933 62.5799 44.6585 63.1781 44.8294 63.873C44.9433 63.3831 45.0743 62.8989 45.2225 62.4204C45.382 61.9305 45.57 61.4406 45.7864 60.9507L49.3069 52.7988H53.3401L44.8294 69.9741ZM69.5256 69H65.8171V66.8979C65.1563 67.8322 64.3815 68.5272 63.4929 68.9829C62.6156 69.4386 61.6073 69.6665 60.468 69.6665C58.1779 69.6665 56.3721 68.8861 55.0505 67.3252C53.7403 65.7529 53.0852 63.6053 53.0852 60.8823C53.0852 58.2961 53.7574 56.2111 55.1018 54.6274C56.4462 53.0324 58.2007 52.2349 60.3654 52.2349C61.687 52.2349 62.815 52.514 63.7492 53.0723C64.6949 53.6191 65.3841 54.411 65.8171 55.4478V52.7988H69.5256V69ZM65.9196 60.8481C65.9196 59.1733 65.5266 57.8688 64.7404 56.9346C63.9657 56.0003 62.8776 55.5332 61.4763 55.5332C60.0749 55.5332 58.9698 56.0174 58.1608 56.9858C57.3633 57.9429 56.9646 59.2759 56.9646 60.9849C56.9646 62.7052 57.3519 64.0326 58.1267 64.9668C58.9014 65.901 59.9951 66.3682 61.4079 66.3682C62.7409 66.3682 63.8233 65.8612 64.655 64.8472C65.4981 63.8332 65.9196 62.5002 65.9196 60.8481ZM73.4234 69V42.5107H77.1319V69H73.4234ZM81.0469 69V42.5107H84.7554V59.5151L91.54 52.7988H96.1201L88.7715 59.9424L96.8208 69H92.0356L84.7554 60.6431V69H81.0469ZM110.46 60.9507C110.46 59.4468 109.976 58.1764 109.007 57.1396C108.039 56.0915 106.854 55.5674 105.453 55.5674C104.063 55.5674 102.878 56.0915 101.898 57.1396C100.929 58.1764 100.445 59.4468 100.445 60.9507C100.445 62.4546 100.929 63.7306 101.898 64.7788C102.878 65.8156 104.063 66.334 105.453 66.334C106.843 66.334 108.022 65.8156 108.99 64.7788C109.97 63.7306 110.46 62.4546 110.46 60.9507ZM96.5316 60.9165C96.5316 59.7316 96.7538 58.6151 97.1981 57.5669C97.6539 56.5073 98.3033 55.5674 99.1464 54.7471C99.9781 53.9382 100.935 53.3172 102.017 52.8843C103.1 52.4513 104.233 52.2349 105.418 52.2349C106.637 52.2349 107.782 52.4513 108.853 52.8843C109.936 53.3172 110.904 53.9552 111.759 54.7983C112.613 55.63 113.263 56.57 113.707 57.6182C114.151 58.6663 114.373 59.7658 114.373 60.9165C114.373 62.1128 114.151 63.235 113.707 64.2832C113.274 65.3314 112.636 66.2599 111.793 67.0688C110.904 67.9233 109.919 68.5671 108.836 69C107.754 69.4443 106.615 69.6665 105.418 69.6665C104.245 69.6665 103.117 69.4443 102.035 69C100.952 68.5671 99.9895 67.9347 99.1464 67.103C98.2919 66.2599 97.6425 65.3143 97.1981 64.2661C96.7538 63.2179 96.5316 62.1014 96.5316 60.9165ZM117.075 69V42.5107H120.783V69H117.075ZM140.301 61.4463H127.347C127.439 62.9616 127.889 64.1465 128.697 65.001C129.506 65.8441 130.583 66.2656 131.927 66.2656C133.124 66.2656 134.121 66.015 134.918 65.5137C135.716 65.0124 136.411 64.2035 137.003 63.0869L140.131 64.8301C139.219 66.4593 138.091 67.6727 136.747 68.4702C135.402 69.2677 133.824 69.6665 132.013 69.6665C129.415 69.6665 127.347 68.8747 125.809 67.291C124.271 65.7074 123.502 63.5939 123.502 60.9507C123.502 58.41 124.294 56.325 125.878 54.6958C127.473 53.0552 129.518 52.2349 132.013 52.2349C134.622 52.2349 136.656 52.9811 138.114 54.4736C139.572 55.9661 140.301 58.0568 140.301 60.7456V61.4463ZM136.456 58.9512C136.308 57.7891 135.864 56.9061 135.123 56.3022C134.383 55.687 133.369 55.3794 132.081 55.3794C130.862 55.3794 129.882 55.6756 129.142 56.2681C128.401 56.8605 127.883 57.7549 127.587 58.9512H136.456ZM145.498 64.7617L148.831 65.9922L144.387 75.1523L142.183 74.2808L145.498 64.7617ZM181.817 56.644C181.771 56.4504 181.697 55.9149 181.595 55.0376C181.503 54.3084 181.424 53.7046 181.355 53.2261C181.253 53.7957 181.105 54.3654 180.911 54.9351C180.729 55.5047 180.495 56.0858 180.21 56.6782L173.665 70.0083L167.12 56.4048C166.846 55.8465 166.607 55.3053 166.402 54.7812C166.208 54.2572 166.037 53.7388 165.889 53.2261C165.878 53.7502 165.832 54.3027 165.752 54.8838C165.684 55.4535 165.576 56.0516 165.428 56.6782L162.745 69H159.002L164.915 42.9209L172.298 58.7119C172.412 58.9626 172.583 59.3784 172.81 59.9595C173.05 60.5405 173.335 61.2583 173.665 62.1128C173.904 61.395 174.28 60.4836 174.793 59.3784C174.93 59.0822 175.032 58.8543 175.1 58.6948L182.312 42.9209L188.362 69H184.585L181.817 56.644ZM205.522 61.4463H192.568C192.659 62.9616 193.109 64.1465 193.918 65.001C194.727 65.8441 195.803 66.2656 197.148 66.2656C198.344 66.2656 199.341 66.015 200.138 65.5137C200.936 65.0124 201.631 64.2035 202.223 63.0869L205.351 64.8301C204.439 66.4593 203.311 67.6727 201.967 68.4702C200.623 69.2677 199.045 69.6665 197.233 69.6665C194.636 69.6665 192.568 68.8747 191.03 67.291C189.492 65.7074 188.722 63.5939 188.722 60.9507C188.722 58.41 189.514 56.325 191.098 54.6958C192.693 53.0552 194.738 52.2349 197.233 52.2349C199.842 52.2349 201.876 52.9811 203.334 54.4736C204.793 55.9661 205.522 58.0568 205.522 60.7456V61.4463ZM201.677 58.9512C201.528 57.7891 201.084 56.9061 200.344 56.3022C199.603 55.687 198.589 55.3794 197.302 55.3794C196.082 55.3794 195.103 55.6756 194.362 56.2681C193.622 56.8605 193.103 57.7549 192.807 58.9512H201.677ZM219.639 60.8481C219.639 59.1733 219.246 57.8688 218.46 56.9346C217.685 56.0003 216.597 55.5332 215.196 55.5332C213.795 55.5332 212.689 56.0174 211.881 56.9858C211.083 57.9429 210.684 59.2759 210.684 60.9849C210.684 62.7052 211.072 64.0326 211.846 64.9668C212.621 65.901 213.715 66.3682 215.128 66.3682C216.472 66.3682 217.56 65.8669 218.392 64.8643C219.224 63.8503 219.639 62.5116 219.639 60.8481ZM219.537 42.5107H223.245V69H219.537V66.8979C218.876 67.8322 218.101 68.5272 217.213 68.9829C216.335 69.4386 215.327 69.6665 214.188 69.6665C211.898 69.6665 210.092 68.8861 208.77 67.3252C207.46 65.7529 206.805 63.6053 206.805 60.8823C206.805 58.2961 207.477 56.2111 208.821 54.6274C210.166 53.0324 211.92 52.2349 214.085 52.2349C215.407 52.2349 216.535 52.514 217.469 53.0723C218.415 53.6191 219.104 54.411 219.537 55.4478V42.5107ZM239.072 57.4131C238.502 56.7865 237.836 56.3079 237.072 55.9775C236.32 55.6471 235.506 55.4819 234.629 55.4819C233.113 55.4819 231.9 55.9718 230.988 56.9517C230.077 57.9315 229.621 59.2303 229.621 60.8481C229.621 62.5343 230.077 63.8617 230.988 64.8301C231.911 65.7871 233.182 66.2656 234.799 66.2656C235.699 66.2656 236.503 66.1004 237.209 65.77C237.915 65.4282 238.536 64.9155 239.072 64.2319V68.5044C238.388 68.8918 237.653 69.1823 236.867 69.376C236.093 69.5697 235.267 69.6665 234.389 69.6665C231.849 69.6665 229.775 68.8576 228.169 67.2397C226.573 65.6219 225.776 63.5256 225.776 60.9507C225.776 58.3416 226.602 56.2396 228.254 54.6445C229.917 53.0381 232.088 52.2349 234.765 52.2349C235.608 52.2349 236.383 52.3203 237.089 52.4912C237.796 52.6507 238.457 52.9014 239.072 53.2432V57.4131ZM241.466 69V42.5107H244.952V55.4478C245.693 54.3312 246.564 53.5166 247.567 53.0039C248.569 52.4912 249.789 52.2349 251.224 52.2349C252.432 52.2349 253.457 52.4285 254.3 52.8159C255.155 53.1919 255.821 53.7559 256.3 54.5078C256.585 54.9521 256.79 55.4705 256.915 56.063C257.04 56.6554 257.103 57.6922 257.103 59.1733V69H253.36V60.6772C253.36 58.5467 253.098 57.134 252.574 56.439C252.062 55.7326 251.144 55.3794 249.823 55.3794C248.957 55.3794 248.182 55.5389 247.499 55.8579C246.826 56.1769 246.297 56.627 245.909 57.208C245.636 57.5954 245.442 58.0967 245.328 58.7119C245.226 59.3158 245.174 60.2842 245.174 61.6172V69H241.466ZM275.886 69H272.178V66.8979C271.517 67.8322 270.742 68.5272 269.853 68.9829C268.976 69.4386 267.968 69.6665 266.829 69.6665C264.538 69.6665 262.733 68.8861 261.411 67.3252C260.101 65.7529 259.446 63.6053 259.446 60.8823C259.446 58.2961 260.118 56.2111 261.462 54.6274C262.807 53.0324 264.561 52.2349 266.726 52.2349C268.048 52.2349 269.176 52.514 270.11 53.0723C271.055 53.6191 271.745 54.411 272.178 55.4478V52.7988H275.886V69ZM272.28 60.8481C272.28 59.1733 271.887 57.8688 271.101 56.9346C270.326 56.0003 269.238 55.5332 267.837 55.5332C266.435 55.5332 265.33 56.0174 264.521 56.9858C263.724 57.9429 263.325 59.2759 263.325 60.9849C263.325 62.7052 263.712 64.0326 264.487 64.9668C265.262 65.901 266.356 66.3682 267.768 66.3682C269.101 66.3682 270.184 65.8612 271.016 64.8472C271.859 63.8332 272.28 62.5002 272.28 60.8481ZM279.784 69V42.5107H283.492V69H279.784Z" fill="white"/>
</svg>
