<svg width="333" height="119" viewBox="0 0 333 119" fill="none" xmlns="http://www.w3.org/2000/svg">
<path d="M7.40869 13.7725C6.16683 13.237 5.25537 12.5363 4.67432 11.6704C4.09326 10.8045 3.80273 9.72217 3.80273 8.42334C3.80273 6.41813 4.50911 4.80029 5.92188 3.56982C7.33464 2.33936 9.20312 1.72412 11.5273 1.72412C13.9085 1.72412 15.7998 2.35075 17.2012 3.604C18.6025 4.84587 19.3032 6.50928 19.3032 8.59424C19.3032 9.82471 18.9956 10.8843 18.3804 11.7729C17.7765 12.6502 16.8822 13.3167 15.6973 13.7725C17.0872 14.2282 18.1753 15.0371 18.9614 16.1992C19.7476 17.3499 20.1406 18.7114 20.1406 20.2837C20.1406 22.5851 19.3773 24.391 17.8506 25.7012C16.3353 27.0114 14.2275 27.6665 11.5273 27.6665C8.87272 27.6665 6.78206 27.0114 5.25537 25.7012C3.72868 24.391 2.96533 22.6079 2.96533 20.3521C2.96533 18.7114 3.3527 17.3215 4.12744 16.1821C4.90218 15.0314 5.99593 14.2282 7.40869 13.7725ZM11.6128 5.02246C10.4279 5.02246 9.49365 5.33577 8.81006 5.9624C8.12646 6.57764 7.78467 7.42074 7.78467 8.4917C7.78467 9.53988 8.11507 10.3602 8.77588 10.9526C9.44808 11.5451 10.3652 11.8413 11.5273 11.8413C12.7236 11.8413 13.6522 11.5508 14.313 10.9697C14.9852 10.3773 15.3213 9.55127 15.3213 8.4917C15.3213 7.40934 14.9909 6.56055 14.3301 5.94531C13.6693 5.33008 12.7635 5.02246 11.6128 5.02246ZM11.5273 24.334C12.9971 24.334 14.1478 23.9523 14.9795 23.189C15.8112 22.4142 16.2271 21.349 16.2271 19.9932C16.2271 18.626 15.8112 17.555 14.9795 16.7803C14.1478 16.0055 12.9971 15.6182 11.5273 15.6182C10.0918 15.6182 8.95817 16.0112 8.12646 16.7974C7.29476 17.5835 6.87891 18.6488 6.87891 19.9932C6.87891 21.349 7.28906 22.4142 8.10938 23.189C8.92969 23.9523 10.069 24.334 11.5273 24.334ZM40.3251 14.9517C40.3251 18.9279 39.5219 22.0439 37.9154 24.2998C36.3204 26.5443 34.1215 27.6665 31.3188 27.6665C28.4818 27.6665 26.2715 26.5329 24.6879 24.2656C23.1156 21.987 22.3295 18.7912 22.3295 14.6782C22.3295 10.5994 23.127 7.42074 24.7221 5.14209C26.3171 2.86344 28.5331 1.72412 31.37 1.72412C34.2411 1.72412 36.4514 2.86914 38.0009 5.15918C39.5504 7.43783 40.3251 10.702 40.3251 14.9517ZM31.2504 24.1631C32.9138 24.1631 34.1614 23.3713 34.9931 21.7876C35.8362 20.1925 36.2577 17.8114 36.2577 14.644C36.2577 11.5679 35.8419 9.22656 35.0102 7.62012C34.1898 6.00228 32.9879 5.19336 31.4042 5.19336C29.7522 5.19336 28.5046 5.99658 27.6615 7.60303C26.8184 9.20947 26.3969 11.5793 26.3969 14.7124C26.3969 17.7544 26.8127 20.09 27.6444 21.7192C28.4875 23.3485 29.6895 24.1631 31.2504 24.1631ZM60.0823 14.9517C60.0823 18.9279 59.2791 22.0439 57.6727 24.2998C56.0776 26.5443 53.8787 27.6665 51.076 27.6665C48.2391 27.6665 46.0288 26.5329 44.4451 24.2656C42.8729 21.987 42.0867 18.7912 42.0867 14.6782C42.0867 10.5994 42.8842 7.42074 44.4793 5.14209C46.0743 2.86344 48.2903 1.72412 51.1272 1.72412C53.9983 1.72412 56.2086 2.86914 57.7581 5.15918C59.3076 7.43783 60.0823 10.702 60.0823 14.9517ZM51.0076 24.1631C52.671 24.1631 53.9186 23.3713 54.7503 21.7876C55.5934 20.1925 56.0149 17.8114 56.0149 14.644C56.0149 11.5679 55.5991 9.22656 54.7674 7.62012C53.9471 6.00228 52.7451 5.19336 51.1614 5.19336C49.5094 5.19336 48.2618 5.99658 47.4188 7.60303C46.5757 9.20947 46.1541 11.5793 46.1541 14.7124C46.1541 17.7544 46.57 20.09 47.4017 21.7192C48.2448 23.3485 49.4467 24.1631 51.0076 24.1631ZM70.1339 24.0605L73.2101 22.3857C73.4379 23.1947 73.8595 23.8099 74.4747 24.2314C75.0899 24.653 75.8818 24.8638 76.8502 24.8638C77.6819 24.8638 78.3313 24.6758 78.7984 24.2998C79.277 23.9124 79.5162 23.3883 79.5162 22.7275C79.5162 21.8503 78.6731 21.0983 76.9869 20.4717C76.4173 20.2666 75.9786 20.0957 75.671 19.959C73.9392 19.2412 72.7258 18.512 72.0309 17.7715C71.3473 17.0309 71.0055 16.1309 71.0055 15.0713C71.0055 13.6243 71.5694 12.4508 72.6974 11.5508C73.8367 10.6507 75.3406 10.2007 77.2091 10.2007C78.4623 10.2007 79.5333 10.4342 80.422 10.9014C81.322 11.3571 81.9771 12.0122 82.3873 12.8667L79.7555 14.6782C79.5618 14.1655 79.22 13.7611 78.7301 13.4648C78.2516 13.1572 77.6933 13.0034 77.0553 13.0034C76.3489 13.0034 75.7792 13.1743 75.3463 13.5161C74.9247 13.8465 74.714 14.2909 74.714 14.8491C74.714 15.6922 75.671 16.4613 77.5851 17.1562C78.1889 17.3727 78.656 17.5493 78.9864 17.686C80.4789 18.2785 81.5442 18.9507 82.1822 19.7026C82.8316 20.4432 83.1563 21.3717 83.1563 22.4883C83.1563 24.1061 82.5696 25.3765 81.3961 26.2993C80.2226 27.2108 78.6048 27.6665 76.5426 27.6665C74.9589 27.6665 73.643 27.3703 72.5948 26.7778C71.5466 26.1854 70.7263 25.2796 70.1339 24.0605ZM97.1372 18.8481C97.1372 17.1733 96.7441 15.8688 95.958 14.9346C95.1833 14.0003 94.0952 13.5332 92.6938 13.5332C91.2925 13.5332 90.1873 14.0174 89.3784 14.9858C88.5809 15.9429 88.1821 17.2759 88.1821 18.9849C88.1821 20.7052 88.5695 22.0326 89.3442 22.9668C90.119 23.901 91.2127 24.3682 92.6255 24.3682C93.9813 24.3682 95.0693 23.8669 95.8896 22.8643C96.7214 21.8617 97.1372 20.5229 97.1372 18.8481ZM100.743 34.6221H97.0347V24.8979C96.3739 25.8322 95.5991 26.5272 94.7104 26.9829C93.8332 27.4386 92.8249 27.6665 91.6855 27.6665C89.3955 27.6665 87.5897 26.8861 86.2681 25.3252C84.9578 23.7529 84.3027 21.6053 84.3027 18.8823C84.3027 16.2961 84.9749 14.2111 86.3193 12.6274C87.6637 11.0324 89.4183 10.2349 91.583 10.2349C92.9046 10.2349 94.0326 10.514 94.9668 11.0723C95.9124 11.6191 96.6017 12.411 97.0347 13.4478V10.7988H100.743V34.6221ZM104.949 25.103C104.949 24.4764 105.165 23.9409 105.598 23.4966C106.031 23.0522 106.561 22.8301 107.187 22.8301C107.814 22.8301 108.344 23.0522 108.777 23.4966C109.21 23.9409 109.426 24.4764 109.426 25.103C109.426 25.7183 109.21 26.2424 108.777 26.6753C108.344 27.0968 107.814 27.3076 107.187 27.3076C106.561 27.3076 106.031 27.0968 105.598 26.6753C105.165 26.2424 104.949 25.7183 104.949 25.103ZM128.484 27V15.5498L120.059 1.98047H124.331L129.578 10.4741C129.703 10.6906 129.857 10.9754 130.039 11.3286C130.233 11.6818 130.427 12.0635 130.62 12.4736C130.78 12.0749 130.945 11.6989 131.116 11.3457C131.298 10.9925 131.486 10.6678 131.68 10.3716L137.063 1.98047H141.131L132.517 15.5498V27H128.484ZM153.522 27H149.814V24.8979C149.153 25.8322 148.378 26.5272 147.489 26.9829C146.612 27.4386 145.604 27.6665 144.464 27.6665C142.174 27.6665 140.369 26.8861 139.047 25.3252C137.737 23.7529 137.082 21.6053 137.082 18.8823C137.082 16.2961 137.754 14.2111 139.098 12.6274C140.443 11.0324 142.197 10.2349 144.362 10.2349C145.684 10.2349 146.811 10.514 147.746 11.0723C148.691 11.6191 149.381 12.411 149.814 13.4478V10.7988H153.522V27ZM149.916 18.8481C149.916 17.1733 149.523 15.8688 148.737 14.9346C147.962 14.0003 146.874 13.5332 145.473 13.5332C144.071 13.5332 142.966 14.0174 142.157 14.9858C141.36 15.9429 140.961 17.2759 140.961 18.9849C140.961 20.7052 141.348 22.0326 142.123 22.9668C142.898 23.901 143.992 24.3682 145.404 24.3682C146.737 24.3682 147.82 23.8612 148.651 22.8472C149.495 21.8332 149.916 20.5002 149.916 18.8481ZM160.958 13.3794C161.356 12.3084 161.88 11.5166 162.53 11.0039C163.191 10.4912 164.005 10.2349 164.974 10.2349C165.498 10.2349 166.01 10.2975 166.512 10.4229C167.024 10.5482 167.526 10.7305 168.016 10.9697L166.683 14.1143C166.364 13.8864 166.016 13.7212 165.64 13.6187C165.276 13.5047 164.865 13.4478 164.41 13.4478C163.179 13.4478 162.296 13.9434 161.761 14.9346C161.225 15.9144 160.958 17.5664 160.958 19.8906V27H157.249V10.7646H160.958V13.3794ZM180.373 18.8481C180.373 17.1733 179.98 15.8688 179.194 14.9346C178.419 14.0003 177.331 13.5332 175.93 13.5332C174.528 13.5332 173.423 14.0174 172.614 14.9858C171.817 15.9429 171.418 17.2759 171.418 18.9849C171.418 20.7052 171.805 22.0326 172.58 22.9668C173.355 23.901 174.448 24.3682 175.861 24.3682C177.206 24.3682 178.294 23.8669 179.125 22.8643C179.957 21.8503 180.373 20.5116 180.373 18.8481ZM180.27 0.510742H183.979V27H180.27V24.8979C179.61 25.8322 178.835 26.5272 177.946 26.9829C177.069 27.4386 176.061 27.6665 174.921 27.6665C172.631 27.6665 170.825 26.8861 169.504 25.3252C168.194 23.7529 167.538 21.6053 167.538 18.8823C167.538 16.2961 168.211 14.2111 169.555 12.6274C170.899 11.0324 172.654 10.2349 174.819 10.2349C176.14 10.2349 177.268 10.514 178.203 11.0723C179.148 11.6191 179.837 12.411 180.27 13.4478V0.510742ZM185.843 24.0605L188.919 22.3857C189.147 23.1947 189.569 23.8099 190.184 24.2314C190.799 24.653 191.591 24.8638 192.559 24.8638C193.391 24.8638 194.04 24.6758 194.508 24.2998C194.986 23.9124 195.225 23.3883 195.225 22.7275C195.225 21.8503 194.382 21.0983 192.696 20.4717C192.126 20.2666 191.688 20.0957 191.38 19.959C189.648 19.2412 188.435 18.512 187.74 17.7715C187.056 17.0309 186.715 16.1309 186.715 15.0713C186.715 13.6243 187.279 12.4508 188.407 11.5508C189.546 10.6507 191.05 10.2007 192.918 10.2007C194.172 10.2007 195.242 10.4342 196.131 10.9014C197.031 11.3571 197.686 12.0122 198.096 12.8667L195.465 14.6782C195.271 14.1655 194.929 13.7611 194.439 13.4648C193.961 13.1572 193.402 13.0034 192.764 13.0034C192.058 13.0034 191.488 13.1743 191.055 13.5161C190.634 13.8465 190.423 14.2909 190.423 14.8491C190.423 15.6922 191.38 16.4613 193.294 17.1562C193.898 17.3727 194.365 17.5493 194.696 17.686C196.188 18.2785 197.253 18.9507 197.891 19.7026C198.541 20.4432 198.866 21.3717 198.866 22.4883C198.866 24.1061 198.279 25.3765 197.105 26.2993C195.932 27.2108 194.314 27.6665 192.252 27.6665C190.668 27.6665 189.352 27.3703 188.304 26.7778C187.256 26.1854 186.436 25.2796 185.843 24.0605ZM218.624 27.9741L207.464 1.98047H211.686L217.291 15.3105C217.622 16.0853 217.895 16.8031 218.111 17.4639C218.328 18.1133 218.499 18.7342 218.624 19.3267C218.772 18.7 218.96 18.0506 219.188 17.3784C219.416 16.7062 219.684 16.0169 219.991 15.3105L225.58 1.98047H229.784L218.624 27.9741ZM230.281 3.79199C230.281 3.16536 230.509 2.62419 230.964 2.16846C231.431 1.71273 231.984 1.48486 232.622 1.48486C233.283 1.48486 233.83 1.70703 234.263 2.15137C234.707 2.58431 234.929 3.13118 234.929 3.79199C234.929 4.4528 234.707 5.01107 234.263 5.4668C233.818 5.91113 233.271 6.1333 232.622 6.1333C231.984 6.1333 231.431 5.90544 230.964 5.44971C230.509 4.98258 230.281 4.43001 230.281 3.79199ZM230.776 27V10.7988H234.485V27H230.776ZM238.571 27V0.510742H242.279V27H238.571ZM246.365 27V0.510742H250.074V27H246.365ZM269.233 27H265.524V24.8979C264.863 25.8322 264.089 26.5272 263.2 26.9829C262.323 27.4386 261.314 27.6665 260.175 27.6665C257.885 27.6665 256.079 26.8861 254.758 25.3252C253.447 23.7529 252.792 21.6053 252.792 18.8823C252.792 16.2961 253.464 14.2111 254.809 12.6274C256.153 11.0324 257.908 10.2349 260.072 10.2349C261.394 10.2349 262.522 10.514 263.456 11.0723C264.402 11.6191 265.091 12.411 265.524 13.4478V10.7988H269.233V27ZM265.627 18.8481C265.627 17.1733 265.234 15.8688 264.447 14.9346C263.673 14.0003 262.585 13.5332 261.183 13.5332C259.782 13.5332 258.677 14.0174 257.868 14.9858C257.07 15.9429 256.672 17.2759 256.672 18.9849C256.672 20.7052 257.059 22.0326 257.834 22.9668C258.608 23.901 259.702 24.3682 261.115 24.3682C262.448 24.3682 263.53 23.8612 264.362 22.8472C265.205 21.8332 265.627 20.5002 265.627 18.8481ZM271.097 24.0605L274.173 22.3857C274.401 23.1947 274.822 23.8099 275.438 24.2314C276.053 24.653 276.845 24.8638 277.813 24.8638C278.645 24.8638 279.294 24.6758 279.761 24.2998C280.24 23.9124 280.479 23.3883 280.479 22.7275C280.479 21.8503 279.636 21.0983 277.95 20.4717C277.38 20.2666 276.941 20.0957 276.634 19.959C274.902 19.2412 273.689 18.512 272.994 17.7715C272.31 17.0309 271.968 16.1309 271.968 15.0713C271.968 13.6243 272.532 12.4508 273.66 11.5508C274.8 10.6507 276.303 10.2007 278.172 10.2007C279.425 10.2007 280.496 10.4342 281.385 10.9014C282.285 11.3571 282.94 12.0122 283.35 12.8667L280.718 14.6782C280.525 14.1655 280.183 13.7611 279.693 13.4648C279.214 13.1572 278.656 13.0034 278.018 13.0034C277.312 13.0034 276.742 13.1743 276.309 13.5161C275.888 13.8465 275.677 14.2909 275.677 14.8491C275.677 15.6922 276.634 16.4613 278.548 17.1562C279.152 17.3727 279.619 17.5493 279.949 17.686C281.442 18.2785 282.507 18.9507 283.145 19.7026C283.795 20.4432 284.119 21.3717 284.119 22.4883C284.119 24.1061 283.532 25.3765 282.359 26.2993C281.185 27.2108 279.568 27.6665 277.505 27.6665C275.922 27.6665 274.606 27.3703 273.558 26.7778C272.51 26.1854 271.689 25.2796 271.097 24.0605ZM19.064 69.9741L15.3213 61.5488C15.0365 60.8994 14.8029 60.3241 14.6206 59.8228C14.4383 59.3101 14.2731 58.8088 14.125 58.3188C13.8743 59.0594 13.6522 59.6974 13.4585 60.2329C13.2648 60.757 13.111 61.1501 12.9971 61.4121L9.15186 69.9741L0.760742 52.7988H4.7085L8.34863 60.6089C8.49674 60.9393 8.63916 61.395 8.77588 61.9761C8.92399 62.5457 9.04932 63.1781 9.15186 63.873C9.16325 63.4629 9.23161 63.0356 9.35693 62.5913C9.48226 62.147 9.69303 61.6001 9.98926 60.9507L13.9541 52.2007H14.2617L18.2949 60.9507C18.5456 61.4976 18.7279 62.0046 18.8418 62.4717C18.9671 62.9388 19.0412 63.4059 19.064 63.873C19.1665 63.2578 19.2975 62.6768 19.457 62.1299C19.6165 61.583 19.7988 61.0874 20.0039 60.6431L23.5757 52.7988H27.4893L19.064 69.9741ZM28.0888 45.792C28.0888 45.1654 28.3166 44.6242 28.7724 44.1685C29.2395 43.7127 29.7921 43.4849 30.4301 43.4849C31.0909 43.4849 31.6378 43.707 32.0707 44.1514C32.515 44.5843 32.7372 45.1312 32.7372 45.792C32.7372 46.4528 32.515 47.0111 32.0707 47.4668C31.6264 47.9111 31.0795 48.1333 30.4301 48.1333C29.7921 48.1333 29.2395 47.9054 28.7724 47.4497C28.3166 46.9826 28.0888 46.43 28.0888 45.792ZM28.5844 69V52.7988H32.2929V69H28.5844ZM37.0794 69V56.0459H34.2425V52.7988H37.0794V46.6636H40.7879V52.7988H43.6248V56.0459H40.7879V69H37.0794ZM45.4377 69V42.5107H48.924V55.4478C49.6646 54.3312 50.5362 53.5166 51.5388 53.0039C52.5414 52.4912 53.7604 52.2349 55.196 52.2349C56.4037 52.2349 57.4291 52.4285 58.2722 52.8159C59.1267 53.1919 59.7932 53.7559 60.2717 54.5078C60.5565 54.9521 60.7616 55.4705 60.8869 56.063C61.0122 56.6554 61.0749 57.6922 61.0749 59.1733V69H57.3322V60.6772C57.3322 58.5467 57.0702 57.134 56.5461 56.439C56.0334 55.7326 55.1162 55.3794 53.7946 55.3794C52.9287 55.3794 52.154 55.5389 51.4704 55.8579C50.7982 56.1769 50.2684 56.627 49.8811 57.208C49.6076 57.5954 49.4139 58.0967 49.3 58.7119C49.1975 59.3158 49.1462 60.2842 49.1462 61.6172V69H45.4377ZM88.7119 65.7529V69H71.9468L81.2949 57.8062C82.457 56.4048 83.3058 55.1743 83.8413 54.1147C84.3768 53.0552 84.6445 52.0924 84.6445 51.2266C84.6445 49.9847 84.2743 49.0106 83.5337 48.3042C82.8045 47.5864 81.8019 47.2275 80.5259 47.2275C79.3866 47.2275 78.4466 47.5864 77.7061 48.3042C76.9655 49.0106 76.5496 49.9448 76.4585 51.1069H72.5449C72.5449 48.8625 73.2969 47.0737 74.8008 45.7407C76.3047 44.3963 78.327 43.7241 80.8677 43.7241C83.283 43.7241 85.1857 44.3451 86.5757 45.5869C87.9771 46.8288 88.6777 48.5207 88.6777 50.6626C88.6777 52.1893 88.2733 53.7331 87.4644 55.2939C86.6668 56.8434 84.9692 59.0993 82.3716 62.0615L79.1929 65.7529H88.7119ZM110.537 56.9517C110.537 60.9279 109.734 64.0439 108.127 66.2998C106.532 68.5443 104.333 69.6665 101.531 69.6665C98.6937 69.6665 96.4835 68.5329 94.8998 66.2656C93.3275 63.987 92.5414 60.7912 92.5414 56.6782C92.5414 52.5994 93.3389 49.4207 94.934 47.1421C96.529 44.8634 98.745 43.7241 101.582 43.7241C104.453 43.7241 106.663 44.8691 108.213 47.1592C109.762 49.4378 110.537 52.702 110.537 56.9517ZM101.462 66.1631C103.126 66.1631 104.373 65.3713 105.205 63.7876C106.048 62.1925 106.47 59.8114 106.47 56.644C106.47 53.5679 106.054 51.2266 105.222 49.6201C104.402 48.0023 103.2 47.1934 101.616 47.1934C99.9641 47.1934 98.7165 47.9966 97.8734 49.603C97.0303 51.2095 96.6088 53.5793 96.6088 56.7124C96.6088 59.7544 97.0246 62.09 97.8563 63.7192C98.6994 65.3485 99.9014 66.1631 101.462 66.1631ZM122.964 69V56.0459H120.127V52.7988H122.964V48.458C122.964 46.3047 123.408 44.7153 124.297 43.6899C125.197 42.6646 126.587 42.1519 128.467 42.1519C128.866 42.1519 129.276 42.1803 129.697 42.2373C130.119 42.2943 130.546 42.3854 130.979 42.5107V45.8604C130.683 45.6895 130.381 45.5641 130.073 45.4844C129.777 45.3932 129.475 45.3477 129.168 45.3477C128.279 45.3477 127.641 45.6211 127.254 46.168C126.866 46.7148 126.673 47.6377 126.673 48.9365V52.7988H130.569V56.0459H126.673V69H122.964ZM147.387 61.4463H134.433C134.524 62.9616 134.974 64.1465 135.783 65.001C136.592 65.8441 137.668 66.2656 139.013 66.2656C140.209 66.2656 141.206 66.015 142.004 65.5137C142.801 65.0124 143.496 64.2035 144.088 63.0869L147.216 64.8301C146.304 66.4593 145.177 67.6727 143.832 68.4702C142.488 69.2677 140.91 69.6665 139.098 69.6665C136.501 69.6665 134.433 68.8747 132.895 67.291C131.357 65.7074 130.587 63.5939 130.587 60.9507C130.587 58.41 131.379 56.325 132.963 54.6958C134.558 53.0552 136.603 52.2349 139.098 52.2349C141.707 52.2349 143.741 52.9811 145.199 54.4736C146.658 55.9661 147.387 58.0568 147.387 60.7456V61.4463ZM143.542 58.9512C143.393 57.7891 142.949 56.9061 142.209 56.3022C141.468 55.687 140.454 55.3794 139.167 55.3794C137.948 55.3794 136.968 55.6756 136.227 56.2681C135.487 56.8605 134.968 57.7549 134.672 58.9512H143.542ZM165.469 61.4463H152.515C152.606 62.9616 153.056 64.1465 153.865 65.001C154.674 65.8441 155.751 66.2656 157.095 66.2656C158.292 66.2656 159.288 66.015 160.086 65.5137C160.883 65.0124 161.578 64.2035 162.171 63.0869L165.298 64.8301C164.387 66.4593 163.259 67.6727 161.915 68.4702C160.57 69.2677 158.992 69.6665 157.181 69.6665C154.583 69.6665 152.515 68.8747 150.977 67.291C149.439 65.7074 148.67 63.5939 148.67 60.9507C148.67 58.41 149.462 56.325 151.045 54.6958C152.64 53.0552 154.686 52.2349 157.181 52.2349C159.79 52.2349 161.823 52.9811 163.282 54.4736C164.74 55.9661 165.469 58.0568 165.469 60.7456V61.4463ZM161.624 58.9512C161.476 57.7891 161.032 56.9061 160.291 56.3022C159.55 55.687 158.536 55.3794 157.249 55.3794C156.03 55.3794 155.05 55.6756 154.31 56.2681C153.569 56.8605 153.051 57.7549 152.754 58.9512H161.624ZM168.82 69V56.0459H165.983V52.7988H168.82V46.6636H172.529V52.7988H175.366V56.0459H172.529V69H168.82ZM186.648 69V43.9805H200.61V47.4326H190.715V53.6704H200.61V57.2422H190.715V69H186.648ZM206.422 55.3794C206.821 54.3084 207.345 53.5166 207.994 53.0039C208.655 52.4912 209.47 52.2349 210.438 52.2349C210.962 52.2349 211.475 52.2975 211.976 52.4229C212.489 52.5482 212.99 52.7305 213.48 52.9697L212.147 56.1143C211.828 55.8864 211.481 55.7212 211.105 55.6187C210.74 55.5047 210.33 55.4478 209.874 55.4478C208.644 55.4478 207.761 55.9434 207.225 56.9346C206.69 57.9144 206.422 59.5664 206.422 61.8906V69H202.713V52.7646H206.422V55.3794ZM226.931 60.9507C226.931 59.4468 226.447 58.1764 225.479 57.1396C224.51 56.0915 223.325 55.5674 221.924 55.5674C220.534 55.5674 219.349 56.0915 218.369 57.1396C217.401 58.1764 216.917 59.4468 216.917 60.9507C216.917 62.4546 217.401 63.7306 218.369 64.7788C219.349 65.8156 220.534 66.334 221.924 66.334C223.314 66.334 224.493 65.8156 225.461 64.7788C226.441 63.7306 226.931 62.4546 226.931 60.9507ZM213.003 60.9165C213.003 59.7316 213.225 58.6151 213.669 57.5669C214.125 56.5073 214.775 55.5674 215.618 54.7471C216.449 53.9382 217.406 53.3172 218.489 52.8843C219.571 52.4513 220.705 52.2349 221.89 52.2349C223.109 52.2349 224.254 52.4513 225.325 52.8843C226.407 53.3172 227.375 53.9552 228.23 54.7983C229.084 55.63 229.734 56.57 230.178 57.6182C230.623 58.6663 230.845 59.7658 230.845 60.9165C230.845 62.1128 230.623 63.235 230.178 64.2832C229.745 65.3314 229.107 66.2599 228.264 67.0688C227.375 67.9233 226.39 68.5671 225.308 69C224.225 69.4443 223.086 69.6665 221.89 69.6665C220.716 69.6665 219.588 69.4443 218.506 69C217.424 68.5671 216.461 67.9347 215.618 67.103C214.763 66.2599 214.114 65.3143 213.669 64.2661C213.225 63.2179 213.003 62.1014 213.003 60.9165ZM233.375 69V52.7988H236.862V55.4478C237.602 54.3312 238.474 53.5166 239.476 53.0039C240.479 52.4912 241.698 52.2349 243.134 52.2349C244.341 52.2349 245.367 52.4285 246.21 52.8159C247.064 53.1919 247.731 53.7559 248.209 54.5078C248.494 54.9521 248.699 55.4705 248.825 56.063C248.95 56.6554 249.013 57.6922 249.013 59.1733V69H245.27V60.6772C245.27 58.5467 245.008 57.134 244.484 56.439C243.971 55.7326 243.054 55.3794 241.732 55.3794C240.866 55.3794 240.092 55.5389 239.408 55.8579C238.736 56.1769 238.206 56.627 237.819 57.208C237.545 57.5954 237.352 58.0967 237.238 58.7119C237.135 59.3158 237.084 60.2842 237.084 61.6172V69H233.375ZM253.423 69V56.0459H250.586V52.7988H253.423V46.6636H257.132V52.7988H259.969V56.0459H257.132V69H253.423ZM276.634 69V57.5498L268.209 43.9805H272.481L277.728 52.4741C277.853 52.6906 278.007 52.9754 278.189 53.3286C278.383 53.6818 278.576 54.0635 278.77 54.4736C278.93 54.0749 279.095 53.6989 279.266 53.3457C279.448 52.9925 279.636 52.6678 279.83 52.3716L285.213 43.9805H289.28L280.667 57.5498V69H276.634ZM301.672 69H297.963V66.8979C297.303 67.8322 296.528 68.5272 295.639 68.9829C294.762 69.4386 293.754 69.6665 292.614 69.6665C290.324 69.6665 288.518 68.8861 287.197 67.3252C285.887 65.7529 285.231 63.6053 285.231 60.8823C285.231 58.2961 285.904 56.2111 287.248 54.6274C288.592 53.0324 290.347 52.2349 292.512 52.2349C293.833 52.2349 294.961 52.514 295.896 53.0723C296.841 53.6191 297.53 54.411 297.963 55.4478V52.7988H301.672V69ZM298.066 60.8481C298.066 59.1733 297.673 57.8688 296.887 56.9346C296.112 56.0003 295.024 55.5332 293.623 55.5332C292.221 55.5332 291.116 56.0174 290.307 56.9858C289.51 57.9429 289.111 59.2759 289.111 60.9849C289.111 62.7052 289.498 64.0326 290.273 64.9668C291.048 65.901 292.141 66.3682 293.554 66.3682C294.887 66.3682 295.97 65.8612 296.801 64.8472C297.644 63.8332 298.066 62.5002 298.066 60.8481ZM309.107 55.3794C309.506 54.3084 310.03 53.5166 310.68 53.0039C311.34 52.4912 312.155 52.2349 313.123 52.2349C313.648 52.2349 314.16 52.2975 314.662 52.4229C315.174 52.5482 315.676 52.7305 316.165 52.9697L314.832 56.1143C314.513 55.8864 314.166 55.7212 313.79 55.6187C313.425 55.5047 313.015 55.4478 312.559 55.4478C311.329 55.4478 310.446 55.9434 309.911 56.9346C309.375 57.9144 309.107 59.5664 309.107 61.8906V69H305.399V52.7646H309.107V55.3794ZM328.523 60.8481C328.523 59.1733 328.13 57.8688 327.344 56.9346C326.569 56.0003 325.481 55.5332 324.079 55.5332C322.678 55.5332 321.573 56.0174 320.764 56.9858C319.966 57.9429 319.568 59.2759 319.568 60.9849C319.568 62.7052 319.955 64.0326 320.73 64.9668C321.505 65.901 322.598 66.3682 324.011 66.3682C325.355 66.3682 326.444 65.8669 327.275 64.8643C328.107 63.8503 328.523 62.5116 328.523 60.8481ZM328.42 42.5107H332.129V69H328.42V66.8979C327.759 67.8322 326.985 68.5272 326.096 68.9829C325.219 69.4386 324.21 69.6665 323.071 69.6665C320.781 69.6665 318.975 68.8861 317.654 67.3252C316.343 65.7529 315.688 63.6053 315.688 60.8823C315.688 58.2961 316.36 56.2111 317.705 54.6274C319.049 53.0324 320.804 52.2349 322.969 52.2349C324.29 52.2349 325.418 52.514 326.352 53.0723C327.298 53.6191 327.987 54.411 328.42 55.4478V42.5107ZM18.8076 111H15.0991V108.898C14.4383 109.832 13.6636 110.527 12.7749 110.983C11.8976 111.439 10.8893 111.667 9.75 111.667C7.45996 111.667 5.65413 110.886 4.33252 109.325C3.0223 107.753 2.36719 105.605 2.36719 102.882C2.36719 100.296 3.03939 98.2111 4.38379 96.6274C5.72819 95.0324 7.48275 94.2349 9.64746 94.2349C10.9691 94.2349 12.097 94.514 13.0312 95.0723C13.9769 95.6191 14.6662 96.411 15.0991 97.4478V94.7988H18.8076V111ZM15.2017 102.848C15.2017 101.173 14.8086 99.8688 14.0225 98.9346C13.2477 98.0003 12.1597 97.5332 10.7583 97.5332C9.35693 97.5332 8.25179 98.0174 7.44287 98.9858C6.64535 99.9429 6.24658 101.276 6.24658 102.985C6.24658 104.705 6.63395 106.033 7.40869 106.967C8.18343 107.901 9.27718 108.368 10.6899 108.368C12.0229 108.368 13.1053 107.861 13.937 106.847C14.7801 105.833 15.2017 104.5 15.2017 102.848ZM22.5346 111V94.7988H26.0209V97.4478C26.7615 96.3312 27.633 95.5166 28.6356 95.0039C29.6382 94.4912 30.8573 94.2349 32.2929 94.2349C33.5006 94.2349 34.5259 94.4285 35.369 94.8159C36.2235 95.1919 36.89 95.7559 37.3686 96.5078C37.6534 96.9521 37.8585 97.4705 37.9838 98.063C38.1091 98.6554 38.1718 99.6922 38.1718 101.173V111H34.4291V102.677C34.4291 100.547 34.1671 99.134 33.643 98.439C33.1303 97.7326 32.2131 97.3794 30.8915 97.3794C30.0256 97.3794 29.2509 97.5389 28.5673 97.8579C27.8951 98.1769 27.3653 98.627 26.9779 99.208C26.7045 99.5954 26.5108 100.097 26.3969 100.712C26.2943 101.316 26.2431 102.284 26.2431 103.617V111H22.5346ZM53.3489 102.848C53.3489 101.173 52.9559 99.8688 52.1697 98.9346C51.395 98.0003 50.3069 97.5332 48.9056 97.5332C47.5042 97.5332 46.3991 98.0174 45.5901 98.9858C44.7926 99.9429 44.3938 101.276 44.3938 102.985C44.3938 104.705 44.7812 106.033 45.556 106.967C46.3307 107.901 47.4244 108.368 48.8372 108.368C50.1816 108.368 51.2697 107.867 52.1014 106.864C52.9331 105.85 53.3489 104.512 53.3489 102.848ZM53.2464 84.5107H56.9549V111H53.2464V108.898C52.5856 109.832 51.8108 110.527 50.9222 110.983C50.0449 111.439 49.0366 111.667 47.8973 111.667C45.6072 111.667 43.8014 110.886 42.4798 109.325C41.1696 107.753 40.5145 105.605 40.5145 102.882C40.5145 100.296 41.1867 98.2111 42.5311 96.6274C43.8755 95.0324 45.63 94.2349 47.7947 94.2349C49.1163 94.2349 50.2443 94.514 51.1785 95.0723C52.1242 95.6191 52.8134 96.411 53.2464 97.4478V84.5107ZM84.7799 107.753V111H68.0147L77.3629 99.8062C78.525 98.4048 79.3738 97.1743 79.9093 96.1147C80.4448 95.0552 80.7125 94.0924 80.7125 93.2266C80.7125 91.9847 80.3422 91.0106 79.6017 90.3042C78.8725 89.5864 77.8699 89.2275 76.5938 89.2275C75.4545 89.2275 74.5146 89.5864 73.774 90.3042C73.0335 91.0106 72.6176 91.9448 72.5265 93.1069H68.6129C68.6129 90.8625 69.3648 89.0737 70.8688 87.7407C72.3727 86.3963 74.395 85.7241 76.9356 85.7241C79.351 85.7241 81.2537 86.3451 82.6437 87.5869C84.045 88.8288 84.7457 90.5207 84.7457 92.6626C84.7457 94.1893 84.3412 95.7331 83.5323 97.2939C82.7348 98.8434 81.0372 101.099 78.4396 104.062L75.2608 107.753H84.7799ZM106.605 98.9517C106.605 102.928 105.802 106.044 104.195 108.3C102.6 110.544 100.401 111.667 97.5986 111.667C94.7617 111.667 92.5514 110.533 90.9678 108.266C89.3955 105.987 88.6094 102.791 88.6094 98.6782C88.6094 94.5994 89.4069 91.4207 91.002 89.1421C92.597 86.8634 94.813 85.7241 97.6499 85.7241C100.521 85.7241 102.731 86.8691 104.281 89.1592C105.83 91.4378 106.605 94.702 106.605 98.9517ZM97.5303 108.163C99.1937 108.163 100.441 107.371 101.273 105.788C102.116 104.193 102.538 101.811 102.538 98.644C102.538 95.5679 102.122 93.2266 101.29 91.6201C100.47 90.0023 99.2677 89.1934 97.6841 89.1934C96.0321 89.1934 94.7845 89.9966 93.9414 91.603C93.0983 93.2095 92.6768 95.5793 92.6768 98.7124C92.6768 101.754 93.0926 104.09 93.9243 105.719C94.7674 107.348 95.9694 108.163 97.5303 108.163ZM118.827 111V85.9805H132.789V89.4326H122.894V95.6704H132.789V99.2422H122.894V111H118.827ZM151.111 103.446H138.157C138.248 104.962 138.698 106.146 139.507 107.001C140.316 107.844 141.393 108.266 142.737 108.266C143.933 108.266 144.93 108.015 145.728 107.514C146.525 107.012 147.22 106.203 147.813 105.087L150.94 106.83C150.029 108.459 148.901 109.673 147.556 110.47C146.212 111.268 144.634 111.667 142.822 111.667C140.225 111.667 138.157 110.875 136.619 109.291C135.081 107.707 134.312 105.594 134.312 102.951C134.312 100.41 135.104 98.325 136.687 96.6958C138.282 95.0552 140.327 94.2349 142.822 94.2349C145.432 94.2349 147.465 94.9811 148.924 96.4736C150.382 97.9661 151.111 100.057 151.111 102.746V103.446ZM147.266 100.951C147.118 99.7891 146.673 98.9061 145.933 98.3022C145.192 97.687 144.178 97.3794 142.891 97.3794C141.672 97.3794 140.692 97.6756 139.951 98.2681C139.211 98.8605 138.692 99.7549 138.396 100.951H147.266ZM169.193 103.446H156.239C156.33 104.962 156.781 106.146 157.589 107.001C158.398 107.844 159.475 108.266 160.819 108.266C162.016 108.266 163.013 108.015 163.81 107.514C164.608 107.012 165.303 106.203 165.895 105.087L169.023 106.83C168.111 108.459 166.983 109.673 165.639 110.47C164.294 111.268 162.716 111.667 160.905 111.667C158.307 111.667 156.239 110.875 154.701 109.291C153.163 107.707 152.394 105.594 152.394 102.951C152.394 100.41 153.186 98.325 154.77 96.6958C156.365 95.0552 158.41 94.2349 160.905 94.2349C163.514 94.2349 165.548 94.9811 167.006 96.4736C168.464 97.9661 169.193 100.057 169.193 102.746V103.446ZM165.348 100.951C165.2 99.7891 164.756 98.9061 164.015 98.3022C163.275 97.687 162.261 97.3794 160.973 97.3794C159.754 97.3794 158.774 97.6756 158.034 98.2681C157.293 98.8605 156.775 99.7549 156.479 100.951H165.348ZM172.544 111V98.0459H169.708V94.7988H172.544V88.6636H176.253V94.7988H179.09V98.0459H176.253V111H172.544ZM194.354 96.542H195.909C197.846 96.542 199.213 96.2799 200.011 95.7559C200.819 95.2204 201.224 94.326 201.224 93.0728C201.224 91.7056 200.854 90.7485 200.113 90.2017C199.373 89.6434 197.971 89.3643 195.909 89.3643H194.354V96.542ZM194.354 107.599H195.755C197.179 107.599 198.245 107.542 198.951 107.428C199.657 107.314 200.216 107.115 200.626 106.83C201.127 106.5 201.514 106.055 201.788 105.497C202.061 104.939 202.198 104.324 202.198 103.651C202.198 102.854 202.033 102.159 201.702 101.566C201.372 100.974 200.899 100.513 200.284 100.182C199.897 99.9884 199.452 99.846 198.951 99.7549C198.461 99.6637 197.806 99.6182 196.986 99.6182H195.755H194.354V107.599ZM190.372 111V85.9805H196.678C198.478 85.9805 199.805 86.0773 200.66 86.271C201.526 86.4647 202.261 86.7837 202.865 87.228C203.639 87.7977 204.237 88.5439 204.659 89.4668C205.092 90.3896 205.308 91.4093 205.308 92.5259C205.308 93.8589 205.001 94.9754 204.386 95.8755C203.77 96.7642 202.876 97.3851 201.702 97.7383C203.161 97.9661 204.306 98.6326 205.137 99.7378C205.981 100.832 206.402 102.216 206.402 103.891C206.402 104.905 206.226 105.867 205.872 106.779C205.519 107.69 205.018 108.465 204.368 109.103C203.685 109.798 202.836 110.288 201.822 110.573C200.808 110.858 199.105 111 196.712 111H190.372ZM224.074 111H220.366V108.898C219.705 109.832 218.93 110.527 218.042 110.983C217.164 111.439 216.156 111.667 215.017 111.667C212.727 111.667 210.921 110.886 209.599 109.325C208.289 107.753 207.634 105.605 207.634 102.882C207.634 100.296 208.306 98.2111 209.651 96.6274C210.995 95.0324 212.75 94.2349 214.914 94.2349C216.236 94.2349 217.364 94.514 218.298 95.0723C219.244 95.6191 219.933 96.411 220.366 97.4478V94.7988H224.074V111ZM220.468 102.848C220.468 101.173 220.075 99.8688 219.289 98.9346C218.515 98.0003 217.426 97.5332 216.025 97.5332C214.624 97.5332 213.519 98.0174 212.71 98.9858C211.912 99.9429 211.513 101.276 211.513 102.985C211.513 104.705 211.901 106.033 212.675 106.967C213.45 107.901 214.544 108.368 215.957 108.368C217.29 108.368 218.372 107.861 219.204 106.847C220.047 105.833 220.468 104.5 220.468 102.848ZM239.901 99.4131C239.331 98.7865 238.665 98.3079 237.901 97.9775C237.15 97.6471 236.335 97.4819 235.458 97.4819C233.942 97.4819 232.729 97.9718 231.817 98.9517C230.906 99.9315 230.45 101.23 230.45 102.848C230.45 104.534 230.906 105.862 231.817 106.83C232.74 107.787 234.011 108.266 235.629 108.266C236.529 108.266 237.332 108.1 238.038 107.77C238.745 107.428 239.365 106.916 239.901 106.232V110.504C239.217 110.892 238.483 111.182 237.696 111.376C236.922 111.57 236.096 111.667 235.218 111.667C232.678 111.667 230.604 110.858 228.998 109.24C227.403 107.622 226.605 105.526 226.605 102.951C226.605 100.342 227.431 98.2396 229.083 96.6445C230.747 95.0381 232.917 94.2349 235.594 94.2349C236.437 94.2349 237.212 94.3203 237.919 94.4912C238.625 94.6507 239.286 94.9014 239.901 95.2432V99.4131ZM242.295 111V84.5107H246.003V101.515L252.788 94.7988H257.368L250.02 101.942L258.069 111H253.284L246.003 102.643V111H242.295ZM261.762 118.622H257.951L262.394 109.599L256.447 94.7988H260.548L263.522 103.19C263.693 103.703 263.841 104.227 263.966 104.762C264.103 105.286 264.211 105.822 264.291 106.369C264.439 105.799 264.792 104.893 265.35 103.651L265.436 103.446L269.435 94.7988H273.451L261.762 118.622ZM289.329 111H285.62V108.898C284.96 109.832 284.185 110.527 283.296 110.983C282.419 111.439 281.411 111.667 280.271 111.667C277.981 111.667 276.175 110.886 274.854 109.325C273.544 107.753 272.888 105.605 272.888 102.882C272.888 100.296 273.561 98.2111 274.905 96.6274C276.249 95.0324 278.004 94.2349 280.169 94.2349C281.49 94.2349 282.618 94.514 283.553 95.0723C284.498 95.6191 285.187 96.411 285.62 97.4478V94.7988H289.329V111ZM285.723 102.848C285.723 101.173 285.33 99.8688 284.544 98.9346C283.769 98.0003 282.681 97.5332 281.28 97.5332C279.878 97.5332 278.773 98.0174 277.964 98.9858C277.167 99.9429 276.768 101.276 276.768 102.985C276.768 104.705 277.155 106.033 277.93 106.967C278.705 107.901 279.798 108.368 281.211 108.368C282.544 108.368 283.627 107.861 284.458 106.847C285.301 105.833 285.723 104.5 285.723 102.848ZM296.764 97.3794C297.163 96.3084 297.687 95.5166 298.337 95.0039C298.997 94.4912 299.812 94.2349 300.78 94.2349C301.305 94.2349 301.817 94.2975 302.319 94.4229C302.831 94.5482 303.333 94.7305 303.822 94.9697L302.489 98.1143C302.17 97.8864 301.823 97.7212 301.447 97.6187C301.082 97.5047 300.672 97.4478 300.216 97.4478C298.986 97.4478 298.103 97.9434 297.568 98.9346C297.032 99.9144 296.764 101.566 296.764 103.891V111H293.056V94.7646H296.764V97.3794ZM316.18 102.848C316.18 101.173 315.787 99.8688 315.001 98.9346C314.226 98.0003 313.138 97.5332 311.736 97.5332C310.335 97.5332 309.23 98.0174 308.421 98.9858C307.623 99.9429 307.225 101.276 307.225 102.985C307.225 104.705 307.612 106.033 308.387 106.967C309.162 107.901 310.255 108.368 311.668 108.368C313.012 108.368 314.101 107.867 314.932 106.864C315.764 105.85 316.18 104.512 316.18 102.848ZM316.077 84.5107H319.786V111H316.077V108.898C315.416 109.832 314.642 110.527 313.753 110.983C312.876 111.439 311.867 111.667 310.728 111.667C308.438 111.667 306.632 110.886 305.311 109.325C304 107.753 303.345 105.605 303.345 102.882C303.345 100.296 304.018 98.2111 305.362 96.6274C306.706 95.0324 308.461 94.2349 310.626 94.2349C311.947 94.2349 313.075 94.514 314.009 95.0723C314.955 95.6191 315.644 96.411 316.077 97.4478V84.5107ZM323.991 109.103C323.991 108.476 324.208 107.941 324.641 107.497C325.074 107.052 325.603 106.83 326.23 106.83C326.857 106.83 327.386 107.052 327.819 107.497C328.252 107.941 328.469 108.476 328.469 109.103C328.469 109.718 328.252 110.242 327.819 110.675C327.386 111.097 326.857 111.308 326.23 111.308C325.603 111.308 325.074 111.097 324.641 110.675C324.208 110.242 323.991 109.718 323.991 109.103Z" fill="white"/>
</svg>
