<svg width="356" height="119" viewBox="0 0 356 119" fill="none" xmlns="http://www.w3.org/2000/svg">
<path d="M9.15186 17.1733H16.1245L13.561 11.4653C13.4129 11.1007 13.2591 10.6849 13.0996 10.2178C12.9401 9.73926 12.7806 9.20947 12.6211 8.62842C12.4844 9.17529 12.3363 9.68799 12.1768 10.1665C12.0286 10.6336 11.8748 11.0666 11.7153 11.4653L9.15186 17.1733ZM20.397 27L17.5601 20.5571H7.64795L4.74268 27H0.470215L12.5869 0.989258L24.6865 27H20.397ZM38.8738 12.6445H39.6087C41.762 12.6445 43.1919 12.3939 43.8982 11.8926C44.6046 11.3913 44.9578 10.5026 44.9578 9.22656C44.9578 7.84798 44.5761 6.87956 43.8128 6.32129C43.0608 5.75163 41.6595 5.4668 39.6087 5.4668H38.8738V12.6445ZM38.6175 15.8062V27H34.8064V1.98047H40.4803C42.1437 1.98047 43.4311 2.0887 44.3426 2.30518C45.2654 2.52165 46.0516 2.88053 46.701 3.38184C47.4757 3.98568 48.0739 4.76611 48.4954 5.72314C48.917 6.68018 49.1277 7.72835 49.1277 8.86768C49.1277 10.8729 48.6435 12.4451 47.6751 13.5845C46.7067 14.7124 45.2768 15.3903 43.3855 15.6182L51.9988 27H47.4017L39.0789 15.8062H38.6175ZM67.7058 19.4463H54.7517C54.8428 20.9616 55.2928 22.1465 56.1018 23.001C56.9107 23.8441 57.9873 24.2656 59.3317 24.2656C60.528 24.2656 61.5249 24.015 62.3225 23.5137C63.12 23.0124 63.815 22.2035 64.4074 21.0869L67.5349 22.8301C66.6234 24.4593 65.4955 25.6727 64.1511 26.4702C62.8067 27.2677 61.2287 27.6665 59.4172 27.6665C56.8195 27.6665 54.7517 26.8747 53.2136 25.291C51.6755 23.7074 50.9064 21.5939 50.9064 18.9507C50.9064 16.41 51.6983 14.325 53.2819 12.6958C54.877 11.0552 56.9221 10.2349 59.4172 10.2349C62.0262 10.2349 64.0599 10.9811 65.5183 12.4736C66.9766 13.9661 67.7058 16.0568 67.7058 18.7456V19.4463ZM63.8605 16.9512C63.7124 15.7891 63.2681 14.9061 62.5275 14.3022C61.787 13.687 60.773 13.3794 59.4855 13.3794C58.2665 13.3794 57.2867 13.6756 56.5461 14.2681C55.8055 14.8605 55.2871 15.7549 54.9909 16.9512H63.8605ZM68.3224 24.0605L71.3985 22.3857C71.6264 23.1947 72.048 23.8099 72.6632 24.2314C73.2784 24.653 74.0702 24.8638 75.0387 24.8638C75.8704 24.8638 76.5198 24.6758 76.9869 24.2998C77.4654 23.9124 77.7047 23.3883 77.7047 22.7275C77.7047 21.8503 76.8616 21.0983 75.1754 20.4717C74.6057 20.2666 74.1671 20.0957 73.8595 19.959C72.1277 19.2412 70.9143 18.512 70.2193 17.7715C69.5357 17.0309 69.1939 16.1309 69.1939 15.0713C69.1939 13.6243 69.7579 12.4508 70.8858 11.5508C72.0252 10.6507 73.5291 10.2007 75.3976 10.2007C76.6508 10.2007 77.7218 10.4342 78.6105 10.9014C79.5105 11.3571 80.1656 12.0122 80.5758 12.8667L77.9439 14.6782C77.7503 14.1655 77.4085 13.7611 76.9186 13.4648C76.44 13.1572 75.8818 13.0034 75.2438 13.0034C74.5374 13.0034 73.9677 13.1743 73.5348 13.5161C73.1132 13.8465 72.9024 14.2909 72.9024 14.8491C72.9024 15.6922 73.8595 16.4613 75.7735 17.1562C76.3774 17.3727 76.8445 17.5493 77.1749 17.686C78.6674 18.2785 79.7327 18.9507 80.3707 19.7026C81.0201 20.4432 81.3448 21.3717 81.3448 22.4883C81.3448 24.1061 80.7581 25.3765 79.5846 26.2993C78.4111 27.2108 76.7932 27.6665 74.7311 27.6665C73.1474 27.6665 71.8315 27.3703 70.7833 26.7778C69.7351 26.1854 68.9148 25.2796 68.3224 24.0605ZM96.4194 18.9507C96.4194 17.4468 95.9352 16.1764 94.9668 15.1396C93.9984 14.0915 92.8135 13.5674 91.4121 13.5674C90.0221 13.5674 88.8372 14.0915 87.8574 15.1396C86.889 16.1764 86.4048 17.4468 86.4048 18.9507C86.4048 20.4546 86.889 21.7306 87.8574 22.7788C88.8372 23.8156 90.0221 24.334 91.4121 24.334C92.8021 24.334 93.9813 23.8156 94.9497 22.7788C95.9295 21.7306 96.4194 20.4546 96.4194 18.9507ZM82.4912 18.9165C82.4912 17.7316 82.7134 16.6151 83.1577 15.5669C83.6134 14.5073 84.2629 13.5674 85.106 12.7471C85.9377 11.9382 86.8947 11.3172 87.9771 10.8843C89.0594 10.4513 90.193 10.2349 91.3779 10.2349C92.597 10.2349 93.742 10.4513 94.813 10.8843C95.8953 11.3172 96.8638 11.9552 97.7183 12.7983C98.5728 13.63 99.2222 14.57 99.6665 15.6182C100.111 16.6663 100.333 17.7658 100.333 18.9165C100.333 20.1128 100.111 21.235 99.6665 22.2832C99.2336 23.3314 98.5955 24.2599 97.7524 25.0688C96.8638 25.9233 95.8783 26.5671 94.7959 27C93.7135 27.4443 92.5742 27.6665 91.3779 27.6665C90.2044 27.6665 89.0765 27.4443 87.9941 27C86.9118 26.5671 85.9491 25.9347 85.106 25.103C84.2515 24.2599 83.6021 23.3143 83.1577 22.2661C82.7134 21.2179 82.4912 20.1014 82.4912 18.9165ZM106.572 13.3794C106.971 12.3084 107.495 11.5166 108.144 11.0039C108.805 10.4912 109.62 10.2349 110.588 10.2349C111.112 10.2349 111.625 10.2975 112.126 10.4229C112.639 10.5482 113.14 10.7305 113.63 10.9697L112.297 14.1143C111.978 13.8864 111.631 13.7212 111.255 13.6187C110.89 13.5047 110.48 13.4478 110.024 13.4478C108.794 13.4478 107.911 13.9434 107.375 14.9346C106.84 15.9144 106.572 17.5664 106.572 19.8906V27H102.864V10.7646H106.572V13.3794ZM115.221 27V14.0459H112.384V10.7988H115.221V4.66357H118.929V10.7988H121.766V14.0459H118.929V27H115.221ZM133.048 27V1.98047H137.116V23.3599H146.208V27H133.048ZM147.491 3.79199C147.491 3.16536 147.719 2.62419 148.174 2.16846C148.641 1.71273 149.194 1.48486 149.832 1.48486C150.493 1.48486 151.04 1.70703 151.473 2.15137C151.917 2.58431 152.139 3.13118 152.139 3.79199C152.139 4.4528 151.917 5.01107 151.473 5.4668C151.028 5.91113 150.481 6.1333 149.832 6.1333C149.194 6.1333 148.641 5.90544 148.174 5.44971C147.719 4.98258 147.491 4.43001 147.491 3.79199ZM147.986 27V10.7988H151.695V27H147.986ZM155.61 27V0.510742H159.318V17.5151L166.103 10.7988H170.683L163.334 17.9424L171.384 27H166.599L159.318 18.6431V27H155.61ZM187.894 19.4463H174.94C175.031 20.9616 175.481 22.1465 176.29 23.001C177.099 23.8441 178.175 24.2656 179.52 24.2656C180.716 24.2656 181.713 24.015 182.511 23.5137C183.308 23.0124 184.003 22.2035 184.596 21.0869L187.723 22.8301C186.811 24.4593 185.684 25.6727 184.339 26.4702C182.995 27.2677 181.417 27.6665 179.605 27.6665C177.008 27.6665 174.94 26.8747 173.402 25.291C171.864 23.7074 171.095 21.5939 171.095 18.9507C171.095 16.41 171.886 14.325 173.47 12.6958C175.065 11.0552 177.11 10.2349 179.605 10.2349C182.214 10.2349 184.248 10.9811 185.706 12.4736C187.165 13.9661 187.894 16.0568 187.894 18.7456V19.4463ZM184.049 16.9512C183.901 15.7891 183.456 14.9061 182.716 14.3022C181.975 13.687 180.961 13.3794 179.674 13.3794C178.455 13.3794 177.475 13.6756 176.734 14.2681C175.994 14.8605 175.475 15.7549 175.179 16.9512H184.049ZM219.923 8.06445C218.772 7.08464 217.553 6.34977 216.266 5.85986C214.99 5.36995 213.645 5.125 212.233 5.125C209.498 5.125 207.271 6.00228 205.55 7.75684C203.841 9.51139 202.987 11.7843 202.987 14.5757C202.987 17.2759 203.819 19.5033 205.482 21.2578C207.157 23.0124 209.265 23.8896 211.805 23.8896C213.286 23.8896 214.693 23.6276 216.026 23.1035C217.371 22.5794 218.658 21.7876 219.889 20.728V25.3252C218.795 26.1113 217.604 26.6981 216.317 27.0854C215.03 27.4728 213.634 27.6665 212.13 27.6665C210.216 27.6665 208.444 27.3532 206.815 26.7266C205.197 26.0999 203.773 25.1771 202.543 23.958C201.323 22.7617 200.384 21.3547 199.723 19.7368C199.073 18.1076 198.749 16.3758 198.749 14.5415C198.749 12.7072 199.073 10.9868 199.723 9.38037C200.384 7.76253 201.335 6.34408 202.577 5.125C203.819 3.89453 205.243 2.96598 206.849 2.33936C208.456 1.70133 210.193 1.38232 212.062 1.38232C213.531 1.38232 214.933 1.5988 216.266 2.03174C217.599 2.45329 218.892 3.09701 220.145 3.96289L219.923 8.06445ZM223.428 27V0.510742H227.136V27H223.428ZM234.64 10.7988V19.9248C234.64 21.4971 234.965 22.625 235.614 23.3086C236.264 23.9922 237.317 24.334 238.776 24.334C240.234 24.334 241.288 23.9922 241.937 23.3086C242.587 22.625 242.912 21.4971 242.912 19.9248V10.7988H246.62V18.814C246.62 21.9129 245.999 24.1631 244.757 25.5645C243.515 26.9658 241.533 27.6665 238.81 27.6665C236.041 27.6665 234.036 26.9715 232.794 25.5815C231.552 24.1916 230.932 21.9357 230.932 18.814V10.7988H234.64ZM253.816 18.8481C253.816 20.5002 254.238 21.8332 255.081 22.8472C255.935 23.8612 257.035 24.3682 258.379 24.3682C259.781 24.3682 260.863 23.901 261.626 22.9668C262.401 22.0326 262.788 20.7052 262.788 18.9849C262.788 17.2759 262.384 15.9429 261.575 14.9858C260.777 14.0174 259.678 13.5332 258.277 13.5332C256.875 13.5332 255.782 14.0003 254.995 14.9346C254.209 15.8688 253.816 17.1733 253.816 18.8481ZM253.936 0.510742V13.4478C254.369 12.4224 255.058 11.6305 256.004 11.0723C256.961 10.514 258.1 10.2349 259.422 10.2349C261.575 10.2349 263.318 11.0324 264.651 12.6274C265.996 14.2111 266.668 16.2961 266.668 18.8823C266.668 21.6053 266.007 23.7529 264.685 25.3252C263.375 26.8861 261.575 27.6665 259.285 27.6665C258.146 27.6665 257.132 27.4386 256.243 26.9829C255.366 26.5272 254.597 25.8322 253.936 24.8979V27H250.227V0.510742H253.936ZM269.198 27V0.510742H272.685V13.4478C273.425 12.3312 274.297 11.5166 275.299 11.0039C276.302 10.4912 277.521 10.2349 278.957 10.2349C280.164 10.2349 281.19 10.4285 282.033 10.8159C282.887 11.1919 283.554 11.7559 284.032 12.5078C284.317 12.9521 284.522 13.4705 284.648 14.063C284.773 14.6554 284.836 15.6922 284.836 17.1733V27H281.093V18.6772C281.093 16.5467 280.831 15.134 280.307 14.439C279.794 13.7326 278.877 13.3794 277.555 13.3794C276.689 13.3794 275.915 13.5389 275.231 13.8579C274.559 14.1769 274.029 14.627 273.642 15.208C273.368 15.5954 273.175 16.0967 273.061 16.7119C272.958 17.3158 272.907 18.2842 272.907 19.6172V27H269.198ZM301.107 18.9507C301.107 17.4468 300.622 16.1764 299.654 15.1396C298.685 14.0915 297.501 13.5674 296.099 13.5674C294.709 13.5674 293.524 14.0915 292.545 15.1396C291.576 16.1764 291.092 17.4468 291.092 18.9507C291.092 20.4546 291.576 21.7306 292.545 22.7788C293.524 23.8156 294.709 24.334 296.099 24.334C297.489 24.334 298.668 23.8156 299.637 22.7788C300.617 21.7306 301.107 20.4546 301.107 18.9507ZM287.178 18.9165C287.178 17.7316 287.4 16.6151 287.845 15.5669C288.301 14.5073 288.95 13.5674 289.793 12.7471C290.625 11.9382 291.582 11.3172 292.664 10.8843C293.747 10.4513 294.88 10.2349 296.065 10.2349C297.284 10.2349 298.429 10.4513 299.5 10.8843C300.582 11.3172 301.551 11.9552 302.405 12.7983C303.26 13.63 303.909 14.57 304.354 15.6182C304.798 16.6663 305.02 17.7658 305.02 18.9165C305.02 20.1128 304.798 21.235 304.354 22.2832C303.921 23.3314 303.283 24.2599 302.44 25.0688C301.551 25.9233 300.565 26.5671 299.483 27C298.401 27.4443 297.261 27.6665 296.065 27.6665C294.892 27.6665 293.764 27.4443 292.681 27C291.599 26.5671 290.636 25.9347 289.793 25.103C288.939 24.2599 288.289 23.3143 287.845 22.2661C287.4 21.2179 287.178 20.1014 287.178 18.9165ZM311.14 10.7988V19.9248C311.14 21.4971 311.464 22.625 312.114 23.3086C312.763 23.9922 313.817 24.334 315.275 24.334C316.734 24.334 317.788 23.9922 318.437 23.3086C319.086 22.625 319.411 21.4971 319.411 19.9248V10.7988H323.12V18.814C323.12 21.9129 322.499 24.1631 321.257 25.5645C320.015 26.9658 318.033 27.6665 315.31 27.6665C312.541 27.6665 310.536 26.9715 309.294 25.5815C308.052 24.1916 307.431 21.9357 307.431 18.814V10.7988H311.14ZM324.864 24.0605L327.94 22.3857C328.168 23.1947 328.59 23.8099 329.205 24.2314C329.82 24.653 330.612 24.8638 331.58 24.8638C332.412 24.8638 333.062 24.6758 333.529 24.2998C334.007 23.9124 334.246 23.3883 334.246 22.7275C334.246 21.8503 333.403 21.0983 331.717 20.4717C331.148 20.2666 330.709 20.0957 330.401 19.959C328.67 19.2412 327.456 18.512 326.761 17.7715C326.078 17.0309 325.736 16.1309 325.736 15.0713C325.736 13.6243 326.3 12.4508 327.428 11.5508C328.567 10.6507 330.071 10.2007 331.939 10.2007C333.193 10.2007 334.264 10.4342 335.152 10.9014C336.052 11.3571 336.707 12.0122 337.118 12.8667L334.486 14.6782C334.292 14.1655 333.95 13.7611 333.46 13.4648C332.982 13.1572 332.424 13.0034 331.786 13.0034C331.079 13.0034 330.51 13.1743 330.077 13.5161C329.655 13.8465 329.444 14.2909 329.444 14.8491C329.444 15.6922 330.401 16.4613 332.315 17.1562C332.919 17.3727 333.386 17.5493 333.717 17.686C335.209 18.2785 336.274 18.9507 336.913 19.7026C337.562 20.4432 337.887 21.3717 337.887 22.4883C337.887 24.1061 337.3 25.3765 336.126 26.2993C334.953 27.2108 333.335 27.6665 331.273 27.6665C329.689 27.6665 328.373 27.3703 327.325 26.7778C326.277 26.1854 325.457 25.2796 324.864 24.0605ZM355.832 19.4463H342.878C342.969 20.9616 343.419 22.1465 344.228 23.001C345.037 23.8441 346.114 24.2656 347.458 24.2656C348.655 24.2656 349.652 24.015 350.449 23.5137C351.247 23.0124 351.942 22.2035 352.534 21.0869L355.661 22.8301C354.75 24.4593 353.622 25.6727 352.278 26.4702C350.933 27.2677 349.355 27.6665 347.544 27.6665C344.946 27.6665 342.878 26.8747 341.34 25.291C339.802 23.7074 339.033 21.5939 339.033 18.9507C339.033 16.41 339.825 14.325 341.409 12.6958C343.004 11.0552 345.049 10.2349 347.544 10.2349C350.153 10.2349 352.187 10.9811 353.645 12.4736C355.103 13.9661 355.832 16.0568 355.832 18.7456V19.4463ZM351.987 16.9512C351.839 15.7891 351.395 14.9061 350.654 14.3022C349.914 13.687 348.9 13.3794 347.612 13.3794C346.393 13.3794 345.413 13.6756 344.673 14.2681C343.932 14.8605 343.414 15.7549 343.117 16.9512H351.987ZM16.2954 60.9507C16.2954 59.4468 15.8112 58.1764 14.8428 57.1396C13.8743 56.0915 12.6895 55.5674 11.2881 55.5674C9.89811 55.5674 8.71322 56.0915 7.7334 57.1396C6.76497 58.1764 6.28076 59.4468 6.28076 60.9507C6.28076 62.4546 6.76497 63.7306 7.7334 64.7788C8.71322 65.8156 9.89811 66.334 11.2881 66.334C12.6781 66.334 13.8573 65.8156 14.8257 64.7788C15.8055 63.7306 16.2954 62.4546 16.2954 60.9507ZM2.36719 60.9165C2.36719 59.7316 2.58936 58.6151 3.03369 57.5669C3.48942 56.5073 4.13883 55.5674 4.98193 54.7471C5.81364 53.9382 6.77067 53.3172 7.85303 52.8843C8.93538 52.4513 10.069 52.2349 11.2539 52.2349C12.473 52.2349 13.618 52.4513 14.689 52.8843C15.7713 53.3172 16.7397 53.9552 17.5942 54.7983C18.4487 55.63 19.0981 56.57 19.5425 57.6182C19.9868 58.6663 20.209 59.7658 20.209 60.9165C20.209 62.1128 19.9868 63.235 19.5425 64.2832C19.1095 65.3314 18.4715 66.2599 17.6284 67.0688C16.7397 67.9233 15.7542 68.5671 14.6719 69C13.5895 69.4443 12.4502 69.6665 11.2539 69.6665C10.0804 69.6665 8.95247 69.4443 7.87012 69C6.78776 68.5671 5.82503 67.9347 4.98193 67.103C4.12744 66.2599 3.47803 65.3143 3.03369 64.2661C2.58936 63.2179 2.36719 62.1014 2.36719 60.9165ZM23.2523 69V56.0459H20.4154V52.7988H23.2523V48.458C23.2523 46.3047 23.6967 44.7153 24.5854 43.6899C25.4854 42.6646 26.8754 42.1519 28.7553 42.1519C29.154 42.1519 29.5642 42.1803 29.9857 42.2373C30.4073 42.2943 30.8345 42.3854 31.2675 42.5107V45.8604C30.9713 45.6895 30.6693 45.5641 30.3617 45.4844C30.0655 45.3932 29.7636 45.3477 29.456 45.3477C28.5673 45.3477 27.9293 45.6211 27.5419 46.168C27.1545 46.7148 26.9608 47.6377 26.9608 48.9365V52.7988H30.8573V56.0459H26.9608V69H23.2523ZM62.9548 56.5415C62.9548 55.2769 62.7212 54.0749 62.2541 52.9355C61.7984 51.7962 61.1376 50.7822 60.2717 49.8936C59.4286 49.0163 58.4488 48.3441 57.3322 47.877C56.2271 47.3984 55.0593 47.1592 53.8288 47.1592C52.5983 47.1592 51.4248 47.3927 50.3083 47.8599C49.2032 48.327 48.2176 49.0049 47.3518 49.8936C46.4859 50.7708 45.8251 51.7791 45.3693 52.9185C44.9136 54.0578 44.6857 55.2655 44.6857 56.5415C44.6857 57.8062 44.9136 59.0024 45.3693 60.1304C45.8251 61.2583 46.4859 62.2666 47.3518 63.1553C48.2176 64.0439 49.2032 64.7218 50.3083 65.189C51.4134 65.6561 52.5869 65.8896 53.8288 65.8896C55.0479 65.8896 56.2043 65.6561 57.298 65.189C58.4032 64.7218 59.3944 64.0439 60.2717 63.1553C61.1376 62.2666 61.7984 61.2583 62.2541 60.1304C62.7212 58.991 62.9548 57.7948 62.9548 56.5415ZM67.1931 56.5415C67.1931 58.3188 66.857 59.9993 66.1848 61.583C65.524 63.1667 64.5555 64.5794 63.2795 65.8213C61.9921 67.0632 60.5394 68.0145 58.9216 68.6753C57.3037 69.3361 55.6062 69.6665 53.8288 69.6665C52.0287 69.6665 50.3083 69.3361 48.6677 68.6753C47.0384 68.0031 45.5972 67.0518 44.3439 65.8213C43.0679 64.5794 42.0995 63.1724 41.4387 61.6001C40.7779 60.0278 40.4475 58.3416 40.4475 56.5415C40.4475 54.7528 40.7779 53.0666 41.4387 51.4829C42.0995 49.8993 43.0679 48.4808 44.3439 47.2275C45.62 45.9857 47.0669 45.04 48.6848 44.3906C50.3026 43.7412 52.0173 43.4165 53.8288 43.4165C55.6289 43.4165 57.3322 43.7412 58.9387 44.3906C60.5565 45.04 62.0034 45.9857 63.2795 47.2275C64.5555 48.4922 65.524 49.922 66.1848 51.5171C66.857 53.1007 67.1931 54.7756 67.1931 56.5415ZM75.8419 69.9741L67.3482 52.7988H71.3985L74.9361 60.9507C75.0501 61.2013 75.1868 61.5773 75.3463 62.0786C75.5058 62.5799 75.671 63.1781 75.8419 63.873C75.9558 63.3831 76.0869 62.8989 76.235 62.4204C76.3945 61.9305 76.5825 61.4406 76.7989 60.9507L80.3194 52.7988H84.3526L75.8419 69.9741ZM100.897 61.4463H87.9429C88.034 62.9616 88.484 64.1465 89.293 65.001C90.1019 65.8441 91.1785 66.2656 92.5229 66.2656C93.7192 66.2656 94.7161 66.015 95.5137 65.5137C96.3112 65.0124 97.0062 64.2035 97.5986 63.0869L100.726 64.8301C99.8146 66.4593 98.6867 67.6727 97.3423 68.4702C95.9979 69.2677 94.4199 69.6665 92.6084 69.6665C90.0107 69.6665 87.9429 68.8747 86.4048 67.291C84.8667 65.7074 84.0977 63.5939 84.0977 60.9507C84.0977 58.41 84.8895 56.325 86.4731 54.6958C88.0682 53.0552 90.1133 52.2349 92.6084 52.2349C95.2174 52.2349 97.2511 52.9811 98.7095 54.4736C100.168 55.9661 100.897 58.0568 100.897 60.7456V61.4463ZM97.0518 58.9512C96.9036 57.7891 96.4593 56.9061 95.7188 56.3022C94.9782 55.687 93.9642 55.3794 92.6768 55.3794C91.4577 55.3794 90.4779 55.6756 89.7373 56.2681C88.9967 56.8605 88.4784 57.7549 88.1821 58.9512H97.0518ZM107.085 55.3794C107.484 54.3084 108.008 53.5166 108.657 53.0039C109.318 52.4912 110.133 52.2349 111.101 52.2349C111.625 52.2349 112.138 52.2975 112.639 52.4229C113.152 52.5482 113.653 52.7305 114.143 52.9697L112.81 56.1143C112.491 55.8864 112.143 55.7212 111.767 55.6187C111.403 55.5047 110.993 55.4478 110.537 55.4478C109.307 55.4478 108.424 55.9434 107.888 56.9346C107.353 57.9144 107.085 59.5664 107.085 61.8906V69H103.376V52.7646H107.085V55.3794ZM125.493 63.0186C126.074 64.0895 126.821 64.9098 127.732 65.4795C128.644 66.0492 129.658 66.334 130.774 66.334C132.426 66.334 133.765 65.8099 134.79 64.7617C135.816 63.7021 136.328 62.3122 136.328 60.5918C136.328 58.9398 135.787 57.5954 134.705 56.5586C133.634 55.5218 132.227 55.0034 130.484 55.0034C129.435 55.0034 128.461 55.1857 127.561 55.5503C126.673 55.9035 125.886 56.4333 125.203 57.1396L124.195 56.9175L127.305 44.2197H139.131V47.5181H129.749L128.279 53.0381C128.963 52.7533 129.623 52.5425 130.261 52.4058C130.899 52.269 131.537 52.2007 132.175 52.2007C134.557 52.2007 136.494 52.964 137.986 54.4907C139.479 56.0174 140.225 58.0055 140.225 60.4551C140.225 63.2578 139.353 65.4966 137.61 67.1714C135.867 68.8348 133.531 69.6665 130.603 69.6665C128.871 69.6665 127.368 69.3703 126.092 68.7778C124.815 68.174 123.716 67.2454 122.793 65.9922L125.493 63.0186ZM160.785 56.9517C160.785 60.9279 159.982 64.0439 158.376 66.2998C156.781 68.5443 154.582 69.6665 151.779 69.6665C148.942 69.6665 146.732 68.5329 145.148 66.2656C143.576 63.987 142.79 60.7912 142.79 56.6782C142.79 52.5994 143.587 49.4207 145.182 47.1421C146.777 44.8634 148.993 43.7241 151.83 43.7241C154.701 43.7241 156.912 44.8691 158.461 47.1592C160.011 49.4378 160.785 52.702 160.785 56.9517ZM151.711 66.1631C153.374 66.1631 154.622 65.3713 155.453 63.7876C156.296 62.1925 156.718 59.8114 156.718 56.644C156.718 53.5679 156.302 51.2266 155.47 49.6201C154.65 48.0023 153.448 47.1934 151.864 47.1934C150.212 47.1934 148.965 47.9966 148.122 49.603C147.279 51.2095 146.857 53.5793 146.857 56.7124C146.857 59.7544 147.273 62.09 148.105 63.7192C148.948 65.3485 150.15 66.1631 151.711 66.1631ZM166.255 64.7617L169.588 65.9922L165.145 75.1523L162.94 74.2808L166.255 64.7617ZM189.704 56.9517C189.704 60.9279 188.901 64.0439 187.294 66.2998C185.699 68.5443 183.5 69.6665 180.698 69.6665C177.861 69.6665 175.65 68.5329 174.067 66.2656C172.495 63.987 171.708 60.7912 171.708 56.6782C171.708 52.5994 172.506 49.4207 174.101 47.1421C175.696 44.8634 177.912 43.7241 180.749 43.7241C183.62 43.7241 185.83 44.8691 187.38 47.1592C188.929 49.4378 189.704 52.702 189.704 56.9517ZM180.629 66.1631C182.293 66.1631 183.54 65.3713 184.372 63.7876C185.215 62.1925 185.637 59.8114 185.637 56.644C185.637 53.5679 185.221 51.2266 184.389 49.6201C183.569 48.0023 182.367 47.1934 180.783 47.1934C179.131 47.1934 177.884 47.9966 177.04 49.603C176.197 51.2095 175.776 53.5793 175.776 56.7124C175.776 59.7544 176.192 62.09 177.023 63.7192C177.866 65.3485 179.068 66.1631 180.629 66.1631ZM209.461 56.9517C209.461 60.9279 208.658 64.0439 207.052 66.2998C205.457 68.5443 203.258 69.6665 200.455 69.6665C197.618 69.6665 195.408 68.5329 193.824 66.2656C192.252 63.987 191.466 60.7912 191.466 56.6782C191.466 52.5994 192.263 49.4207 193.858 47.1421C195.453 44.8634 197.669 43.7241 200.506 43.7241C203.377 43.7241 205.588 44.8691 207.137 47.1592C208.686 49.4378 209.461 52.702 209.461 56.9517ZM200.387 66.1631C202.05 66.1631 203.297 65.3713 204.129 63.7876C204.972 62.1925 205.394 59.8114 205.394 56.644C205.394 53.5679 204.978 51.2266 204.146 49.6201C203.326 48.0023 202.124 47.1934 200.54 47.1934C198.888 47.1934 197.641 47.9966 196.798 49.603C195.955 51.2095 195.533 53.5793 195.533 56.7124C195.533 59.7544 195.949 62.09 196.781 63.7192C197.624 65.3485 198.826 66.1631 200.387 66.1631ZM229.218 56.9517C229.218 60.9279 228.415 64.0439 226.809 66.2998C225.214 68.5443 223.015 69.6665 220.212 69.6665C217.375 69.6665 215.165 68.5329 213.581 66.2656C212.009 63.987 211.223 60.7912 211.223 56.6782C211.223 52.5994 212.02 49.4207 213.615 47.1421C215.21 44.8634 217.426 43.7241 220.263 43.7241C223.134 43.7241 225.345 44.8691 226.894 47.1592C228.444 49.4378 229.218 52.702 229.218 56.9517ZM220.144 66.1631C221.807 66.1631 223.055 65.3713 223.886 63.7876C224.73 62.1925 225.151 59.8114 225.151 56.644C225.151 53.5679 224.735 51.2266 223.904 49.6201C223.083 48.0023 221.881 47.1934 220.298 47.1934C218.646 47.1934 217.398 47.9966 216.555 49.603C215.712 51.2095 215.29 53.5793 215.29 56.7124C215.29 59.7544 215.706 62.09 216.538 63.7192C217.381 65.3485 218.583 66.1631 220.144 66.1631ZM240.005 63.9927L243.252 62.4888C243.56 63.6053 244.124 64.4598 244.944 65.0522C245.764 65.6333 246.812 65.9238 248.088 65.9238C249.296 65.9238 250.253 65.5877 250.959 64.9155C251.677 64.2433 252.036 63.3433 252.036 62.2153C252.036 60.7456 250.817 59.4354 248.379 58.2847C248.037 58.1138 247.775 57.9884 247.593 57.9087C244.836 56.5643 242.996 55.3509 242.073 54.2686C241.161 53.1748 240.706 51.8418 240.706 50.2695C240.706 48.2301 241.395 46.5781 242.773 45.3135C244.163 44.0488 245.981 43.4165 248.225 43.4165C250.071 43.4165 251.615 43.7754 252.856 44.4932C254.098 45.1995 254.958 46.2192 255.437 47.5522L252.258 49.1929C251.757 48.4067 251.204 47.8314 250.601 47.4668C250.008 47.1022 249.325 46.9199 248.55 46.9199C247.456 46.9199 246.584 47.2048 245.935 47.7744C245.297 48.3441 244.978 49.1074 244.978 50.0645C244.978 51.5684 246.391 52.9697 249.216 54.2686C249.433 54.3711 249.604 54.4508 249.729 54.5078C252.201 55.6471 253.899 56.7637 254.822 57.8574C255.745 58.9398 256.206 60.2956 256.206 61.9248C256.206 64.2946 255.46 66.1802 253.967 67.5815C252.475 68.9715 250.458 69.6665 247.917 69.6665C245.787 69.6665 244.038 69.1766 242.671 68.1968C241.315 67.217 240.426 65.8156 240.005 63.9927ZM259.454 69V56.0459H256.618V52.7988H259.454V48.458C259.454 46.3047 259.899 44.7153 260.788 43.6899C261.688 42.6646 263.078 42.1519 264.957 42.1519C265.356 42.1519 265.766 42.1803 266.188 42.2373C266.609 42.2943 267.037 42.3854 267.47 42.5107V45.8604C267.173 45.6895 266.871 45.5641 266.564 45.4844C266.268 45.3932 265.966 45.3477 265.658 45.3477C264.769 45.3477 264.131 45.6211 263.744 46.168C263.357 46.7148 263.163 47.6377 263.163 48.9365V52.7988H267.059V56.0459H263.163V69H259.454ZM269.146 69V56.0459H266.309V52.7988H269.146V46.6636H272.854V52.7988H275.691V56.0459H272.854V69H269.146ZM277.983 67.103C277.983 66.4764 278.199 65.9409 278.632 65.4966C279.065 65.0522 279.595 64.8301 280.221 64.8301C280.848 64.8301 281.378 65.0522 281.811 65.4966C282.244 65.9409 282.46 66.4764 282.46 67.103C282.46 67.7183 282.244 68.2424 281.811 68.6753C281.378 69.0968 280.848 69.3076 280.221 69.3076C279.595 69.3076 279.065 69.0968 278.632 68.6753C278.199 68.2424 277.983 67.7183 277.983 67.103ZM2.43555 105.993L5.68262 104.489C5.99023 105.605 6.5542 106.46 7.37451 107.052C8.19482 107.633 9.243 107.924 10.519 107.924C11.7267 107.924 12.6838 107.588 13.3901 106.916C14.1079 106.243 14.4668 105.343 14.4668 104.215C14.4668 102.746 13.2477 101.435 10.8096 100.285C10.4678 100.114 10.2057 99.9884 10.0234 99.9087C7.26628 98.5643 5.42627 97.3509 4.50342 96.2686C3.59196 95.1748 3.13623 93.8418 3.13623 92.2695C3.13623 90.2301 3.82552 88.5781 5.2041 87.3135C6.59408 86.0488 8.4113 85.4165 10.6558 85.4165C12.5015 85.4165 14.0452 85.7754 15.2871 86.4932C16.529 87.1995 17.3892 88.2192 17.8677 89.5522L14.689 91.1929C14.1877 90.4067 13.6351 89.8314 13.0312 89.4668C12.4388 89.1022 11.7552 88.9199 10.9805 88.9199C9.88672 88.9199 9.01514 89.2048 8.36572 89.7744C7.7277 90.3441 7.40869 91.1074 7.40869 92.0645C7.40869 93.5684 8.82145 94.9697 11.647 96.2686C11.8634 96.3711 12.0343 96.4508 12.1597 96.5078C14.632 97.6471 16.3296 98.7637 17.2524 99.8574C18.1753 100.94 18.6367 102.296 18.6367 103.925C18.6367 106.295 17.8905 108.18 16.3979 109.582C14.9054 110.972 12.8888 111.667 10.3481 111.667C8.21761 111.667 6.46875 111.177 5.10156 110.197C3.74577 109.217 2.8571 107.816 2.43555 105.993ZM24.9613 102.848C24.9613 104.523 25.3772 105.862 26.2089 106.864C27.052 107.867 28.1571 108.368 29.5243 108.368C30.9257 108.368 32.008 107.901 32.7714 106.967C33.5461 106.033 33.9335 104.705 33.9335 102.985C33.9335 101.276 33.529 99.9429 32.7201 98.9858C31.9226 98.0174 30.8231 97.5332 29.4218 97.5332C28.0204 97.5332 26.9267 98.0003 26.1405 98.9346C25.3544 99.8688 24.9613 101.173 24.9613 102.848ZM21.3725 118.622V94.7988H25.081V97.4478C25.5139 96.4224 26.2032 95.6305 27.1488 95.0723C28.1059 94.514 29.2452 94.2349 30.5668 94.2349C32.7201 94.2349 34.4633 95.0324 35.7963 96.6274C37.1407 98.2111 37.8129 100.296 37.8129 102.882C37.8129 105.605 37.1521 107.753 35.8305 109.325C34.5202 110.886 32.7201 111.667 30.4301 111.667C29.2908 111.667 28.2768 111.439 27.3881 110.983C26.5108 110.527 25.7418 109.832 25.081 108.898V118.622H21.3725ZM44.0521 97.3794C44.4508 96.3084 44.9749 95.5166 45.6243 95.0039C46.2851 94.4912 47.0997 94.2349 48.0682 94.2349C48.5923 94.2349 49.1049 94.2975 49.6063 94.4229C50.1189 94.5482 50.6202 94.7305 51.1102 94.9697L49.7771 98.1143C49.4581 97.8864 49.1106 97.7212 48.7347 97.6187C48.3701 97.5047 47.9599 97.4478 47.5042 97.4478C46.2737 97.4478 45.3908 97.9434 44.8553 98.9346C44.3198 99.9144 44.0521 101.566 44.0521 103.891V111H40.3436V94.7646H44.0521V97.3794ZM67.4323 103.446H54.4782C54.5694 104.962 55.0194 106.146 55.8283 107.001C56.6372 107.844 57.7139 108.266 59.0583 108.266C60.2546 108.266 61.2515 108.015 62.049 107.514C62.8465 107.012 63.5415 106.203 64.134 105.087L67.2614 106.83C66.35 108.459 65.222 109.673 63.8776 110.47C62.5332 111.268 60.9553 111.667 59.1437 111.667C56.5461 111.667 54.4782 110.875 52.9401 109.291C51.4021 107.707 50.633 105.594 50.633 102.951C50.633 100.41 51.4248 98.325 53.0085 96.6958C54.6035 95.0552 56.6486 94.2349 59.1437 94.2349C61.7528 94.2349 63.7865 94.9811 65.2448 96.4736C66.7032 97.9661 67.4323 100.057 67.4323 102.746V103.446ZM63.5871 100.951C63.439 99.7891 62.9947 98.9061 62.2541 98.3022C61.5135 97.687 60.4995 97.3794 59.2121 97.3794C57.993 97.3794 57.0132 97.6756 56.2727 98.2681C55.5321 98.8605 55.0137 99.7549 54.7175 100.951H63.5871ZM85.1559 111H81.4474V108.898C80.7866 109.832 80.0118 110.527 79.1231 110.983C78.2459 111.439 77.2376 111.667 76.0982 111.667C73.8082 111.667 72.0024 110.886 70.6808 109.325C69.3705 107.753 68.7154 105.605 68.7154 102.882C68.7154 100.296 69.3876 98.2111 70.732 96.6274C72.0764 95.0324 73.831 94.2349 75.9957 94.2349C77.3173 94.2349 78.4452 94.514 79.3795 95.0723C80.3251 95.6191 81.0144 96.411 81.4474 97.4478V94.7988H85.1559V111ZM81.5499 102.848C81.5499 101.173 81.1568 99.8688 80.3707 98.9346C79.596 98.0003 78.5079 97.5332 77.1065 97.5332C75.7052 97.5332 74.6 98.0174 73.7911 98.9858C72.9936 99.9429 72.5948 101.276 72.5948 102.985C72.5948 104.705 72.9822 106.033 73.7569 106.967C74.5317 107.901 75.6254 108.368 77.0382 108.368C78.3712 108.368 79.4535 107.861 80.2853 106.847C81.1284 105.833 81.5499 104.5 81.5499 102.848ZM100.521 102.848C100.521 101.173 100.128 99.8688 99.3418 98.9346C98.5671 98.0003 97.479 97.5332 96.0776 97.5332C94.6763 97.5332 93.5711 98.0174 92.7622 98.9858C91.9647 99.9429 91.5659 101.276 91.5659 102.985C91.5659 104.705 91.9533 106.033 92.728 106.967C93.5028 107.901 94.5965 108.368 96.0093 108.368C97.3537 108.368 98.4417 107.867 99.2734 106.864C100.105 105.85 100.521 104.512 100.521 102.848ZM100.418 84.5107H104.127V111H100.418V108.898C99.7576 109.832 98.9829 110.527 98.0942 110.983C97.217 111.439 96.2087 111.667 95.0693 111.667C92.7793 111.667 90.9735 110.886 89.6519 109.325C88.3416 107.753 87.6865 105.605 87.6865 102.882C87.6865 100.296 88.3587 98.2111 89.7031 96.6274C91.0475 95.0324 92.8021 94.2349 94.9668 94.2349C96.2884 94.2349 97.4163 94.514 98.3506 95.0723C99.2962 95.6191 99.9855 96.411 100.418 97.4478V84.5107ZM138.737 98.5415C138.737 97.2769 138.503 96.0749 138.036 94.9355C137.58 93.7962 136.919 92.7822 136.054 91.8936C135.21 91.0163 134.231 90.3441 133.114 89.877C132.009 89.3984 130.841 89.1592 129.611 89.1592C128.38 89.1592 127.207 89.3927 126.09 89.8599C124.985 90.327 123.999 91.0049 123.134 91.8936C122.268 92.7708 121.607 93.7791 121.151 94.9185C120.695 96.0578 120.468 97.2655 120.468 98.5415C120.468 99.8062 120.695 101.002 121.151 102.13C121.607 103.258 122.268 104.267 123.134 105.155C123.999 106.044 124.985 106.722 126.09 107.189C127.195 107.656 128.369 107.89 129.611 107.89C130.83 107.89 131.986 107.656 133.08 107.189C134.185 106.722 135.176 106.044 136.054 105.155C136.919 104.267 137.58 103.258 138.036 102.13C138.503 100.991 138.737 99.7948 138.737 98.5415ZM142.975 98.5415C142.975 100.319 142.639 101.999 141.967 103.583C141.306 105.167 140.337 106.579 139.061 107.821C137.774 109.063 136.321 110.014 134.703 110.675C133.086 111.336 131.388 111.667 129.611 111.667C127.811 111.667 126.09 111.336 124.45 110.675C122.82 110.003 121.379 109.052 120.126 107.821C118.85 106.579 117.881 105.172 117.221 103.6C116.56 102.028 116.229 100.342 116.229 98.5415C116.229 96.7528 116.56 95.0666 117.221 93.4829C117.881 91.8993 118.85 90.4808 120.126 89.2275C121.402 87.9857 122.849 87.04 124.467 86.3906C126.084 85.7412 127.799 85.4165 129.611 85.4165C131.411 85.4165 133.114 85.7412 134.721 86.3906C136.338 87.04 137.785 87.9857 139.061 89.2275C140.337 90.4922 141.306 91.922 141.967 93.5171C142.639 95.1007 142.975 96.7756 142.975 98.5415ZM151.624 111.974L143.13 94.7988H147.18L150.718 102.951C150.832 103.201 150.969 103.577 151.128 104.079C151.288 104.58 151.453 105.178 151.624 105.873C151.738 105.383 151.869 104.899 152.017 104.42C152.176 103.931 152.364 103.441 152.581 102.951L156.101 94.7988H160.134L151.624 111.974ZM176.679 103.446H163.725C163.816 104.962 164.266 106.146 165.075 107.001C165.884 107.844 166.96 108.266 168.305 108.266C169.501 108.266 170.498 108.015 171.296 107.514C172.093 107.012 172.788 106.203 173.38 105.087L176.508 106.83C175.596 108.459 174.469 109.673 173.124 110.47C171.78 111.268 170.202 111.667 168.39 111.667C165.793 111.667 163.725 110.875 162.187 109.291C160.649 107.707 159.879 105.594 159.879 102.951C159.879 100.41 160.671 98.325 162.255 96.6958C163.85 95.0552 165.895 94.2349 168.39 94.2349C170.999 94.2349 173.033 94.9811 174.491 96.4736C175.95 97.9661 176.679 100.057 176.679 102.746V103.446ZM172.834 100.951C172.685 99.7891 172.241 98.9061 171.501 98.3022C170.76 97.687 169.746 97.3794 168.459 97.3794C167.24 97.3794 166.26 97.6756 165.519 98.2681C164.779 98.8605 164.26 99.7549 163.964 100.951H172.834ZM182.867 97.3794C183.265 96.3084 183.79 95.5166 184.439 95.0039C185.1 94.4912 185.914 94.2349 186.883 94.2349C187.407 94.2349 187.92 94.2975 188.421 94.4229C188.934 94.5482 189.435 94.7305 189.925 94.9697L188.592 98.1143C188.273 97.8864 187.925 97.7212 187.549 97.6187C187.185 97.5047 186.775 97.4478 186.319 97.4478C185.088 97.4478 184.205 97.9434 183.67 98.9346C183.134 99.9144 182.867 101.566 182.867 103.891V111H179.158V94.7646H182.867V97.3794ZM214.742 107.753V111H197.977L207.325 99.8062C208.487 98.4048 209.336 97.1743 209.871 96.1147C210.407 95.0552 210.675 94.0924 210.675 93.2266C210.675 91.9847 210.304 91.0106 209.564 90.3042C208.835 89.5864 207.832 89.2275 206.556 89.2275C205.417 89.2275 204.477 89.5864 203.736 90.3042C202.996 91.0106 202.58 91.9448 202.489 93.1069H198.575C198.575 90.8625 199.327 89.0737 200.831 87.7407C202.335 86.3963 204.357 85.7241 206.898 85.7241C209.313 85.7241 211.216 86.3451 212.606 87.5869C214.007 88.8288 214.708 90.5207 214.708 92.6626C214.708 94.1893 214.303 95.7331 213.494 97.2939C212.697 98.8434 210.999 101.099 208.402 104.062L205.223 107.753H214.742ZM220.041 109.103C220.041 108.476 220.258 107.941 220.691 107.497C221.124 107.052 221.653 106.83 222.28 106.83C222.907 106.83 223.436 107.052 223.869 107.497C224.302 107.941 224.519 108.476 224.519 109.103C224.519 109.718 224.302 110.242 223.869 110.675C223.436 111.097 222.907 111.308 222.28 111.308C221.653 111.308 221.124 111.097 220.691 110.675C220.258 110.242 220.041 109.718 220.041 109.103ZM230.194 105.019C230.775 106.09 231.521 106.91 232.433 107.479C233.344 108.049 234.358 108.334 235.475 108.334C237.127 108.334 238.465 107.81 239.491 106.762C240.516 105.702 241.029 104.312 241.029 102.592C241.029 100.94 240.488 99.5954 239.405 98.5586C238.334 97.5218 236.927 97.0034 235.184 97.0034C234.136 97.0034 233.162 97.1857 232.262 97.5503C231.373 97.9035 230.587 98.4333 229.903 99.1396L228.895 98.9175L232.005 86.2197H243.832V89.5181H234.449L232.98 95.0381C233.663 94.7533 234.324 94.5425 234.962 94.4058C235.6 94.269 236.238 94.2007 236.876 94.2007C239.257 94.2007 241.194 94.964 242.687 96.4907C244.179 98.0174 244.925 100.006 244.925 102.455C244.925 105.258 244.054 107.497 242.311 109.171C240.567 110.835 238.232 111.667 235.304 111.667C233.572 111.667 232.068 111.37 230.792 110.778C229.516 110.174 228.417 109.245 227.494 107.992L230.194 105.019ZM263.231 101.173H270.204L267.641 95.4653C267.492 95.1007 267.339 94.6849 267.179 94.2178C267.02 93.7393 266.86 93.2095 266.701 92.6284C266.564 93.1753 266.416 93.688 266.256 94.1665C266.108 94.6336 265.954 95.0666 265.795 95.4653L263.231 101.173ZM274.476 111L271.64 104.557H261.727L258.822 111H254.55L266.666 84.9893L278.766 111H274.476ZM291.516 99.4131C290.947 98.7865 290.28 98.3079 289.517 97.9775C288.765 97.6471 287.95 97.4819 287.073 97.4819C285.558 97.4819 284.344 97.9718 283.433 98.9517C282.521 99.9315 282.066 101.23 282.066 102.848C282.066 104.534 282.521 105.862 283.433 106.83C284.356 107.787 285.626 108.266 287.244 108.266C288.144 108.266 288.947 108.1 289.654 107.77C290.36 107.428 290.981 106.916 291.516 106.232V110.504C290.833 110.892 290.098 111.182 289.312 111.376C288.537 111.57 287.711 111.667 286.834 111.667C284.293 111.667 282.22 110.858 280.613 109.24C279.018 107.622 278.221 105.526 278.221 102.951C278.221 100.342 279.047 98.2396 280.699 96.6445C282.362 95.0381 284.532 94.2349 287.21 94.2349C288.053 94.2349 288.828 94.3203 289.534 94.4912C290.24 94.6507 290.901 94.9014 291.516 95.2432V99.4131ZM297.619 97.3794C298.018 96.3084 298.542 95.5166 299.191 95.0039C299.852 94.4912 300.667 94.2349 301.635 94.2349C302.159 94.2349 302.672 94.2975 303.173 94.4229C303.686 94.5482 304.187 94.7305 304.677 94.9697L303.344 98.1143C303.025 97.8864 302.677 97.7212 302.301 97.6187C301.937 97.5047 301.527 97.4478 301.071 97.4478C299.841 97.4478 298.958 97.9434 298.422 98.9346C297.887 99.9144 297.619 101.566 297.619 103.891V111H293.91V94.7646H297.619V97.3794ZM320.999 103.446H308.045C308.136 104.962 308.586 106.146 309.395 107.001C310.204 107.844 311.281 108.266 312.625 108.266C313.821 108.266 314.818 108.015 315.616 107.514C316.413 107.012 317.108 106.203 317.701 105.087L320.828 106.83C319.917 108.459 318.789 109.673 317.444 110.47C316.1 111.268 314.522 111.667 312.711 111.667C310.113 111.667 308.045 110.875 306.507 109.291C304.969 107.707 304.2 105.594 304.2 102.951C304.2 100.41 304.992 98.325 306.575 96.6958C308.17 95.0552 310.215 94.2349 312.711 94.2349C315.32 94.2349 317.353 94.9811 318.812 96.4736C320.27 97.9661 320.999 100.057 320.999 102.746V103.446ZM317.154 100.951C317.006 99.7891 316.561 98.9061 315.821 98.3022C315.08 97.687 314.066 97.3794 312.779 97.3794C311.56 97.3794 310.58 97.6756 309.839 98.2681C309.099 98.8605 308.58 99.7549 308.284 100.951H317.154ZM321.616 108.061L324.692 106.386C324.92 107.195 325.341 107.81 325.957 108.231C326.572 108.653 327.364 108.864 328.332 108.864C329.164 108.864 329.813 108.676 330.28 108.3C330.759 107.912 330.998 107.388 330.998 106.728C330.998 105.85 330.155 105.098 328.469 104.472C327.899 104.267 327.46 104.096 327.153 103.959C325.421 103.241 324.208 102.512 323.513 101.771C322.829 101.031 322.487 100.131 322.487 99.0713C322.487 97.6243 323.051 96.4508 324.179 95.5508C325.319 94.6507 326.822 94.2007 328.691 94.2007C329.944 94.2007 331.015 94.4342 331.904 94.9014C332.804 95.3571 333.459 96.0122 333.869 96.8667L331.237 98.6782C331.044 98.1655 330.702 97.7611 330.212 97.4648C329.733 97.1572 329.175 97.0034 328.537 97.0034C327.831 97.0034 327.261 97.1743 326.828 97.5161C326.407 97.8465 326.196 98.2909 326.196 98.8491C326.196 99.6922 327.153 100.461 329.067 101.156C329.671 101.373 330.138 101.549 330.468 101.686C331.961 102.278 333.026 102.951 333.664 103.703C334.313 104.443 334.638 105.372 334.638 106.488C334.638 108.106 334.051 109.376 332.878 110.299C331.704 111.211 330.087 111.667 328.024 111.667C326.441 111.667 325.125 111.37 324.077 110.778C323.028 110.185 322.208 109.28 321.616 108.061ZM337.459 109.103C337.459 108.476 337.676 107.941 338.109 107.497C338.542 107.052 339.072 106.83 339.698 106.83C340.325 106.83 340.855 107.052 341.288 107.497C341.72 107.941 341.937 108.476 341.937 109.103C341.937 109.718 341.72 110.242 341.288 110.675C340.855 111.097 340.325 111.308 339.698 111.308C339.072 111.308 338.542 111.097 338.109 110.675C337.676 110.242 337.459 109.718 337.459 109.103Z" fill="white"/>
</svg>
