<svg width="214" height="35" viewBox="0 0 214 35" fill="none" xmlns="http://www.w3.org/2000/svg">
<path d="M4.85303 12.542H6.4082C8.34505 12.542 9.71224 12.2799 10.5098 11.7559C11.3187 11.2204 11.7231 10.326 11.7231 9.07275C11.7231 7.70557 11.3529 6.74854 10.6123 6.20166C9.87174 5.64339 8.47038 5.36426 6.4082 5.36426H4.85303V12.542ZM4.85303 23.5991H6.25439C7.67855 23.5991 8.74382 23.5422 9.4502 23.4282C10.1566 23.3143 10.7148 23.1149 11.125 22.8301C11.6263 22.4997 12.0137 22.0553 12.2871 21.4971C12.5605 20.9388 12.6973 20.3236 12.6973 19.6514C12.6973 18.8538 12.5321 18.1589 12.2017 17.5664C11.8713 16.974 11.3984 16.5125 10.7832 16.1821C10.3958 15.9884 9.9515 15.846 9.4502 15.7549C8.96029 15.6637 8.30518 15.6182 7.48486 15.6182H6.25439H4.85303V23.5991ZM0.871094 27V1.98047H7.17725C8.97738 1.98047 10.3047 2.07731 11.1592 2.271C12.0251 2.46468 12.7599 2.78369 13.3638 3.22803C14.1385 3.79769 14.7367 4.54395 15.1582 5.4668C15.5911 6.38965 15.8076 7.40934 15.8076 8.52588C15.8076 9.85889 15.5 10.9754 14.8848 11.8755C14.2695 12.7642 13.3752 13.3851 12.2017 13.7383C13.66 13.9661 14.805 14.6326 15.6367 15.7378C16.4798 16.8315 16.9014 18.2158 16.9014 19.8906C16.9014 20.9046 16.7248 21.8674 16.3716 22.7788C16.0184 23.6903 15.5171 24.465 14.8677 25.103C14.1841 25.798 13.3353 26.2879 12.3213 26.5728C11.3073 26.8576 9.604 27 7.21143 27H0.871094ZM34.5736 27H30.8651V24.8979C30.2043 25.8322 29.4296 26.5272 28.5409 26.9829C27.6636 27.4386 26.6553 27.6665 25.516 27.6665C23.226 27.6665 21.4202 26.8861 20.0985 25.3252C18.7883 23.7529 18.1332 21.6053 18.1332 18.8823C18.1332 16.2961 18.8054 14.2111 20.1498 12.6274C21.4942 11.0324 23.2488 10.2349 25.4135 10.2349C26.7351 10.2349 27.863 10.514 28.7973 11.0723C29.7429 11.6191 30.4322 12.411 30.8651 13.4478V10.7988H34.5736V27ZM30.9677 18.8481C30.9677 17.1733 30.5746 15.8688 29.7885 14.9346C29.0137 14.0003 27.9257 13.5332 26.5243 13.5332C25.1229 13.5332 24.0178 14.0174 23.2089 14.9858C22.4114 15.9429 22.0126 17.2759 22.0126 18.9849C22.0126 20.7052 22.4 22.0326 23.1747 22.9668C23.9494 23.901 25.0432 24.3682 26.456 24.3682C27.789 24.3682 28.8713 23.8612 29.703 22.8472C30.5461 21.8332 30.9677 20.5002 30.9677 18.8481ZM50.4002 15.4131C49.8305 14.7865 49.164 14.3079 48.4007 13.9775C47.6487 13.6471 46.8341 13.4819 45.9568 13.4819C44.4415 13.4819 43.2282 13.9718 42.3167 14.9517C41.4052 15.9315 40.9495 17.2303 40.9495 18.8481C40.9495 20.5343 41.4052 21.8617 42.3167 22.8301C43.2396 23.7871 44.5099 24.2656 46.1277 24.2656C47.0278 24.2656 47.831 24.1004 48.5374 23.77C49.2438 23.4282 49.8647 22.9155 50.4002 22.2319V26.5044C49.7166 26.8918 48.9817 27.1823 48.1956 27.376C47.4209 27.5697 46.5949 27.6665 45.7176 27.6665C43.1769 27.6665 41.1033 26.8576 39.4969 25.2397C37.9018 23.6219 37.1043 21.5256 37.1043 18.9507C37.1043 16.3416 37.9303 14.2396 39.5823 12.6445C41.2457 11.0381 43.4161 10.2349 46.0936 10.2349C46.9367 10.2349 47.7114 10.3203 48.4178 10.4912C49.1242 10.6507 49.785 10.9014 50.4002 11.2432V15.4131ZM52.7941 27V0.510742H56.5026V17.5151L63.2873 10.7988H67.8674L60.5187 17.9424L68.5681 27H63.7829L56.5026 18.6431V27H52.7941ZM72.2608 34.6221H68.4498L72.8932 25.5986L66.9459 10.7988H71.0475L74.0211 19.1899C74.192 19.7026 74.3401 20.2267 74.4654 20.7622C74.6021 21.2863 74.7104 21.8218 74.7901 22.3687C74.9383 21.799 75.2914 20.8932 75.8497 19.6514L75.9352 19.4463L79.9342 10.7988H83.9503L72.2608 34.6221ZM99.8281 27H96.1196V24.8979C95.4588 25.8322 94.6841 26.5272 93.7954 26.9829C92.9181 27.4386 91.9098 27.6665 90.7705 27.6665C88.4805 27.6665 86.6746 26.8861 85.353 25.3252C84.0428 23.7529 83.3877 21.6053 83.3877 18.8823C83.3877 16.2961 84.0599 14.2111 85.4043 12.6274C86.7487 11.0324 88.5033 10.2349 90.668 10.2349C91.9896 10.2349 93.1175 10.514 94.0518 11.0723C94.9974 11.6191 95.6867 12.411 96.1196 13.4478V10.7988H99.8281V27ZM96.2222 18.8481C96.2222 17.1733 95.8291 15.8688 95.043 14.9346C94.2682 14.0003 93.1802 13.5332 91.7788 13.5332C90.3774 13.5332 89.2723 14.0174 88.4634 14.9858C87.6659 15.9429 87.2671 17.2759 87.2671 18.9849C87.2671 20.7052 87.6545 22.0326 88.4292 22.9668C89.2039 23.901 90.2977 24.3682 91.7104 24.3682C93.0435 24.3682 94.1258 23.8612 94.9575 22.8472C95.8006 21.8332 96.2222 20.5002 96.2222 18.8481ZM107.264 13.3794C107.662 12.3084 108.186 11.5166 108.836 11.0039C109.497 10.4912 110.311 10.2349 111.28 10.2349C111.804 10.2349 112.316 10.2975 112.818 10.4229C113.33 10.5482 113.832 10.7305 114.322 10.9697L112.989 14.1143C112.67 13.8864 112.322 13.7212 111.946 13.6187C111.582 13.5047 111.171 13.4478 110.716 13.4478C109.485 13.4478 108.602 13.9434 108.067 14.9346C107.531 15.9144 107.264 17.5664 107.264 19.8906V27H103.555V10.7646H107.264V13.3794ZM126.679 18.8481C126.679 17.1733 126.286 15.8688 125.5 14.9346C124.725 14.0003 123.637 13.5332 122.236 13.5332C120.834 13.5332 119.729 14.0174 118.92 14.9858C118.123 15.9429 117.724 17.2759 117.724 18.9849C117.724 20.7052 118.111 22.0326 118.886 22.9668C119.661 23.901 120.755 24.3682 122.167 24.3682C123.512 24.3682 124.6 23.8669 125.431 22.8643C126.263 21.8503 126.679 20.5116 126.679 18.8481ZM126.576 0.510742H130.285V27H126.576V24.8979C125.916 25.8322 125.141 26.5272 124.252 26.9829C123.375 27.4386 122.367 27.6665 121.227 27.6665C118.937 27.6665 117.131 26.8861 115.81 25.3252C114.5 23.7529 113.845 21.6053 113.845 18.8823C113.845 16.2961 114.517 14.2111 115.861 12.6274C117.206 11.0324 118.96 10.2349 121.125 10.2349C122.446 10.2349 123.574 10.514 124.509 11.0723C125.454 11.6191 126.144 12.411 126.576 13.4478V0.510742ZM151.428 27.9741L140.268 1.98047H144.489L150.095 15.3105C150.425 16.0853 150.699 16.8031 150.915 17.4639C151.132 18.1133 151.303 18.7342 151.428 19.3267C151.576 18.7 151.764 18.0506 151.992 17.3784C152.22 16.7062 152.487 16.0169 152.795 15.3105L158.383 1.98047H162.587L151.428 27.9741ZM163.084 3.79199C163.084 3.16536 163.312 2.62419 163.768 2.16846C164.235 1.71273 164.788 1.48486 165.426 1.48486C166.087 1.48486 166.633 1.70703 167.066 2.15137C167.511 2.58431 167.733 3.13118 167.733 3.79199C167.733 4.4528 167.511 5.01107 167.066 5.4668C166.622 5.91113 166.075 6.1333 165.426 6.1333C164.788 6.1333 164.235 5.90544 163.768 5.44971C163.312 4.98258 163.084 4.43001 163.084 3.79199ZM163.58 27V10.7988H167.289V27H163.58ZM186.807 19.4463H173.852C173.944 20.9616 174.394 22.1465 175.203 23.001C176.011 23.8441 177.088 24.2656 178.433 24.2656C179.629 24.2656 180.626 24.015 181.423 23.5137C182.221 23.0124 182.916 22.2035 183.508 21.0869L186.636 22.8301C185.724 24.4593 184.596 25.6727 183.252 26.4702C181.907 27.2677 180.329 27.6665 178.518 27.6665C175.92 27.6665 173.852 26.8747 172.314 25.291C170.776 23.7074 170.007 21.5939 170.007 18.9507C170.007 16.41 170.799 14.325 172.383 12.6958C173.978 11.0552 176.023 10.2349 178.518 10.2349C181.127 10.2349 183.161 10.9811 184.619 12.4736C186.077 13.9661 186.807 16.0568 186.807 18.7456V19.4463ZM182.961 16.9512C182.813 15.7891 182.369 14.9061 181.628 14.3022C180.888 13.687 179.874 13.3794 178.586 13.3794C177.367 13.3794 176.387 13.6756 175.647 14.2681C174.906 14.8605 174.388 15.7549 174.092 16.9512H182.961ZM204.786 27.9741L201.044 19.5488C200.759 18.8994 200.525 18.3241 200.343 17.8228C200.161 17.3101 199.996 16.8088 199.847 16.3188C199.597 17.0594 199.375 17.6974 199.181 18.2329C198.987 18.757 198.833 19.1501 198.72 19.4121L194.874 27.9741L186.483 10.7988H190.431L194.071 18.6089C194.219 18.9393 194.362 19.395 194.498 19.9761C194.646 20.5457 194.772 21.1781 194.874 21.873C194.886 21.4629 194.954 21.0356 195.079 20.5913C195.205 20.147 195.415 19.6001 195.712 18.9507L199.677 10.2007H199.984L204.017 18.9507C204.268 19.4976 204.45 20.0046 204.564 20.4717C204.69 20.9388 204.764 21.4059 204.786 21.873C204.889 21.2578 205.02 20.6768 205.179 20.1299C205.339 19.583 205.521 19.0874 205.726 18.6431L209.298 10.7988H213.212L204.786 27.9741Z" fill="white"/>
</svg>
