<svg width="536" height="85" viewBox="0 0 536 85" fill="none" xmlns="http://www.w3.org/2000/svg">
<path d="M29.165 10.1133C27.6527 8.82552 26.0505 7.8597 24.3584 7.21582C22.6813 6.57194 20.9144 6.25 19.0576 6.25C15.4639 6.25 12.5365 7.40299 10.2754 9.70898C8.0293 12.015 6.90625 15.0023 6.90625 18.6709C6.90625 22.2197 7.99935 25.1471 10.1855 27.4531C12.3867 29.7591 15.1569 30.9121 18.4961 30.9121C20.4427 30.9121 22.292 30.5677 24.0439 29.8789C25.8109 29.1901 27.5029 28.1494 29.1201 26.7568V32.7988C27.6826 33.832 26.1178 34.6032 24.4258 35.1123C22.7337 35.6214 20.8994 35.876 18.9229 35.876C16.4072 35.876 14.0788 35.4642 11.9375 34.6406C9.8112 33.8171 7.93945 32.6042 6.32227 31.002C4.72005 29.4297 3.4847 27.5804 2.61621 25.4541C1.7627 23.3128 1.33594 21.0368 1.33594 18.626C1.33594 16.2152 1.7627 13.9541 2.61621 11.8428C3.4847 9.71647 4.73503 7.85221 6.36719 6.25C7.99935 4.63281 9.87109 3.41243 11.9824 2.58887C14.0938 1.75033 16.3773 1.33105 18.833 1.33105C20.7646 1.33105 22.6064 1.61556 24.3584 2.18457C26.1104 2.73861 27.8099 3.58464 29.457 4.72266L29.165 10.1133ZM33.5467 35V0.185547H38.1287V17.1885C39.1021 15.721 40.2476 14.6504 41.5653 13.9766C42.883 13.3027 44.4852 12.9658 46.3719 12.9658C47.9592 12.9658 49.3068 13.2204 50.4149 13.7295C51.5379 14.2236 52.4139 14.9648 53.0428 15.9531C53.4172 16.5371 53.6867 17.2184 53.8514 17.9971C54.0161 18.7757 54.0985 20.1383 54.0985 22.085V35H49.1795V24.0615C49.1795 21.2614 48.8351 19.4046 48.1463 18.4912C47.4725 17.5628 46.2671 17.0986 44.5301 17.0986C43.3921 17.0986 42.3739 17.3083 41.4754 17.7275C40.592 18.1468 39.8957 18.7383 39.3866 19.502C39.0272 20.0111 38.7726 20.6699 38.6229 21.4785C38.4881 22.2721 38.4207 23.5449 38.4207 25.2969V35H33.5467ZM58.3229 4.49805C58.3229 3.67448 58.6224 2.96322 59.2214 2.36426C59.8353 1.7653 60.5615 1.46582 61.4001 1.46582C62.2686 1.46582 62.9873 1.75781 63.5563 2.3418C64.1403 2.91081 64.4323 3.62956 64.4323 4.49805C64.4323 5.36654 64.1403 6.10026 63.5563 6.69922C62.9723 7.2832 62.2536 7.5752 61.4001 7.5752C60.5615 7.5752 59.8353 7.27572 59.2214 6.67676C58.6224 6.06283 58.3229 5.33659 58.3229 4.49805ZM58.9743 35V13.707H63.8483V35H58.9743ZM69.2183 35V0.185547H74.0923V35H69.2183ZM94.5336 24.2861C94.5336 22.085 94.017 20.3704 92.9837 19.1426C91.9655 17.9147 90.5355 17.3008 88.6937 17.3008C86.8519 17.3008 85.3994 17.9372 84.3363 19.21C83.2881 20.4678 82.764 22.2197 82.764 24.4658C82.764 26.7269 83.2731 28.4714 84.2914 29.6992C85.3096 30.9271 86.7471 31.541 88.6039 31.541C90.3708 31.541 91.8008 30.8822 92.8939 29.5645C93.987 28.2318 94.5336 26.4723 94.5336 24.2861ZM94.3988 0.185547H99.2728V35H94.3988V32.2373C93.5303 33.4652 92.5121 34.3786 91.3441 34.9775C90.1911 35.5765 88.8659 35.876 87.3685 35.876C84.3587 35.876 81.9854 34.8503 80.2484 32.7988C78.5264 30.7324 77.6654 27.9098 77.6654 24.3311C77.6654 20.932 78.5489 18.1917 80.3158 16.1104C82.0827 14.014 84.3887 12.9658 87.2337 12.9658C88.9707 12.9658 90.4532 13.3327 91.681 14.0664C92.9239 14.7852 93.8298 15.8258 94.3988 17.1885V0.185547ZM109.045 17.0986C109.569 15.6911 110.258 14.6504 111.112 13.9766C111.98 13.3027 113.051 12.9658 114.323 12.9658C115.012 12.9658 115.686 13.0482 116.345 13.2129C117.019 13.3776 117.678 13.6172 118.321 13.9316L116.57 18.0645C116.15 17.765 115.694 17.5479 115.199 17.4131C114.72 17.2633 114.181 17.1885 113.582 17.1885C111.965 17.1885 110.805 17.8398 110.101 19.1426C109.397 20.4303 109.045 22.6016 109.045 25.6562V35H104.171V13.6621H109.045V17.0986ZM139.773 25.0723H122.748C122.868 27.0638 123.459 28.6211 124.522 29.7441C125.586 30.8522 127.001 31.4062 128.768 31.4062C130.34 31.4062 131.65 31.0768 132.698 30.418C133.746 29.7591 134.66 28.696 135.439 27.2285L139.549 29.5195C138.351 31.6608 136.869 33.2555 135.102 34.3037C133.335 35.3519 131.261 35.876 128.88 35.876C125.466 35.876 122.748 34.8353 120.727 32.7539C118.705 30.6725 117.694 27.8949 117.694 24.4209C117.694 21.0817 118.735 18.3415 120.816 16.2002C122.913 14.0439 125.601 12.9658 128.88 12.9658C132.309 12.9658 134.982 13.9466 136.898 15.9082C138.815 17.8698 139.773 20.6175 139.773 24.1514V25.0723ZM134.72 21.793C134.525 20.2656 133.941 19.1051 132.968 18.3115C131.995 17.5029 130.662 17.0986 128.97 17.0986C127.368 17.0986 126.08 17.488 125.106 18.2666C124.133 19.0452 123.452 20.2207 123.063 21.793H134.72ZM143.032 35V13.707H147.614V17.1885C148.587 15.721 149.733 14.6504 151.051 13.9766C152.368 13.3027 153.971 12.9658 155.857 12.9658C157.445 12.9658 158.792 13.2204 159.9 13.7295C161.023 14.2236 161.899 14.9648 162.528 15.9531C162.903 16.5371 163.172 17.2184 163.337 17.9971C163.502 18.7757 163.584 20.1383 163.584 22.085V35H158.665V24.0615C158.665 21.2614 158.321 19.4046 157.632 18.4912C156.958 17.5628 155.752 17.0986 154.016 17.0986C152.877 17.0986 151.859 17.3083 150.961 17.7275C150.077 18.1468 149.381 18.7383 148.872 19.502C148.513 20.0111 148.258 20.6699 148.108 21.4785C147.974 22.2721 147.906 23.5449 147.906 25.2969V35H143.032ZM186.026 15.8633H187.396C190.361 15.8633 192.337 15.5413 193.326 14.8975C194.314 14.2536 194.808 13.1156 194.808 11.4834C194.808 9.73145 194.277 8.49609 193.213 7.77734C192.165 7.05859 190.226 6.69922 187.396 6.69922H186.026V15.8633ZM185.689 20.2432V35H180.68V2.11719H188.766C191.162 2.11719 192.921 2.25195 194.044 2.52148C195.183 2.77604 196.171 3.2028 197.009 3.80176C198.043 4.56543 198.851 5.59863 199.435 6.90137C200.019 8.18913 200.311 9.61165 200.311 11.1689C200.311 12.7262 200.019 14.1637 199.435 15.4814C198.851 16.7992 198.043 17.8324 197.009 18.5811C196.171 19.18 195.183 19.6068 194.044 19.8613C192.921 20.1159 191.162 20.2432 188.766 20.2432H187.711H185.689ZM203.143 35V0.185547H208.017V35H203.143ZM233.197 35H228.323V32.2373C227.455 33.4652 226.437 34.3786 225.269 34.9775C224.116 35.5765 222.791 35.876 221.293 35.876C218.283 35.876 215.91 34.8503 214.173 32.7988C212.451 30.7324 211.59 27.9098 211.59 24.3311C211.59 20.932 212.474 18.1917 214.24 16.1104C216.007 14.014 218.313 12.9658 221.158 12.9658C222.895 12.9658 224.378 13.3327 225.606 14.0664C226.849 14.7852 227.754 15.8258 228.323 17.1885V13.707H233.197V35ZM228.458 24.2861C228.458 22.085 227.942 20.3704 226.908 19.1426C225.89 17.9147 224.46 17.3008 222.618 17.3008C220.777 17.3008 219.324 17.9372 218.261 19.21C217.213 20.4678 216.689 22.2197 216.689 24.4658C216.689 26.7269 217.198 28.4714 218.216 29.6992C219.234 30.9271 220.672 31.541 222.529 31.541C224.281 31.541 225.703 30.8747 226.796 29.542C227.904 28.2093 228.458 26.4574 228.458 24.2861ZM241.757 45.0176H236.748L242.588 33.1582L234.772 13.707H240.162L244.07 24.7354C244.295 25.4092 244.49 26.098 244.654 26.8018C244.834 27.4906 244.976 28.1943 245.081 28.9131C245.276 28.1644 245.74 26.974 246.474 25.3418L246.586 25.0723L251.842 13.707H257.12L241.757 45.0176ZM277.339 22.085H286.503L283.134 14.583C282.939 14.1038 282.737 13.5573 282.527 12.9434C282.317 12.3145 282.108 11.6182 281.898 10.8545C281.719 11.5732 281.524 12.2471 281.314 12.876C281.12 13.4899 280.917 14.0589 280.708 14.583L277.339 22.085ZM292.118 35L288.389 26.5322H275.362L271.544 35H265.928L281.853 0.814453L297.756 35H292.118ZM303.485 17.0986C304.009 15.6911 304.698 14.6504 305.551 13.9766C306.42 13.3027 307.49 12.9658 308.763 12.9658C309.452 12.9658 310.126 13.0482 310.785 13.2129C311.459 13.3776 312.117 13.6172 312.761 13.9316L311.009 18.0645C310.59 17.765 310.133 17.5479 309.639 17.4131C309.16 17.2633 308.621 17.1885 308.022 17.1885C306.405 17.1885 305.244 17.8398 304.541 19.1426C303.837 20.4303 303.485 22.6016 303.485 25.6562V35H298.611V13.6621H303.485V17.0986ZM334.213 25.0723H317.188C317.308 27.0638 317.899 28.6211 318.962 29.7441C320.025 30.8522 321.441 31.4062 323.207 31.4062C324.78 31.4062 326.09 31.0768 327.138 30.418C328.186 29.7591 329.1 28.696 329.878 27.2285L333.989 29.5195C332.791 31.6608 331.308 33.2555 329.541 34.3037C327.775 35.3519 325.701 35.876 323.32 35.876C319.906 35.876 317.188 34.8353 315.166 32.7539C313.145 30.6725 312.134 27.8949 312.134 24.4209C312.134 21.0817 313.175 18.3415 315.256 16.2002C317.353 14.0439 320.04 12.9658 323.32 12.9658C326.749 12.9658 329.422 13.9466 331.338 15.9082C333.255 17.8698 334.213 20.6175 334.213 24.1514V25.0723ZM329.16 21.793C328.965 20.2656 328.381 19.1051 327.408 18.3115C326.434 17.5029 325.102 17.0986 323.41 17.0986C321.807 17.0986 320.52 17.488 319.546 18.2666C318.573 19.0452 317.892 20.2207 317.502 21.793H329.16ZM357.507 35H352.633V32.2373C351.765 33.4652 350.746 34.3786 349.578 34.9775C348.425 35.5765 347.1 35.876 345.603 35.876C342.593 35.876 340.22 34.8503 338.483 32.7988C336.761 30.7324 335.9 27.9098 335.9 24.3311C335.9 20.932 336.783 18.1917 338.55 16.1104C340.317 14.014 342.623 12.9658 345.468 12.9658C347.205 12.9658 348.687 13.3327 349.915 14.0664C351.158 14.7852 352.064 15.8258 352.633 17.1885V13.707H357.507V35ZM352.768 24.2861C352.768 22.085 352.251 20.3704 351.218 19.1426C350.2 17.9147 348.77 17.3008 346.928 17.3008C345.086 17.3008 343.634 17.9372 342.571 19.21C341.522 20.4678 340.998 22.2197 340.998 24.4658C340.998 26.7269 341.507 28.4714 342.526 29.6992C343.544 30.9271 344.981 31.541 346.838 31.541C348.59 31.541 350.013 30.8747 351.106 29.542C352.214 28.2093 352.768 26.4574 352.768 24.2861ZM365.977 29.4297L370.357 31.0469L364.517 43.0859L361.619 41.9404L365.977 29.4297ZM16.8076 77H13.0991V74.8979C12.4383 75.8322 11.6636 76.5272 10.7749 76.9829C9.89762 77.4386 8.88932 77.6665 7.75 77.6665C5.45996 77.6665 3.65413 76.8861 2.33252 75.3252C1.0223 73.7529 0.367188 71.6053 0.367188 68.8823C0.367188 66.2961 1.03939 64.2111 2.38379 62.6274C3.72819 61.0324 5.48275 60.2349 7.64746 60.2349C8.96908 60.2349 10.097 60.514 11.0312 61.0723C11.9769 61.6191 12.6662 62.411 13.0991 63.4478V60.7988H16.8076V77ZM13.2017 68.8481C13.2017 67.1733 12.8086 65.8688 12.0225 64.9346C11.2477 64.0003 10.1597 63.5332 8.7583 63.5332C7.35693 63.5332 6.25179 64.0174 5.44287 64.9858C4.64535 65.9429 4.24658 67.2759 4.24658 68.9849C4.24658 70.7052 4.63395 72.0326 5.40869 72.9668C6.18343 73.901 7.27718 74.3682 8.68994 74.3682C10.0229 74.3682 11.1053 73.8612 11.937 72.8472C12.7801 71.8332 13.2017 70.5002 13.2017 68.8481ZM45.1966 77.9741L41.4539 69.5488C41.1691 68.8994 40.9355 68.3241 40.7532 67.8228C40.5709 67.3101 40.4057 66.8088 40.2576 66.3188C40.007 67.0594 39.7848 67.6974 39.5911 68.2329C39.3974 68.757 39.2436 69.1501 39.1297 69.4121L35.2845 77.9741L26.8934 60.7988H30.8411L34.4813 68.6089C34.6294 68.9393 34.7718 69.395 34.9085 69.9761C35.0566 70.5457 35.1819 71.1781 35.2845 71.873C35.2959 71.4629 35.3642 71.0356 35.4896 70.5913C35.6149 70.147 35.8257 69.6001 36.1219 68.9507L40.0867 60.2007H40.3943L44.4275 68.9507C44.6782 69.4976 44.8605 70.0046 44.9744 70.4717C45.0997 70.9388 45.1738 71.4059 45.1966 71.873C45.2991 71.2578 45.4301 70.6768 45.5896 70.1299C45.7492 69.583 45.9314 69.0874 46.1365 68.6431L49.7083 60.7988H53.6219L45.1966 77.9741ZM67.278 68.9507C67.278 67.4468 66.7938 66.1764 65.8254 65.1396C64.857 64.0915 63.6721 63.5674 62.2707 63.5674C60.8807 63.5674 59.6958 64.0915 58.716 65.1396C57.7476 66.1764 57.2634 67.4468 57.2634 68.9507C57.2634 70.4546 57.7476 71.7306 58.716 72.7788C59.6958 73.8156 60.8807 74.334 62.2707 74.334C63.6607 74.334 64.8399 73.8156 65.8083 72.7788C66.7881 71.7306 67.278 70.4546 67.278 68.9507ZM53.3498 68.9165C53.3498 67.7316 53.572 66.6151 54.0163 65.5669C54.472 64.5073 55.1215 63.5674 55.9646 62.7471C56.7963 61.9382 57.7533 61.3172 58.8356 60.8843C59.918 60.4513 61.0516 60.2349 62.2365 60.2349C63.4556 60.2349 64.6006 60.4513 65.6716 60.8843C66.7539 61.3172 67.7224 61.9552 68.5769 62.7983C69.4313 63.63 70.0808 64.57 70.5251 65.6182C70.9694 66.6663 71.1916 67.7658 71.1916 68.9165C71.1916 70.1128 70.9694 71.235 70.5251 72.2832C70.0922 73.3314 69.4541 74.2599 68.611 75.0688C67.7224 75.9233 66.7368 76.5671 65.6545 77C64.5721 77.4443 63.4328 77.6665 62.2365 77.6665C61.063 77.6665 59.9351 77.4443 58.8527 77C57.7704 76.5671 56.8076 75.9347 55.9646 75.103C55.1101 74.2599 54.4606 73.3143 54.0163 72.2661C53.572 71.2179 53.3498 70.1014 53.3498 68.9165ZM77.4308 63.3794C77.8295 62.3084 78.3536 61.5166 79.003 61.0039C79.6638 60.4912 80.4785 60.2349 81.4469 60.2349C81.971 60.2349 82.4837 60.2975 82.985 60.4229C83.4977 60.5482 83.999 60.7305 84.4889 60.9697L83.1559 64.1143C82.8369 63.8864 82.4894 63.7212 82.1134 63.6187C81.7488 63.5047 81.3386 63.4478 80.8829 63.4478C79.6524 63.4478 78.7695 63.9434 78.234 64.9346C77.6985 65.9144 77.4308 67.5664 77.4308 69.8906V77H73.7223V60.7646H77.4308V63.3794ZM85.3789 77V50.5107H89.0874V77H85.3789ZM104.641 68.8481C104.641 67.1733 104.247 65.8688 103.461 64.9346C102.687 64.0003 101.599 63.5332 100.197 63.5332C98.7958 63.5332 97.6907 64.0174 96.8817 64.9858C96.0842 65.9429 95.6854 67.2759 95.6854 68.9849C95.6854 70.7052 96.0728 72.0326 96.8476 72.9668C97.6223 73.901 98.716 74.3682 100.129 74.3682C101.473 74.3682 102.561 73.8669 103.393 72.8643C104.225 71.8503 104.641 70.5116 104.641 68.8481ZM104.538 50.5107H108.246V77H104.538V74.8979C103.877 75.8322 103.102 76.5272 102.214 76.9829C101.336 77.4386 100.328 77.6665 99.1889 77.6665C96.8988 77.6665 95.093 76.8861 93.7714 75.3252C92.4612 73.7529 91.8061 71.6053 91.8061 68.8823C91.8061 66.2961 92.4783 64.2111 93.8227 62.6274C95.1671 61.0324 96.9216 60.2349 99.0863 60.2349C100.408 60.2349 101.536 60.514 102.47 61.0723C103.416 61.6191 104.105 62.411 104.538 63.4478V50.5107ZM133.867 68.9507C133.867 67.4468 133.383 66.1764 132.414 65.1396C131.446 64.0915 130.261 63.5674 128.86 63.5674C127.47 63.5674 126.285 64.0915 125.305 65.1396C124.336 66.1764 123.852 67.4468 123.852 68.9507C123.852 70.4546 124.336 71.7306 125.305 72.7788C126.285 73.8156 127.47 74.334 128.86 74.334C130.25 74.334 131.429 73.8156 132.397 72.7788C133.377 71.7306 133.867 70.4546 133.867 68.9507ZM119.939 68.9165C119.939 67.7316 120.161 66.6151 120.605 65.5669C121.061 64.5073 121.71 63.5674 122.553 62.7471C123.385 61.9382 124.342 61.3172 125.425 60.8843C126.507 60.4513 127.64 60.2349 128.825 60.2349C130.044 60.2349 131.189 60.4513 132.26 60.8843C133.343 61.3172 134.311 61.9552 135.166 62.7983C136.02 63.63 136.67 64.57 137.114 65.6182C137.558 66.6663 137.78 67.7658 137.78 68.9165C137.78 70.1128 137.558 71.235 137.114 72.2832C136.681 73.3314 136.043 74.2599 135.2 75.0688C134.311 75.9233 133.326 76.5671 132.243 77C131.161 77.4443 130.022 77.6665 128.825 77.6665C127.652 77.6665 126.524 77.4443 125.442 77C124.359 76.5671 123.397 75.9347 122.553 75.103C121.699 74.2599 121.05 73.3143 120.605 72.2661C120.161 71.2179 119.939 70.1014 119.939 68.9165ZM140.824 77V64.0459H137.987V60.7988H140.824V56.458C140.824 54.3047 141.268 52.7153 142.157 51.6899C143.057 50.6646 144.447 50.1519 146.327 50.1519C146.726 50.1519 147.136 50.1803 147.557 50.2373C147.979 50.2943 148.406 50.3854 148.839 50.5107V53.8604C148.543 53.6895 148.241 53.5641 147.933 53.4844C147.637 53.3932 147.335 53.3477 147.027 53.3477C146.139 53.3477 145.501 53.6211 145.113 54.168C144.726 54.7148 144.532 55.6377 144.532 56.9365V60.7988H148.429V64.0459H144.532V77H140.824ZM174.306 77.9741L170.563 69.5488C170.278 68.8994 170.045 68.3241 169.862 67.8228C169.68 67.3101 169.515 66.8088 169.367 66.3188C169.116 67.0594 168.894 67.6974 168.7 68.2329C168.506 68.757 168.353 69.1501 168.239 69.4121L164.393 77.9741L156.002 60.7988H159.95L163.59 68.6089C163.738 68.9393 163.881 69.395 164.017 69.9761C164.166 70.5457 164.291 71.1781 164.393 71.873C164.405 71.4629 164.473 71.0356 164.599 70.5913C164.724 70.147 164.935 69.6001 165.231 68.9507L169.196 60.2007H169.503L173.537 68.9507C173.787 69.4976 173.969 70.0046 174.083 70.4717C174.209 70.9388 174.283 71.4059 174.306 71.873C174.408 71.2578 174.539 70.6768 174.699 70.1299C174.858 69.583 175.04 69.0874 175.246 68.6431L178.817 60.7988H182.731L174.306 77.9741ZM196.387 68.9507C196.387 67.4468 195.903 66.1764 194.934 65.1396C193.966 64.0915 192.781 63.5674 191.38 63.5674C189.99 63.5674 188.805 64.0915 187.825 65.1396C186.857 66.1764 186.372 67.4468 186.372 68.9507C186.372 70.4546 186.857 71.7306 187.825 72.7788C188.805 73.8156 189.99 74.334 191.38 74.334C192.77 74.334 193.949 73.8156 194.917 72.7788C195.897 71.7306 196.387 70.4546 196.387 68.9507ZM182.459 68.9165C182.459 67.7316 182.681 66.6151 183.125 65.5669C183.581 64.5073 184.23 63.5674 185.074 62.7471C185.905 61.9382 186.862 61.3172 187.945 60.8843C189.027 60.4513 190.161 60.2349 191.346 60.2349C192.565 60.2349 193.71 60.4513 194.781 60.8843C195.863 61.3172 196.831 61.9552 197.686 62.7983C198.54 63.63 199.19 64.57 199.634 65.6182C200.078 66.6663 200.301 67.7658 200.301 68.9165C200.301 70.1128 200.078 71.235 199.634 72.2832C199.201 73.3314 198.563 74.2599 197.72 75.0688C196.831 75.9233 195.846 76.5671 194.763 77C193.681 77.4443 192.542 77.6665 191.346 77.6665C190.172 77.6665 189.044 77.4443 187.962 77C186.879 76.5671 185.917 75.9347 185.074 75.103C184.219 74.2599 183.57 73.3143 183.125 72.2661C182.681 71.2179 182.459 70.1014 182.459 68.9165ZM202.831 77V60.7988H206.318V63.4478C207.058 62.3312 207.93 61.5166 208.932 61.0039C209.935 60.4912 211.154 60.2349 212.59 60.2349C213.797 60.2349 214.823 60.4285 215.666 60.8159C216.52 61.1919 217.187 61.7559 217.665 62.5078C217.95 62.9521 218.155 63.4705 218.28 64.063C218.406 64.6554 218.468 65.6922 218.468 67.1733V77H214.726V68.6772C214.726 66.5467 214.464 65.134 213.94 64.439C213.427 63.7326 212.51 63.3794 211.188 63.3794C210.322 63.3794 209.548 63.5389 208.864 63.8579C208.192 64.1769 207.662 64.627 207.275 65.208C207.001 65.5954 206.807 66.0967 206.694 66.7119C206.591 67.3158 206.54 68.2842 206.54 69.6172V77H202.831ZM233.646 68.8481C233.646 67.1733 233.253 65.8688 232.466 64.9346C231.692 64.0003 230.604 63.5332 229.202 63.5332C227.801 63.5332 226.696 64.0174 225.887 64.9858C225.089 65.9429 224.691 67.2759 224.691 68.9849C224.691 70.7052 225.078 72.0326 225.853 72.9668C226.627 73.901 227.721 74.3682 229.134 74.3682C230.478 74.3682 231.566 73.8669 232.398 72.8643C233.23 71.8503 233.646 70.5116 233.646 68.8481ZM233.543 50.5107H237.252V77H233.543V74.8979C232.882 75.8322 232.108 76.5272 231.219 76.9829C230.342 77.4386 229.333 77.6665 228.194 77.6665C225.904 77.6665 224.098 76.8861 222.776 75.3252C221.466 73.7529 220.811 71.6053 220.811 68.8823C220.811 66.2961 221.483 64.2111 222.828 62.6274C224.172 61.0324 225.927 60.2349 228.091 60.2349C229.413 60.2349 230.541 60.514 231.475 61.0723C232.421 61.6191 233.11 62.411 233.543 63.4478V50.5107ZM256.582 69.4463H243.627C243.719 70.9616 244.169 72.1465 244.978 73.001C245.786 73.8441 246.863 74.2656 248.208 74.2656C249.404 74.2656 250.401 74.015 251.198 73.5137C251.996 73.0124 252.691 72.2035 253.283 71.0869L256.411 72.8301C255.499 74.4593 254.371 75.6727 253.027 76.4702C251.682 77.2677 250.104 77.6665 248.293 77.6665C245.695 77.6665 243.627 76.8747 242.089 75.291C240.551 73.7074 239.782 71.5939 239.782 68.9507C239.782 66.41 240.574 64.325 242.158 62.6958C243.753 61.0552 245.798 60.2349 248.293 60.2349C250.902 60.2349 252.936 60.9811 254.394 62.4736C255.852 63.9661 256.582 66.0568 256.582 68.7456V69.4463ZM252.736 66.9512C252.588 65.7891 252.144 64.9061 251.403 64.3022C250.663 63.687 249.649 63.3794 248.361 63.3794C247.142 63.3794 246.162 63.6756 245.422 64.2681C244.681 64.8605 244.163 65.7549 243.867 66.9512H252.736ZM262.769 63.3794C263.168 62.3084 263.692 61.5166 264.342 61.0039C265.003 60.4912 265.817 60.2349 266.786 60.2349C267.31 60.2349 267.822 60.2975 268.324 60.4229C268.836 60.5482 269.338 60.7305 269.828 60.9697L268.495 64.1143C268.176 63.8864 267.828 63.7212 267.452 63.6187C267.087 63.5047 266.677 63.4478 266.222 63.4478C264.991 63.4478 264.108 63.9434 263.573 64.9346C263.037 65.9144 262.769 67.5664 262.769 69.8906V77H259.061V60.7646H262.769V63.3794ZM280.221 77V64.0459H277.384V60.7988H280.221V56.458C280.221 54.3047 280.665 52.7153 281.554 51.6899C282.454 50.6646 283.844 50.1519 285.724 50.1519C286.123 50.1519 286.533 50.1803 286.954 50.2373C287.376 50.2943 287.803 50.3854 288.236 50.5107V53.8604C287.94 53.6895 287.638 53.5641 287.33 53.4844C287.034 53.3932 286.732 53.3477 286.424 53.3477C285.536 53.3477 284.898 53.6211 284.51 54.168C284.123 54.7148 283.929 55.6377 283.929 56.9365V60.7988H287.826V64.0459H283.929V77H280.221ZM301.773 68.9507C301.773 67.4468 301.288 66.1764 300.32 65.1396C299.351 64.0915 298.167 63.5674 296.765 63.5674C295.375 63.5674 294.19 64.0915 293.211 65.1396C292.242 66.1764 291.758 67.4468 291.758 68.9507C291.758 70.4546 292.242 71.7306 293.211 72.7788C294.19 73.8156 295.375 74.334 296.765 74.334C298.155 74.334 299.334 73.8156 300.303 72.7788C301.283 71.7306 301.773 70.4546 301.773 68.9507ZM287.844 68.9165C287.844 67.7316 288.066 66.6151 288.511 65.5669C288.967 64.5073 289.616 63.5674 290.459 62.7471C291.291 61.9382 292.248 61.3172 293.33 60.8843C294.413 60.4513 295.546 60.2349 296.731 60.2349C297.95 60.2349 299.095 60.4513 300.166 60.8843C301.248 61.3172 302.217 61.9552 303.071 62.7983C303.926 63.63 304.575 64.57 305.02 65.6182C305.464 66.6663 305.686 67.7658 305.686 68.9165C305.686 70.1128 305.464 71.235 305.02 72.2832C304.587 73.3314 303.949 74.2599 303.106 75.0688C302.217 75.9233 301.231 76.5671 300.149 77C299.067 77.4443 297.927 77.6665 296.731 77.6665C295.558 77.6665 294.43 77.4443 293.347 77C292.265 76.5671 291.302 75.9347 290.459 75.103C289.605 74.2599 288.955 73.3143 288.511 72.2661C288.066 71.2179 287.844 70.1014 287.844 68.9165ZM311.925 63.3794C312.324 62.3084 312.848 61.5166 313.498 61.0039C314.158 60.4912 314.973 60.2349 315.941 60.2349C316.465 60.2349 316.978 60.2975 317.479 60.4229C317.992 60.5482 318.493 60.7305 318.983 60.9697L317.65 64.1143C317.331 63.8864 316.984 63.7212 316.608 63.6187C316.243 63.5047 315.833 63.4478 315.377 63.4478C314.147 63.4478 313.264 63.9434 312.729 64.9346C312.193 65.9144 311.925 67.5664 311.925 69.8906V77H308.217V60.7646H311.925V63.3794ZM329.035 77V50.5107H332.743V77H329.035ZM336.334 53.792C336.334 53.1654 336.562 52.6242 337.017 52.1685C337.484 51.7127 338.037 51.4849 338.675 51.4849C339.336 51.4849 339.883 51.707 340.316 52.1514C340.76 52.5843 340.982 53.1312 340.982 53.792C340.982 54.4528 340.76 55.0111 340.316 55.4668C339.871 55.9111 339.324 56.1333 338.675 56.1333C338.037 56.1333 337.484 55.9054 337.017 55.4497C336.562 54.9826 336.334 54.43 336.334 53.792ZM336.829 77V60.7988H340.538V77H336.829ZM345.324 77V64.0459H342.487V60.7988H345.324V54.6636H349.033V60.7988H351.87V64.0459H349.033V77H345.324ZM354.554 77V64.0459H351.717V60.7988H354.554V54.6636H358.263V60.7988H361.1V64.0459H358.263V77H354.554ZM363.083 77V50.5107H366.792V77H363.083ZM386.31 69.4463H373.356C373.447 70.9616 373.897 72.1465 374.706 73.001C375.515 73.8441 376.591 74.2656 377.936 74.2656C379.132 74.2656 380.129 74.015 380.927 73.5137C381.724 73.0124 382.419 72.2035 383.012 71.0869L386.139 72.8301C385.228 74.4593 384.1 75.6727 382.755 76.4702C381.411 77.2677 379.833 77.6665 378.021 77.6665C375.424 77.6665 373.356 76.8747 371.818 75.291C370.28 73.7074 369.511 71.5939 369.511 68.9507C369.511 66.41 370.302 64.325 371.886 62.6958C373.481 61.0552 375.526 60.2349 378.021 60.2349C380.63 60.2349 382.664 60.9811 384.122 62.4736C385.581 63.9661 386.31 66.0568 386.31 68.7456V69.4463ZM382.465 66.9512C382.317 65.7891 381.872 64.9061 381.132 64.3022C380.391 63.687 379.377 63.3794 378.09 63.3794C376.871 63.3794 375.891 63.6756 375.15 64.2681C374.41 64.8605 373.891 65.7549 373.595 66.9512H382.465ZM413.554 69.4463H400.6C400.691 70.9616 401.141 72.1465 401.95 73.001C402.759 73.8441 403.835 74.2656 405.18 74.2656C406.376 74.2656 407.373 74.015 408.171 73.5137C408.968 73.0124 409.663 72.2035 410.255 71.0869L413.383 72.8301C412.471 74.4593 411.344 75.6727 409.999 76.4702C408.655 77.2677 407.077 77.6665 405.265 77.6665C402.668 77.6665 400.6 76.8747 399.062 75.291C397.524 73.7074 396.754 71.5939 396.754 68.9507C396.754 66.41 397.546 64.325 399.13 62.6958C400.725 61.0552 402.77 60.2349 405.265 60.2349C407.874 60.2349 409.908 60.9811 411.366 62.4736C412.825 63.9661 413.554 66.0568 413.554 68.7456V69.4463ZM409.709 66.9512C409.56 65.7891 409.116 64.9061 408.376 64.3022C407.635 63.687 406.621 63.3794 405.334 63.3794C404.115 63.3794 403.135 63.6756 402.394 64.2681C401.654 64.8605 401.135 65.7549 400.839 66.9512H409.709ZM417.144 77H413.042L419.178 68.2842L413.931 60.7988H418.016L420.289 64.1484C420.528 64.4902 420.739 64.8206 420.921 65.1396C421.103 65.4587 421.268 65.7834 421.417 66.1138C421.553 65.8403 421.707 65.5555 421.878 65.2593C422.06 64.9517 422.288 64.57 422.562 64.1143L424.817 60.7988H428.868L423.621 68.3184L429.705 77H425.655L422.647 72.7446C422.613 72.6877 422.567 72.6193 422.51 72.5396C421.929 71.6623 421.553 70.9901 421.382 70.5229C421.154 70.9559 420.932 71.3604 420.716 71.7363C420.511 72.1009 420.3 72.4427 420.083 72.7617L417.144 77ZM434.081 68.8481C434.081 70.5229 434.497 71.8617 435.329 72.8643C436.172 73.8669 437.277 74.3682 438.644 74.3682C440.046 74.3682 441.128 73.901 441.892 72.9668C442.666 72.0326 443.054 70.7052 443.054 68.9849C443.054 67.2759 442.649 65.9429 441.84 64.9858C441.043 64.0174 439.943 63.5332 438.542 63.5332C437.141 63.5332 436.047 64.0003 435.261 64.9346C434.475 65.8688 434.081 67.1733 434.081 68.8481ZM430.493 84.6221V60.7988H434.201V63.4478C434.634 62.4224 435.323 61.6305 436.269 61.0723C437.226 60.514 438.365 60.2349 439.687 60.2349C441.84 60.2349 443.583 61.0324 444.916 62.6274C446.261 64.2111 446.933 66.2961 446.933 68.8823C446.933 71.6053 446.272 73.7529 444.951 75.3252C443.64 76.8861 441.84 77.6665 439.55 77.6665C438.411 77.6665 437.397 77.4386 436.508 76.9829C435.631 76.5272 434.862 75.8322 434.201 74.8979V84.6221H430.493ZM449.635 77V50.5107H453.343V77H449.635ZM469.99 68.9507C469.99 67.4468 469.506 66.1764 468.537 65.1396C467.569 64.0915 466.384 63.5674 464.983 63.5674C463.593 63.5674 462.408 64.0915 461.428 65.1396C460.459 66.1764 459.975 67.4468 459.975 68.9507C459.975 70.4546 460.459 71.7306 461.428 72.7788C462.408 73.8156 463.593 74.334 464.983 74.334C466.373 74.334 467.552 73.8156 468.52 72.7788C469.5 71.7306 469.99 70.4546 469.99 68.9507ZM456.062 68.9165C456.062 67.7316 456.284 66.6151 456.728 65.5669C457.184 64.5073 457.833 63.5674 458.676 62.7471C459.508 61.9382 460.465 61.3172 461.548 60.8843C462.63 60.4513 463.764 60.2349 464.948 60.2349C466.168 60.2349 467.313 60.4513 468.383 60.8843C469.466 61.3172 470.434 61.9552 471.289 62.7983C472.143 63.63 472.793 64.57 473.237 65.6182C473.681 66.6663 473.904 67.7658 473.904 68.9165C473.904 70.1128 473.681 71.235 473.237 72.2832C472.804 73.3314 472.166 74.2599 471.323 75.0688C470.434 75.9233 469.449 76.5671 468.366 77C467.284 77.4443 466.145 77.6665 464.948 77.6665C463.775 77.6665 462.647 77.4443 461.565 77C460.482 76.5671 459.52 75.9347 458.676 75.103C457.822 74.2599 457.173 73.3143 456.728 72.2661C456.284 71.2179 456.062 70.1014 456.062 68.9165ZM480.143 63.3794C480.541 62.3084 481.066 61.5166 481.715 61.0039C482.376 60.4912 483.19 60.2349 484.159 60.2349C484.683 60.2349 485.196 60.2975 485.697 60.4229C486.21 60.5482 486.711 60.7305 487.201 60.9697L485.868 64.1143C485.549 63.8864 485.201 63.7212 484.825 63.6187C484.461 63.5047 484.051 63.4478 483.595 63.4478C482.364 63.4478 481.481 63.9434 480.946 64.9346C480.41 65.9144 480.143 67.5664 480.143 69.8906V77H476.434V60.7646H480.143V63.3794ZM503.523 69.4463H490.569C490.66 70.9616 491.11 72.1465 491.919 73.001C492.728 73.8441 493.805 74.2656 495.149 74.2656C496.345 74.2656 497.342 74.015 498.14 73.5137C498.937 73.0124 499.632 72.2035 500.225 71.0869L503.352 72.8301C502.441 74.4593 501.313 75.6727 499.968 76.4702C498.624 77.2677 497.046 77.6665 495.234 77.6665C492.637 77.6665 490.569 76.8747 489.031 75.291C487.493 73.7074 486.724 71.5939 486.724 68.9507C486.724 66.41 487.515 64.325 489.099 62.6958C490.694 61.0552 492.739 60.2349 495.234 60.2349C497.843 60.2349 499.877 60.9811 501.335 62.4736C502.794 63.9661 503.523 66.0568 503.523 68.7456V69.4463ZM499.678 66.9512C499.53 65.7891 499.085 64.9061 498.345 64.3022C497.604 63.687 496.59 63.3794 495.303 63.3794C494.084 63.3794 493.104 63.6756 492.363 64.2681C491.623 64.8605 491.104 65.7549 490.808 66.9512H499.678ZM509.711 63.3794C510.11 62.3084 510.634 61.5166 511.283 61.0039C511.944 60.4912 512.759 60.2349 513.727 60.2349C514.251 60.2349 514.764 60.2975 515.265 60.4229C515.778 60.5482 516.279 60.7305 516.769 60.9697L515.436 64.1143C515.117 63.8864 514.769 63.7212 514.393 63.6187C514.029 63.5047 513.619 63.4478 513.163 63.4478C511.933 63.4478 511.05 63.9434 510.514 64.9346C509.979 65.9144 509.711 67.5664 509.711 69.8906V77H506.002V60.7646H509.711V63.3794ZM515.625 74.0605L518.701 72.3857C518.929 73.1947 519.351 73.8099 519.966 74.2314C520.581 74.653 521.373 74.8638 522.342 74.8638C523.173 74.8638 523.823 74.6758 524.29 74.2998C524.768 73.9124 525.008 73.3883 525.008 72.7275C525.008 71.8503 524.165 71.0983 522.478 70.4717C521.909 70.2666 521.47 70.0957 521.162 69.959C519.431 69.2412 518.217 68.512 517.522 67.7715C516.839 67.0309 516.497 66.1309 516.497 65.0713C516.497 63.6243 517.061 62.4508 518.189 61.5508C519.328 60.6507 520.832 60.2007 522.701 60.2007C523.954 60.2007 525.025 60.4342 525.913 60.9014C526.813 61.3571 527.469 62.0122 527.879 62.8667L525.247 64.6782C525.053 64.1655 524.711 63.7611 524.221 63.4648C523.743 63.1572 523.185 63.0034 522.547 63.0034C521.84 63.0034 521.271 63.1743 520.838 63.5161C520.416 63.8465 520.205 64.2909 520.205 64.8491C520.205 65.6922 521.162 66.4613 523.076 67.1562C523.68 67.3727 524.147 67.5493 524.478 67.686C525.97 68.2785 527.036 68.9507 527.674 69.7026C528.323 70.4432 528.648 71.3717 528.648 72.4883C528.648 74.1061 528.061 75.3765 526.888 76.2993C525.714 77.2108 524.096 77.6665 522.034 77.6665C520.45 77.6665 519.134 77.3703 518.086 76.7778C517.038 76.1854 516.218 75.2796 515.625 74.0605ZM531.469 75.103C531.469 74.4764 531.685 73.9409 532.118 73.4966C532.551 73.0522 533.081 72.8301 533.708 72.8301C534.334 72.8301 534.864 73.0522 535.297 73.4966C535.73 73.9409 535.946 74.4764 535.946 75.103C535.946 75.7183 535.73 76.2424 535.297 76.6753C534.864 77.0968 534.334 77.3076 533.708 77.3076C533.081 77.3076 532.551 77.0968 532.118 76.6753C531.685 76.2424 531.469 75.7183 531.469 75.103Z" fill="white"/>
</svg>
