<svg width="452" height="77" viewBox="0 0 452 77" fill="none" xmlns="http://www.w3.org/2000/svg">
<path d="M30.165 9.11328C28.6527 7.82552 27.0505 6.8597 25.3584 6.21582C23.6813 5.57194 21.9144 5.25 20.0576 5.25C16.4639 5.25 13.5365 6.40299 11.2754 8.70898C9.0293 11.015 7.90625 14.0023 7.90625 17.6709C7.90625 21.2197 8.99935 24.1471 11.1855 26.4531C13.3867 28.7591 16.1569 29.9121 19.4961 29.9121C21.4427 29.9121 23.292 29.5677 25.0439 28.8789C26.8109 28.1901 28.5029 27.1494 30.1201 25.7568V31.7988C28.6826 32.832 27.1178 33.6032 25.4258 34.1123C23.7337 34.6214 21.8994 34.876 19.9229 34.876C17.4072 34.876 15.0788 34.4642 12.9375 33.6406C10.8112 32.8171 8.93945 31.6042 7.32227 30.002C5.72005 28.4297 4.4847 26.5804 3.61621 24.4541C2.7627 22.3128 2.33594 20.0368 2.33594 17.626C2.33594 15.2152 2.7627 12.9541 3.61621 10.8428C4.4847 8.71647 5.73503 6.85221 7.36719 5.25C8.99935 3.63281 10.8711 2.41243 12.9824 1.58887C15.0938 0.750326 17.3773 0.331055 19.833 0.331055C21.7646 0.331055 23.6064 0.61556 25.3584 1.18457C27.1104 1.73861 28.8099 2.58464 30.457 3.72266L30.165 9.11328ZM51.2801 23.4209C51.2801 21.4443 50.6437 19.7747 49.3709 18.4121C48.0982 17.0345 46.5409 16.3457 44.6991 16.3457C42.8722 16.3457 41.3149 17.0345 40.0272 18.4121C38.7544 19.7747 38.118 21.4443 38.118 23.4209C38.118 25.3975 38.7544 27.0745 40.0272 28.4521C41.3149 29.8148 42.8722 30.4961 44.6991 30.4961C46.5259 30.4961 48.0757 29.8148 49.3485 28.4521C50.6362 27.0745 51.2801 25.3975 51.2801 23.4209ZM32.9745 23.376C32.9745 21.8187 33.2664 20.3512 33.8504 18.9736C34.4494 17.5811 35.3029 16.3457 36.411 15.2676C37.5041 14.2044 38.7619 13.3883 40.1844 12.8193C41.6069 12.2503 43.0968 11.9658 44.6541 11.9658C46.2564 11.9658 47.7612 12.2503 49.1688 12.8193C50.5913 13.3883 51.8641 14.2269 52.9871 15.335C54.1102 16.4281 54.9637 17.6634 55.5477 19.041C56.1317 20.4186 56.4237 21.8636 56.4237 23.376C56.4237 24.9482 56.1317 26.4232 55.5477 27.8008C54.9787 29.1784 54.1401 30.3988 53.0321 31.4619C51.8641 32.585 50.5689 33.431 49.1463 34C47.7238 34.584 46.2264 34.876 44.6541 34.876C43.1118 34.876 41.6294 34.584 40.2069 34C38.7843 33.431 37.519 32.5999 36.411 31.5068C35.2879 30.3988 34.4344 29.1559 33.8504 27.7783C33.2664 26.4007 32.9745 24.9333 32.9745 23.376ZM64.6237 34H59.7497V12.707H64.3317V16.1885C65.305 14.7061 66.4056 13.6279 67.6335 12.9541C68.8763 12.2653 70.3363 11.9209 72.0134 11.9209C73.6755 11.9209 75.0531 12.2728 76.1462 12.9766C77.2393 13.6654 78.0703 14.721 78.6393 16.1436C79.7624 14.6761 80.9528 13.6055 82.2106 12.9316C83.4834 12.2578 84.9284 11.9209 86.5456 11.9209C87.9531 11.9209 89.181 12.1829 90.2292 12.707C91.2774 13.2161 92.0934 13.9648 92.6774 14.9531C92.947 15.4173 93.1416 15.9714 93.2614 16.6152C93.3962 17.2591 93.4636 18.18 93.4636 19.3779V21.085V34H88.5895V23.0615C88.5895 20.2015 88.2826 18.3223 87.6686 17.4238C87.0697 16.5104 85.9915 16.0537 84.4343 16.0537C82.5176 16.0537 81.1475 16.6676 80.3239 17.8955C79.5153 19.1084 79.111 21.2422 79.111 24.2969V34H74.1921V23.0615C74.1921 20.4261 73.8701 18.5993 73.2262 17.5811C72.5973 16.5628 71.5042 16.0537 69.947 16.0537C68.9886 16.0537 68.1126 16.2708 67.319 16.7051C66.5254 17.1393 65.8965 17.7383 65.4323 18.502C65.1328 18.9961 64.9232 19.6025 64.8034 20.3213C64.6836 21.04 64.6237 22.3652 64.6237 24.2969V34ZM103.034 34H98.1597V12.707H102.742V16.1885C103.715 14.7061 104.816 13.6279 106.043 12.9541C107.286 12.2653 108.746 11.9209 110.423 11.9209C112.085 11.9209 113.463 12.2728 114.556 12.9766C115.649 13.6654 116.48 14.721 117.049 16.1436C118.172 14.6761 119.363 13.6055 120.621 12.9316C121.893 12.2578 123.338 11.9209 124.956 11.9209C126.363 11.9209 127.591 12.1829 128.639 12.707C129.687 13.2161 130.503 13.9648 131.087 14.9531C131.357 15.4173 131.552 15.9714 131.671 16.6152C131.806 17.2591 131.874 18.18 131.874 19.3779V21.085V34H127V23.0615C127 20.2015 126.693 18.3223 126.079 17.4238C125.48 16.5104 124.402 16.0537 122.844 16.0537C120.928 16.0537 119.557 16.6676 118.734 17.8955C117.925 19.1084 117.521 21.2422 117.521 24.2969V34H112.602V23.0615C112.602 20.4261 112.28 18.5993 111.636 17.5811C111.007 16.5628 109.914 16.0537 108.357 16.0537C107.399 16.0537 106.523 16.2708 105.729 16.7051C104.935 17.1393 104.307 17.7383 103.842 18.502C103.543 18.9961 103.333 19.6025 103.213 20.3213C103.094 21.04 103.034 22.3652 103.034 24.2969V34ZM141.286 12.707V24.7012C141.286 26.7676 141.713 28.25 142.567 29.1484C143.42 30.0469 144.805 30.4961 146.722 30.4961C148.639 30.4961 150.024 30.0469 150.877 29.1484C151.731 28.25 152.158 26.7676 152.158 24.7012V12.707H157.032V23.2412C157.032 27.3141 156.216 30.2715 154.583 32.1133C152.951 33.9551 150.346 34.876 146.767 34.876C143.128 34.876 140.493 33.9626 138.861 32.1357C137.229 30.3089 136.412 27.3441 136.412 23.2412V12.707H141.286ZM161.773 34V12.707H166.355V16.1885C167.328 14.721 168.474 13.6504 169.791 12.9766C171.109 12.3027 172.711 11.9658 174.598 11.9658C176.185 11.9658 177.533 12.2204 178.641 12.7295C179.764 13.2236 180.64 13.9648 181.269 14.9531C181.643 15.5371 181.913 16.2184 182.077 16.9971C182.242 17.7757 182.324 19.1383 182.324 21.085V34H177.405V23.0615C177.405 20.2614 177.061 18.4046 176.372 17.4912C175.698 16.5628 174.493 16.0986 172.756 16.0986C171.618 16.0986 170.6 16.3083 169.701 16.7275C168.818 17.1468 168.122 17.7383 167.613 18.502C167.253 19.0111 166.999 19.6699 166.849 20.4785C166.714 21.2721 166.647 22.5449 166.647 24.2969V34H161.773ZM186.549 3.49805C186.549 2.67448 186.848 1.96322 187.447 1.36426C188.061 0.765299 188.787 0.46582 189.626 0.46582C190.495 0.46582 191.213 0.757812 191.782 1.3418C192.366 1.91081 192.658 2.62956 192.658 3.49805C192.658 4.36654 192.366 5.10026 191.782 5.69922C191.198 6.2832 190.48 6.5752 189.626 6.5752C188.787 6.5752 188.061 6.27572 187.447 5.67676C186.848 5.06283 186.549 4.33659 186.549 3.49805ZM187.2 34V12.707H192.074V34H187.2ZM198.365 34V16.9746H194.637V12.707H198.365V4.64355H203.239V12.707H206.968V16.9746H203.239V34H198.365ZM213.011 44.0176H208.003L213.842 32.1582L206.026 12.707H211.417L215.325 23.7354C215.55 24.4092 215.744 25.098 215.909 25.8018C216.089 26.4906 216.231 27.1943 216.336 27.9131C216.53 27.1644 216.995 25.974 217.728 24.3418L217.841 24.0723L223.096 12.707H228.375L213.011 44.0176ZM241.653 34V1.11719H260.003V5.6543H246.998V13.8525H260.003V18.5469H246.998V34H241.653ZM283.612 34H278.738V31.2373C277.869 32.4652 276.851 33.3786 275.683 33.9775C274.53 34.5765 273.205 34.876 271.707 34.876C268.698 34.876 266.324 33.8503 264.587 31.7988C262.865 29.7324 262.004 26.9098 262.004 23.3311C262.004 19.932 262.888 17.1917 264.655 15.1104C266.421 13.014 268.727 11.9658 271.573 11.9658C273.309 11.9658 274.792 12.3327 276.02 13.0664C277.263 13.7852 278.169 14.8258 278.738 16.1885V12.707H283.612V34ZM278.872 23.2861C278.872 21.085 278.356 19.3704 277.323 18.1426C276.304 16.9147 274.874 16.3008 273.032 16.3008C271.191 16.3008 269.738 16.9372 268.675 18.21C267.627 19.4678 267.103 21.2197 267.103 23.4658C267.103 25.7269 267.612 27.4714 268.63 28.6992C269.648 29.9271 271.086 30.541 272.943 30.541C274.695 30.541 276.117 29.8747 277.21 28.542C278.318 27.2093 278.872 25.4574 278.872 23.2861ZM293.384 16.0986C293.908 14.6911 294.597 13.6504 295.45 12.9766C296.319 12.3027 297.389 11.9658 298.662 11.9658C299.351 11.9658 300.025 12.0482 300.684 12.2129C301.358 12.3776 302.016 12.6172 302.66 12.9316L300.908 17.0645C300.489 16.765 300.032 16.5479 299.538 16.4131C299.059 16.2633 298.52 16.1885 297.921 16.1885C296.304 16.1885 295.143 16.8398 294.44 18.1426C293.736 19.4303 293.384 21.6016 293.384 24.6562V34H288.51V12.6621H293.384V16.0986ZM308.479 34H303.605V12.707H308.187V16.1885C309.161 14.7061 310.261 13.6279 311.489 12.9541C312.732 12.2653 314.192 11.9209 315.869 11.9209C317.531 11.9209 318.909 12.2728 320.002 12.9766C321.095 13.6654 321.926 14.721 322.495 16.1436C323.618 14.6761 324.809 13.6055 326.066 12.9316C327.339 12.2578 328.784 11.9209 330.401 11.9209C331.809 11.9209 333.037 12.1829 334.085 12.707C335.133 13.2161 335.949 13.9648 336.533 14.9531C336.803 15.4173 336.997 15.9714 337.117 16.6152C337.252 17.2591 337.319 18.18 337.319 19.3779V21.085V34H332.445V23.0615C332.445 20.2015 332.138 18.3223 331.524 17.4238C330.925 16.5104 329.847 16.0537 328.29 16.0537C326.373 16.0537 325.003 16.6676 324.18 17.8955C323.371 19.1084 322.967 21.2422 322.967 24.2969V34H318.048V23.0615C318.048 20.4261 317.726 18.5993 317.082 17.5811C316.453 16.5628 315.36 16.0537 313.803 16.0537C312.844 16.0537 311.968 16.2708 311.175 16.7051C310.381 17.1393 309.752 17.7383 309.288 18.502C308.989 18.9961 308.779 19.6025 308.659 20.3213C308.539 21.04 308.479 22.3652 308.479 24.2969V34ZM341.589 3.49805C341.589 2.67448 341.888 1.96322 342.487 1.36426C343.101 0.765299 343.827 0.46582 344.666 0.46582C345.534 0.46582 346.253 0.757812 346.822 1.3418C347.406 1.91081 347.698 2.62956 347.698 3.49805C347.698 4.36654 347.406 5.10026 346.822 5.69922C346.238 6.2832 345.519 6.5752 344.666 6.5752C343.827 6.5752 343.101 6.27572 342.487 5.67676C341.888 5.06283 341.589 4.33659 341.589 3.49805ZM342.24 34V12.707H347.114V34H342.24ZM352.259 34V12.707H356.841V16.1885C357.815 14.721 358.96 13.6504 360.278 12.9766C361.596 12.3027 363.198 11.9658 365.085 11.9658C366.672 11.9658 368.019 12.2204 369.128 12.7295C370.251 13.2236 371.127 13.9648 371.755 14.9531C372.13 15.5371 372.399 16.2184 372.564 16.9971C372.729 17.7757 372.811 19.1383 372.811 21.085V34H367.892V23.0615C367.892 20.2614 367.548 18.4046 366.859 17.4912C366.185 16.5628 364.98 16.0986 363.243 16.0986C362.105 16.0986 361.087 16.3083 360.188 16.7275C359.305 17.1468 358.608 17.7383 358.099 18.502C357.74 19.0111 357.485 19.6699 357.336 20.4785C357.201 21.2721 357.133 22.5449 357.133 24.2969V34H352.259ZM392.758 23.2861C392.758 21.085 392.242 19.3704 391.208 18.1426C390.19 16.9147 388.76 16.3008 386.918 16.3008C385.077 16.3008 383.624 16.9372 382.561 18.21C381.513 19.4678 380.989 21.2197 380.989 23.4658C380.989 25.7269 381.498 27.4714 382.516 28.6992C383.534 29.9271 384.972 30.541 386.829 30.541C388.581 30.541 390.003 29.8747 391.096 28.542C392.204 27.2093 392.758 25.4574 392.758 23.2861ZM397.497 32.6748C397.497 36.8376 396.666 39.765 395.004 41.457C393.342 43.1641 390.542 44.0176 386.604 44.0176C383.669 44.0176 381.326 43.3962 379.574 42.1533C377.822 40.9255 376.931 39.2858 376.901 37.2344L382.134 37.2119C382.209 38.1253 382.636 38.8216 383.414 39.3008C384.193 39.7799 385.286 40.0195 386.694 40.0195C388.775 40.0195 390.273 39.5628 391.186 38.6494C392.099 37.736 392.564 36.2087 392.579 34.0674L392.623 31.2373C391.755 32.4652 390.737 33.3786 389.569 33.9775C388.416 34.5765 387.091 34.876 385.593 34.876C382.583 34.876 380.21 33.8503 378.473 31.7988C376.751 29.7324 375.89 26.9098 375.89 23.3311C375.89 19.932 376.774 17.1917 378.54 15.1104C380.307 13.014 382.613 11.9658 385.458 11.9658C387.195 11.9658 388.678 12.3327 389.906 13.0664C391.149 13.7852 392.054 14.8258 392.623 16.1885V12.707H397.497V32.6748ZM405.158 28.4297L409.538 30.0469L403.699 42.0859L400.801 40.9404L405.158 28.4297ZM3.43506 76V63.0459H0.598145V59.7988H3.43506V53.6636H7.14355V59.7988H9.98047V63.0459H7.14355V76H3.43506ZM24.5253 67.9507C24.5253 66.4468 24.0411 65.1764 23.0727 64.1396C22.1042 63.0915 20.9193 62.5674 19.518 62.5674C18.128 62.5674 16.9431 63.0915 15.9633 64.1396C14.9949 65.1764 14.5106 66.4468 14.5106 67.9507C14.5106 69.4546 14.9949 70.7306 15.9633 71.7788C16.9431 72.8156 18.128 73.334 19.518 73.334C20.9079 73.334 22.0871 72.8156 23.0556 71.7788C24.0354 70.7306 24.5253 69.4546 24.5253 67.9507ZM10.5971 67.9165C10.5971 66.7316 10.8192 65.6151 11.2636 64.5669C11.7193 63.5073 12.3687 62.5674 13.2118 61.7471C14.0435 60.9382 15.0006 60.3172 16.0829 59.8843C17.1653 59.4513 18.2989 59.2349 19.4838 59.2349C20.7029 59.2349 21.8479 59.4513 22.9188 59.8843C24.0012 60.3172 24.9696 60.9552 25.8241 61.7983C26.6786 62.63 27.328 63.57 27.7724 64.6182C28.2167 65.6663 28.4389 66.7658 28.4389 67.9165C28.4389 69.1128 28.2167 70.235 27.7724 71.2832C27.3394 72.3314 26.7014 73.2599 25.8583 74.0688C24.9696 74.9233 23.9841 75.5671 22.9018 76C21.8194 76.4443 20.6801 76.6665 19.4838 76.6665C18.3103 76.6665 17.1824 76.4443 16.1 76C15.0176 75.5671 14.0549 74.9347 13.2118 74.103C12.3573 73.2599 11.7079 72.3143 11.2636 71.2661C10.8192 70.2179 10.5971 69.1014 10.5971 67.9165ZM60.5192 57.0645C59.3685 56.0846 58.1494 55.3498 56.862 54.8599C55.586 54.37 54.2416 54.125 52.8288 54.125C50.0944 54.125 47.8671 55.0023 46.1467 56.7568C44.4377 58.5114 43.5832 60.7843 43.5832 63.5757C43.5832 66.2759 44.4149 68.5033 46.0783 70.2578C47.7531 72.0124 49.8609 72.8896 52.4016 72.8896C53.8827 72.8896 55.2897 72.6276 56.6228 72.1035C57.9672 71.5794 59.2546 70.7876 60.4851 69.728V74.3252C59.3913 75.1113 58.2007 75.6981 56.9133 76.0854C55.6258 76.4728 54.2302 76.6665 52.7263 76.6665C50.8122 76.6665 49.0406 76.3532 47.4113 75.7266C45.7935 75.0999 44.3693 74.1771 43.1389 72.958C41.9198 71.7617 40.9798 70.3547 40.319 68.7368C39.6696 67.1076 39.3449 65.3758 39.3449 63.5415C39.3449 61.7072 39.6696 59.9868 40.319 58.3804C40.9798 56.7625 41.9312 55.3441 43.173 54.125C44.4149 52.8945 45.8391 51.966 47.4455 51.3394C49.052 50.7013 50.7894 50.3823 52.6579 50.3823C54.1276 50.3823 55.529 50.5988 56.862 51.0317C58.195 51.4533 59.4882 52.097 60.7414 52.9629L60.5192 57.0645ZM67.442 59.7988V68.9248C67.442 70.4971 67.7667 71.625 68.4161 72.3086C69.0655 72.9922 70.1194 73.334 71.5777 73.334C73.0361 73.334 74.0899 72.9922 74.7394 72.3086C75.3888 71.625 75.7135 70.4971 75.7135 68.9248V59.7988H79.422V67.814C79.422 70.9129 78.801 73.1631 77.5592 74.5645C76.3173 75.9658 74.3349 76.6665 71.6119 76.6665C68.8434 76.6665 66.8382 75.9715 65.5963 74.5815C64.3544 73.1916 63.7335 70.9357 63.7335 67.814V59.7988H67.442ZM83.2002 76V49.5107H86.9087V76H83.2002ZM91.6952 76V63.0459H88.8583V59.7988H91.6952V53.6636H95.4037V59.7988H98.2406V63.0459H95.4037V76H91.6952ZM99.7288 52.792C99.7288 52.1654 99.9567 51.6242 100.412 51.1685C100.88 50.7127 101.432 50.4849 102.07 50.4849C102.731 50.4849 103.278 50.707 103.711 51.1514C104.155 51.5843 104.377 52.1312 104.377 52.792C104.377 53.4528 104.155 54.0111 103.711 54.4668C103.266 54.9111 102.72 55.1333 102.07 55.1333C101.432 55.1333 100.88 54.9054 100.412 54.4497C99.9567 53.9826 99.7288 53.43 99.7288 52.792ZM100.224 76V59.7988H103.933V76H100.224ZM113.539 76.9741L105.045 59.7988H109.095L112.633 67.9507C112.747 68.2013 112.884 68.5773 113.043 69.0786C113.203 69.5799 113.368 70.1781 113.539 70.873C113.653 70.3831 113.784 69.8989 113.932 69.4204C114.091 68.9305 114.279 68.4406 114.496 67.9507L118.016 59.7988H122.05L113.539 76.9741ZM138.235 76H134.526V73.8979C133.866 74.8322 133.091 75.5272 132.202 75.9829C131.325 76.4386 130.317 76.6665 129.177 76.6665C126.887 76.6665 125.081 75.8861 123.76 74.3252C122.45 72.7529 121.795 70.6053 121.795 67.8823C121.795 65.2961 122.467 63.2111 123.811 61.6274C125.156 60.0324 126.91 59.2349 129.075 59.2349C130.396 59.2349 131.524 59.514 132.459 60.0723C133.404 60.6191 134.094 61.411 134.526 62.4478V59.7988H138.235V76ZM134.629 67.8481C134.629 66.1733 134.236 64.8688 133.45 63.9346C132.675 63.0003 131.587 62.5332 130.186 62.5332C128.784 62.5332 127.679 63.0174 126.87 63.9858C126.073 64.9429 125.674 66.2759 125.674 67.9849C125.674 69.7052 126.061 71.0326 126.836 71.9668C127.611 72.901 128.705 73.3682 130.117 73.3682C131.45 73.3682 132.533 72.8612 133.364 71.8472C134.207 70.8332 134.629 69.5002 134.629 67.8481ZM142.833 76V63.0459H139.997V59.7988H142.833V53.6636H146.542V59.7988H149.379V63.0459H146.542V76H142.833ZM166.795 68.4463H153.841C153.932 69.9616 154.382 71.1465 155.191 72.001C156 72.8441 157.076 73.2656 158.421 73.2656C159.617 73.2656 160.614 73.015 161.412 72.5137C162.209 72.0124 162.904 71.2035 163.496 70.0869L166.624 71.8301C165.712 73.4593 164.585 74.6727 163.24 75.4702C161.896 76.2677 160.318 76.6665 158.506 76.6665C155.909 76.6665 153.841 75.8747 152.303 74.291C150.765 72.7074 149.996 70.5939 149.996 67.9507C149.996 65.41 150.787 63.325 152.371 61.6958C153.966 60.0552 156.011 59.2349 158.506 59.2349C161.115 59.2349 163.149 59.9811 164.607 61.4736C166.066 62.9661 166.795 65.0568 166.795 67.7456V68.4463ZM162.95 65.9512C162.802 64.7891 162.357 63.9061 161.617 63.3022C160.876 62.687 159.862 62.3794 158.575 62.3794C157.356 62.3794 156.376 62.6756 155.635 63.2681C154.895 63.8605 154.376 64.7549 154.08 65.9512H162.95ZM184.127 76V64.5498L175.701 50.9805H179.974L185.22 59.4741C185.346 59.6906 185.5 59.9754 185.682 60.3286C185.876 60.6818 186.069 61.0635 186.263 61.4736C186.422 61.0749 186.588 60.6989 186.758 60.3457C186.941 59.9925 187.129 59.6678 187.322 59.3716L192.706 50.9805H196.773L188.16 64.5498V76H184.127ZM206.652 67.9507C206.652 66.4468 206.168 65.1764 205.2 64.1396C204.231 63.0915 203.046 62.5674 201.645 62.5674C200.255 62.5674 199.07 63.0915 198.09 64.1396C197.122 65.1764 196.638 66.4468 196.638 67.9507C196.638 69.4546 197.122 70.7306 198.09 71.7788C199.07 72.8156 200.255 73.334 201.645 73.334C203.035 73.334 204.214 72.8156 205.183 71.7788C206.163 70.7306 206.652 69.4546 206.652 67.9507ZM192.724 67.9165C192.724 66.7316 192.946 65.6151 193.391 64.5669C193.846 63.5073 194.496 62.5674 195.339 61.7471C196.171 60.9382 197.128 60.3172 198.21 59.8843C199.292 59.4513 200.426 59.2349 201.611 59.2349C202.83 59.2349 203.975 59.4513 205.046 59.8843C206.128 60.3172 207.097 60.9552 207.951 61.7983C208.806 62.63 209.455 63.57 209.9 64.6182C210.344 65.6663 210.566 66.7658 210.566 67.9165C210.566 69.1128 210.344 70.235 209.9 71.2832C209.467 72.3314 208.829 73.2599 207.985 74.0688C207.097 74.9233 206.111 75.5671 205.029 76C203.947 76.4443 202.807 76.6665 201.611 76.6665C200.437 76.6665 199.309 76.4443 198.227 76C197.145 75.5671 196.182 74.9347 195.339 74.103C194.484 73.2599 193.835 72.3143 193.391 71.2661C192.946 70.2179 192.724 69.1014 192.724 67.9165ZM216.686 59.7988V68.9248C216.686 70.4971 217.01 71.625 217.66 72.3086C218.309 72.9922 219.363 73.334 220.821 73.334C222.28 73.334 223.333 72.9922 223.983 72.3086C224.632 71.625 224.957 70.4971 224.957 68.9248V59.7988H228.666V67.814C228.666 70.9129 228.045 73.1631 226.803 74.5645C225.561 75.9658 223.578 76.6665 220.855 76.6665C218.087 76.6665 216.082 75.9715 214.84 74.5815C213.598 73.1916 212.977 70.9357 212.977 67.814V59.7988H216.686ZM235.981 62.3794C236.38 61.3084 236.904 60.5166 237.554 60.0039C238.214 59.4912 239.029 59.2349 239.997 59.2349C240.522 59.2349 241.034 59.2975 241.536 59.4229C242.048 59.5482 242.55 59.7305 243.039 59.9697L241.706 63.1143C241.387 62.8864 241.04 62.7212 240.664 62.6187C240.299 62.5047 239.889 62.4478 239.434 62.4478C238.203 62.4478 237.32 62.9434 236.785 63.9346C236.249 64.9144 235.981 66.5664 235.981 68.8906V76H232.273V59.7646H235.981V62.3794ZM274.641 63.5415C274.641 62.2769 274.408 61.0749 273.941 59.9355C273.485 58.7962 272.824 57.7822 271.958 56.8936C271.115 56.0163 270.135 55.3441 269.019 54.877C267.914 54.3984 266.746 54.1592 265.515 54.1592C264.285 54.1592 263.111 54.3927 261.995 54.8599C260.89 55.327 259.904 56.0049 259.038 56.8936C258.172 57.7708 257.512 58.7791 257.056 59.9185C256.6 61.0578 256.372 62.2655 256.372 63.5415C256.372 64.8062 256.6 66.0024 257.056 67.1304C257.512 68.2583 258.172 69.2666 259.038 70.1553C259.904 71.0439 260.89 71.7218 261.995 72.189C263.1 72.6561 264.273 72.8896 265.515 72.8896C266.734 72.8896 267.891 72.6561 268.985 72.189C270.09 71.7218 271.081 71.0439 271.958 70.1553C272.824 69.2666 273.485 68.2583 273.941 67.1304C274.408 65.991 274.641 64.7948 274.641 63.5415ZM278.88 63.5415C278.88 65.3188 278.543 66.9993 277.871 68.583C277.21 70.1667 276.242 71.5794 274.966 72.8213C273.679 74.0632 272.226 75.0145 270.608 75.6753C268.99 76.3361 267.293 76.6665 265.515 76.6665C263.715 76.6665 261.995 76.3361 260.354 75.6753C258.725 75.0031 257.284 74.0518 256.03 72.8213C254.754 71.5794 253.786 70.1724 253.125 68.6001C252.464 67.0278 252.134 65.3416 252.134 63.5415C252.134 61.7528 252.464 60.0666 253.125 58.4829C253.786 56.8993 254.754 55.4808 256.03 54.2275C257.307 52.9857 258.753 52.04 260.371 51.3906C261.989 50.7412 263.704 50.4165 265.515 50.4165C267.315 50.4165 269.019 50.7412 270.625 51.3906C272.243 52.04 273.69 52.9857 274.966 54.2275C276.242 55.4922 277.21 56.922 277.871 58.5171C278.543 60.1007 278.88 61.7756 278.88 63.5415ZM297.338 76.9741L293.595 68.5488C293.31 67.8994 293.077 67.3241 292.895 66.8228C292.712 66.3101 292.547 65.8088 292.399 65.3188C292.148 66.0594 291.926 66.6974 291.733 67.2329C291.539 67.757 291.385 68.1501 291.271 68.4121L287.426 76.9741L279.035 59.7988H282.983L286.623 67.6089C286.771 67.9393 286.913 68.395 287.05 68.9761C287.198 69.5457 287.323 70.1781 287.426 70.873C287.437 70.4629 287.506 70.0356 287.631 69.5913C287.756 69.147 287.967 68.6001 288.263 67.9507L292.228 59.2007H292.536L296.569 67.9507C296.82 68.4976 297.002 69.0046 297.116 69.4717C297.241 69.9388 297.315 70.4059 297.338 70.873C297.441 70.2578 297.572 69.6768 297.731 69.1299C297.891 68.583 298.073 68.0874 298.278 67.6431L301.85 59.7988H305.763L297.338 76.9741ZM306.688 76V59.7988H310.174V62.4478C310.914 61.3312 311.786 60.5166 312.789 60.0039C313.791 59.4912 315.01 59.2349 316.446 59.2349C317.653 59.2349 318.679 59.4285 319.522 59.8159C320.376 60.1919 321.043 60.7559 321.521 61.5078C321.806 61.9521 322.011 62.4705 322.137 63.063C322.262 63.6554 322.325 64.6922 322.325 66.1733V76H318.582V67.6772C318.582 65.5467 318.32 64.134 317.796 63.439C317.283 62.7326 316.366 62.3794 315.044 62.3794C314.179 62.3794 313.404 62.5389 312.72 62.8579C312.048 63.1769 311.518 63.627 311.131 64.208C310.857 64.5954 310.664 65.0967 310.55 65.7119C310.447 66.3158 310.396 67.2842 310.396 68.6172V76H306.688ZM335.333 76V50.9805H339.4V60.209H351.705V50.9805H355.772V76H351.705V63.8491H339.4V76H335.333ZM375.051 76H371.342V73.8979C370.682 74.8322 369.907 75.5272 369.018 75.9829C368.141 76.4386 367.133 76.6665 365.993 76.6665C363.703 76.6665 361.897 75.8861 360.576 74.3252C359.266 72.7529 358.611 70.6053 358.611 67.8823C358.611 65.2961 359.283 63.2111 360.627 61.6274C361.972 60.0324 363.726 59.2349 365.891 59.2349C367.212 59.2349 368.34 59.514 369.275 60.0723C370.22 60.6191 370.91 61.411 371.342 62.4478V59.7988H375.051V76ZM371.445 67.8481C371.445 66.1733 371.052 64.8688 370.266 63.9346C369.491 63.0003 368.403 62.5332 367.002 62.5332C365.6 62.5332 364.495 63.0174 363.686 63.9858C362.889 64.9429 362.49 66.2759 362.49 67.9849C362.49 69.7052 362.877 71.0326 363.652 71.9668C364.427 72.901 365.521 73.3682 366.933 73.3682C368.266 73.3682 369.349 72.8612 370.18 71.8472C371.023 70.8332 371.445 69.5002 371.445 67.8481ZM382.486 62.3794C382.885 61.3084 383.409 60.5166 384.059 60.0039C384.719 59.4912 385.534 59.2349 386.503 59.2349C387.027 59.2349 387.539 59.2975 388.041 59.4229C388.553 59.5482 389.055 59.7305 389.545 59.9697L388.212 63.1143C387.893 62.8864 387.545 62.7212 387.169 62.6187C386.804 62.5047 386.394 62.4478 385.939 62.4478C384.708 62.4478 383.825 62.9434 383.29 63.9346C382.754 64.9144 382.486 66.5664 382.486 68.8906V76H378.778V59.7646H382.486V62.3794ZM395.955 76.9741L387.461 59.7988H391.511L395.049 67.9507C395.163 68.2013 395.299 68.5773 395.459 69.0786C395.618 69.5799 395.784 70.1781 395.955 70.873C396.069 70.3831 396.2 69.8989 396.348 69.4204C396.507 68.9305 396.695 68.4406 396.912 67.9507L400.432 59.7988H404.465L395.955 76.9741ZM421.01 68.4463H408.056C408.147 69.9616 408.597 71.1465 409.406 72.001C410.215 72.8441 411.291 73.2656 412.636 73.2656C413.832 73.2656 414.829 73.015 415.626 72.5137C416.424 72.0124 417.119 71.2035 417.711 70.0869L420.839 71.8301C419.927 73.4593 418.799 74.6727 417.455 75.4702C416.111 76.2677 414.533 76.6665 412.721 76.6665C410.123 76.6665 408.056 75.8747 406.517 74.291C404.979 72.7074 404.21 70.5939 404.21 67.9507C404.21 65.41 405.002 63.325 406.586 61.6958C408.181 60.0552 410.226 59.2349 412.721 59.2349C415.33 59.2349 417.364 59.9811 418.822 61.4736C420.281 62.9661 421.01 65.0568 421.01 67.7456V68.4463ZM417.164 65.9512C417.016 64.7891 416.572 63.9061 415.831 63.3022C415.091 62.687 414.077 62.3794 412.789 62.3794C411.57 62.3794 410.591 62.6756 409.85 63.2681C409.109 63.8605 408.591 64.7549 408.295 65.9512H417.164ZM421.626 73.0605L424.702 71.3857C424.93 72.1947 425.352 72.8099 425.967 73.2314C426.582 73.653 427.374 73.8638 428.343 73.8638C429.174 73.8638 429.824 73.6758 430.291 73.2998C430.769 72.9124 431.009 72.3883 431.009 71.7275C431.009 70.8503 430.166 70.0983 428.479 69.4717C427.91 69.2666 427.471 69.0957 427.163 68.959C425.432 68.2412 424.218 67.512 423.523 66.7715C422.84 66.0309 422.498 65.1309 422.498 64.0713C422.498 62.6243 423.062 61.4508 424.19 60.5508C425.329 59.6507 426.833 59.2007 428.701 59.2007C429.955 59.2007 431.026 59.4342 431.914 59.9014C432.814 60.3571 433.47 61.0122 433.88 61.8667L431.248 63.6782C431.054 63.1655 430.712 62.7611 430.222 62.4648C429.744 62.1572 429.186 62.0034 428.548 62.0034C427.841 62.0034 427.272 62.1743 426.839 62.5161C426.417 62.8465 426.206 63.2909 426.206 63.8491C426.206 64.6922 427.163 65.4613 429.077 66.1562C429.681 66.3727 430.148 66.5493 430.479 66.686C431.971 67.2785 433.037 67.9507 433.675 68.7026C434.324 69.4432 434.649 70.3717 434.649 71.4883C434.649 73.1061 434.062 74.3765 432.888 75.2993C431.715 76.2108 430.097 76.6665 428.035 76.6665C426.451 76.6665 425.135 76.3703 424.087 75.7778C423.039 75.1854 422.219 74.2796 421.626 73.0605ZM437.863 76V63.0459H435.026V59.7988H437.863V53.6636H441.571V59.7988H444.408V63.0459H441.571V76H437.863ZM446.7 74.103C446.7 73.4764 446.916 72.9409 447.349 72.4966C447.782 72.0522 448.312 71.8301 448.939 71.8301C449.565 71.8301 450.095 72.0522 450.528 72.4966C450.961 72.9409 451.177 73.4764 451.177 74.103C451.177 74.7183 450.961 75.2424 450.528 75.6753C450.095 76.0968 449.565 76.3076 448.939 76.3076C448.312 76.3076 447.782 76.0968 447.349 75.6753C446.916 75.2424 446.7 74.7183 446.7 74.103Z" fill="white"/>
</svg>
