<svg width="277" height="34" viewBox="0 0 277 34" fill="none" xmlns="http://www.w3.org/2000/svg">
<path d="M0.871094 26V0.980469H14.8335V4.43262H4.93848V10.7046H14.8335V14.2764H4.93848V22.3599H14.8335V26H0.871094ZM33.0355 26H29.3271V23.8979C28.6662 24.8322 27.8915 25.5272 27.0028 25.9829C26.1256 26.4386 25.1173 26.6665 23.9779 26.6665C21.6879 26.6665 19.8821 25.8861 18.5604 24.3252C17.2502 22.7529 16.5951 20.6053 16.5951 17.8823C16.5951 15.2961 17.2673 13.2111 18.6117 11.6274C19.9561 10.0324 21.7107 9.23486 23.8754 9.23486C25.197 9.23486 26.3249 9.514 27.2592 10.0723C28.2048 10.6191 28.8941 11.411 29.3271 12.4478V9.79883H33.0355V26ZM29.4296 17.8481C29.4296 16.1733 29.0365 14.8688 28.2504 13.9346C27.4757 13.0003 26.3876 12.5332 24.9862 12.5332C23.5849 12.5332 22.4797 13.0174 21.6708 13.9858C20.8733 14.9429 20.4745 16.2759 20.4745 17.9849C20.4745 19.7052 20.8619 21.0326 21.6366 21.9668C22.4114 22.901 23.5051 23.3682 24.9179 23.3682C26.2509 23.3682 27.3332 22.8612 28.1649 21.8472C29.008 20.8332 29.4296 19.5002 29.4296 17.8481ZM34.8997 23.0605L37.9759 21.3857C38.2037 22.1947 38.6253 22.8099 39.2405 23.2314C39.8558 23.653 40.6476 23.8638 41.616 23.8638C42.4477 23.8638 43.0971 23.6758 43.5643 23.2998C44.0428 22.9124 44.282 22.3883 44.282 21.7275C44.282 20.8503 43.4389 20.0983 41.7527 19.4717C41.1831 19.2666 40.7444 19.0957 40.4368 18.959C38.705 18.2412 37.4917 17.512 36.7967 16.7715C36.1131 16.0309 35.7713 15.1309 35.7713 14.0713C35.7713 12.6243 36.3353 11.4508 37.4632 10.5508C38.6025 9.65072 40.1064 9.20068 41.9749 9.20068C43.2282 9.20068 44.2991 9.43424 45.1878 9.90137C46.0879 10.3571 46.743 11.0122 47.1531 11.8667L44.5213 13.6782C44.3276 13.1655 43.9858 12.7611 43.4959 12.4648C43.0174 12.1572 42.4591 12.0034 41.8211 12.0034C41.1147 12.0034 40.5451 12.1743 40.1121 12.5161C39.6906 12.8465 39.4798 13.2909 39.4798 13.8491C39.4798 14.6922 40.4368 15.4613 42.3509 16.1562C42.9547 16.3727 43.4218 16.5493 43.7522 16.686C45.2448 17.2785 46.31 17.9507 46.948 18.7026C47.5975 19.4432 47.9222 20.3717 47.9222 21.4883C47.9222 23.1061 47.3354 24.3765 46.1619 25.2993C44.9884 26.2108 43.3706 26.6665 41.3084 26.6665C39.7247 26.6665 38.4088 26.3703 37.3606 25.7778C36.3125 25.1854 35.4922 24.2796 34.8997 23.0605ZM51.1364 26V13.0459H48.2995V9.79883H51.1364V3.66357H54.8449V9.79883H57.6818V13.0459H54.8449V26H51.1364ZM68.9639 26V0.980469H82.9263V4.43262H73.0312V10.6704H82.9263V14.2422H73.0312V26H68.9639ZM100.889 26H97.1806V23.8979C96.5198 24.8322 95.745 25.5272 94.8563 25.9829C93.9791 26.4386 92.9708 26.6665 91.8314 26.6665C89.5414 26.6665 87.7356 25.8861 86.414 24.3252C85.1037 22.7529 84.4486 20.6053 84.4486 17.8823C84.4486 15.2961 85.1208 13.2111 86.4652 11.6274C87.8096 10.0324 89.5642 9.23486 91.7289 9.23486C93.0505 9.23486 94.1784 9.514 95.1127 10.0723C96.0583 10.6191 96.7476 11.411 97.1806 12.4478V9.79883H100.889V26ZM97.2831 17.8481C97.2831 16.1733 96.89 14.8688 96.1039 13.9346C95.3292 13.0003 94.2411 12.5332 92.8397 12.5332C91.4384 12.5332 90.3332 13.0174 89.5243 13.9858C88.7268 14.9429 88.328 16.2759 88.328 17.9849C88.328 19.7052 88.7154 21.0326 89.4901 21.9668C90.2649 22.901 91.3586 23.3682 92.7714 23.3682C94.1044 23.3682 95.1867 22.8612 96.0185 21.8472C96.8616 20.8332 97.2831 19.5002 97.2831 17.8481ZM116.716 14.4131C116.146 13.7865 115.479 13.3079 114.716 12.9775C113.964 12.6471 113.15 12.4819 112.272 12.4819C110.757 12.4819 109.544 12.9718 108.632 13.9517C107.721 14.9315 107.265 16.2303 107.265 17.8481C107.265 19.5343 107.721 20.8617 108.632 21.8301C109.555 22.7871 110.825 23.2656 112.443 23.2656C113.343 23.2656 114.146 23.1004 114.853 22.77C115.559 22.4282 116.18 21.9155 116.716 21.2319V25.5044C116.032 25.8918 115.297 26.1823 114.511 26.376C113.736 26.5697 112.91 26.6665 112.033 26.6665C109.492 26.6665 107.419 25.8576 105.812 24.2397C104.217 22.6219 103.42 20.5256 103.42 17.9507C103.42 15.3416 104.246 13.2396 105.898 11.6445C107.561 10.0381 109.732 9.23486 112.409 9.23486C113.252 9.23486 114.027 9.32031 114.733 9.49121C115.44 9.65072 116.1 9.90137 116.716 10.2432V14.4131ZM118.785 2.79199C118.785 2.16536 119.013 1.62419 119.468 1.16846C119.936 0.712728 120.488 0.484863 121.126 0.484863C121.787 0.484863 122.334 0.707031 122.767 1.15137C123.211 1.58431 123.433 2.13118 123.433 2.79199C123.433 3.4528 123.211 4.01107 122.767 4.4668C122.322 4.91113 121.776 5.1333 121.126 5.1333C120.488 5.1333 119.936 4.90544 119.468 4.44971C119.013 3.98258 118.785 3.43001 118.785 2.79199ZM119.28 26V9.79883H122.989V26H119.28ZM126.904 26V9.79883H130.39V12.4478C131.131 11.3312 132.002 10.5166 133.005 10.0039C134.008 9.49121 135.227 9.23486 136.662 9.23486C137.87 9.23486 138.895 9.42855 139.738 9.81592C140.593 10.1919 141.259 10.7559 141.738 11.5078C142.023 11.9521 142.228 12.4705 142.353 13.063C142.478 13.6554 142.541 14.6922 142.541 16.1733V26H138.798V17.6772C138.798 15.5467 138.536 14.134 138.012 13.439C137.5 12.7326 136.582 12.3794 135.261 12.3794C134.395 12.3794 133.62 12.5389 132.937 12.8579C132.264 13.1769 131.735 13.627 131.347 14.208C131.074 14.5954 130.88 15.0967 130.766 15.7119C130.664 16.3158 130.612 17.2842 130.612 18.6172V26H126.904ZM157.718 17.8481C157.718 16.1733 157.325 14.8688 156.539 13.9346C155.764 13.0003 154.676 12.5332 153.275 12.5332C151.874 12.5332 150.768 13.0174 149.959 13.9858C149.162 14.9429 148.763 16.2759 148.763 17.9849C148.763 19.7052 149.151 21.0326 149.925 21.9668C150.7 22.901 151.794 23.3682 153.207 23.3682C154.54 23.3682 155.622 22.8612 156.454 21.8472C157.297 20.8332 157.718 19.5002 157.718 17.8481ZM161.324 24.9917C161.324 28.159 160.692 30.3864 159.427 31.6738C158.163 32.9727 156.032 33.6221 153.036 33.6221C150.803 33.6221 149.02 33.1493 147.687 32.2036C146.354 31.2694 145.676 30.0218 145.653 28.4609L149.635 28.4438C149.692 29.1388 150.016 29.6686 150.609 30.0332C151.201 30.3978 152.033 30.5801 153.104 30.5801C154.688 30.5801 155.827 30.2326 156.522 29.5376C157.217 28.8426 157.57 27.6805 157.582 26.0513L157.616 23.8979C156.955 24.8322 156.18 25.5272 155.292 25.9829C154.414 26.4386 153.406 26.6665 152.267 26.6665C149.977 26.6665 148.171 25.8861 146.849 24.3252C145.539 22.7529 144.884 20.6053 144.884 17.8823C144.884 15.2961 145.556 13.2111 146.9 11.6274C148.245 10.0324 149.999 9.23486 152.164 9.23486C153.486 9.23486 154.614 9.514 155.548 10.0723C156.493 10.6191 157.183 11.411 157.616 12.4478V9.79883H161.324V24.9917ZM174.52 26V0.980469H178.588V10.209H190.892V0.980469H194.96V26H190.892V13.8491H178.588V26H174.52ZM211.726 17.9507C211.726 16.4468 211.242 15.1764 210.274 14.1396C209.305 13.0915 208.12 12.5674 206.719 12.5674C205.329 12.5674 204.144 13.0915 203.164 14.1396C202.196 15.1764 201.712 16.4468 201.712 17.9507C201.712 19.4546 202.196 20.7306 203.164 21.7788C204.144 22.8156 205.329 23.334 206.719 23.334C208.109 23.334 209.288 22.8156 210.257 21.7788C211.236 20.7306 211.726 19.4546 211.726 17.9507ZM197.798 17.9165C197.798 16.7316 198.02 15.6151 198.465 14.5669C198.92 13.5073 199.57 12.5674 200.413 11.7471C201.245 10.9382 202.202 10.3172 203.284 9.88428C204.366 9.45133 205.5 9.23486 206.685 9.23486C207.904 9.23486 209.049 9.45133 210.12 9.88428C211.202 10.3172 212.171 10.9552 213.025 11.7983C213.88 12.63 214.529 13.57 214.973 14.6182C215.418 15.6663 215.64 16.7658 215.64 17.9165C215.64 19.1128 215.418 20.235 214.973 21.2832C214.54 22.3314 213.902 23.2599 213.059 24.0688C212.171 24.9233 211.185 25.5671 210.103 26C209.02 26.4443 207.881 26.6665 206.685 26.6665C205.511 26.6665 204.383 26.4443 203.301 26C202.219 25.5671 201.256 24.9347 200.413 24.103C199.558 23.2599 198.909 22.3143 198.465 21.2661C198.02 20.2179 197.798 19.1014 197.798 17.9165ZM221.879 26H218.171V9.79883H221.657V12.4478C222.397 11.3198 223.235 10.4995 224.169 9.98682C225.115 9.46273 226.226 9.20068 227.502 9.20068C228.766 9.20068 229.814 9.46842 230.646 10.0039C231.478 10.528 232.11 11.3312 232.543 12.4136C233.398 11.297 234.303 10.4824 235.26 9.96973C236.229 9.45703 237.328 9.20068 238.559 9.20068C239.63 9.20068 240.564 9.40007 241.361 9.79883C242.159 10.1862 242.78 10.7559 243.224 11.5078C243.429 11.861 243.577 12.2826 243.669 12.7725C243.771 13.2624 243.822 13.9631 243.822 14.8745V16.1733V26H240.114V17.6772C240.114 15.5011 239.88 14.0713 239.413 13.3877C238.957 12.6927 238.137 12.3452 236.952 12.3452C235.494 12.3452 234.451 12.8123 233.825 13.7466C233.21 14.6694 232.902 16.293 232.902 18.6172V26H229.159V17.6772C229.159 15.672 228.914 14.2821 228.424 13.5073C227.946 12.7326 227.114 12.3452 225.929 12.3452C225.2 12.3452 224.534 12.5104 223.93 12.8408C223.326 13.1712 222.847 13.627 222.494 14.208C222.266 14.584 222.107 15.0454 222.016 15.5923C221.925 16.1392 221.879 17.1475 221.879 18.6172V26ZM262.999 18.4463H250.044C250.136 19.9616 250.586 21.1465 251.395 22.001C252.203 22.8441 253.28 23.2656 254.625 23.2656C255.821 23.2656 256.818 23.015 257.615 22.5137C258.413 22.0124 259.108 21.2035 259.7 20.0869L262.828 21.8301C261.916 23.4593 260.788 24.6727 259.444 25.4702C258.099 26.2677 256.521 26.6665 254.71 26.6665C252.112 26.6665 250.044 25.8747 248.506 24.291C246.968 22.7074 246.199 20.5939 246.199 17.9507C246.199 15.41 246.991 13.325 248.575 11.6958C250.17 10.0552 252.215 9.23486 254.71 9.23486C257.319 9.23486 259.353 9.98112 260.811 11.4736C262.269 12.9661 262.999 15.0568 262.999 17.7456V18.4463ZM259.153 15.9512C259.005 14.7891 258.561 13.9061 257.82 13.3022C257.08 12.687 256.066 12.3794 254.778 12.3794C253.559 12.3794 252.579 12.6756 251.839 13.2681C251.098 13.8605 250.58 14.7549 250.284 15.9512H259.153ZM263.615 23.0605L266.691 21.3857C266.919 22.1947 267.341 22.8099 267.956 23.2314C268.571 23.653 269.363 23.8638 270.331 23.8638C271.163 23.8638 271.813 23.6758 272.28 23.2998C272.758 22.9124 272.997 22.3883 272.997 21.7275C272.997 20.8503 272.154 20.0983 270.468 19.4717C269.899 19.2666 269.46 19.0957 269.152 18.959C267.42 18.2412 266.207 17.512 265.512 16.7715C264.829 16.0309 264.487 15.1309 264.487 14.0713C264.487 12.6243 265.051 11.4508 266.179 10.5508C267.318 9.65072 268.822 9.20068 270.69 9.20068C271.944 9.20068 273.015 9.43424 273.903 9.90137C274.803 10.3571 275.458 11.0122 275.869 11.8667L273.237 13.6782C273.043 13.1655 272.701 12.7611 272.211 12.4648C271.733 12.1572 271.175 12.0034 270.537 12.0034C269.83 12.0034 269.26 12.1743 268.828 12.5161C268.406 12.8465 268.195 13.2909 268.195 13.8491C268.195 14.6922 269.152 15.4613 271.066 16.1562C271.67 16.3727 272.137 16.5493 272.468 16.686C273.96 17.2785 275.025 17.9507 275.663 18.7026C276.313 19.4432 276.638 20.3717 276.638 21.4883C276.638 23.1061 276.051 24.3765 274.877 25.2993C273.704 26.2108 272.086 26.6665 270.024 26.6665C268.44 26.6665 267.124 26.3703 266.076 25.7778C265.028 25.1854 264.208 24.2796 263.615 23.0605Z" fill="white"/>
</svg>
