<svg width="352" height="77" viewBox="0 0 352 77" fill="none" xmlns="http://www.w3.org/2000/svg">
<path d="M1.87109 27V1.98047H15.8335V5.43262H5.93848V11.7046H15.8335V15.2764H5.93848V23.3599H15.8335V27H1.87109ZM19.9022 27H15.8007L21.9359 18.2842L16.6894 10.7988H20.7738L23.0468 14.1484C23.286 14.4902 23.4968 14.8206 23.6791 15.1396C23.8614 15.4587 24.0266 15.7834 24.1747 16.1138C24.3114 15.8403 24.4652 15.5555 24.6361 15.2593C24.8184 14.9517 25.0463 14.57 25.3197 14.1143L27.5756 10.7988H31.6259L26.3793 18.3184L32.4633 27H28.413L25.4052 22.7446C25.371 22.6877 25.3254 22.6193 25.2685 22.5396C24.6874 21.6623 24.3114 20.9901 24.1405 20.5229C23.9127 20.9559 23.6905 21.3604 23.474 21.7363C23.2689 22.1009 23.0582 22.4427 22.8417 22.7617L19.9022 27ZM45.3504 15.4131C44.7807 14.7865 44.1142 14.3079 43.3509 13.9775C42.5989 13.6471 41.7843 13.4819 40.907 13.4819C39.3917 13.4819 38.1784 13.9718 37.2669 14.9517C36.3554 15.9315 35.8997 17.2303 35.8997 18.8481C35.8997 20.5343 36.3554 21.8617 37.2669 22.8301C38.1897 23.7871 39.4601 24.2656 41.0779 24.2656C41.978 24.2656 42.7812 24.1004 43.4876 23.77C44.194 23.4282 44.8149 22.9155 45.3504 22.2319V26.5044C44.6668 26.8918 43.9319 27.1823 43.1458 27.376C42.3711 27.5697 41.5451 27.6665 40.6678 27.6665C38.1271 27.6665 36.0535 26.8576 34.4471 25.2397C32.852 23.6219 32.0545 21.5256 32.0545 18.9507C32.0545 16.3416 32.8805 14.2396 34.5325 12.6445C36.1959 11.0381 38.3663 10.2349 41.0438 10.2349C41.8868 10.2349 42.6616 10.3203 43.368 10.4912C44.0743 10.6507 44.7352 10.9014 45.3504 11.2432V15.4131ZM63.3474 19.4463H50.3933C50.4844 20.9616 50.9344 22.1465 51.7434 23.001C52.5523 23.8441 53.6289 24.2656 54.9733 24.2656C56.1696 24.2656 57.1665 24.015 57.9641 23.5137C58.7616 23.0124 59.4566 22.2035 60.049 21.0869L63.1765 22.8301C62.265 24.4593 61.1371 25.6727 59.7927 26.4702C58.4483 27.2677 56.8703 27.6665 55.0588 27.6665C52.4611 27.6665 50.3933 26.8747 48.8552 25.291C47.3171 23.7074 46.548 21.5939 46.548 18.9507C46.548 16.41 47.3399 14.325 48.9235 12.6958C50.5186 11.0552 52.5637 10.2349 55.0588 10.2349C57.6678 10.2349 59.7015 10.9811 61.1599 12.4736C62.6182 13.9661 63.3474 16.0568 63.3474 18.7456V19.4463ZM59.5021 16.9512C59.354 15.7891 58.9097 14.9061 58.1691 14.3022C57.4286 13.687 56.4146 13.3794 55.1271 13.3794C53.9081 13.3794 52.9283 13.6756 52.1877 14.2681C51.4471 14.8605 50.9287 15.7549 50.6325 16.9512H59.5021ZM69.4156 18.8481C69.4156 20.5229 69.8315 21.8617 70.6632 22.8643C71.5063 23.8669 72.6114 24.3682 73.9786 24.3682C75.38 24.3682 76.4623 23.901 77.2257 22.9668C78.0004 22.0326 78.3878 20.7052 78.3878 18.9849C78.3878 17.2759 77.9833 15.9429 77.1744 14.9858C76.3769 14.0174 75.2774 13.5332 73.8761 13.5332C72.4747 13.5332 71.381 14.0003 70.5948 14.9346C69.8087 15.8688 69.4156 17.1733 69.4156 18.8481ZM65.8268 34.6221V10.7988H69.5353V13.4478C69.9682 12.4224 70.6575 11.6305 71.6031 11.0723C72.5602 10.514 73.6995 10.2349 75.0211 10.2349C77.1744 10.2349 78.9176 11.0324 80.2506 12.6274C81.595 14.2111 82.2672 16.2961 82.2672 18.8823C82.2672 21.6053 81.6064 23.7529 80.2848 25.3252C78.9745 26.8861 77.1744 27.6665 74.8844 27.6665C73.7451 27.6665 72.7311 27.4386 71.8424 26.9829C70.9651 26.5272 70.1961 25.8322 69.5353 24.8979V34.6221H65.8268ZM85.6694 27V14.0459H82.8325V10.7988H85.6694V4.66357H89.3779V10.7988H92.2148V14.0459H89.3779V27H85.6694ZM93.703 3.79199C93.703 3.16536 93.9309 2.62419 94.3866 2.16846C94.8537 1.71273 95.4063 1.48486 96.0443 1.48486C96.7051 1.48486 97.252 1.70703 97.685 2.15137C98.1293 2.58431 98.3515 3.13118 98.3515 3.79199C98.3515 4.4528 98.1293 5.01107 97.685 5.4668C97.2406 5.91113 96.6937 6.1333 96.0443 6.1333C95.4063 6.1333 94.8537 5.90544 94.3866 5.44971C93.9309 4.98258 93.703 4.43001 93.703 3.79199ZM94.1986 27V10.7988H97.9071V27H94.1986ZM114.554 18.9507C114.554 17.4468 114.07 16.1764 113.101 15.1396C112.133 14.0915 110.948 13.5674 109.547 13.5674C108.157 13.5674 106.972 14.0915 105.992 15.1396C105.024 16.1764 104.539 17.4468 104.539 18.9507C104.539 20.4546 105.024 21.7306 105.992 22.7788C106.972 23.8156 108.157 24.334 109.547 24.334C110.937 24.334 112.116 23.8156 113.084 22.7788C114.064 21.7306 114.554 20.4546 114.554 18.9507ZM100.626 18.9165C100.626 17.7316 100.848 16.6151 101.292 15.5669C101.748 14.5073 102.397 13.5674 103.241 12.7471C104.072 11.9382 105.029 11.3172 106.112 10.8843C107.194 10.4513 108.328 10.2349 109.512 10.2349C110.732 10.2349 111.877 10.4513 112.948 10.8843C114.03 11.3172 114.998 11.9552 115.853 12.7983C116.707 13.63 117.357 14.57 117.801 15.6182C118.245 16.6663 118.468 17.7658 118.468 18.9165C118.468 20.1128 118.245 21.235 117.801 22.2832C117.368 23.3314 116.73 24.2599 115.887 25.0688C114.998 25.9233 114.013 26.5671 112.93 27C111.848 27.4443 110.709 27.6665 109.512 27.6665C108.339 27.6665 107.211 27.4443 106.129 27C105.046 26.5671 104.084 25.9347 103.241 25.103C102.386 24.2599 101.737 23.3143 101.292 22.2661C100.848 21.2179 100.626 20.1014 100.626 18.9165ZM120.998 27V10.7988H124.485V13.4478C125.225 12.3312 126.097 11.5166 127.099 11.0039C128.102 10.4912 129.321 10.2349 130.757 10.2349C131.964 10.2349 132.99 10.4285 133.833 10.8159C134.687 11.1919 135.354 11.7559 135.832 12.5078C136.117 12.9521 136.322 13.4705 136.447 14.063C136.573 14.6554 136.635 15.6922 136.635 17.1733V27H132.893V18.6772C132.893 16.5467 132.631 15.134 132.107 14.439C131.594 13.7326 130.677 13.3794 129.355 13.3794C128.489 13.3794 127.715 13.5389 127.031 13.8579C126.359 14.1769 125.829 14.627 125.442 15.208C125.168 15.5954 124.974 16.0967 124.861 16.7119C124.758 17.3158 124.707 18.2842 124.707 19.6172V27H120.998ZM155.419 27H151.71V24.8979C151.049 25.8322 150.275 26.5272 149.386 26.9829C148.509 27.4386 147.5 27.6665 146.361 27.6665C144.071 27.6665 142.265 26.8861 140.943 25.3252C139.633 23.7529 138.978 21.6053 138.978 18.8823C138.978 16.2961 139.65 14.2111 140.995 12.6274C142.339 11.0324 144.094 10.2349 146.258 10.2349C147.58 10.2349 148.708 10.514 149.642 11.0723C150.588 11.6191 151.277 12.411 151.71 13.4478V10.7988H155.419V27ZM151.813 18.8481C151.813 17.1733 151.42 15.8688 150.633 14.9346C149.859 14.0003 148.771 13.5332 147.369 13.5332C145.968 13.5332 144.863 14.0174 144.054 14.9858C143.256 15.9429 142.858 17.2759 142.858 18.9849C142.858 20.7052 143.245 22.0326 144.02 22.9668C144.794 23.901 145.888 24.3682 147.301 24.3682C148.634 24.3682 149.716 23.8612 150.548 22.8472C151.391 21.8332 151.813 20.5002 151.813 18.8481ZM159.316 27V0.510742H163.025V27H159.316ZM186.099 10.0981L179.724 19.0874H185.996V12.5762C185.996 12.2344 186.002 11.8527 186.013 11.4312C186.036 11.0096 186.065 10.5653 186.099 10.0981ZM185.996 27V21.9243H173.999L188.56 1.72412H189.705V19.0874H192.747V21.9243H189.705V27H185.996ZM209.31 12.542H210.865C212.802 12.542 214.169 12.2799 214.966 11.7559C215.775 11.2204 216.18 10.326 216.18 9.07275C216.18 7.70557 215.809 6.74854 215.069 6.20166C214.328 5.64339 212.927 5.36426 210.865 5.36426H209.31V12.542ZM209.31 23.5991H210.711C212.135 23.5991 213.2 23.5422 213.907 23.4282C214.613 23.3143 215.171 23.1149 215.582 22.8301C216.083 22.4997 216.47 22.0553 216.744 21.4971C217.017 20.9388 217.154 20.3236 217.154 19.6514C217.154 18.8538 216.989 18.1589 216.658 17.5664C216.328 16.974 215.855 16.5125 215.24 16.1821C214.852 15.9884 214.408 15.846 213.907 15.7549C213.417 15.6637 212.762 15.6182 211.941 15.6182H210.711H209.31V23.5991ZM205.328 27V1.98047H211.634C213.434 1.98047 214.761 2.07731 215.616 2.271C216.482 2.46468 217.217 2.78369 217.82 3.22803C218.595 3.79769 219.193 4.54395 219.615 5.4668C220.048 6.38965 220.264 7.40934 220.264 8.52588C220.264 9.85889 219.957 10.9754 219.341 11.8755C218.726 12.7642 217.832 13.3851 216.658 13.7383C218.117 13.9661 219.262 14.6326 220.093 15.7378C220.936 16.8315 221.358 18.2158 221.358 19.8906C221.358 20.9046 221.181 21.8674 220.828 22.7788C220.475 23.6903 219.974 24.465 219.324 25.103C218.641 25.798 217.792 26.2879 216.778 26.5728C215.764 26.8576 214.061 27 211.668 27H205.328ZM224.094 27V1.98047H228.161V11.209H240.466V1.98047H244.533V27H240.466V14.8491H228.161V27H224.094ZM248.875 27V1.98047H252.943V12.3369L261.932 1.98047H266.905L256.993 13.106L268.084 27H262.838L252.943 14.2168V27H248.875ZM286.288 27.9741L275.128 1.98047H279.349L284.955 15.3105C285.285 16.0853 285.559 16.8031 285.775 17.4639C285.992 18.1133 286.162 18.7342 286.288 19.3267C286.436 18.7 286.624 18.0506 286.852 17.3784C287.08 16.7062 287.347 16.0169 287.655 15.3105L293.243 1.98047H297.447L286.288 27.9741ZM297.944 3.79199C297.944 3.16536 298.172 2.62419 298.628 2.16846C299.095 1.71273 299.648 1.48486 300.286 1.48486C300.947 1.48486 301.493 1.70703 301.926 2.15137C302.371 2.58431 302.593 3.13118 302.593 3.79199C302.593 4.4528 302.371 5.01107 301.926 5.4668C301.482 5.91113 300.935 6.1333 300.286 6.1333C299.648 6.1333 299.095 5.90544 298.628 5.44971C298.172 4.98258 297.944 4.43001 297.944 3.79199ZM298.44 27V10.7988H302.149V27H298.44ZM306.234 27V0.510742H309.943V27H306.234ZM314.029 27V0.510742H317.737V27H314.029ZM336.896 27H333.188V24.8979C332.527 25.8322 331.752 26.5272 330.864 26.9829C329.986 27.4386 328.978 27.6665 327.839 27.6665C325.549 27.6665 323.743 26.8861 322.421 25.3252C321.111 23.7529 320.456 21.6053 320.456 18.8823C320.456 16.2961 321.128 14.2111 322.472 12.6274C323.817 11.0324 325.571 10.2349 327.736 10.2349C329.058 10.2349 330.186 10.514 331.12 11.0723C332.066 11.6191 332.755 12.411 333.188 13.4478V10.7988H336.896V27ZM333.29 18.8481C333.29 17.1733 332.897 15.8688 332.111 14.9346C331.336 14.0003 330.248 13.5332 328.847 13.5332C327.446 13.5332 326.34 14.0174 325.532 14.9858C324.734 15.9429 324.335 17.2759 324.335 18.9849C324.335 20.7052 324.723 22.0326 325.497 22.9668C326.272 23.901 327.366 24.3682 328.779 24.3682C330.112 24.3682 331.194 23.8612 332.026 22.8472C332.869 21.8332 333.29 20.5002 333.29 18.8481ZM338.76 24.0605L341.837 22.3857C342.064 23.1947 342.486 23.8099 343.101 24.2314C343.716 24.653 344.508 24.8638 345.477 24.8638C346.308 24.8638 346.958 24.6758 347.425 24.2998C347.904 23.9124 348.143 23.3883 348.143 22.7275C348.143 21.8503 347.3 21.0983 345.613 20.4717C345.044 20.2666 344.605 20.0957 344.298 19.959C342.566 19.2412 341.352 18.512 340.657 17.7715C339.974 17.0309 339.632 16.1309 339.632 15.0713C339.632 13.6243 340.196 12.4508 341.324 11.5508C342.463 10.6507 343.967 10.2007 345.836 10.2007C347.089 10.2007 348.16 10.4342 349.049 10.9014C349.949 11.3571 350.604 12.0122 351.014 12.8667L348.382 14.6782C348.188 14.1655 347.847 13.7611 347.357 13.4648C346.878 13.1572 346.32 13.0034 345.682 13.0034C344.975 13.0034 344.406 13.1743 343.973 13.5161C343.551 13.8465 343.341 14.2909 343.341 14.8491C343.341 15.6922 344.298 16.4613 346.212 17.1562C346.815 17.3727 347.283 17.5493 347.613 17.686C349.105 18.2785 350.171 18.9507 350.809 19.7026C351.458 20.4432 351.783 21.3717 351.783 22.4883C351.783 24.1061 351.196 25.3765 350.023 26.2993C348.849 27.2108 347.231 27.6665 345.169 27.6665C343.585 27.6665 342.27 27.3703 341.221 26.7778C340.173 26.1854 339.353 25.2796 338.76 24.0605ZM0.435547 63.9927L3.68262 62.4888C3.99023 63.6053 4.5542 64.4598 5.37451 65.0522C6.19482 65.6333 7.243 65.9238 8.51904 65.9238C9.72673 65.9238 10.6838 65.5877 11.3901 64.9155C12.1079 64.2433 12.4668 63.3433 12.4668 62.2153C12.4668 60.7456 11.2477 59.4354 8.80957 58.2847C8.46777 58.1138 8.20573 57.9884 8.02344 57.9087C5.26628 56.5643 3.42627 55.3509 2.50342 54.2686C1.59196 53.1748 1.13623 51.8418 1.13623 50.2695C1.13623 48.2301 1.82552 46.5781 3.2041 45.3135C4.59408 44.0488 6.4113 43.4165 8.65576 43.4165C10.5015 43.4165 12.0452 43.7754 13.2871 44.4932C14.529 45.1995 15.3892 46.2192 15.8677 47.5522L12.689 49.1929C12.1877 48.4067 11.6351 47.8314 11.0312 47.4668C10.4388 47.1022 9.75521 46.9199 8.98047 46.9199C7.88672 46.9199 7.01514 47.2048 6.36572 47.7744C5.7277 48.3441 5.40869 49.1074 5.40869 50.0645C5.40869 51.5684 6.82145 52.9697 9.64697 54.2686C9.86344 54.3711 10.0343 54.4508 10.1597 54.5078C12.632 55.6471 14.3296 56.7637 15.2524 57.8574C16.1753 58.9398 16.6367 60.2956 16.6367 61.9248C16.6367 64.2946 15.8905 66.1802 14.3979 67.5815C12.9054 68.9715 10.8888 69.6665 8.34814 69.6665C6.21761 69.6665 4.46875 69.1766 3.10156 68.1968C1.74577 67.217 0.857096 65.8156 0.435547 63.9927ZM22.9613 52.7988V61.9248C22.9613 63.4971 23.286 64.625 23.9354 65.3086C24.5849 65.9922 25.6387 66.334 27.0971 66.334C28.5554 66.334 29.6093 65.9922 30.2587 65.3086C30.9081 64.625 31.2328 63.4971 31.2328 61.9248V52.7988H34.9413V60.814C34.9413 63.9129 34.3204 66.1631 33.0785 67.5645C31.8367 68.9658 29.8542 69.6665 27.1313 69.6665C24.3627 69.6665 22.3575 68.9715 21.1156 67.5815C19.8738 66.1916 19.2528 63.9357 19.2528 60.814V52.7988H22.9613ZM42.2571 55.3794C42.6559 54.3084 43.18 53.5166 43.8294 53.0039C44.4902 52.4912 45.3048 52.2349 46.2732 52.2349C46.7973 52.2349 47.31 52.2975 47.8113 52.4229C48.324 52.5482 48.8253 52.7305 49.3152 52.9697L47.9822 56.1143C47.6632 55.8864 47.3157 55.7212 46.9397 55.6187C46.5752 55.5047 46.165 55.4478 45.7093 55.4478C44.4788 55.4478 43.5958 55.9434 43.0604 56.9346C42.5249 57.9144 42.2571 59.5664 42.2571 61.8906V69H38.5486V52.7646H42.2571V55.3794ZM53.7429 55.3794C54.1416 54.3084 54.6657 53.5166 55.3151 53.0039C55.9759 52.4912 56.7906 52.2349 57.759 52.2349C58.2831 52.2349 58.7958 52.2975 59.2971 52.4229C59.8098 52.5482 60.3111 52.7305 60.801 52.9697L59.468 56.1143C59.149 55.8864 58.8015 55.7212 58.4255 55.6187C58.0609 55.5047 57.6507 55.4478 57.195 55.4478C55.9646 55.4478 55.0816 55.9434 54.5461 56.9346C54.0106 57.9144 53.7429 59.5664 53.7429 61.8906V69H50.0344V52.7646H53.7429V55.3794ZM74.2521 60.9507C74.2521 59.4468 73.7678 58.1764 72.7994 57.1396C71.831 56.0915 70.6461 55.5674 69.2447 55.5674C67.8548 55.5674 66.6699 56.0915 65.69 57.1396C64.7216 58.1764 64.2374 59.4468 64.2374 60.9507C64.2374 62.4546 64.7216 63.7306 65.69 64.7788C66.6699 65.8156 67.8548 66.334 69.2447 66.334C70.6347 66.334 71.8139 65.8156 72.7823 64.7788C73.7621 63.7306 74.2521 62.4546 74.2521 60.9507ZM60.3238 60.9165C60.3238 59.7316 60.546 58.6151 60.9903 57.5669C61.4461 56.5073 62.0955 55.5674 62.9386 54.7471C63.7703 53.9382 64.7273 53.3172 65.8097 52.8843C66.892 52.4513 68.0257 52.2349 69.2105 52.2349C70.4296 52.2349 71.5746 52.4513 72.6456 52.8843C73.728 53.3172 74.6964 53.9552 75.5509 54.7983C76.4054 55.63 77.0548 56.57 77.4991 57.6182C77.9435 58.6663 78.1656 59.7658 78.1656 60.9165C78.1656 62.1128 77.9435 63.235 77.4991 64.2832C77.0662 65.3314 76.4282 66.2599 75.5851 67.0688C74.6964 67.9233 73.7109 68.5671 72.6285 69C71.5462 69.4443 70.4068 69.6665 69.2105 69.6665C68.037 69.6665 66.9091 69.4443 65.8268 69C64.7444 68.5671 63.7817 67.9347 62.9386 67.103C62.0841 66.2599 61.4347 65.3143 60.9903 64.2661C60.546 63.2179 60.3238 62.1014 60.3238 60.9165ZM84.2852 52.7988V61.9248C84.2852 63.4971 84.6099 64.625 85.2593 65.3086C85.9087 65.9922 86.9626 66.334 88.4209 66.334C89.8792 66.334 90.9331 65.9922 91.5825 65.3086C92.2319 64.625 92.5566 63.4971 92.5566 61.9248V52.7988H96.2651V60.814C96.2651 63.9129 95.6442 66.1631 94.4023 67.5645C93.1605 68.9658 91.1781 69.6665 88.4551 69.6665C85.6865 69.6665 83.6813 68.9715 82.4395 67.5815C81.1976 66.1916 80.5767 63.9357 80.5767 60.814V52.7988H84.2852ZM99.8725 69V52.7988H103.359V55.4478C104.099 54.3312 104.971 53.5166 105.974 53.0039C106.976 52.4912 108.195 52.2349 109.631 52.2349C110.838 52.2349 111.864 52.4285 112.707 52.8159C113.561 53.1919 114.228 53.7559 114.706 54.5078C114.991 54.9521 115.196 55.4705 115.322 56.063C115.447 56.6554 115.51 57.6922 115.51 59.1733V69H111.767V60.6772C111.767 58.5467 111.505 57.134 110.981 56.439C110.468 55.7326 109.551 55.3794 108.229 55.3794C107.364 55.3794 106.589 55.5389 105.905 55.8579C105.233 56.1769 104.703 56.627 104.316 57.208C104.042 57.5954 103.849 58.0967 103.735 58.7119C103.632 59.3158 103.581 60.2842 103.581 61.6172V69H99.8725ZM130.687 60.8481C130.687 59.1733 130.294 57.8688 129.508 56.9346C128.733 56.0003 127.645 55.5332 126.243 55.5332C124.842 55.5332 123.737 56.0174 122.928 56.9858C122.13 57.9429 121.732 59.2759 121.732 60.9849C121.732 62.7052 122.119 64.0326 122.894 64.9668C123.669 65.901 124.762 66.3682 126.175 66.3682C127.519 66.3682 128.608 65.8669 129.439 64.8643C130.271 63.8503 130.687 62.5116 130.687 60.8481ZM130.584 42.5107H134.293V69H130.584V66.8979C129.923 67.8322 129.149 68.5272 128.26 68.9829C127.383 69.4386 126.374 69.6665 125.235 69.6665C122.945 69.6665 121.139 68.8861 119.818 67.3252C118.507 65.7529 117.852 63.6053 117.852 60.8823C117.852 58.2961 118.525 56.2111 119.869 54.6274C121.213 53.0324 122.968 52.2349 125.133 52.2349C126.454 52.2349 127.582 52.514 128.516 53.0723C129.462 53.6191 130.151 54.411 130.584 55.4478V42.5107ZM153.623 61.4463H140.669C140.76 62.9616 141.21 64.1465 142.019 65.001C142.828 65.8441 143.904 66.2656 145.249 66.2656C146.445 66.2656 147.442 66.015 148.239 65.5137C149.037 65.0124 149.732 64.2035 150.324 63.0869L153.452 64.8301C152.54 66.4593 151.412 67.6727 150.068 68.4702C148.724 69.2677 147.146 69.6665 145.334 69.6665C142.737 69.6665 140.669 68.8747 139.131 67.291C137.592 65.7074 136.823 63.5939 136.823 60.9507C136.823 58.41 137.615 56.325 139.199 54.6958C140.794 53.0552 142.839 52.2349 145.334 52.2349C147.943 52.2349 149.977 52.9811 151.435 54.4736C152.894 55.9661 153.623 58.0568 153.623 60.7456V61.4463ZM149.778 58.9512C149.629 57.7891 149.185 56.9061 148.445 56.3022C147.704 55.687 146.69 55.3794 145.403 55.3794C144.183 55.3794 143.204 55.6756 142.463 56.2681C141.723 56.8605 141.204 57.7549 140.908 58.9512H149.778ZM167.74 60.8481C167.74 59.1733 167.347 57.8688 166.561 56.9346C165.786 56.0003 164.698 55.5332 163.297 55.5332C161.896 55.5332 160.79 56.0174 159.982 56.9858C159.184 57.9429 158.785 59.2759 158.785 60.9849C158.785 62.7052 159.173 64.0326 159.947 64.9668C160.722 65.901 161.816 66.3682 163.229 66.3682C164.573 66.3682 165.661 65.8669 166.493 64.8643C167.324 63.8503 167.74 62.5116 167.74 60.8481ZM167.638 42.5107H171.346V69H167.638V66.8979C166.977 67.8322 166.202 68.5272 165.314 68.9829C164.436 69.4386 163.428 69.6665 162.289 69.6665C159.999 69.6665 158.193 68.8861 156.871 67.3252C155.561 65.7529 154.906 63.6053 154.906 60.8823C154.906 58.2961 155.578 56.2111 156.922 54.6274C158.267 53.0324 160.021 52.2349 162.186 52.2349C163.508 52.2349 164.636 52.514 165.57 53.0723C166.516 53.6191 167.205 54.411 167.638 55.4478V42.5107ZM187.824 60.8481C187.824 62.5002 188.245 63.8332 189.088 64.8472C189.943 65.8612 191.042 66.3682 192.387 66.3682C193.788 66.3682 194.87 65.901 195.634 64.9668C196.408 64.0326 196.796 62.7052 196.796 60.9849C196.796 59.2759 196.391 57.9429 195.582 56.9858C194.785 56.0174 193.685 55.5332 192.284 55.5332C190.883 55.5332 189.789 56.0003 189.003 56.9346C188.217 57.8688 187.824 59.1733 187.824 60.8481ZM187.943 42.5107V55.4478C188.376 54.4224 189.066 53.6305 190.011 53.0723C190.968 52.514 192.107 52.2349 193.429 52.2349C195.582 52.2349 197.326 53.0324 198.659 54.6274C200.003 56.2111 200.675 58.2961 200.675 60.8823C200.675 63.6053 200.014 65.7529 198.693 67.3252C197.383 68.8861 195.582 69.6665 193.292 69.6665C192.153 69.6665 191.139 69.4386 190.25 68.9829C189.373 68.5272 188.604 67.8322 187.943 66.8979V69H184.235V42.5107H187.943ZM205.992 76.6221H202.18L206.624 67.5986L200.677 52.7988H204.778L207.752 61.1899C207.923 61.7026 208.071 62.2267 208.196 62.7622C208.333 63.2863 208.441 63.8218 208.521 64.3687C208.669 63.799 209.022 62.8932 209.58 61.6514L209.666 61.4463L213.665 52.7988H217.681L205.992 76.6221ZM231.851 54.4395H232.894C235.15 54.4395 236.653 54.1945 237.405 53.7046C238.157 53.2147 238.533 52.3488 238.533 51.1069C238.533 49.7739 238.129 48.834 237.32 48.2871C236.522 47.7402 235.047 47.4668 232.894 47.4668H231.851V54.4395ZM231.595 57.772V69H227.784V43.9805H233.936C235.759 43.9805 237.098 44.083 237.952 44.2881C238.818 44.4818 239.57 44.8065 240.208 45.2622C240.994 45.8433 241.609 46.6294 242.054 47.6206C242.498 48.6004 242.72 49.6828 242.72 50.8677C242.72 52.0526 242.498 53.1463 242.054 54.1489C241.609 55.1515 240.994 55.9377 240.208 56.5073C239.57 56.9631 238.818 57.2878 237.952 57.4814C237.098 57.6751 235.759 57.772 233.936 57.772H233.133H231.595ZM258.684 69H254.975V66.8979C254.314 67.8322 253.54 68.5272 252.651 68.9829C251.774 69.4386 250.765 69.6665 249.626 69.6665C247.336 69.6665 245.53 68.8861 244.208 67.3252C242.898 65.7529 242.243 63.6053 242.243 60.8823C242.243 58.2961 242.915 56.2111 244.26 54.6274C245.604 53.0324 247.359 52.2349 249.523 52.2349C250.845 52.2349 251.973 52.514 252.907 53.0723C253.853 53.6191 254.542 54.411 254.975 55.4478V52.7988H258.684V69ZM255.078 60.8481C255.078 59.1733 254.685 57.8688 253.898 56.9346C253.124 56.0003 252.036 55.5332 250.634 55.5332C249.233 55.5332 248.128 56.0174 247.319 56.9858C246.521 57.9429 246.123 59.2759 246.123 60.9849C246.123 62.7052 246.51 64.0326 247.285 64.9668C248.059 65.901 249.153 66.3682 250.566 66.3682C251.899 66.3682 252.981 65.8612 253.813 64.8472C254.656 63.8332 255.078 62.5002 255.078 60.8481ZM266.119 55.3794C266.518 54.3084 267.042 53.5166 267.691 53.0039C268.352 52.4912 269.167 52.2349 270.135 52.2349C270.659 52.2349 271.172 52.2975 271.673 52.4229C272.186 52.5482 272.687 52.7305 273.177 52.9697L271.844 56.1143C271.525 55.8864 271.178 55.7212 270.802 55.6187C270.437 55.5047 270.027 55.4478 269.571 55.4478C268.341 55.4478 267.458 55.9434 266.922 56.9346C266.387 57.9144 266.119 59.5664 266.119 61.8906V69H262.411V52.7646H266.119V55.3794ZM273.896 69V42.5107H277.605V59.5151L284.389 52.7988H288.97L281.621 59.9424L289.67 69H284.885L277.605 60.6431V69H273.896ZM288.715 66.0605L291.791 64.3857C292.019 65.1947 292.44 65.8099 293.055 66.2314C293.671 66.653 294.462 66.8638 295.431 66.8638C296.263 66.8638 296.912 66.6758 297.379 66.2998C297.858 65.9124 298.097 65.3883 298.097 64.7275C298.097 63.8503 297.254 63.0983 295.568 62.4717C294.998 62.2666 294.559 62.0957 294.252 61.959C292.52 61.2412 291.306 60.512 290.612 59.7715C289.928 59.0309 289.586 58.1309 289.586 57.0713C289.586 55.6243 290.15 54.4508 291.278 53.5508C292.417 52.6507 293.921 52.2007 295.79 52.2007C297.043 52.2007 298.114 52.4342 299.003 52.9014C299.903 53.3571 300.558 54.0122 300.968 54.8667L298.336 56.6782C298.142 56.1655 297.801 55.7611 297.311 55.4648C296.832 55.1572 296.274 55.0034 295.636 55.0034C294.93 55.0034 294.36 55.1743 293.927 55.5161C293.505 55.8465 293.295 56.2909 293.295 56.8491C293.295 57.6922 294.252 58.4613 296.166 59.1562C296.77 59.3727 297.237 59.5493 297.567 59.686C299.06 60.2785 300.125 60.9507 300.763 61.7026C301.412 62.4432 301.737 63.3717 301.737 64.4883C301.737 66.1061 301.15 67.3765 299.977 68.2993C298.803 69.2108 297.185 69.6665 295.123 69.6665C293.54 69.6665 292.224 69.3703 291.175 68.7778C290.127 68.1854 289.307 67.2796 288.715 66.0605Z" fill="white"/>
</svg>
