<svg width="352" height="118" viewBox="0 0 352 118" fill="none" xmlns="http://www.w3.org/2000/svg">
<path d="M1.87109 27V1.98047H15.8335V5.43262H5.93848V11.7046H15.8335V15.2764H5.93848V23.3599H15.8335V27H1.87109ZM19.9022 27H15.8007L21.9359 18.2842L16.6894 10.7988H20.7738L23.0468 14.1484C23.286 14.4902 23.4968 14.8206 23.6791 15.1396C23.8614 15.4587 24.0266 15.7834 24.1747 16.1138C24.3114 15.8403 24.4652 15.5555 24.6361 15.2593C24.8184 14.9517 25.0463 14.57 25.3197 14.1143L27.5756 10.7988H31.6259L26.3793 18.3184L32.4633 27H28.413L25.4052 22.7446C25.371 22.6877 25.3254 22.6193 25.2685 22.5396C24.6874 21.6623 24.3114 20.9901 24.1405 20.5229C23.9127 20.9559 23.6905 21.3604 23.474 21.7363C23.2689 22.1009 23.0582 22.4427 22.8417 22.7617L19.9022 27ZM45.3504 15.4131C44.7807 14.7865 44.1142 14.3079 43.3509 13.9775C42.5989 13.6471 41.7843 13.4819 40.907 13.4819C39.3917 13.4819 38.1784 13.9718 37.2669 14.9517C36.3554 15.9315 35.8997 17.2303 35.8997 18.8481C35.8997 20.5343 36.3554 21.8617 37.2669 22.8301C38.1897 23.7871 39.4601 24.2656 41.0779 24.2656C41.978 24.2656 42.7812 24.1004 43.4876 23.77C44.194 23.4282 44.8149 22.9155 45.3504 22.2319V26.5044C44.6668 26.8918 43.9319 27.1823 43.1458 27.376C42.3711 27.5697 41.5451 27.6665 40.6678 27.6665C38.1271 27.6665 36.0535 26.8576 34.4471 25.2397C32.852 23.6219 32.0545 21.5256 32.0545 18.9507C32.0545 16.3416 32.8805 14.2396 34.5325 12.6445C36.1959 11.0381 38.3663 10.2349 41.0438 10.2349C41.8868 10.2349 42.6616 10.3203 43.368 10.4912C44.0743 10.6507 44.7352 10.9014 45.3504 11.2432V15.4131ZM63.3474 19.4463H50.3933C50.4844 20.9616 50.9344 22.1465 51.7434 23.001C52.5523 23.8441 53.6289 24.2656 54.9733 24.2656C56.1696 24.2656 57.1665 24.015 57.9641 23.5137C58.7616 23.0124 59.4566 22.2035 60.049 21.0869L63.1765 22.8301C62.265 24.4593 61.1371 25.6727 59.7927 26.4702C58.4483 27.2677 56.8703 27.6665 55.0588 27.6665C52.4611 27.6665 50.3933 26.8747 48.8552 25.291C47.3171 23.7074 46.548 21.5939 46.548 18.9507C46.548 16.41 47.3399 14.325 48.9235 12.6958C50.5186 11.0552 52.5637 10.2349 55.0588 10.2349C57.6678 10.2349 59.7015 10.9811 61.1599 12.4736C62.6182 13.9661 63.3474 16.0568 63.3474 18.7456V19.4463ZM59.5021 16.9512C59.354 15.7891 58.9097 14.9061 58.1691 14.3022C57.4286 13.687 56.4146 13.3794 55.1271 13.3794C53.9081 13.3794 52.9283 13.6756 52.1877 14.2681C51.4471 14.8605 50.9287 15.7549 50.6325 16.9512H59.5021ZM69.4156 18.8481C69.4156 20.5229 69.8315 21.8617 70.6632 22.8643C71.5063 23.8669 72.6114 24.3682 73.9786 24.3682C75.38 24.3682 76.4623 23.901 77.2257 22.9668C78.0004 22.0326 78.3878 20.7052 78.3878 18.9849C78.3878 17.2759 77.9833 15.9429 77.1744 14.9858C76.3769 14.0174 75.2774 13.5332 73.8761 13.5332C72.4747 13.5332 71.381 14.0003 70.5948 14.9346C69.8087 15.8688 69.4156 17.1733 69.4156 18.8481ZM65.8268 34.6221V10.7988H69.5353V13.4478C69.9682 12.4224 70.6575 11.6305 71.6031 11.0723C72.5602 10.514 73.6995 10.2349 75.0211 10.2349C77.1744 10.2349 78.9176 11.0324 80.2506 12.6274C81.595 14.2111 82.2672 16.2961 82.2672 18.8823C82.2672 21.6053 81.6064 23.7529 80.2848 25.3252C78.9745 26.8861 77.1744 27.6665 74.8844 27.6665C73.7451 27.6665 72.7311 27.4386 71.8424 26.9829C70.9651 26.5272 70.1961 25.8322 69.5353 24.8979V34.6221H65.8268ZM85.6694 27V14.0459H82.8325V10.7988H85.6694V4.66357H89.3779V10.7988H92.2148V14.0459H89.3779V27H85.6694ZM93.703 3.79199C93.703 3.16536 93.9309 2.62419 94.3866 2.16846C94.8537 1.71273 95.4063 1.48486 96.0443 1.48486C96.7051 1.48486 97.252 1.70703 97.685 2.15137C98.1293 2.58431 98.3515 3.13118 98.3515 3.79199C98.3515 4.4528 98.1293 5.01107 97.685 5.4668C97.2406 5.91113 96.6937 6.1333 96.0443 6.1333C95.4063 6.1333 94.8537 5.90544 94.3866 5.44971C93.9309 4.98258 93.703 4.43001 93.703 3.79199ZM94.1986 27V10.7988H97.9071V27H94.1986ZM114.554 18.9507C114.554 17.4468 114.07 16.1764 113.101 15.1396C112.133 14.0915 110.948 13.5674 109.547 13.5674C108.157 13.5674 106.972 14.0915 105.992 15.1396C105.024 16.1764 104.539 17.4468 104.539 18.9507C104.539 20.4546 105.024 21.7306 105.992 22.7788C106.972 23.8156 108.157 24.334 109.547 24.334C110.937 24.334 112.116 23.8156 113.084 22.7788C114.064 21.7306 114.554 20.4546 114.554 18.9507ZM100.626 18.9165C100.626 17.7316 100.848 16.6151 101.292 15.5669C101.748 14.5073 102.397 13.5674 103.241 12.7471C104.072 11.9382 105.029 11.3172 106.112 10.8843C107.194 10.4513 108.328 10.2349 109.512 10.2349C110.732 10.2349 111.877 10.4513 112.948 10.8843C114.03 11.3172 114.998 11.9552 115.853 12.7983C116.707 13.63 117.357 14.57 117.801 15.6182C118.245 16.6663 118.468 17.7658 118.468 18.9165C118.468 20.1128 118.245 21.235 117.801 22.2832C117.368 23.3314 116.73 24.2599 115.887 25.0688C114.998 25.9233 114.013 26.5671 112.93 27C111.848 27.4443 110.709 27.6665 109.512 27.6665C108.339 27.6665 107.211 27.4443 106.129 27C105.046 26.5671 104.084 25.9347 103.241 25.103C102.386 24.2599 101.737 23.3143 101.292 22.2661C100.848 21.2179 100.626 20.1014 100.626 18.9165ZM120.998 27V10.7988H124.485V13.4478C125.225 12.3312 126.097 11.5166 127.099 11.0039C128.102 10.4912 129.321 10.2349 130.757 10.2349C131.964 10.2349 132.99 10.4285 133.833 10.8159C134.687 11.1919 135.354 11.7559 135.832 12.5078C136.117 12.9521 136.322 13.4705 136.447 14.063C136.573 14.6554 136.635 15.6922 136.635 17.1733V27H132.893V18.6772C132.893 16.5467 132.631 15.134 132.107 14.439C131.594 13.7326 130.677 13.3794 129.355 13.3794C128.489 13.3794 127.715 13.5389 127.031 13.8579C126.359 14.1769 125.829 14.627 125.442 15.208C125.168 15.5954 124.974 16.0967 124.861 16.7119C124.758 17.3158 124.707 18.2842 124.707 19.6172V27H120.998ZM155.419 27H151.71V24.8979C151.049 25.8322 150.275 26.5272 149.386 26.9829C148.509 27.4386 147.5 27.6665 146.361 27.6665C144.071 27.6665 142.265 26.8861 140.943 25.3252C139.633 23.7529 138.978 21.6053 138.978 18.8823C138.978 16.2961 139.65 14.2111 140.995 12.6274C142.339 11.0324 144.094 10.2349 146.258 10.2349C147.58 10.2349 148.708 10.514 149.642 11.0723C150.588 11.6191 151.277 12.411 151.71 13.4478V10.7988H155.419V27ZM151.813 18.8481C151.813 17.1733 151.42 15.8688 150.633 14.9346C149.859 14.0003 148.771 13.5332 147.369 13.5332C145.968 13.5332 144.863 14.0174 144.054 14.9858C143.256 15.9429 142.858 17.2759 142.858 18.9849C142.858 20.7052 143.245 22.0326 144.02 22.9668C144.794 23.901 145.888 24.3682 147.301 24.3682C148.634 24.3682 149.716 23.8612 150.548 22.8472C151.391 21.8332 151.813 20.5002 151.813 18.8481ZM159.316 27V0.510742H163.025V27H159.316ZM186.099 10.0981L179.724 19.0874H185.996V12.5762C185.996 12.2344 186.002 11.8527 186.013 11.4312C186.036 11.0096 186.065 10.5653 186.099 10.0981ZM185.996 27V21.9243H173.999L188.56 1.72412H189.705V19.0874H192.747V21.9243H189.705V27H185.996ZM209.31 12.542H210.865C212.802 12.542 214.169 12.2799 214.966 11.7559C215.775 11.2204 216.18 10.326 216.18 9.07275C216.18 7.70557 215.809 6.74854 215.069 6.20166C214.328 5.64339 212.927 5.36426 210.865 5.36426H209.31V12.542ZM209.31 23.5991H210.711C212.135 23.5991 213.2 23.5422 213.907 23.4282C214.613 23.3143 215.171 23.1149 215.582 22.8301C216.083 22.4997 216.47 22.0553 216.744 21.4971C217.017 20.9388 217.154 20.3236 217.154 19.6514C217.154 18.8538 216.989 18.1589 216.658 17.5664C216.328 16.974 215.855 16.5125 215.24 16.1821C214.852 15.9884 214.408 15.846 213.907 15.7549C213.417 15.6637 212.762 15.6182 211.941 15.6182H210.711H209.31V23.5991ZM205.328 27V1.98047H211.634C213.434 1.98047 214.761 2.07731 215.616 2.271C216.482 2.46468 217.217 2.78369 217.82 3.22803C218.595 3.79769 219.193 4.54395 219.615 5.4668C220.048 6.38965 220.264 7.40934 220.264 8.52588C220.264 9.85889 219.957 10.9754 219.341 11.8755C218.726 12.7642 217.832 13.3851 216.658 13.7383C218.117 13.9661 219.262 14.6326 220.093 15.7378C220.936 16.8315 221.358 18.2158 221.358 19.8906C221.358 20.9046 221.181 21.8674 220.828 22.7788C220.475 23.6903 219.974 24.465 219.324 25.103C218.641 25.798 217.792 26.2879 216.778 26.5728C215.764 26.8576 214.061 27 211.668 27H205.328ZM224.094 27V1.98047H228.161V11.209H240.466V1.98047H244.533V27H240.466V14.8491H228.161V27H224.094ZM248.875 27V1.98047H252.943V12.3369L261.932 1.98047H266.905L256.993 13.106L268.084 27H262.838L252.943 14.2168V27H248.875ZM286.288 27.9741L275.128 1.98047H279.349L284.955 15.3105C285.285 16.0853 285.559 16.8031 285.775 17.4639C285.992 18.1133 286.162 18.7342 286.288 19.3267C286.436 18.7 286.624 18.0506 286.852 17.3784C287.08 16.7062 287.347 16.0169 287.655 15.3105L293.243 1.98047H297.447L286.288 27.9741ZM297.944 3.79199C297.944 3.16536 298.172 2.62419 298.628 2.16846C299.095 1.71273 299.648 1.48486 300.286 1.48486C300.947 1.48486 301.493 1.70703 301.926 2.15137C302.371 2.58431 302.593 3.13118 302.593 3.79199C302.593 4.4528 302.371 5.01107 301.926 5.4668C301.482 5.91113 300.935 6.1333 300.286 6.1333C299.648 6.1333 299.095 5.90544 298.628 5.44971C298.172 4.98258 297.944 4.43001 297.944 3.79199ZM298.44 27V10.7988H302.149V27H298.44ZM306.234 27V0.510742H309.943V27H306.234ZM314.029 27V0.510742H317.737V27H314.029ZM336.896 27H333.188V24.8979C332.527 25.8322 331.752 26.5272 330.864 26.9829C329.986 27.4386 328.978 27.6665 327.839 27.6665C325.549 27.6665 323.743 26.8861 322.421 25.3252C321.111 23.7529 320.456 21.6053 320.456 18.8823C320.456 16.2961 321.128 14.2111 322.472 12.6274C323.817 11.0324 325.571 10.2349 327.736 10.2349C329.058 10.2349 330.186 10.514 331.12 11.0723C332.066 11.6191 332.755 12.411 333.188 13.4478V10.7988H336.896V27ZM333.29 18.8481C333.29 17.1733 332.897 15.8688 332.111 14.9346C331.336 14.0003 330.248 13.5332 328.847 13.5332C327.446 13.5332 326.34 14.0174 325.532 14.9858C324.734 15.9429 324.335 17.2759 324.335 18.9849C324.335 20.7052 324.723 22.0326 325.497 22.9668C326.272 23.901 327.366 24.3682 328.779 24.3682C330.112 24.3682 331.194 23.8612 332.026 22.8472C332.869 21.8332 333.29 20.5002 333.29 18.8481ZM338.76 24.0605L341.837 22.3857C342.064 23.1947 342.486 23.8099 343.101 24.2314C343.716 24.653 344.508 24.8638 345.477 24.8638C346.308 24.8638 346.958 24.6758 347.425 24.2998C347.904 23.9124 348.143 23.3883 348.143 22.7275C348.143 21.8503 347.3 21.0983 345.613 20.4717C345.044 20.2666 344.605 20.0957 344.298 19.959C342.566 19.2412 341.352 18.512 340.657 17.7715C339.974 17.0309 339.632 16.1309 339.632 15.0713C339.632 13.6243 340.196 12.4508 341.324 11.5508C342.463 10.6507 343.967 10.2007 345.836 10.2007C347.089 10.2007 348.16 10.4342 349.049 10.9014C349.949 11.3571 350.604 12.0122 351.014 12.8667L348.382 14.6782C348.188 14.1655 347.847 13.7611 347.357 13.4648C346.878 13.1572 346.32 13.0034 345.682 13.0034C344.975 13.0034 344.406 13.1743 343.973 13.5161C343.551 13.8465 343.341 14.2909 343.341 14.8491C343.341 15.6922 344.298 16.4613 346.212 17.1562C346.815 17.3727 347.283 17.5493 347.613 17.686C349.105 18.2785 350.171 18.9507 350.809 19.7026C351.458 20.4432 351.783 21.3717 351.783 22.4883C351.783 24.1061 351.196 25.3765 350.023 26.2993C348.849 27.2108 347.231 27.6665 345.169 27.6665C343.585 27.6665 342.27 27.3703 341.221 26.7778C340.173 26.1854 339.353 25.2796 338.76 24.0605ZM0.435547 63.9927L3.68262 62.4888C3.99023 63.6053 4.5542 64.4598 5.37451 65.0522C6.19482 65.6333 7.243 65.9238 8.51904 65.9238C9.72673 65.9238 10.6838 65.5877 11.3901 64.9155C12.1079 64.2433 12.4668 63.3433 12.4668 62.2153C12.4668 60.7456 11.2477 59.4354 8.80957 58.2847C8.46777 58.1138 8.20573 57.9884 8.02344 57.9087C5.26628 56.5643 3.42627 55.3509 2.50342 54.2686C1.59196 53.1748 1.13623 51.8418 1.13623 50.2695C1.13623 48.2301 1.82552 46.5781 3.2041 45.3135C4.59408 44.0488 6.4113 43.4165 8.65576 43.4165C10.5015 43.4165 12.0452 43.7754 13.2871 44.4932C14.529 45.1995 15.3892 46.2192 15.8677 47.5522L12.689 49.1929C12.1877 48.4067 11.6351 47.8314 11.0312 47.4668C10.4388 47.1022 9.75521 46.9199 8.98047 46.9199C7.88672 46.9199 7.01514 47.2048 6.36572 47.7744C5.7277 48.3441 5.40869 49.1074 5.40869 50.0645C5.40869 51.5684 6.82145 52.9697 9.64697 54.2686C9.86344 54.3711 10.0343 54.4508 10.1597 54.5078C12.632 55.6471 14.3296 56.7637 15.2524 57.8574C16.1753 58.9398 16.6367 60.2956 16.6367 61.9248C16.6367 64.2946 15.8905 66.1802 14.3979 67.5815C12.9054 68.9715 10.8888 69.6665 8.34814 69.6665C6.21761 69.6665 4.46875 69.1766 3.10156 68.1968C1.74577 67.217 0.857096 65.8156 0.435547 63.9927ZM22.9613 52.7988V61.9248C22.9613 63.4971 23.286 64.625 23.9354 65.3086C24.5849 65.9922 25.6387 66.334 27.0971 66.334C28.5554 66.334 29.6093 65.9922 30.2587 65.3086C30.9081 64.625 31.2328 63.4971 31.2328 61.9248V52.7988H34.9413V60.814C34.9413 63.9129 34.3204 66.1631 33.0785 67.5645C31.8367 68.9658 29.8542 69.6665 27.1313 69.6665C24.3627 69.6665 22.3575 68.9715 21.1156 67.5815C19.8738 66.1916 19.2528 63.9357 19.2528 60.814V52.7988H22.9613ZM42.2571 55.3794C42.6559 54.3084 43.18 53.5166 43.8294 53.0039C44.4902 52.4912 45.3048 52.2349 46.2732 52.2349C46.7973 52.2349 47.31 52.2975 47.8113 52.4229C48.324 52.5482 48.8253 52.7305 49.3152 52.9697L47.9822 56.1143C47.6632 55.8864 47.3157 55.7212 46.9397 55.6187C46.5752 55.5047 46.165 55.4478 45.7093 55.4478C44.4788 55.4478 43.5958 55.9434 43.0604 56.9346C42.5249 57.9144 42.2571 59.5664 42.2571 61.8906V69H38.5486V52.7646H42.2571V55.3794ZM53.7429 55.3794C54.1416 54.3084 54.6657 53.5166 55.3151 53.0039C55.9759 52.4912 56.7906 52.2349 57.759 52.2349C58.2831 52.2349 58.7958 52.2975 59.2971 52.4229C59.8098 52.5482 60.3111 52.7305 60.801 52.9697L59.468 56.1143C59.149 55.8864 58.8015 55.7212 58.4255 55.6187C58.0609 55.5047 57.6507 55.4478 57.195 55.4478C55.9646 55.4478 55.0816 55.9434 54.5461 56.9346C54.0106 57.9144 53.7429 59.5664 53.7429 61.8906V69H50.0344V52.7646H53.7429V55.3794ZM74.2521 60.9507C74.2521 59.4468 73.7678 58.1764 72.7994 57.1396C71.831 56.0915 70.6461 55.5674 69.2447 55.5674C67.8548 55.5674 66.6699 56.0915 65.69 57.1396C64.7216 58.1764 64.2374 59.4468 64.2374 60.9507C64.2374 62.4546 64.7216 63.7306 65.69 64.7788C66.6699 65.8156 67.8548 66.334 69.2447 66.334C70.6347 66.334 71.8139 65.8156 72.7823 64.7788C73.7621 63.7306 74.2521 62.4546 74.2521 60.9507ZM60.3238 60.9165C60.3238 59.7316 60.546 58.6151 60.9903 57.5669C61.4461 56.5073 62.0955 55.5674 62.9386 54.7471C63.7703 53.9382 64.7273 53.3172 65.8097 52.8843C66.892 52.4513 68.0257 52.2349 69.2105 52.2349C70.4296 52.2349 71.5746 52.4513 72.6456 52.8843C73.728 53.3172 74.6964 53.9552 75.5509 54.7983C76.4054 55.63 77.0548 56.57 77.4991 57.6182C77.9435 58.6663 78.1656 59.7658 78.1656 60.9165C78.1656 62.1128 77.9435 63.235 77.4991 64.2832C77.0662 65.3314 76.4282 66.2599 75.5851 67.0688C74.6964 67.9233 73.7109 68.5671 72.6285 69C71.5462 69.4443 70.4068 69.6665 69.2105 69.6665C68.037 69.6665 66.9091 69.4443 65.8268 69C64.7444 68.5671 63.7817 67.9347 62.9386 67.103C62.0841 66.2599 61.4347 65.3143 60.9903 64.2661C60.546 63.2179 60.3238 62.1014 60.3238 60.9165ZM84.2852 52.7988V61.9248C84.2852 63.4971 84.6099 64.625 85.2593 65.3086C85.9087 65.9922 86.9626 66.334 88.4209 66.334C89.8792 66.334 90.9331 65.9922 91.5825 65.3086C92.2319 64.625 92.5566 63.4971 92.5566 61.9248V52.7988H96.2651V60.814C96.2651 63.9129 95.6442 66.1631 94.4023 67.5645C93.1605 68.9658 91.1781 69.6665 88.4551 69.6665C85.6865 69.6665 83.6813 68.9715 82.4395 67.5815C81.1976 66.1916 80.5767 63.9357 80.5767 60.814V52.7988H84.2852ZM99.8725 69V52.7988H103.359V55.4478C104.099 54.3312 104.971 53.5166 105.974 53.0039C106.976 52.4912 108.195 52.2349 109.631 52.2349C110.838 52.2349 111.864 52.4285 112.707 52.8159C113.561 53.1919 114.228 53.7559 114.706 54.5078C114.991 54.9521 115.196 55.4705 115.322 56.063C115.447 56.6554 115.51 57.6922 115.51 59.1733V69H111.767V60.6772C111.767 58.5467 111.505 57.134 110.981 56.439C110.468 55.7326 109.551 55.3794 108.229 55.3794C107.364 55.3794 106.589 55.5389 105.905 55.8579C105.233 56.1769 104.703 56.627 104.316 57.208C104.042 57.5954 103.849 58.0967 103.735 58.7119C103.632 59.3158 103.581 60.2842 103.581 61.6172V69H99.8725ZM130.687 60.8481C130.687 59.1733 130.294 57.8688 129.508 56.9346C128.733 56.0003 127.645 55.5332 126.243 55.5332C124.842 55.5332 123.737 56.0174 122.928 56.9858C122.13 57.9429 121.732 59.2759 121.732 60.9849C121.732 62.7052 122.119 64.0326 122.894 64.9668C123.669 65.901 124.762 66.3682 126.175 66.3682C127.519 66.3682 128.608 65.8669 129.439 64.8643C130.271 63.8503 130.687 62.5116 130.687 60.8481ZM130.584 42.5107H134.293V69H130.584V66.8979C129.923 67.8322 129.149 68.5272 128.26 68.9829C127.383 69.4386 126.374 69.6665 125.235 69.6665C122.945 69.6665 121.139 68.8861 119.818 67.3252C118.507 65.7529 117.852 63.6053 117.852 60.8823C117.852 58.2961 118.525 56.2111 119.869 54.6274C121.213 53.0324 122.968 52.2349 125.133 52.2349C126.454 52.2349 127.582 52.514 128.516 53.0723C129.462 53.6191 130.151 54.411 130.584 55.4478V42.5107ZM153.623 61.4463H140.669C140.76 62.9616 141.21 64.1465 142.019 65.001C142.828 65.8441 143.904 66.2656 145.249 66.2656C146.445 66.2656 147.442 66.015 148.239 65.5137C149.037 65.0124 149.732 64.2035 150.324 63.0869L153.452 64.8301C152.54 66.4593 151.412 67.6727 150.068 68.4702C148.724 69.2677 147.146 69.6665 145.334 69.6665C142.737 69.6665 140.669 68.8747 139.131 67.291C137.592 65.7074 136.823 63.5939 136.823 60.9507C136.823 58.41 137.615 56.325 139.199 54.6958C140.794 53.0552 142.839 52.2349 145.334 52.2349C147.943 52.2349 149.977 52.9811 151.435 54.4736C152.894 55.9661 153.623 58.0568 153.623 60.7456V61.4463ZM149.778 58.9512C149.629 57.7891 149.185 56.9061 148.445 56.3022C147.704 55.687 146.69 55.3794 145.403 55.3794C144.183 55.3794 143.204 55.6756 142.463 56.2681C141.723 56.8605 141.204 57.7549 140.908 58.9512H149.778ZM167.74 60.8481C167.74 59.1733 167.347 57.8688 166.561 56.9346C165.786 56.0003 164.698 55.5332 163.297 55.5332C161.896 55.5332 160.79 56.0174 159.982 56.9858C159.184 57.9429 158.785 59.2759 158.785 60.9849C158.785 62.7052 159.173 64.0326 159.947 64.9668C160.722 65.901 161.816 66.3682 163.229 66.3682C164.573 66.3682 165.661 65.8669 166.493 64.8643C167.324 63.8503 167.74 62.5116 167.74 60.8481ZM167.638 42.5107H171.346V69H167.638V66.8979C166.977 67.8322 166.202 68.5272 165.314 68.9829C164.436 69.4386 163.428 69.6665 162.289 69.6665C159.999 69.6665 158.193 68.8861 156.871 67.3252C155.561 65.7529 154.906 63.6053 154.906 60.8823C154.906 58.2961 155.578 56.2111 156.922 54.6274C158.267 53.0324 160.021 52.2349 162.186 52.2349C163.508 52.2349 164.636 52.514 165.57 53.0723C166.516 53.6191 167.205 54.411 167.638 55.4478V42.5107ZM188.524 54.542H190.079C192.016 54.542 193.384 54.2799 194.181 53.7559C194.99 53.2204 195.394 52.326 195.394 51.0728C195.394 49.7056 195.024 48.7485 194.284 48.2017C193.543 47.6434 192.142 47.3643 190.079 47.3643H188.524V54.542ZM188.524 65.5991H189.926C191.35 65.5991 192.415 65.5422 193.121 65.4282C193.828 65.3143 194.386 65.1149 194.796 64.8301C195.298 64.4997 195.685 64.0553 195.958 63.4971C196.232 62.9388 196.369 62.3236 196.369 61.6514C196.369 60.8538 196.203 60.1589 195.873 59.5664C195.543 58.974 195.07 58.5125 194.454 58.1821C194.067 57.9884 193.623 57.846 193.121 57.7549C192.632 57.6637 191.976 57.6182 191.156 57.6182H189.926H188.524V65.5991ZM184.542 69V43.9805H190.849C192.649 43.9805 193.976 44.0773 194.83 44.271C195.696 44.4647 196.431 44.7837 197.035 45.228C197.81 45.7977 198.408 46.5439 198.829 47.4668C199.262 48.3896 199.479 49.4093 199.479 50.5259C199.479 51.8589 199.171 52.9754 198.556 53.8755C197.941 54.7642 197.046 55.3851 195.873 55.7383C197.331 55.9661 198.476 56.6326 199.308 57.7378C200.151 58.8315 200.573 60.2158 200.573 61.8906C200.573 62.9046 200.396 63.8674 200.043 64.7788C199.69 65.6903 199.188 66.465 198.539 67.103C197.855 67.798 197.007 68.2879 195.993 68.5728C194.979 68.8576 193.275 69 190.883 69H184.542ZM205.786 76.6221H201.975L206.419 67.5986L200.471 52.7988H204.573L207.547 61.1899C207.718 61.7026 207.866 62.2267 207.991 62.7622C208.128 63.2863 208.236 63.8218 208.316 64.3687C208.464 63.799 208.817 62.8932 209.375 61.6514L209.461 61.4463L213.46 52.7988H217.476L205.786 76.6221ZM231.646 54.4395H232.689C234.944 54.4395 236.448 54.1945 237.2 53.7046C237.952 53.2147 238.328 52.3488 238.328 51.1069C238.328 49.7739 237.924 48.834 237.115 48.2871C236.317 47.7402 234.842 47.4668 232.689 47.4668H231.646V54.4395ZM231.39 57.772V69H227.579V43.9805H233.731C235.554 43.9805 236.893 44.083 237.747 44.2881C238.613 44.4818 239.365 44.8065 240.003 45.2622C240.789 45.8433 241.404 46.6294 241.849 47.6206C242.293 48.6004 242.515 49.6828 242.515 50.8677C242.515 52.0526 242.293 53.1463 241.849 54.1489C241.404 55.1515 240.789 55.9377 240.003 56.5073C239.365 56.9631 238.613 57.2878 237.747 57.4814C236.893 57.6751 235.554 57.772 233.731 57.772H232.928H231.39ZM258.479 69H254.77V66.8979C254.109 67.8322 253.334 68.5272 252.446 68.9829C251.569 69.4386 250.56 69.6665 249.421 69.6665C247.131 69.6665 245.325 68.8861 244.003 67.3252C242.693 65.7529 242.038 63.6053 242.038 60.8823C242.038 58.2961 242.71 56.2111 244.055 54.6274C245.399 53.0324 247.154 52.2349 249.318 52.2349C250.64 52.2349 251.768 52.514 252.702 53.0723C253.648 53.6191 254.337 54.411 254.77 55.4478V52.7988H258.479V69ZM254.873 60.8481C254.873 59.1733 254.479 57.8688 253.693 56.9346C252.919 56.0003 251.831 55.5332 250.429 55.5332C249.028 55.5332 247.923 56.0174 247.114 56.9858C246.316 57.9429 245.917 59.2759 245.917 60.9849C245.917 62.7052 246.305 64.0326 247.08 64.9668C247.854 65.901 248.948 66.3682 250.361 66.3682C251.694 66.3682 252.776 65.8612 253.608 64.8472C254.451 63.8332 254.873 62.5002 254.873 60.8481ZM265.914 55.3794C266.313 54.3084 266.837 53.5166 267.486 53.0039C268.147 52.4912 268.962 52.2349 269.93 52.2349C270.454 52.2349 270.967 52.2975 271.468 52.4229C271.981 52.5482 272.482 52.7305 272.972 52.9697L271.639 56.1143C271.32 55.8864 270.973 55.7212 270.597 55.6187C270.232 55.5047 269.822 55.4478 269.366 55.4478C268.136 55.4478 267.253 55.9434 266.717 56.9346C266.182 57.9144 265.914 59.5664 265.914 61.8906V69H262.205V52.7646H265.914V55.3794ZM273.691 69V42.5107H277.4V59.5151L284.184 52.7988H288.764L281.416 59.9424L289.465 69H284.68L277.4 60.6431V69H273.691ZM288.509 66.0605L291.586 64.3857C291.813 65.1947 292.235 65.8099 292.85 66.2314C293.466 66.653 294.257 66.8638 295.226 66.8638C296.057 66.8638 296.707 66.6758 297.174 66.2998C297.653 65.9124 297.892 65.3883 297.892 64.7275C297.892 63.8503 297.049 63.0983 295.362 62.4717C294.793 62.2666 294.354 62.0957 294.047 61.959C292.315 61.2412 291.101 60.512 290.406 59.7715C289.723 59.0309 289.381 58.1309 289.381 57.0713C289.381 55.6243 289.945 54.4508 291.073 53.5508C292.212 52.6507 293.716 52.2007 295.585 52.2007C296.838 52.2007 297.909 52.4342 298.798 52.9014C299.698 53.3571 300.353 54.0122 300.763 54.8667L298.131 56.6782C297.937 56.1655 297.596 55.7611 297.106 55.4648C296.627 55.1572 296.069 55.0034 295.431 55.0034C294.724 55.0034 294.155 55.1743 293.722 55.5161C293.3 55.8465 293.09 56.2909 293.09 56.8491C293.09 57.6922 294.047 58.4613 295.961 59.1562C296.564 59.3727 297.032 59.5493 297.362 59.686C298.855 60.2785 299.92 60.9507 300.558 61.7026C301.207 62.4432 301.532 63.3717 301.532 64.4883C301.532 66.1061 300.945 67.3765 299.772 68.2993C298.598 69.2108 296.98 69.6665 294.918 69.6665C293.334 69.6665 292.019 69.3703 290.97 68.7778C289.922 68.1854 289.102 67.2796 288.509 66.0605ZM318.625 59.1733H325.597L323.034 53.4653C322.886 53.1007 322.732 52.6849 322.572 52.2178C322.413 51.7393 322.253 51.2095 322.094 50.6284C321.957 51.1753 321.809 51.688 321.649 52.1665C321.501 52.6336 321.347 53.0666 321.188 53.4653L318.625 59.1733ZM329.87 69L327.033 62.5571H317.121L314.215 69H309.943L322.06 42.9893L334.159 69H329.87ZM335.682 69V56.0459H332.845V52.7988H335.682V46.6636H339.39V52.7988H342.227V56.0459H339.39V69H335.682ZM5.93848 96.6445H6.67334C8.82666 96.6445 10.2565 96.3939 10.9629 95.8926C11.6693 95.3913 12.0225 94.5026 12.0225 93.2266C12.0225 91.848 11.6408 90.8796 10.8774 90.3213C10.1255 89.7516 8.72412 89.4668 6.67334 89.4668H5.93848V96.6445ZM5.68213 99.8062V111H1.87109V85.9805H7.54492C9.20833 85.9805 10.4958 86.0887 11.4072 86.3052C12.3301 86.5216 13.1162 86.8805 13.7656 87.3818C14.5404 87.9857 15.1385 88.7661 15.5601 89.7231C15.9816 90.6802 16.1924 91.7284 16.1924 92.8677C16.1924 94.8729 15.7082 96.4451 14.7397 97.5845C13.7713 98.7124 12.3415 99.3903 10.4502 99.6182L19.0635 111H14.4663L6.14355 99.8062H5.68213ZM34.4115 111H30.703V108.898C30.0422 109.832 29.2675 110.527 28.3788 110.983C27.5015 111.439 26.4932 111.667 25.3539 111.667C23.0639 111.667 21.258 110.886 19.9364 109.325C18.6262 107.753 17.9711 105.605 17.9711 102.882C17.9711 100.296 18.6433 98.2111 19.9877 96.6274C21.3321 95.0324 23.0867 94.2349 25.2514 94.2349C26.573 94.2349 27.7009 94.514 28.6352 95.0723C29.5808 95.6191 30.2701 96.411 30.703 97.4478V94.7988H34.4115V111ZM30.8056 102.848C30.8056 101.173 30.4125 99.8688 29.6264 98.9346C28.8516 98.0003 27.7636 97.5332 26.3622 97.5332C24.9608 97.5332 23.8557 98.0174 23.0468 98.9858C22.2493 99.9429 21.8505 101.276 21.8505 102.985C21.8505 104.705 22.2379 106.033 23.0126 106.967C23.7873 107.901 24.8811 108.368 26.2938 108.368C27.6269 108.368 28.7092 107.861 29.5409 106.847C30.384 105.833 30.8056 104.5 30.8056 102.848ZM43.8294 111.974L35.3357 94.7988H39.386L42.9236 102.951C43.0376 103.201 43.1743 103.577 43.3338 104.079C43.4933 104.58 43.6585 105.178 43.8294 105.873C43.9433 105.383 44.0743 104.899 44.2225 104.42C44.382 103.931 44.57 103.441 44.7864 102.951L48.3069 94.7988H52.3401L43.8294 111.974ZM68.5256 111H64.8171V108.898C64.1563 109.832 63.3815 110.527 62.4929 110.983C61.6156 111.439 60.6073 111.667 59.468 111.667C57.1779 111.667 55.3721 110.886 54.0505 109.325C52.7403 107.753 52.0852 105.605 52.0852 102.882C52.0852 100.296 52.7574 98.2111 54.1018 96.6274C55.4462 95.0324 57.2007 94.2349 59.3654 94.2349C60.687 94.2349 61.815 94.514 62.7492 95.0723C63.6949 95.6191 64.3841 96.411 64.8171 97.4478V94.7988H68.5256V111ZM64.9196 102.848C64.9196 101.173 64.5266 99.8688 63.7404 98.9346C62.9657 98.0003 61.8776 97.5332 60.4763 97.5332C59.0749 97.5332 57.9698 98.0174 57.1608 98.9858C56.3633 99.9429 55.9646 101.276 55.9646 102.985C55.9646 104.705 56.3519 106.033 57.1267 106.967C57.9014 107.901 58.9951 108.368 60.4079 108.368C61.7409 108.368 62.8233 107.861 63.655 106.847C64.4981 105.833 64.9196 104.5 64.9196 102.848ZM72.4234 111V84.5107H76.1319V111H72.4234ZM80.0469 111V84.5107H83.7554V101.515L90.54 94.7988H95.1201L87.7715 101.942L95.8208 111H91.0356L83.7554 102.643V111H80.0469ZM109.46 102.951C109.46 101.447 108.976 100.176 108.007 99.1396C107.039 98.0915 105.854 97.5674 104.453 97.5674C103.063 97.5674 101.878 98.0915 100.898 99.1396C99.9294 100.176 99.4452 101.447 99.4452 102.951C99.4452 104.455 99.9294 105.731 100.898 106.779C101.878 107.816 103.063 108.334 104.453 108.334C105.843 108.334 107.022 107.816 107.99 106.779C108.97 105.731 109.46 104.455 109.46 102.951ZM95.5316 102.917C95.5316 101.732 95.7538 100.615 96.1981 99.5669C96.6539 98.5073 97.3033 97.5674 98.1464 96.7471C98.9781 95.9382 99.9351 95.3172 101.017 94.8843C102.1 94.4513 103.233 94.2349 104.418 94.2349C105.637 94.2349 106.782 94.4513 107.853 94.8843C108.936 95.3172 109.904 95.9552 110.759 96.7983C111.613 97.63 112.263 98.57 112.707 99.6182C113.151 100.666 113.373 101.766 113.373 102.917C113.373 104.113 113.151 105.235 112.707 106.283C112.274 107.331 111.636 108.26 110.793 109.069C109.904 109.923 108.919 110.567 107.836 111C106.754 111.444 105.615 111.667 104.418 111.667C103.245 111.667 102.117 111.444 101.035 111C99.9522 110.567 98.9895 109.935 98.1464 109.103C97.2919 108.26 96.6425 107.314 96.1981 106.266C95.7538 105.218 95.5316 104.101 95.5316 102.917ZM116.075 111V84.5107H119.783V111H116.075ZM139.301 103.446H126.347C126.439 104.962 126.889 106.146 127.697 107.001C128.506 107.844 129.583 108.266 130.927 108.266C132.124 108.266 133.121 108.015 133.918 107.514C134.716 107.012 135.411 106.203 136.003 105.087L139.131 106.83C138.219 108.459 137.091 109.673 135.747 110.47C134.402 111.268 132.824 111.667 131.013 111.667C128.415 111.667 126.347 110.875 124.809 109.291C123.271 107.707 122.502 105.594 122.502 102.951C122.502 100.41 123.294 98.325 124.878 96.6958C126.473 95.0552 128.518 94.2349 131.013 94.2349C133.622 94.2349 135.656 94.9811 137.114 96.4736C138.572 97.9661 139.301 100.057 139.301 102.746V103.446ZM135.456 100.951C135.308 99.7891 134.864 98.9061 134.123 98.3022C133.383 97.687 132.369 97.3794 131.081 97.3794C129.862 97.3794 128.882 97.6756 128.142 98.2681C127.401 98.8605 126.883 99.7549 126.587 100.951H135.456ZM144.498 106.762L147.831 107.992L143.387 117.152L141.183 116.281L144.498 106.762ZM180.817 98.644C180.771 98.4504 180.697 97.9149 180.595 97.0376C180.503 96.3084 180.424 95.7046 180.355 95.2261C180.253 95.7957 180.105 96.3654 179.911 96.9351C179.729 97.5047 179.495 98.0858 179.21 98.6782L172.665 112.008L166.12 98.4048C165.846 97.8465 165.607 97.3053 165.402 96.7812C165.208 96.2572 165.037 95.7388 164.889 95.2261C164.878 95.7502 164.832 96.3027 164.752 96.8838C164.684 97.4535 164.576 98.0516 164.428 98.6782L161.745 111H158.002L163.915 84.9209L171.298 100.712C171.412 100.963 171.583 101.378 171.81 101.959C172.05 102.541 172.335 103.258 172.665 104.113C172.904 103.395 173.28 102.484 173.793 101.378C173.93 101.082 174.032 100.854 174.1 100.695L181.312 84.9209L187.362 111H183.585L180.817 98.644ZM204.522 103.446H191.568C191.659 104.962 192.109 106.146 192.918 107.001C193.727 107.844 194.803 108.266 196.148 108.266C197.344 108.266 198.341 108.015 199.138 107.514C199.936 107.012 200.631 106.203 201.223 105.087L204.351 106.83C203.439 108.459 202.311 109.673 200.967 110.47C199.623 111.268 198.045 111.667 196.233 111.667C193.636 111.667 191.568 110.875 190.03 109.291C188.492 107.707 187.722 105.594 187.722 102.951C187.722 100.41 188.514 98.325 190.098 96.6958C191.693 95.0552 193.738 94.2349 196.233 94.2349C198.842 94.2349 200.876 94.9811 202.334 96.4736C203.793 97.9661 204.522 100.057 204.522 102.746V103.446ZM200.677 100.951C200.528 99.7891 200.084 98.9061 199.344 98.3022C198.603 97.687 197.589 97.3794 196.302 97.3794C195.082 97.3794 194.103 97.6756 193.362 98.2681C192.622 98.8605 192.103 99.7549 191.807 100.951H200.677ZM218.639 102.848C218.639 101.173 218.246 99.8688 217.46 98.9346C216.685 98.0003 215.597 97.5332 214.196 97.5332C212.795 97.5332 211.689 98.0174 210.881 98.9858C210.083 99.9429 209.684 101.276 209.684 102.985C209.684 104.705 210.072 106.033 210.846 106.967C211.621 107.901 212.715 108.368 214.128 108.368C215.472 108.368 216.56 107.867 217.392 106.864C218.224 105.85 218.639 104.512 218.639 102.848ZM218.537 84.5107H222.245V111H218.537V108.898C217.876 109.832 217.101 110.527 216.213 110.983C215.335 111.439 214.327 111.667 213.188 111.667C210.898 111.667 209.092 110.886 207.77 109.325C206.46 107.753 205.805 105.605 205.805 102.882C205.805 100.296 206.477 98.2111 207.821 96.6274C209.166 95.0324 210.92 94.2349 213.085 94.2349C214.407 94.2349 215.535 94.514 216.469 95.0723C217.415 95.6191 218.104 96.411 218.537 97.4478V84.5107ZM238.072 99.4131C237.502 98.7865 236.836 98.3079 236.072 97.9775C235.32 97.6471 234.506 97.4819 233.629 97.4819C232.113 97.4819 230.9 97.9718 229.988 98.9517C229.077 99.9315 228.621 101.23 228.621 102.848C228.621 104.534 229.077 105.862 229.988 106.83C230.911 107.787 232.182 108.266 233.799 108.266C234.699 108.266 235.503 108.1 236.209 107.77C236.915 107.428 237.536 106.916 238.072 106.232V110.504C237.388 110.892 236.653 111.182 235.867 111.376C235.093 111.57 234.267 111.667 233.389 111.667C230.849 111.667 228.775 110.858 227.169 109.24C225.573 107.622 224.776 105.526 224.776 102.951C224.776 100.342 225.602 98.2396 227.254 96.6445C228.917 95.0381 231.088 94.2349 233.765 94.2349C234.608 94.2349 235.383 94.3203 236.089 94.4912C236.796 94.6507 237.457 94.9014 238.072 95.2432V99.4131ZM240.466 111V84.5107H243.952V97.4478C244.693 96.3312 245.564 95.5166 246.567 95.0039C247.569 94.4912 248.789 94.2349 250.224 94.2349C251.432 94.2349 252.457 94.4285 253.3 94.8159C254.155 95.1919 254.821 95.7559 255.3 96.5078C255.585 96.9521 255.79 97.4705 255.915 98.063C256.04 98.6554 256.103 99.6922 256.103 101.173V111H252.36V102.677C252.36 100.547 252.098 99.134 251.574 98.439C251.062 97.7326 250.144 97.3794 248.823 97.3794C247.957 97.3794 247.182 97.5389 246.499 97.8579C245.826 98.1769 245.297 98.627 244.909 99.208C244.636 99.5954 244.442 100.097 244.328 100.712C244.226 101.316 244.174 102.284 244.174 103.617V111H240.466ZM274.886 111H271.178V108.898C270.517 109.832 269.742 110.527 268.853 110.983C267.976 111.439 266.968 111.667 265.829 111.667C263.538 111.667 261.733 110.886 260.411 109.325C259.101 107.753 258.446 105.605 258.446 102.882C258.446 100.296 259.118 98.2111 260.462 96.6274C261.807 95.0324 263.561 94.2349 265.726 94.2349C267.048 94.2349 268.176 94.514 269.11 95.0723C270.055 95.6191 270.745 96.411 271.178 97.4478V94.7988H274.886V111ZM271.28 102.848C271.28 101.173 270.887 99.8688 270.101 98.9346C269.326 98.0003 268.238 97.5332 266.837 97.5332C265.435 97.5332 264.33 98.0174 263.521 98.9858C262.724 99.9429 262.325 101.276 262.325 102.985C262.325 104.705 262.712 106.033 263.487 106.967C264.262 107.901 265.356 108.368 266.768 108.368C268.101 108.368 269.184 107.861 270.016 106.847C270.859 105.833 271.28 104.5 271.28 102.848ZM278.784 111V84.5107H282.492V111H278.784Z" fill="white"/>
</svg>
