<svg width="215" height="153" viewBox="0 0 215 153" fill="none" xmlns="http://www.w3.org/2000/svg">
<path d="M3.87109 26V0.980469H17.8335V4.43262H7.93848V10.7046H17.8335V14.2764H7.93848V22.3599H17.8335V26H3.87109ZM21.9022 26H17.8007L23.9359 17.2842L18.6894 9.79883H22.7738L25.0468 13.1484C25.286 13.4902 25.4968 13.8206 25.6791 14.1396C25.8614 14.4587 26.0266 14.7834 26.1747 15.1138C26.3114 14.8403 26.4652 14.5555 26.6361 14.2593C26.8184 13.9517 27.0463 13.57 27.3197 13.1143L29.5756 9.79883H33.6259L28.3793 17.3184L34.4633 26H30.413L27.4052 21.7446C27.371 21.6877 27.3254 21.6193 27.2685 21.5396C26.6874 20.6623 26.3114 19.9901 26.1405 19.5229C25.9127 19.9559 25.6905 20.3604 25.474 20.7363C25.2689 21.1009 25.0582 21.4427 24.8417 21.7617L21.9022 26ZM38.8396 17.8481C38.8396 19.5229 39.2555 20.8617 40.0872 21.8643C40.9303 22.8669 42.0354 23.3682 43.4026 23.3682C44.804 23.3682 45.8864 22.901 46.6497 21.9668C47.4244 21.0326 47.8118 19.7052 47.8118 17.9849C47.8118 16.2759 47.4074 14.9429 46.5984 13.9858C45.8009 13.0174 44.7015 12.5332 43.3001 12.5332C41.8987 12.5332 40.805 13.0003 40.0188 13.9346C39.2327 14.8688 38.8396 16.1733 38.8396 17.8481ZM35.2508 33.6221V9.79883H38.9593V12.4478C39.3922 11.4224 40.0815 10.6305 41.0271 10.0723C41.9842 9.514 43.1235 9.23486 44.4451 9.23486C46.5984 9.23486 48.3416 10.0324 49.6746 11.6274C51.019 13.2111 51.6912 15.2961 51.6912 17.8823C51.6912 20.6053 51.0304 22.7529 49.7088 24.3252C48.3986 25.8861 46.5984 26.6665 44.3084 26.6665C43.1691 26.6665 42.1551 26.4386 41.2664 25.9829C40.3891 25.5272 39.6201 24.8322 38.9593 23.8979V33.6221H35.2508ZM69.8249 18.4463H56.8708C56.9619 19.9616 57.412 21.1465 58.2209 22.001C59.0298 22.8441 60.1065 23.2656 61.4509 23.2656C62.6472 23.2656 63.6441 23.015 64.4416 22.5137C65.2391 22.0124 65.9341 21.2035 66.5266 20.0869L69.654 21.8301C68.7425 23.4593 67.6146 24.6727 66.2702 25.4702C64.9258 26.2677 63.3479 26.6665 61.5363 26.6665C58.9387 26.6665 56.8708 25.8747 55.3327 24.291C53.7946 22.7074 53.0256 20.5939 53.0256 17.9507C53.0256 15.41 53.8174 13.325 55.4011 11.6958C56.9961 10.0552 59.0412 9.23486 61.5363 9.23486C64.1454 9.23486 66.1791 9.98112 67.6374 11.4736C69.0957 12.9661 69.8249 15.0568 69.8249 17.7456V18.4463ZM65.9797 15.9512C65.8316 14.7891 65.3872 13.9061 64.6467 13.3022C63.9061 12.687 62.8921 12.3794 61.6047 12.3794C60.3856 12.3794 59.4058 12.6756 58.6652 13.2681C57.9247 13.8605 57.4063 14.7549 57.1101 15.9512H65.9797ZM76.0128 12.3794C76.4116 11.3084 76.9356 10.5166 77.5851 10.0039C78.2459 9.49121 79.0605 9.23486 80.0289 9.23486C80.553 9.23486 81.0657 9.29753 81.567 9.42285C82.0797 9.54818 82.581 9.73047 83.0709 9.96973L81.7379 13.1143C81.4189 12.8864 81.0714 12.7212 80.6954 12.6187C80.3308 12.5047 79.9207 12.4478 79.4649 12.4478C78.2345 12.4478 77.3515 12.9434 76.816 13.9346C76.2805 14.9144 76.0128 16.5664 76.0128 18.8906V26H72.3043V9.76465H76.0128V12.3794ZM83.4653 2.79199C83.4653 2.16536 83.6932 1.62419 84.1489 1.16846C84.616 0.712728 85.1686 0.484863 85.8066 0.484863C86.4674 0.484863 87.0143 0.707031 87.4473 1.15137C87.8916 1.58431 88.1138 2.13118 88.1138 2.79199C88.1138 3.4528 87.8916 4.01107 87.4473 4.4668C87.0029 4.91113 86.4561 5.1333 85.8066 5.1333C85.1686 5.1333 84.616 4.90544 84.1489 4.44971C83.6932 3.98258 83.4653 3.43001 83.4653 2.79199ZM83.9609 26V9.79883H87.6694V26H83.9609ZM107.187 18.4463H94.2333C94.3244 19.9616 94.7745 21.1465 95.5834 22.001C96.3923 22.8441 97.469 23.2656 98.8134 23.2656C100.01 23.2656 101.007 23.015 101.804 22.5137C102.602 22.0124 103.297 21.2035 103.889 20.0869L107.017 21.8301C106.105 23.4593 104.977 24.6727 103.633 25.4702C102.288 26.2677 100.71 26.6665 98.8988 26.6665C96.3012 26.6665 94.2333 25.8747 92.6952 24.291C91.1571 22.7074 90.3881 20.5939 90.3881 17.9507C90.3881 15.41 91.1799 13.325 92.7636 11.6958C94.3586 10.0552 96.4037 9.23486 98.8988 9.23486C101.508 9.23486 103.542 9.98112 105 11.4736C106.458 12.9661 107.187 15.0568 107.187 17.7456V18.4463ZM103.342 15.9512C103.194 14.7891 102.75 13.9061 102.009 13.3022C101.269 12.687 100.255 12.3794 98.9672 12.3794C97.7481 12.3794 96.7683 12.6756 96.0277 13.2681C95.2872 13.8605 94.7688 14.7549 94.4726 15.9512H103.342ZM109.667 26V9.79883H113.153V12.4478C113.894 11.3312 114.765 10.5166 115.768 10.0039C116.77 9.49121 117.99 9.23486 119.425 9.23486C120.633 9.23486 121.658 9.42855 122.501 9.81592C123.356 10.1919 124.022 10.7559 124.501 11.5078C124.786 11.9521 124.991 12.4705 125.116 13.063C125.241 13.6554 125.304 14.6922 125.304 16.1733V26H121.561V17.6772C121.561 15.5467 121.299 14.134 120.775 13.439C120.262 12.7326 119.345 12.3794 118.024 12.3794C117.158 12.3794 116.383 12.5389 115.7 12.8579C115.027 13.1769 114.498 13.627 114.11 14.208C113.837 14.5954 113.643 15.0967 113.529 15.7119C113.427 16.3158 113.375 17.2842 113.375 18.6172V26H109.667ZM140.943 14.4131C140.373 13.7865 139.706 13.3079 138.943 12.9775C138.191 12.6471 137.377 12.4819 136.499 12.4819C134.984 12.4819 133.771 12.9718 132.859 13.9517C131.948 14.9315 131.492 16.2303 131.492 17.8481C131.492 19.5343 131.948 20.8617 132.859 21.8301C133.782 22.7871 135.052 23.2656 136.67 23.2656C137.57 23.2656 138.373 23.1004 139.08 22.77C139.786 22.4282 140.407 21.9155 140.943 21.2319V25.5044C140.259 25.8918 139.524 26.1823 138.738 26.376C137.963 26.5697 137.137 26.6665 136.26 26.6665C133.719 26.6665 131.646 25.8576 130.039 24.2397C128.444 22.6219 127.647 20.5256 127.647 17.9507C127.647 15.3416 128.473 13.2396 130.125 11.6445C131.788 10.0381 133.959 9.23486 136.636 9.23486C137.479 9.23486 138.254 9.32031 138.96 9.49121C139.667 9.65072 140.327 9.90137 140.943 10.2432V14.4131ZM158.94 18.4463H145.985C146.077 19.9616 146.527 21.1465 147.336 22.001C148.144 22.8441 149.221 23.2656 150.566 23.2656C151.762 23.2656 152.759 23.015 153.556 22.5137C154.354 22.0124 155.049 21.2035 155.641 20.0869L158.769 21.8301C157.857 23.4593 156.729 24.6727 155.385 25.4702C154.04 26.2677 152.462 26.6665 150.651 26.6665C148.053 26.6665 145.985 25.8747 144.447 24.291C142.909 22.7074 142.14 20.5939 142.14 17.9507C142.14 15.41 142.932 13.325 144.516 11.6958C146.111 10.0552 148.156 9.23486 150.651 9.23486C153.26 9.23486 155.294 9.98112 156.752 11.4736C158.21 12.9661 158.94 15.0568 158.94 17.7456V18.4463ZM155.094 15.9512C154.946 14.7891 154.502 13.9061 153.761 13.3022C153.021 12.687 152.007 12.3794 150.719 12.3794C149.5 12.3794 148.52 12.6756 147.78 13.2681C147.039 13.8605 146.521 14.7549 146.225 15.9512H155.094ZM11.9546 46.4326V68H7.88721V46.4326H1.23926V42.9805H18.5684V46.4326H11.9546ZM19.9711 68V41.5107H23.4574V54.4478C24.198 53.3312 25.0696 52.5166 26.0722 52.0039C27.0748 51.4912 28.2938 51.2349 29.7294 51.2349C30.9371 51.2349 31.9625 51.4285 32.8056 51.8159C33.6601 52.1919 34.3266 52.7559 34.8051 53.5078C35.0899 53.9521 35.295 54.4705 35.4203 55.063C35.5456 55.6554 35.6083 56.6922 35.6083 58.1733V68H31.8656V59.6772C31.8656 57.5467 31.6036 56.134 31.0795 55.439C30.5668 54.7326 29.6496 54.3794 28.328 54.3794C27.4621 54.3794 26.6874 54.5389 26.0038 54.8579C25.3316 55.1769 24.8018 55.627 24.4145 56.208C24.141 56.5954 23.9473 57.0967 23.8334 57.7119C23.7309 58.3158 23.6796 59.2842 23.6796 60.6172V68H19.9711ZM54.7503 60.4463H41.7962C41.8873 61.9616 42.3374 63.1465 43.1463 64.001C43.9552 64.8441 45.0319 65.2656 46.3763 65.2656C47.5726 65.2656 48.5695 65.015 49.367 64.5137C50.1645 64.0124 50.8595 63.2035 51.452 62.0869L54.5794 63.8301C53.6679 65.4593 52.54 66.6727 51.1956 67.4702C49.8512 68.2677 48.2732 68.6665 46.4617 68.6665C43.8641 68.6665 41.7962 67.8747 40.2581 66.291C38.72 64.7074 37.951 62.5939 37.951 59.9507C37.951 57.41 38.7428 55.325 40.3265 53.6958C41.9215 52.0552 43.9666 51.2349 46.4617 51.2349C49.0708 51.2349 51.1045 51.9811 52.5628 53.4736C54.0211 54.9661 54.7503 57.0568 54.7503 59.7456V60.4463ZM50.9051 57.9512C50.757 56.7891 50.3126 55.9061 49.5721 55.3022C48.8315 54.687 47.8175 54.3794 46.5301 54.3794C45.311 54.3794 44.3312 54.6756 43.5906 55.2681C42.8501 55.8605 42.3317 56.7549 42.0354 57.9512H50.9051ZM70.7662 64.3257H74.1842C76.0641 64.3257 77.4711 64.2004 78.4054 63.9497C79.351 63.6991 80.1713 63.2775 80.8663 62.6851C81.8119 61.8761 82.5183 60.8735 82.9855 59.6772C83.464 58.4696 83.7032 57.0682 83.7032 55.4731C83.7032 53.8781 83.464 52.4824 82.9855 51.2861C82.5183 50.0785 81.8119 49.0701 80.8663 48.2612C80.1599 47.6688 79.3111 47.2472 78.3199 46.9966C77.3401 46.7459 75.802 46.6206 73.7057 46.6206H72.2359H70.7662V64.3257ZM66.6988 68V42.9805H72.1847C75.7508 42.9805 78.2573 43.1628 79.7042 43.5273C81.1625 43.8805 82.4386 44.4787 83.5323 45.3218C84.9793 46.4269 86.073 47.8454 86.8136 49.5771C87.5655 51.3089 87.9415 53.2856 87.9415 55.5073C87.9415 57.729 87.5655 59.7 86.8136 61.4204C86.073 63.1294 84.9793 64.5422 83.5323 65.6587C82.4386 66.5018 81.191 67.1056 79.7896 67.4702C78.3997 67.8234 76.2293 68 73.2784 68H72.1847H66.6988ZM90.5747 44.792C90.5747 44.1654 90.8026 43.6242 91.2583 43.1685C91.7254 42.7127 92.278 42.4849 92.916 42.4849C93.5768 42.4849 94.1237 42.707 94.5566 43.1514C95.001 43.5843 95.2231 44.1312 95.2231 44.792C95.2231 45.4528 95.001 46.0111 94.5566 46.4668C94.1123 46.9111 93.5654 47.1333 92.916 47.1333C92.278 47.1333 91.7254 46.9054 91.2583 46.4497C90.8026 45.9826 90.5747 45.43 90.5747 44.792ZM91.0703 68V51.7988H94.7788V68H91.0703ZM99.2064 68V55.0459H96.3695V51.7988H99.2064V47.458C99.2064 45.3047 99.6508 43.7153 100.539 42.6899C101.44 41.6646 102.829 41.1519 104.709 41.1519C105.108 41.1519 105.518 41.1803 105.94 41.2373C106.361 41.2943 106.789 41.3854 107.222 41.5107V44.8604C106.925 44.6895 106.623 44.5641 106.316 44.4844C106.02 44.3932 105.718 44.3477 105.41 44.3477C104.521 44.3477 103.883 44.6211 103.496 45.168C103.109 45.7148 102.915 46.6377 102.915 47.9365V51.7988H106.811V55.0459H102.915V68H99.2064ZM108.539 68V55.0459H105.702V51.7988H108.539V47.458C108.539 45.3047 108.983 43.7153 109.872 42.6899C110.772 41.6646 112.162 41.1519 114.042 41.1519C114.441 41.1519 114.851 41.1803 115.272 41.2373C115.694 41.2943 116.121 41.3854 116.554 41.5107V44.8604C116.258 44.6895 115.956 44.5641 115.648 44.4844C115.352 44.3932 115.05 44.3477 114.742 44.3477C113.854 44.3477 113.216 44.6211 112.828 45.168C112.441 45.7148 112.247 46.6377 112.247 47.9365V51.7988H116.144V55.0459H112.247V68H108.539ZM132.962 60.4463H120.008C120.099 61.9616 120.549 63.1465 121.358 64.001C122.167 64.8441 123.243 65.2656 124.588 65.2656C125.784 65.2656 126.781 65.015 127.578 64.5137C128.376 64.0124 129.071 63.2035 129.663 62.0869L132.791 63.8301C131.879 65.4593 130.751 66.6727 129.407 67.4702C128.063 68.2677 126.485 68.6665 124.673 68.6665C122.075 68.6665 120.008 67.8747 118.469 66.291C116.931 64.7074 116.162 62.5939 116.162 59.9507C116.162 57.41 116.954 55.325 118.538 53.6958C120.133 52.0552 122.178 51.2349 124.673 51.2349C127.282 51.2349 129.316 51.9811 130.774 53.4736C132.232 54.9661 132.962 57.0568 132.962 59.7456V60.4463ZM129.116 57.9512C128.968 56.7891 128.524 55.9061 127.783 55.3022C127.043 54.687 126.029 54.3794 124.741 54.3794C123.522 54.3794 122.543 54.6756 121.802 55.2681C121.061 55.8605 120.543 56.7549 120.247 57.9512H129.116ZM139.15 54.3794C139.548 53.3084 140.072 52.5166 140.722 52.0039C141.383 51.4912 142.197 51.2349 143.166 51.2349C143.69 51.2349 144.202 51.2975 144.704 51.4229C145.216 51.5482 145.718 51.7305 146.208 51.9697L144.875 55.1143C144.556 54.8864 144.208 54.7212 143.832 54.6187C143.468 54.5047 143.057 54.4478 142.602 54.4478C141.371 54.4478 140.488 54.9434 139.953 55.9346C139.417 56.9144 139.15 58.5664 139.15 60.8906V68H135.441V51.7646H139.15V54.3794ZM162.53 60.4463H149.576C149.667 61.9616 150.117 63.1465 150.926 64.001C151.735 64.8441 152.811 65.2656 154.156 65.2656C155.352 65.2656 156.349 65.015 157.146 64.5137C157.944 64.0124 158.639 63.2035 159.231 62.0869L162.359 63.8301C161.447 65.4593 160.319 66.6727 158.975 67.4702C157.631 68.2677 156.053 68.6665 154.241 68.6665C151.644 68.6665 149.576 67.8747 148.038 66.291C146.5 64.7074 145.73 62.5939 145.73 59.9507C145.73 57.41 146.522 55.325 148.106 53.6958C149.701 52.0552 151.746 51.2349 154.241 51.2349C156.85 51.2349 158.884 51.9811 160.342 53.4736C161.801 54.9661 162.53 57.0568 162.53 59.7456V60.4463ZM158.685 57.9512C158.536 56.7891 158.092 55.9061 157.352 55.3022C156.611 54.687 155.597 54.3794 154.31 54.3794C153.09 54.3794 152.111 54.6756 151.37 55.2681C150.63 55.8605 150.111 56.7549 149.815 57.9512H158.685ZM165.009 68V51.7988H168.496V54.4478C169.236 53.3312 170.108 52.5166 171.11 52.0039C172.113 51.4912 173.332 51.2349 174.767 51.2349C175.975 51.2349 177.001 51.4285 177.844 51.8159C178.698 52.1919 179.365 52.7559 179.843 53.5078C180.128 53.9521 180.333 54.4705 180.458 55.063C180.584 55.6554 180.646 56.6922 180.646 58.1733V68H176.904V59.6772C176.904 57.5467 176.642 56.134 176.118 55.439C175.605 54.7326 174.688 54.3794 173.366 54.3794C172.5 54.3794 171.725 54.5389 171.042 54.8579C170.37 55.1769 169.84 55.627 169.453 56.208C169.179 56.5954 168.985 57.0967 168.871 57.7119C168.769 58.3158 168.718 59.2842 168.718 60.6172V68H165.009ZM196.285 56.4131C195.715 55.7865 195.049 55.3079 194.285 54.9775C193.533 54.6471 192.719 54.4819 191.842 54.4819C190.326 54.4819 189.113 54.9718 188.201 55.9517C187.29 56.9315 186.834 58.2303 186.834 59.8481C186.834 61.5343 187.29 62.8617 188.201 63.8301C189.124 64.7871 190.395 65.2656 192.012 65.2656C192.913 65.2656 193.716 65.1004 194.422 64.77C195.129 64.4282 195.749 63.9155 196.285 63.2319V67.5044C195.601 67.8918 194.867 68.1823 194.08 68.376C193.306 68.5697 192.48 68.6665 191.602 68.6665C189.062 68.6665 186.988 67.8576 185.382 66.2397C183.787 64.6219 182.989 62.5256 182.989 59.9507C182.989 57.3416 183.815 55.2396 185.467 53.6445C187.13 52.0381 189.301 51.2349 191.978 51.2349C192.821 51.2349 193.596 51.3203 194.303 51.4912C195.009 51.6507 195.67 51.9014 196.285 52.2432V56.4131ZM214.282 60.4463H201.328C201.419 61.9616 201.869 63.1465 202.678 64.001C203.487 64.8441 204.564 65.2656 205.908 65.2656C207.104 65.2656 208.101 65.015 208.899 64.5137C209.696 64.0124 210.391 63.2035 210.984 62.0869L214.111 63.8301C213.2 65.4593 212.072 66.6727 210.727 67.4702C209.383 68.2677 207.805 68.6665 205.993 68.6665C203.396 68.6665 201.328 67.8747 199.79 66.291C198.252 64.7074 197.483 62.5939 197.483 59.9507C197.483 57.41 198.274 55.325 199.858 53.6958C201.453 52.0552 203.498 51.2349 205.993 51.2349C208.602 51.2349 210.636 51.9811 212.094 53.4736C213.553 54.9661 214.282 57.0568 214.282 59.7456V60.4463ZM210.437 57.9512C210.289 56.7891 209.844 55.9061 209.104 55.3022C208.363 54.687 207.349 54.3794 206.062 54.3794C204.843 54.3794 203.863 54.6756 203.122 55.2681C202.382 55.8605 201.863 56.7549 201.567 57.9512H210.437ZM9.25439 110V98.5498L0.829102 84.9805H5.10156L10.3481 93.4741C10.4735 93.6906 10.6273 93.9754 10.8096 94.3286C11.0033 94.6818 11.1969 95.0635 11.3906 95.4736C11.5501 95.0749 11.7153 94.6989 11.8862 94.3457C12.0685 93.9925 12.2565 93.6678 12.4502 93.3716L17.8335 84.9805H21.9009L13.2876 98.5498V110H9.25439ZM31.7802 101.951C31.7802 100.447 31.296 99.1764 30.3275 98.1396C29.3591 97.0915 28.1742 96.5674 26.7729 96.5674C25.3829 96.5674 24.198 97.0915 23.2182 98.1396C22.2497 99.1764 21.7655 100.447 21.7655 101.951C21.7655 103.455 22.2497 104.731 23.2182 105.779C24.198 106.816 25.3829 107.334 26.7729 107.334C28.1628 107.334 29.342 106.816 30.3104 105.779C31.2903 104.731 31.7802 103.455 31.7802 101.951ZM17.852 101.917C17.852 100.732 18.0741 99.6151 18.5185 98.5669C18.9742 97.5073 19.6236 96.5674 20.4667 95.7471C21.2984 94.9382 22.2554 94.3172 23.3378 93.8843C24.4202 93.4513 25.5538 93.2349 26.7387 93.2349C27.9577 93.2349 29.1028 93.4513 30.1737 93.8843C31.2561 94.3172 32.2245 94.9552 33.079 95.7983C33.9335 96.63 34.5829 97.57 35.0272 98.6182C35.4716 99.6663 35.6938 100.766 35.6938 101.917C35.6938 103.113 35.4716 104.235 35.0272 105.283C34.5943 106.331 33.9563 107.26 33.1132 108.069C32.2245 108.923 31.239 109.567 30.1566 110C29.0743 110.444 27.935 110.667 26.7387 110.667C25.5652 110.667 24.4372 110.444 23.3549 110C22.2725 109.567 21.3098 108.935 20.4667 108.103C19.6122 107.26 18.9628 106.314 18.5185 105.266C18.0741 104.218 17.852 103.101 17.852 101.917ZM41.8133 93.7988V102.925C41.8133 104.497 42.138 105.625 42.7874 106.309C43.4368 106.992 44.4907 107.334 45.949 107.334C47.4074 107.334 48.4612 106.992 49.1106 106.309C49.7601 105.625 50.0848 104.497 50.0848 102.925V93.7988H53.7933V101.814C53.7933 104.913 53.1723 107.163 51.9305 108.564C50.6886 109.966 48.7062 110.667 45.9832 110.667C43.2146 110.667 41.2094 109.972 39.9676 108.582C38.7257 107.192 38.1048 104.936 38.1048 101.814V93.7988H41.8133ZM88.2833 97.5415C88.2833 96.2769 88.0497 95.0749 87.5826 93.9355C87.1269 92.7962 86.4661 91.7822 85.6002 90.8936C84.7571 90.0163 83.7773 89.3441 82.6607 88.877C81.5556 88.3984 80.3878 88.1592 79.1573 88.1592C77.9269 88.1592 76.7534 88.3927 75.6368 88.8599C74.5317 89.327 73.5462 90.0049 72.6803 90.8936C71.8144 91.7708 71.1536 92.7791 70.6979 93.9185C70.2421 95.0578 70.0143 96.2655 70.0143 97.5415C70.0143 98.8062 70.2421 100.002 70.6979 101.13C71.1536 102.258 71.8144 103.267 72.6803 104.155C73.5462 105.044 74.5317 105.722 75.6368 106.189C76.742 106.656 77.9155 106.89 79.1573 106.89C80.3764 106.89 81.5328 106.656 82.6266 106.189C83.7317 105.722 84.7229 105.044 85.6002 104.155C86.4661 103.267 87.1269 102.258 87.5826 101.13C88.0497 99.991 88.2833 98.7948 88.2833 97.5415ZM92.5216 97.5415C92.5216 99.3188 92.1855 100.999 91.5133 102.583C90.8525 104.167 89.8841 105.579 88.608 106.821C87.3206 108.063 85.8679 109.014 84.2501 109.675C82.6323 110.336 80.9347 110.667 79.1573 110.667C77.3572 110.667 75.6368 110.336 73.9962 109.675C72.367 109.003 70.9257 108.052 69.6725 106.821C68.3964 105.579 67.428 104.172 66.7672 102.6C66.1064 101.028 65.776 99.3416 65.776 97.5415C65.776 95.7528 66.1064 94.0666 66.7672 92.4829C67.428 90.8993 68.3964 89.4808 69.6725 88.2275C70.9485 86.9857 72.3954 86.04 74.0133 85.3906C75.6311 84.7412 77.3458 84.4165 79.1573 84.4165C80.9575 84.4165 82.6607 84.7412 84.2672 85.3906C85.885 86.04 87.332 86.9857 88.608 88.2275C89.8841 89.4922 90.8525 90.922 91.5133 92.5171C92.1855 94.1007 92.5216 95.7756 92.5216 97.5415ZM95.4795 110V93.7988H98.9658V96.4478C99.7064 95.3312 100.578 94.5166 101.581 94.0039C102.583 93.4912 103.802 93.2349 105.238 93.2349C106.445 93.2349 107.471 93.4285 108.314 93.8159C109.168 94.1919 109.835 94.7559 110.313 95.5078C110.598 95.9521 110.803 96.4705 110.929 97.063C111.054 97.6554 111.117 98.6922 111.117 100.173V110H107.374V101.677C107.374 99.5467 107.112 98.134 106.588 97.439C106.075 96.7326 105.158 96.3794 103.836 96.3794C102.971 96.3794 102.196 96.5389 101.512 96.8579C100.84 97.1769 100.31 97.627 99.9229 98.208C99.6494 98.5954 99.4557 99.0967 99.3418 99.7119C99.2393 100.316 99.188 101.284 99.188 102.617V110H95.4795ZM114.827 110V83.5107H118.535V110H114.827ZM125.236 117.622H121.425L125.868 108.599L119.921 93.7988H124.022L126.996 102.19C127.167 102.703 127.315 103.227 127.44 103.762C127.577 104.286 127.685 104.822 127.765 105.369C127.913 104.799 128.266 103.893 128.825 102.651L128.91 102.446L132.909 93.7988H136.925L125.236 117.622ZM160.888 97.1826H170.8C170.8 97.3535 170.806 97.5928 170.817 97.9004C170.851 98.7093 170.868 99.2562 170.868 99.541C170.868 103.062 169.86 105.796 167.843 107.744C165.827 109.692 162.984 110.667 159.316 110.667C157.265 110.667 155.436 110.365 153.83 109.761C152.223 109.157 150.816 108.245 149.608 107.026C148.424 105.819 147.512 104.4 146.874 102.771C146.247 101.142 145.934 99.3986 145.934 97.5415C145.934 95.6502 146.253 93.9071 146.891 92.312C147.541 90.717 148.498 89.3099 149.762 88.0908C150.981 86.8945 152.411 85.9831 154.052 85.3564C155.692 84.7298 157.447 84.4165 159.316 84.4165C161.287 84.4165 163.047 84.7754 164.596 85.4932C166.157 86.2109 167.547 87.3104 168.766 88.7915L165.793 91.0303C164.949 90.0505 163.998 89.3213 162.939 88.8428C161.879 88.3643 160.694 88.125 159.384 88.125C156.672 88.125 154.456 88.9966 152.736 90.7397C151.027 92.4715 150.172 94.7274 150.172 97.5073C150.172 100.333 151.027 102.629 152.736 104.395C154.456 106.149 156.684 107.026 159.418 107.026C161.742 107.026 163.571 106.485 164.904 105.403C166.237 104.32 166.903 102.845 166.903 100.977V100.618H160.888V97.1826ZM189.053 102.446H176.099C176.19 103.962 176.64 105.146 177.449 106.001C178.258 106.844 179.335 107.266 180.679 107.266C181.875 107.266 182.872 107.015 183.67 106.514C184.467 106.012 185.162 105.203 185.755 104.087L188.882 105.83C187.971 107.459 186.843 108.673 185.499 109.47C184.154 110.268 182.576 110.667 180.765 110.667C178.167 110.667 176.099 109.875 174.561 108.291C173.023 106.707 172.254 104.594 172.254 101.951C172.254 99.41 173.046 97.325 174.629 95.6958C176.224 94.0552 178.27 93.2349 180.765 93.2349C183.374 93.2349 185.407 93.9811 186.866 95.4736C188.324 96.9661 189.053 99.0568 189.053 101.746V102.446ZM185.208 99.9512C185.06 98.7891 184.616 97.9061 183.875 97.3022C183.134 96.687 182.12 96.3794 180.833 96.3794C179.614 96.3794 178.634 96.6756 177.894 97.2681C177.153 97.8605 176.635 98.7549 176.338 99.9512H185.208ZM192.404 110V97.0459H189.567V93.7988H192.404V87.6636H196.113V93.7988H198.95V97.0459H196.113V110H192.404ZM0.897461 126.98H4.91357L9.64746 139.61C9.95508 140.442 10.2114 141.171 10.4165 141.797C10.633 142.424 10.821 143.011 10.9805 143.558C11.3792 142.236 11.7951 140.943 12.228 139.678C12.285 139.519 12.3249 139.41 12.3477 139.354L17.3721 125.989L22.6699 139.61C22.9206 140.271 23.1541 140.931 23.3706 141.592C23.5985 142.253 23.8092 142.92 24.0029 143.592C24.1169 143.079 24.2707 142.515 24.4644 141.9C24.658 141.285 24.9087 140.556 25.2163 139.712L29.916 126.98H33.9663L24.2764 152.974L18.5684 138.704C18.3177 138.066 18.0898 137.457 17.8848 136.875C17.6797 136.283 17.4974 135.725 17.3379 135.201C17.1442 135.873 16.9505 136.505 16.7568 137.098C16.5632 137.679 16.3638 138.237 16.1587 138.772L10.5532 152.974L0.897461 126.98ZM34.7196 128.792C34.7196 128.165 34.9475 127.624 35.4032 127.168C35.8703 126.713 36.4229 126.485 37.0609 126.485C37.7217 126.485 38.2686 126.707 38.7016 127.151C39.1459 127.584 39.3681 128.131 39.3681 128.792C39.3681 129.453 39.1459 130.011 38.7016 130.467C38.2572 130.911 37.7104 131.133 37.0609 131.133C36.4229 131.133 35.8703 130.905 35.4032 130.45C34.9475 129.983 34.7196 129.43 34.7196 128.792ZM35.2152 152V135.799H38.9237V152H35.2152ZM43.7103 152V139.046H40.8733V135.799H43.7103V129.664H47.4188V135.799H50.2557V139.046H47.4188V152H43.7103ZM52.0686 152V125.511H55.5549V138.448C56.2954 137.331 57.167 136.517 58.1696 136.004C59.1722 135.491 60.3913 135.235 61.8269 135.235C63.0345 135.235 64.0599 135.429 64.903 135.816C65.7575 136.192 66.424 136.756 66.9025 137.508C67.1874 137.952 67.3924 138.471 67.5178 139.063C67.6431 139.655 67.7058 140.692 67.7058 142.173V152H63.9631V143.677C63.9631 141.547 63.701 140.134 63.177 139.439C62.6643 138.733 61.7471 138.379 60.4255 138.379C59.5596 138.379 58.7849 138.539 58.1013 138.858C57.4291 139.177 56.8993 139.627 56.5119 140.208C56.2385 140.595 56.0448 141.097 55.9309 141.712C55.8283 142.316 55.7771 143.284 55.7771 144.617V152H52.0686ZM84.7812 137.439H85.8237C88.0796 137.439 89.5835 137.194 90.3354 136.705C91.0874 136.215 91.4634 135.349 91.4634 134.107C91.4634 132.774 91.0589 131.834 90.25 131.287C89.4525 130.74 87.9771 130.467 85.8237 130.467H84.7812V137.439ZM84.5249 140.772V152H80.7139V126.98H86.8662C88.6891 126.98 90.0278 127.083 90.8823 127.288C91.7482 127.482 92.5002 127.806 93.1382 128.262C93.9243 128.843 94.5396 129.629 94.9839 130.621C95.4282 131.6 95.6504 132.683 95.6504 133.868C95.6504 135.053 95.4282 136.146 94.9839 137.149C94.5396 138.152 93.9243 138.938 93.1382 139.507C92.5002 139.963 91.7482 140.288 90.8823 140.481C90.0278 140.675 88.6891 140.772 86.8662 140.772H86.063H84.5249ZM111.614 152H107.905V149.898C107.244 150.832 106.47 151.527 105.581 151.983C104.704 152.439 103.695 152.667 102.556 152.667C100.266 152.667 98.4602 151.886 97.1386 150.325C95.8284 148.753 95.1732 146.605 95.1732 143.882C95.1732 141.296 95.8454 139.211 97.1898 137.627C98.5342 136.032 100.289 135.235 102.454 135.235C103.775 135.235 104.903 135.514 105.837 136.072C106.783 136.619 107.472 137.411 107.905 138.448V135.799H111.614V152ZM108.008 143.848C108.008 142.173 107.615 140.869 106.829 139.935C106.054 139 104.966 138.533 103.564 138.533C102.163 138.533 101.058 139.017 100.249 139.986C99.4514 140.943 99.0526 142.276 99.0526 143.985C99.0526 145.705 99.44 147.033 100.215 147.967C100.989 148.901 102.083 149.368 103.496 149.368C104.829 149.368 105.911 148.861 106.743 147.847C107.586 146.833 108.008 145.5 108.008 143.848ZM119.049 138.379C119.448 137.308 119.972 136.517 120.621 136.004C121.282 135.491 122.097 135.235 123.065 135.235C123.589 135.235 124.102 135.298 124.603 135.423C125.116 135.548 125.617 135.73 126.107 135.97L124.774 139.114C124.455 138.886 124.108 138.721 123.732 138.619C123.367 138.505 122.957 138.448 122.501 138.448C121.271 138.448 120.388 138.943 119.852 139.935C119.317 140.914 119.049 142.566 119.049 144.891V152H115.341V135.765H119.049V138.379ZM126.826 152V125.511H130.535V142.515L137.32 135.799H141.9L134.551 142.942L142.6 152H137.815L130.535 143.643V152H126.826ZM141.645 149.061L144.721 147.386C144.949 148.195 145.37 148.81 145.985 149.231C146.601 149.653 147.393 149.864 148.361 149.864C149.193 149.864 149.842 149.676 150.309 149.3C150.788 148.912 151.027 148.388 151.027 147.728C151.027 146.85 150.184 146.098 148.498 145.472C147.928 145.267 147.489 145.096 147.182 144.959C145.45 144.241 144.237 143.512 143.542 142.771C142.858 142.031 142.516 141.131 142.516 140.071C142.516 138.624 143.08 137.451 144.208 136.551C145.347 135.651 146.851 135.201 148.72 135.201C149.973 135.201 151.044 135.434 151.933 135.901C152.833 136.357 153.488 137.012 153.898 137.867L151.266 139.678C151.073 139.166 150.731 138.761 150.241 138.465C149.762 138.157 149.204 138.003 148.566 138.003C147.86 138.003 147.29 138.174 146.857 138.516C146.435 138.847 146.225 139.291 146.225 139.849C146.225 140.692 147.182 141.461 149.096 142.156C149.7 142.373 150.167 142.549 150.497 142.686C151.99 143.278 153.055 143.951 153.693 144.703C154.342 145.443 154.667 146.372 154.667 147.488C154.667 149.106 154.08 150.376 152.907 151.299C151.733 152.211 150.115 152.667 148.053 152.667C146.47 152.667 145.154 152.37 144.106 151.778C143.057 151.185 142.237 150.28 141.645 149.061ZM156.685 128.792C156.685 128.165 156.913 127.624 157.369 127.168C157.836 126.713 158.388 126.485 159.026 126.485C159.687 126.485 160.234 126.707 160.667 127.151C161.111 127.584 161.333 128.131 161.333 128.792C161.333 129.453 161.111 130.011 160.667 130.467C160.223 130.911 159.676 131.133 159.026 131.133C158.388 131.133 157.836 130.905 157.369 130.45C156.913 129.983 156.685 129.43 156.685 128.792ZM157.181 152V135.799H160.889V152H157.181ZM176.442 143.848C176.442 142.173 176.049 140.869 175.263 139.935C174.488 139 173.4 138.533 171.999 138.533C170.598 138.533 169.492 139.017 168.684 139.986C167.886 140.943 167.487 142.276 167.487 143.985C167.487 145.705 167.875 147.033 168.649 147.967C169.424 148.901 170.518 149.368 171.931 149.368C173.275 149.368 174.363 148.867 175.195 147.864C176.026 146.85 176.442 145.512 176.442 143.848ZM176.34 125.511H180.048V152H176.34V149.898C175.679 150.832 174.904 151.527 174.016 151.983C173.138 152.439 172.13 152.667 170.991 152.667C168.701 152.667 166.895 151.886 165.573 150.325C164.263 148.753 163.608 146.605 163.608 143.882C163.608 141.296 164.28 139.211 165.624 137.627C166.969 136.032 168.723 135.235 170.888 135.235C172.21 135.235 173.338 135.514 174.272 136.072C175.218 136.619 175.907 137.411 176.34 138.448V125.511ZM199.378 144.446H186.424C186.515 145.962 186.965 147.146 187.774 148.001C188.583 148.844 189.66 149.266 191.004 149.266C192.2 149.266 193.197 149.015 193.995 148.514C194.792 148.012 195.487 147.203 196.08 146.087L199.207 147.83C198.296 149.459 197.168 150.673 195.824 151.47C194.479 152.268 192.901 152.667 191.09 152.667C188.492 152.667 186.424 151.875 184.886 150.291C183.348 148.707 182.579 146.594 182.579 143.951C182.579 141.41 183.371 139.325 184.954 137.696C186.549 136.055 188.595 135.235 191.09 135.235C193.699 135.235 195.732 135.981 197.191 137.474C198.649 138.966 199.378 141.057 199.378 143.746V144.446ZM195.533 141.951C195.385 140.789 194.941 139.906 194.2 139.302C193.459 138.687 192.445 138.379 191.158 138.379C189.939 138.379 188.959 138.676 188.219 139.268C187.478 139.861 186.96 140.755 186.663 141.951H195.533Z" fill="white"/>
</svg>
