<svg width="182" height="77" viewBox="0 0 182 77" fill="none" xmlns="http://www.w3.org/2000/svg">
<path d="M1.87109 27V1.98047H15.8335V5.43262H5.93848V11.6704H15.8335V15.2422H5.93848V27H1.87109ZM18.2274 3.79199C18.2274 3.16536 18.4553 2.62419 18.911 2.16846C19.3782 1.71273 19.9307 1.48486 20.5688 1.48486C21.2296 1.48486 21.7764 1.70703 22.2094 2.15137C22.6537 2.58431 22.8759 3.13118 22.8759 3.79199C22.8759 4.4528 22.6537 5.01107 22.2094 5.4668C21.765 5.91113 21.2182 6.1333 20.5688 6.1333C19.9307 6.1333 19.3782 5.90544 18.911 5.44971C18.4553 4.98258 18.2274 4.43001 18.2274 3.79199ZM18.723 27V10.7988H22.4315V27H18.723ZM26.3465 27V10.7988H29.8328V13.4478C30.5734 12.3312 31.445 11.5166 32.4476 11.0039C33.4502 10.4912 34.6692 10.2349 36.1048 10.2349C37.3125 10.2349 38.3379 10.4285 39.181 10.8159C40.0354 11.1919 40.702 11.7559 41.1805 12.5078C41.4653 12.9521 41.6704 13.4705 41.7957 14.063C41.921 14.6554 41.9837 15.6922 41.9837 17.1733V27H38.241V18.6772C38.241 16.5467 37.979 15.134 37.4549 14.439C36.9422 13.7326 36.025 13.3794 34.7034 13.3794C33.8375 13.3794 33.0628 13.5389 32.3792 13.8579C31.707 14.1769 31.1772 14.627 30.7898 15.208C30.5164 15.5954 30.3227 16.0967 30.2088 16.7119C30.1063 17.3158 30.055 18.2842 30.055 19.6172V27H26.3465ZM57.1608 18.8481C57.1608 17.1733 56.7678 15.8688 55.9816 14.9346C55.2069 14.0003 54.1188 13.5332 52.7175 13.5332C51.3161 13.5332 50.211 14.0174 49.4021 14.9858C48.6045 15.9429 48.2058 17.2759 48.2058 18.9849C48.2058 20.7052 48.5931 22.0326 49.3679 22.9668C50.1426 23.901 51.2364 24.3682 52.6491 24.3682C53.9935 24.3682 55.0816 23.8669 55.9133 22.8643C56.745 21.8503 57.1608 20.5116 57.1608 18.8481ZM57.0583 0.510742H60.7668V27H57.0583V24.8979C56.3975 25.8322 55.6228 26.5272 54.7341 26.9829C53.8568 27.4386 52.8485 27.6665 51.7092 27.6665C49.4191 27.6665 47.6133 26.8861 46.2917 25.3252C44.9815 23.7529 44.3264 21.6053 44.3264 18.8823C44.3264 16.2961 44.9986 14.2111 46.343 12.6274C47.6874 11.0324 49.4419 10.2349 51.6066 10.2349C52.9283 10.2349 54.0562 10.514 54.9904 11.0723C55.9361 11.6191 56.6254 12.411 57.0583 13.4478V0.510742ZM77.2441 18.8481C77.2441 20.5002 77.6657 21.8332 78.5088 22.8472C79.3633 23.8612 80.4627 24.3682 81.8071 24.3682C83.2085 24.3682 84.2909 23.901 85.0542 22.9668C85.8289 22.0326 86.2163 20.7052 86.2163 18.9849C86.2163 17.2759 85.8118 15.9429 85.0029 14.9858C84.2054 14.0174 83.106 13.5332 81.7046 13.5332C80.3032 13.5332 79.2095 14.0003 78.4233 14.9346C77.6372 15.8688 77.2441 17.1733 77.2441 18.8481ZM77.3638 0.510742V13.4478C77.7967 12.4224 78.486 11.6305 79.4316 11.0723C80.3887 10.514 81.528 10.2349 82.8496 10.2349C85.0029 10.2349 86.7461 11.0324 88.0791 12.6274C89.4235 14.2111 90.0957 16.2961 90.0957 18.8823C90.0957 21.6053 89.4349 23.7529 88.1133 25.3252C86.8031 26.8861 85.0029 27.6665 82.7129 27.6665C81.5736 27.6665 80.5596 27.4386 79.6709 26.9829C78.7936 26.5272 78.0246 25.8322 77.3638 24.8979V27H73.6553V0.510742H77.3638ZM92.7973 27V0.510742H96.5058V27H92.7973ZM100.096 3.79199C100.096 3.16536 100.324 2.62419 100.78 2.16846C101.247 1.71273 101.799 1.48486 102.437 1.48486C103.098 1.48486 103.645 1.70703 104.078 2.15137C104.522 2.58431 104.744 3.13118 104.744 3.79199C104.744 4.4528 104.522 5.01107 104.078 5.4668C103.634 5.91113 103.087 6.1333 102.437 6.1333C101.799 6.1333 101.247 5.90544 100.78 5.44971C100.324 4.98258 100.096 4.43001 100.096 3.79199ZM100.592 27V10.7988H104.3V27H100.592ZM106.352 24.0605L109.428 22.3857C109.656 23.1947 110.078 23.8099 110.693 24.2314C111.308 24.653 112.1 24.8638 113.069 24.8638C113.9 24.8638 114.55 24.6758 115.017 24.2998C115.495 23.9124 115.735 23.3883 115.735 22.7275C115.735 21.8503 114.891 21.0983 113.205 20.4717C112.636 20.2666 112.197 20.0957 111.889 19.959C110.158 19.2412 108.944 18.512 108.249 17.7715C107.566 17.0309 107.224 16.1309 107.224 15.0713C107.224 13.6243 107.788 12.4508 108.916 11.5508C110.055 10.6507 111.559 10.2007 113.427 10.2007C114.681 10.2007 115.752 10.4342 116.64 10.9014C117.54 11.3571 118.196 12.0122 118.606 12.8667L115.974 14.6782C115.78 14.1655 115.438 13.7611 114.948 13.4648C114.47 13.1572 113.912 13.0034 113.274 13.0034C112.567 13.0034 111.998 13.1743 111.565 13.5161C111.143 13.8465 110.932 14.2909 110.932 14.8491C110.932 15.6922 111.889 16.4613 113.803 17.1562C114.407 17.3727 114.874 17.5493 115.205 17.686C116.697 18.2785 117.763 18.9507 118.401 19.7026C119.05 20.4432 119.375 21.3717 119.375 22.4883C119.375 24.1061 118.788 25.3765 117.614 26.2993C116.441 27.2108 114.823 27.6665 112.761 27.6665C111.177 27.6665 109.861 27.3703 108.813 26.7778C107.765 26.1854 106.945 25.2796 106.352 24.0605ZM119.855 24.0605L122.931 22.3857C123.159 23.1947 123.58 23.8099 124.195 24.2314C124.811 24.653 125.602 24.8638 126.571 24.8638C127.403 24.8638 128.052 24.6758 128.519 24.2998C128.998 23.9124 129.237 23.3883 129.237 22.7275C129.237 21.8503 128.394 21.0983 126.708 20.4717C126.138 20.2666 125.699 20.0957 125.392 19.959C123.66 19.2412 122.447 18.512 121.752 17.7715C121.068 17.0309 120.726 16.1309 120.726 15.0713C120.726 13.6243 121.29 12.4508 122.418 11.5508C123.557 10.6507 125.061 10.2007 126.93 10.2007C128.183 10.2007 129.254 10.4342 130.143 10.9014C131.043 11.3571 131.698 12.0122 132.108 12.8667L129.476 14.6782C129.282 14.1655 128.941 13.7611 128.451 13.4648C127.972 13.1572 127.414 13.0034 126.776 13.0034C126.07 13.0034 125.5 13.1743 125.067 13.5161C124.645 13.8465 124.435 14.2909 124.435 14.8491C124.435 15.6922 125.392 16.4613 127.306 17.1562C127.91 17.3727 128.377 17.5493 128.707 17.686C130.2 18.2785 131.265 18.9507 131.903 19.7026C132.552 20.4432 132.877 21.3717 132.877 22.4883C132.877 24.1061 132.29 25.3765 131.117 26.2993C129.943 27.2108 128.325 27.6665 126.263 27.6665C124.68 27.6665 123.364 27.3703 122.316 26.7778C121.267 26.1854 120.447 25.2796 119.855 24.0605ZM144.057 3.79199C144.057 3.16536 144.284 2.62419 144.74 2.16846C145.207 1.71273 145.76 1.48486 146.398 1.48486C147.059 1.48486 147.606 1.70703 148.038 2.15137C148.483 2.58431 148.705 3.13118 148.705 3.79199C148.705 4.4528 148.483 5.01107 148.038 5.4668C147.594 5.91113 147.047 6.1333 146.398 6.1333C145.76 6.1333 145.207 5.90544 144.74 5.44971C144.284 4.98258 144.057 4.43001 144.057 3.79199ZM144.552 27V10.7988H148.261V27H144.552ZM152.176 27V10.7988H155.662V13.4478C156.402 12.3312 157.274 11.5166 158.277 11.0039C159.279 10.4912 160.498 10.2349 161.934 10.2349C163.142 10.2349 164.167 10.4285 165.01 10.8159C165.865 11.1919 166.531 11.7559 167.01 12.5078C167.294 12.9521 167.499 13.4705 167.625 14.063C167.75 14.6554 167.813 15.6922 167.813 17.1733V27H164.07V18.6772C164.07 16.5467 163.808 15.134 163.284 14.439C162.771 13.7326 161.854 13.3794 160.533 13.3794C159.667 13.3794 158.892 13.5389 158.208 13.8579C157.536 14.1769 157.006 14.627 156.619 15.208C156.346 15.5954 156.152 16.0967 156.038 16.7119C155.935 17.3158 155.884 18.2842 155.884 19.6172V27H152.176ZM17.1665 61.4463H4.2124C4.30355 62.9616 4.75358 64.1465 5.5625 65.001C6.37142 65.8441 7.44808 66.2656 8.79248 66.2656C9.98877 66.2656 10.9857 66.015 11.7832 65.5137C12.5807 65.0124 13.2757 64.2035 13.8682 63.0869L16.9956 64.8301C16.0841 66.4593 14.9562 67.6727 13.6118 68.4702C12.2674 69.2677 10.6895 69.6665 8.87793 69.6665C6.28027 69.6665 4.2124 68.8747 2.67432 67.291C1.13623 65.7074 0.367188 63.5939 0.367188 60.9507C0.367188 58.41 1.15902 56.325 2.74268 54.6958C4.33773 53.0552 6.38281 52.2349 8.87793 52.2349C11.487 52.2349 13.5207 52.9811 14.979 54.4736C16.4373 55.9661 17.1665 58.0568 17.1665 60.7456V61.4463ZM13.3213 58.9512C13.1732 57.7891 12.7288 56.9061 11.9883 56.3022C11.2477 55.687 10.2337 55.3794 8.94629 55.3794C7.72721 55.3794 6.7474 55.6756 6.00684 56.2681C5.26628 56.8605 4.74788 57.7549 4.45166 58.9512H13.3213ZM25.3368 69.9741L16.8432 52.7988H20.8935L24.4311 60.9507C24.545 61.2013 24.6817 61.5773 24.8412 62.0786C25.0007 62.5799 25.1659 63.1781 25.3368 63.873C25.4507 63.3831 25.5818 62.8989 25.7299 62.4204C25.8894 61.9305 26.0774 61.4406 26.2938 60.9507L29.8144 52.7988H33.8476L25.3368 69.9741ZM50.3919 61.4463H37.4378C37.5289 62.9616 37.979 64.1465 38.7879 65.001C39.5968 65.8441 40.6735 66.2656 42.0179 66.2656C43.2142 66.2656 44.2111 66.015 45.0086 65.5137C45.8061 65.0124 46.5011 64.2035 47.0936 63.0869L50.221 64.8301C49.3095 66.4593 48.1816 67.6727 46.8372 68.4702C45.4928 69.2677 43.9148 69.6665 42.1033 69.6665C39.5057 69.6665 37.4378 68.8747 35.8997 67.291C34.3616 65.7074 33.5926 63.5939 33.5926 60.9507C33.5926 58.41 34.3844 56.325 35.9681 54.6958C37.5631 53.0552 39.6082 52.2349 42.1033 52.2349C44.7124 52.2349 46.7461 52.9811 48.2044 54.4736C49.6627 55.9661 50.3919 58.0568 50.3919 60.7456V61.4463ZM46.5467 58.9512C46.3986 57.7891 45.9542 56.9061 45.2137 56.3022C44.4731 55.687 43.4591 55.3794 42.1717 55.3794C40.9526 55.3794 39.9728 55.6756 39.2322 56.2681C38.4917 56.8605 37.9733 57.7549 37.6771 58.9512H46.5467ZM56.5798 55.3794C56.9785 54.3084 57.5026 53.5166 58.1521 53.0039C58.8129 52.4912 59.6275 52.2349 60.5959 52.2349C61.12 52.2349 61.6327 52.2975 62.134 52.4229C62.6467 52.5482 63.148 52.7305 63.6379 52.9697L62.3049 56.1143C61.9859 55.8864 61.6384 55.7212 61.2624 55.6187C60.8978 55.5047 60.4877 55.4478 60.0319 55.4478C58.8015 55.4478 57.9185 55.9434 57.383 56.9346C56.8475 57.9144 56.5798 59.5664 56.5798 61.8906V69H52.8713V52.7646H56.5798V55.3794ZM67.1427 76.6221H63.3316L67.775 67.5986L61.8277 52.7988H65.9293L68.9029 61.1899C69.0738 61.7026 69.2219 62.2267 69.3473 62.7622C69.484 63.2863 69.5922 63.8218 69.672 64.3687C69.8201 63.799 70.1733 62.8932 70.7315 61.6514L70.817 61.4463L74.816 52.7988H78.8321L67.1427 76.6221ZM100.727 57.4131C100.157 56.7865 99.4908 56.3079 98.7274 55.9775C97.9755 55.6471 97.1609 55.4819 96.2836 55.4819C94.7683 55.4819 93.5549 55.9718 92.6435 56.9517C91.732 57.9315 91.2763 59.2303 91.2763 60.8481C91.2763 62.5343 91.732 63.8617 92.6435 64.8301C93.5663 65.7871 94.8367 66.2656 96.4545 66.2656C97.3546 66.2656 98.1578 66.1004 98.8642 65.77C99.5705 65.4282 100.191 64.9155 100.727 64.2319V68.5044C100.043 68.8918 99.3085 69.1823 98.5224 69.376C97.7476 69.5697 96.9216 69.6665 96.0443 69.6665C93.5036 69.6665 91.4301 68.8576 89.8236 67.2397C88.2286 65.6219 87.4311 63.5256 87.4311 60.9507C87.4311 58.3416 88.2571 56.2396 89.9091 54.6445C91.5725 53.0381 93.7429 52.2349 96.4203 52.2349C97.2634 52.2349 98.0381 52.3203 98.7445 52.4912C99.4509 52.6507 100.112 52.9014 100.727 53.2432V57.4131ZM115.853 60.9507C115.853 59.4468 115.369 58.1764 114.4 57.1396C113.432 56.0915 112.247 55.5674 110.846 55.5674C109.456 55.5674 108.271 56.0915 107.291 57.1396C106.322 58.1764 105.838 59.4468 105.838 60.9507C105.838 62.4546 106.322 63.7306 107.291 64.7788C108.271 65.8156 109.456 66.334 110.846 66.334C112.235 66.334 113.415 65.8156 114.383 64.7788C115.363 63.7306 115.853 62.4546 115.853 60.9507ZM101.925 60.9165C101.925 59.7316 102.147 58.6151 102.591 57.5669C103.047 56.5073 103.696 55.5674 104.539 54.7471C105.371 53.9382 106.328 53.3172 107.41 52.8843C108.493 52.4513 109.626 52.2349 110.811 52.2349C112.03 52.2349 113.175 52.4513 114.246 52.8843C115.329 53.3172 116.297 53.9552 117.152 54.7983C118.006 55.63 118.656 56.57 119.1 57.6182C119.544 58.6663 119.766 59.7658 119.766 60.9165C119.766 62.1128 119.544 63.235 119.1 64.2832C118.667 65.3314 118.029 66.2599 117.186 67.0688C116.297 67.9233 115.312 68.5671 114.229 69C113.147 69.4443 112.008 69.6665 110.811 69.6665C109.638 69.6665 108.51 69.4443 107.428 69C106.345 68.5671 105.382 67.9347 104.539 67.103C103.685 66.2599 103.035 65.3143 102.591 64.2661C102.147 63.2179 101.925 62.1014 101.925 60.9165ZM126.006 55.3794C126.404 54.3084 126.928 53.5166 127.578 53.0039C128.239 52.4912 129.053 52.2349 130.022 52.2349C130.546 52.2349 131.058 52.2975 131.56 52.4229C132.072 52.5482 132.574 52.7305 133.064 52.9697L131.731 56.1143C131.412 55.8864 131.064 55.7212 130.688 55.6187C130.324 55.5047 129.913 55.4478 129.458 55.4478C128.227 55.4478 127.344 55.9434 126.809 56.9346C126.273 57.9144 126.006 59.5664 126.006 61.8906V69H122.297V52.7646H126.006V55.3794ZM133.783 69V52.7988H137.269V55.4478C138.01 54.3312 138.881 53.5166 139.884 53.0039C140.886 52.4912 142.106 52.2349 143.541 52.2349C144.749 52.2349 145.774 52.4285 146.617 52.8159C147.472 53.1919 148.138 53.7559 148.617 54.5078C148.902 54.9521 149.107 55.4705 149.232 56.063C149.357 56.6554 149.42 57.6922 149.42 59.1733V69H145.677V60.6772C145.677 58.5467 145.415 57.134 144.891 56.439C144.379 55.7326 143.461 55.3794 142.14 55.3794C141.274 55.3794 140.499 55.5389 139.816 55.8579C139.143 56.1769 138.614 56.627 138.226 57.208C137.953 57.5954 137.759 58.0967 137.645 58.7119C137.543 59.3158 137.491 60.2842 137.491 61.6172V69H133.783ZM168.562 61.4463H155.608C155.699 62.9616 156.149 64.1465 156.958 65.001C157.767 65.8441 158.844 66.2656 160.188 66.2656C161.384 66.2656 162.381 66.015 163.179 65.5137C163.976 65.0124 164.671 64.2035 165.264 63.0869L168.391 64.8301C167.48 66.4593 166.352 67.6727 165.007 68.4702C163.663 69.2677 162.085 69.6665 160.273 69.6665C157.676 69.6665 155.608 68.8747 154.07 67.291C152.532 65.7074 151.763 63.5939 151.763 60.9507C151.763 58.41 152.555 56.325 154.138 54.6958C155.733 53.0552 157.778 52.2349 160.273 52.2349C162.882 52.2349 164.916 52.9811 166.375 54.4736C167.833 55.9661 168.562 58.0568 168.562 60.7456V61.4463ZM164.717 58.9512C164.569 57.7891 164.124 56.9061 163.384 56.3022C162.643 55.687 161.629 55.3794 160.342 55.3794C159.123 55.3794 158.143 55.6756 157.402 56.2681C156.662 56.8605 156.143 57.7549 155.847 58.9512H164.717ZM174.75 55.3794C175.149 54.3084 175.673 53.5166 176.322 53.0039C176.983 52.4912 177.798 52.2349 178.766 52.2349C179.29 52.2349 179.803 52.2975 180.304 52.4229C180.817 52.5482 181.318 52.7305 181.808 52.9697L180.475 56.1143C180.156 55.8864 179.809 55.7212 179.433 55.6187C179.068 55.5047 178.658 55.4478 178.202 55.4478C176.972 55.4478 176.089 55.9434 175.553 56.9346C175.018 57.9144 174.75 59.5664 174.75 61.8906V69H171.041V52.7646H174.75V55.3794Z" fill="white"/>
</svg>
