<svg width="520" height="85" viewBox="0 0 520 85" fill="none" xmlns="http://www.w3.org/2000/svg">
<path d="M3.77344 35V2.11719H9.11914V30.2158H21.0684V35H3.77344ZM43.2166 35H38.3426V32.2373C37.4741 33.4652 36.4559 34.3786 35.2879 34.9775C34.1349 35.5765 32.8097 35.876 31.3123 35.876C28.3026 35.876 25.9292 34.8503 24.1922 32.7988C22.4702 30.7324 21.6092 27.9098 21.6092 24.3311C21.6092 20.932 22.4927 18.1917 24.2596 16.1104C26.0265 14.014 28.3325 12.9658 31.1776 12.9658C32.9146 12.9658 34.397 13.3327 35.6248 14.0664C36.8677 14.7852 37.7736 15.8258 38.3426 17.1885V13.707H43.2166V35ZM38.4774 24.2861C38.4774 22.085 37.9608 20.3704 36.9276 19.1426C35.9093 17.9147 34.4793 17.3008 32.6375 17.3008C30.7957 17.3008 29.3433 17.9372 28.2801 19.21C27.2319 20.4678 26.7079 22.2197 26.7079 24.4658C26.7079 26.7269 27.217 28.4714 28.2352 29.6992C29.2534 30.9271 30.6909 31.541 32.5477 31.541C34.2996 31.541 35.7222 30.8747 36.8153 29.542C37.9233 28.2093 38.4774 26.4574 38.4774 24.2861ZM48.1149 35V13.707H52.697V17.1885C53.6703 15.721 54.8158 14.6504 56.1335 13.9766C57.4512 13.3027 59.0534 12.9658 60.9401 12.9658C62.5274 12.9658 63.875 13.2204 64.9831 13.7295C66.1061 14.2236 66.9821 14.9648 67.611 15.9531C67.9854 16.5371 68.2549 17.2184 68.4196 17.9971C68.5843 18.7757 68.6667 20.1383 68.6667 22.085V35H63.7477V24.0615C63.7477 21.2614 63.4033 19.4046 62.7145 18.4912C62.0407 17.5628 60.8353 17.0986 59.0983 17.0986C57.9603 17.0986 56.9421 17.3083 56.0436 17.7275C55.1602 18.1468 54.4639 18.7383 53.9548 19.502C53.5954 20.0111 53.3408 20.6699 53.1911 21.4785C53.0563 22.2721 52.9889 23.5449 52.9889 25.2969V35H48.1149ZM88.6138 24.2861C88.6138 22.085 88.0972 20.3704 87.064 19.1426C86.0458 17.9147 84.6157 17.3008 82.7739 17.3008C80.9322 17.3008 79.4797 17.9372 78.4165 19.21C77.3683 20.4678 76.8443 22.2197 76.8443 24.4658C76.8443 26.7269 77.3534 28.4714 78.3716 29.6992C79.3898 30.9271 80.8273 31.541 82.6841 31.541C84.451 31.541 85.881 30.8822 86.9741 29.5645C88.0672 28.2318 88.6138 26.4723 88.6138 24.2861ZM88.479 0.185547H93.3531V35H88.479V32.2373C87.6105 33.4652 86.5923 34.3786 85.4243 34.9775C84.2713 35.5765 82.9461 35.876 81.4488 35.876C78.439 35.876 76.0656 34.8503 74.3286 32.7988C72.6066 30.7324 71.7456 27.9098 71.7456 24.3311C71.7456 20.932 72.6291 18.1917 74.396 16.1104C76.1629 14.014 78.4689 12.9658 81.314 12.9658C83.051 12.9658 84.5334 13.3327 85.7613 14.0664C87.0041 14.7852 87.91 15.8258 88.479 17.1885V0.185547ZM95.8031 31.1367L99.8461 28.9355C100.146 29.9987 100.7 30.8073 101.508 31.3613C102.317 31.9154 103.357 32.1924 104.63 32.1924C105.723 32.1924 106.577 31.9453 107.191 31.4512C107.82 30.9421 108.134 30.2533 108.134 29.3848C108.134 28.2318 107.026 27.2435 104.81 26.4199C104.061 26.1504 103.485 25.9258 103.08 25.7461C100.804 24.8027 99.2097 23.8444 98.2962 22.8711C97.3978 21.8978 96.9486 20.7148 96.9486 19.3223C96.9486 17.4206 97.6898 15.8783 99.1722 14.6953C100.67 13.5124 102.646 12.9209 105.102 12.9209C106.749 12.9209 108.157 13.2279 109.325 13.8418C110.508 14.4408 111.369 15.3018 111.908 16.4248L108.449 18.8057C108.194 18.1318 107.745 17.6003 107.101 17.2109C106.472 16.8066 105.738 16.6045 104.9 16.6045C103.971 16.6045 103.223 16.8291 102.654 17.2783C102.1 17.7126 101.823 18.2965 101.823 19.0303C101.823 20.1383 103.08 21.1491 105.596 22.0625C106.39 22.347 107.004 22.5791 107.438 22.7588C109.399 23.5374 110.8 24.4209 111.638 25.4092C112.492 26.3825 112.918 27.6029 112.918 29.0703C112.918 31.1966 112.147 32.8662 110.605 34.0791C109.063 35.277 106.936 35.876 104.226 35.876C102.145 35.876 100.415 35.4867 99.0375 34.708C97.6599 33.9294 96.5817 32.7389 95.8031 31.1367ZM131.9 19.7715C131.151 18.9479 130.275 18.319 129.272 17.8848C128.283 17.4505 127.213 17.2334 126.06 17.2334C124.068 17.2334 122.474 17.8773 121.276 19.165C120.078 20.4528 119.479 22.1598 119.479 24.2861C119.479 26.5023 120.078 28.2467 121.276 29.5195C122.488 30.7773 124.158 31.4062 126.284 31.4062C127.467 31.4062 128.523 31.1891 129.451 30.7549C130.38 30.3057 131.196 29.6318 131.9 28.7334V34.3486C131.001 34.8577 130.035 35.2396 129.002 35.4941C127.984 35.7487 126.898 35.876 125.745 35.876C122.406 35.876 119.681 34.8128 117.57 32.6865C115.473 30.5602 114.425 27.805 114.425 24.4209C114.425 20.9919 115.511 18.2292 117.682 16.1328C119.868 14.0215 122.721 12.9658 126.239 12.9658C127.348 12.9658 128.366 13.0781 129.294 13.3027C130.223 13.5124 131.091 13.8418 131.9 14.291V19.7715ZM155.081 35H150.207V32.2373C149.339 33.4652 148.32 34.3786 147.152 34.9775C145.999 35.5765 144.674 35.876 143.177 35.876C140.167 35.876 137.794 34.8503 136.057 32.7988C134.335 30.7324 133.474 27.9098 133.474 24.3311C133.474 20.932 134.357 18.1917 136.124 16.1104C137.891 14.014 140.197 12.9658 143.042 12.9658C144.779 12.9658 146.261 13.3327 147.489 14.0664C148.732 14.7852 149.638 15.8258 150.207 17.1885V13.707H155.081V35ZM150.342 24.2861C150.342 22.085 149.825 20.3704 148.792 19.1426C147.774 17.9147 146.344 17.3008 144.502 17.3008C142.66 17.3008 141.208 17.9372 140.145 19.21C139.096 20.4678 138.572 22.2197 138.572 24.4658C138.572 26.7269 139.081 28.4714 140.1 29.6992C141.118 30.9271 142.555 31.541 144.412 31.541C146.164 31.541 147.587 30.8747 148.68 29.542C149.788 28.2093 150.342 26.4574 150.342 24.2861ZM164.696 24.2861C164.696 26.4873 165.243 28.2467 166.336 29.5645C167.444 30.8822 168.896 31.541 170.693 31.541C172.535 31.541 173.958 30.9271 174.961 29.6992C175.979 28.4714 176.488 26.7269 176.488 24.4658C176.488 22.2197 175.957 20.4678 174.893 19.21C173.845 17.9372 172.4 17.3008 170.558 17.3008C168.717 17.3008 167.279 17.9147 166.246 19.1426C165.213 20.3704 164.696 22.085 164.696 24.2861ZM159.979 45.0176V13.707H164.853V17.1885C165.422 15.8408 166.328 14.8001 167.571 14.0664C168.829 13.3327 170.326 12.9658 172.063 12.9658C174.893 12.9658 177.184 14.014 178.936 16.1104C180.703 18.1917 181.587 20.932 181.587 24.3311C181.587 27.9098 180.718 30.7324 178.981 32.7988C177.259 34.8503 174.893 35.876 171.884 35.876C170.386 35.876 169.054 35.5765 167.886 34.9775C166.733 34.3786 165.722 33.4652 164.853 32.2373V45.0176H159.979ZM205.42 25.0723H188.394C188.514 27.0638 189.106 28.6211 190.169 29.7441C191.232 30.8522 192.647 31.4062 194.414 31.4062C195.986 31.4062 197.296 31.0768 198.344 30.418C199.393 29.7591 200.306 28.696 201.085 27.2285L205.195 29.5195C203.997 31.6608 202.515 33.2555 200.748 34.3037C198.981 35.3519 196.907 35.876 194.526 35.876C191.112 35.876 188.394 34.8353 186.373 32.7539C184.351 30.6725 183.341 27.8949 183.341 24.4209C183.341 21.0817 184.381 18.3415 186.463 16.2002C188.559 14.0439 191.247 12.9658 194.526 12.9658C197.955 12.9658 200.628 13.9466 202.545 15.9082C204.461 17.8698 205.42 20.6175 205.42 24.1514V25.0723ZM200.366 21.793C200.171 20.2656 199.587 19.1051 198.614 18.3115C197.641 17.5029 196.308 17.0986 194.616 17.0986C193.014 17.0986 191.726 17.488 190.753 18.2666C189.779 19.0452 189.098 20.2207 188.709 21.793H200.366ZM219.237 28.4189L223.504 26.4424C223.909 27.9098 224.65 29.0329 225.728 29.8115C226.806 30.5752 228.184 30.957 229.861 30.957C231.448 30.957 232.706 30.5153 233.634 29.6318C234.578 28.7484 235.049 27.5654 235.049 26.083C235.049 24.1514 233.447 22.4294 230.243 20.917C229.793 20.6924 229.449 20.5277 229.209 20.4229C225.586 18.6559 223.167 17.0612 221.954 15.6387C220.757 14.2012 220.158 12.4492 220.158 10.3828C220.158 7.70247 221.064 5.53125 222.875 3.86914C224.702 2.20703 227.091 1.37598 230.04 1.37598C232.466 1.37598 234.495 1.84766 236.127 2.79102C237.76 3.7194 238.89 5.05957 239.519 6.81152L235.341 8.96777C234.682 7.93457 233.956 7.17839 233.163 6.69922C232.384 6.22005 231.485 5.98047 230.467 5.98047C229.03 5.98047 227.884 6.35482 227.031 7.10352C226.192 7.85221 225.773 8.85547 225.773 10.1133C225.773 12.0898 227.63 13.9316 231.343 15.6387C231.628 15.7734 231.852 15.8783 232.017 15.9531C235.266 17.4505 237.497 18.918 238.71 20.3555C239.923 21.778 240.53 23.5599 240.53 25.7012C240.53 28.8158 239.549 31.2939 237.587 33.1357C235.626 34.9626 232.975 35.876 229.636 35.876C226.836 35.876 224.538 35.2321 222.741 33.9443C220.959 32.6566 219.791 30.8148 219.237 28.4189ZM264.632 25.0723H247.607C247.726 27.0638 248.318 28.6211 249.381 29.7441C250.444 30.8522 251.859 31.4062 253.626 31.4062C255.198 31.4062 256.509 31.0768 257.557 30.418C258.605 29.7591 259.518 28.696 260.297 27.2285L264.407 29.5195C263.21 31.6608 261.727 33.2555 259.96 34.3037C258.193 35.3519 256.119 35.876 253.739 35.876C250.324 35.876 247.607 34.8353 245.585 32.7539C243.564 30.6725 242.553 27.8949 242.553 24.4209C242.553 21.0817 243.594 18.3415 245.675 16.2002C247.771 14.0439 250.459 12.9658 253.739 12.9658C257.168 12.9658 259.84 13.9466 261.757 15.9082C263.674 17.8698 264.632 20.6175 264.632 24.1514V25.0723ZM259.578 21.793C259.384 20.2656 258.8 19.1051 257.826 18.3115C256.853 17.5029 255.52 17.0986 253.828 17.0986C252.226 17.0986 250.938 17.488 249.965 18.2666C248.992 19.0452 248.31 20.2207 247.921 21.793H259.578ZM287.926 35H283.052V32.2373C282.183 33.4652 281.165 34.3786 279.997 34.9775C278.844 35.5765 277.519 35.876 276.022 35.876C273.012 35.876 270.638 34.8503 268.901 32.7988C267.179 30.7324 266.318 27.9098 266.318 24.3311C266.318 20.932 267.202 18.1917 268.969 16.1104C270.736 14.014 273.042 12.9658 275.887 12.9658C277.624 12.9658 279.106 13.3327 280.334 14.0664C281.577 14.7852 282.483 15.8258 283.052 17.1885V13.707H287.926V35ZM283.187 24.2861C283.187 22.085 282.67 20.3704 281.637 19.1426C280.619 17.9147 279.189 17.3008 277.347 17.3008C275.505 17.3008 274.053 17.9372 272.989 19.21C271.941 20.4678 271.417 22.2197 271.417 24.4658C271.417 26.7269 271.926 28.4714 272.944 29.6992C273.963 30.9271 275.4 31.541 277.257 31.541C279.009 31.541 280.431 30.8747 281.525 29.542C282.633 28.2093 283.187 26.4574 283.187 24.2861ZM293.97 35V17.9746H290.241V13.707H293.97V5.64355H298.844V13.707H302.572V17.9746H298.844V35H293.97ZM304.528 4.49805C304.528 3.67448 304.828 2.96322 305.427 2.36426C306.04 1.7653 306.767 1.46582 307.605 1.46582C308.474 1.46582 309.192 1.75781 309.761 2.3418C310.345 2.91081 310.637 3.62956 310.637 4.49805C310.637 5.36654 310.345 6.10026 309.761 6.69922C309.177 7.2832 308.459 7.5752 307.605 7.5752C306.767 7.5752 306.04 7.27572 305.427 6.67676C304.828 6.06283 304.528 5.33659 304.528 4.49805ZM305.179 35V13.707H310.053V35H305.179ZM315.199 35V13.707H319.781V17.1885C320.754 15.721 321.9 14.6504 323.217 13.9766C324.535 13.3027 326.137 12.9658 328.024 12.9658C329.611 12.9658 330.959 13.2204 332.067 13.7295C333.19 14.2236 334.066 14.9648 334.695 15.9531C335.069 16.5371 335.339 17.2184 335.504 17.9971C335.668 18.7757 335.751 20.1383 335.751 22.085V35H330.832V24.0615C330.832 21.2614 330.487 19.4046 329.798 18.4912C329.125 17.5628 327.919 17.0986 326.182 17.0986C325.044 17.0986 324.026 17.3083 323.128 17.7275C322.244 18.1468 321.548 18.7383 321.039 19.502C320.679 20.0111 320.425 20.6699 320.275 21.4785C320.14 22.2721 320.073 23.5449 320.073 25.2969V35H315.199ZM355.698 24.2861C355.698 22.085 355.181 20.3704 354.148 19.1426C353.13 17.9147 351.7 17.3008 349.858 17.3008C348.016 17.3008 346.564 17.9372 345.5 19.21C344.452 20.4678 343.928 22.2197 343.928 24.4658C343.928 26.7269 344.437 28.4714 345.456 29.6992C346.474 30.9271 347.911 31.541 349.768 31.541C351.52 31.541 352.942 30.8747 354.036 29.542C355.144 28.2093 355.698 26.4574 355.698 24.2861ZM360.437 33.6748C360.437 37.8376 359.606 40.765 357.944 42.457C356.282 44.1641 353.482 45.0176 349.543 45.0176C346.609 45.0176 344.265 44.3962 342.513 43.1533C340.761 41.9255 339.87 40.2858 339.84 38.2344L345.074 38.2119C345.149 39.1253 345.575 39.8216 346.354 40.3008C347.133 40.7799 348.226 41.0195 349.633 41.0195C351.715 41.0195 353.212 40.5628 354.125 39.6494C355.039 38.736 355.503 37.2087 355.518 35.0674L355.563 32.2373C354.694 33.4652 353.676 34.3786 352.508 34.9775C351.355 35.5765 350.03 35.876 348.533 35.876C345.523 35.876 343.15 34.8503 341.413 32.7988C339.691 30.7324 338.83 27.9098 338.83 24.3311C338.83 20.932 339.713 18.1917 341.48 16.1104C343.247 14.014 345.553 12.9658 348.398 12.9658C350.135 12.9658 351.617 13.3327 352.845 14.0664C354.088 14.7852 354.994 15.8258 355.563 17.1885V13.707H360.437V33.6748ZM375.894 28.4189L380.161 26.4424C380.566 27.9098 381.307 29.0329 382.385 29.8115C383.463 30.5752 384.841 30.957 386.518 30.957C388.105 30.957 389.363 30.5153 390.291 29.6318C391.234 28.7484 391.706 27.5654 391.706 26.083C391.706 24.1514 390.104 22.4294 386.9 20.917C386.45 20.6924 386.106 20.5277 385.866 20.4229C382.243 18.6559 379.824 17.0612 378.611 15.6387C377.414 14.2012 376.815 12.4492 376.815 10.3828C376.815 7.70247 377.72 5.53125 379.532 3.86914C381.359 2.20703 383.748 1.37598 386.697 1.37598C389.123 1.37598 391.152 1.84766 392.784 2.79102C394.416 3.7194 395.547 5.05957 396.176 6.81152L391.998 8.96777C391.339 7.93457 390.613 7.17839 389.819 6.69922C389.041 6.22005 388.142 5.98047 387.124 5.98047C385.687 5.98047 384.541 6.35482 383.688 7.10352C382.849 7.85221 382.43 8.85547 382.43 10.1133C382.43 12.0898 384.287 13.9316 388 15.6387C388.285 15.7734 388.509 15.8783 388.674 15.9531C391.923 17.4505 394.154 18.918 395.367 20.3555C396.58 21.778 397.187 23.5599 397.187 25.7012C397.187 28.8158 396.206 31.2939 394.244 33.1357C392.283 34.9626 389.632 35.876 386.293 35.876C383.493 35.876 381.194 35.2321 379.398 33.9443C377.616 32.6566 376.448 30.8148 375.894 28.4189ZM405.499 24.2861C405.499 26.4873 406.046 28.2467 407.139 29.5645C408.247 30.8822 409.699 31.541 411.496 31.541C413.338 31.541 414.76 30.9271 415.764 29.6992C416.782 28.4714 417.291 26.7269 417.291 24.4658C417.291 22.2197 416.759 20.4678 415.696 19.21C414.648 17.9372 413.203 17.3008 411.361 17.3008C409.52 17.3008 408.082 17.9147 407.049 19.1426C406.016 20.3704 405.499 22.085 405.499 24.2861ZM400.782 45.0176V13.707H405.656V17.1885C406.225 15.8408 407.131 14.8001 408.374 14.0664C409.632 13.3327 411.129 12.9658 412.866 12.9658C415.696 12.9658 417.987 14.014 419.739 16.1104C421.506 18.1917 422.39 20.932 422.39 24.3311C422.39 27.9098 421.521 30.7324 419.784 32.7988C418.062 34.8503 415.696 35.876 412.686 35.876C411.189 35.876 409.856 35.5765 408.688 34.9775C407.535 34.3786 406.525 33.4652 405.656 32.2373V45.0176H400.782ZM445.751 35H440.877V32.2373C440.008 33.4652 438.99 34.3786 437.822 34.9775C436.669 35.5765 435.344 35.876 433.846 35.876C430.837 35.876 428.463 34.8503 426.726 32.7988C425.004 30.7324 424.143 27.9098 424.143 24.3311C424.143 20.932 425.027 18.1917 426.794 16.1104C428.561 14.014 430.867 12.9658 433.712 12.9658C435.449 12.9658 436.931 13.3327 438.159 14.0664C439.402 14.7852 440.308 15.8258 440.877 17.1885V13.707H445.751V35ZM441.012 24.2861C441.012 22.085 440.495 20.3704 439.462 19.1426C438.444 17.9147 437.013 17.3008 435.172 17.3008C433.33 17.3008 431.877 17.9372 430.814 19.21C429.766 20.4678 429.242 22.2197 429.242 24.4658C429.242 26.7269 429.751 28.4714 430.769 29.6992C431.788 30.9271 433.225 31.541 435.082 31.541C436.834 31.541 438.256 30.8747 439.349 29.542C440.457 28.2093 441.012 26.4574 441.012 24.2861ZM466.551 19.7715C465.803 18.9479 464.927 18.319 463.923 17.8848C462.935 17.4505 461.865 17.2334 460.712 17.2334C458.72 17.2334 457.125 17.8773 455.927 19.165C454.729 20.4528 454.13 22.1598 454.13 24.2861C454.13 26.5023 454.729 28.2467 455.927 29.5195C457.14 30.7773 458.81 31.4062 460.936 31.4062C462.119 31.4062 463.175 31.1891 464.103 30.7549C465.032 30.3057 465.848 29.6318 466.551 28.7334V34.3486C465.653 34.8577 464.687 35.2396 463.654 35.4941C462.636 35.7487 461.55 35.876 460.397 35.876C457.058 35.876 454.333 34.8128 452.221 32.6865C450.125 30.5602 449.077 27.805 449.077 24.4209C449.077 20.9919 450.162 18.2292 452.334 16.1328C454.52 14.0215 457.372 12.9658 460.891 12.9658C461.999 12.9658 463.018 13.0781 463.946 13.3027C464.874 13.5124 465.743 13.8418 466.551 14.291V19.7715ZM490.205 25.0723H473.179C473.299 27.0638 473.89 28.6211 474.954 29.7441C476.017 30.8522 477.432 31.4062 479.199 31.4062C480.771 31.4062 482.081 31.0768 483.129 30.418C484.178 29.7591 485.091 28.696 485.87 27.2285L489.98 29.5195C488.782 31.6608 487.3 33.2555 485.533 34.3037C483.766 35.3519 481.692 35.876 479.311 35.876C475.897 35.876 473.179 34.8353 471.158 32.7539C469.136 30.6725 468.125 27.8949 468.125 24.4209C468.125 21.0817 469.166 18.3415 471.248 16.2002C473.344 14.0439 476.032 12.9658 479.311 12.9658C482.74 12.9658 485.413 13.9466 487.33 15.9082C489.246 17.8698 490.205 20.6175 490.205 24.1514V25.0723ZM485.151 21.793C484.956 20.2656 484.372 19.1051 483.399 18.3115C482.426 17.5029 481.093 17.0986 479.401 17.0986C477.799 17.0986 476.511 17.488 475.538 18.2666C474.564 19.0452 473.883 20.2207 473.494 21.793H485.151ZM491.015 31.1367L495.058 28.9355C495.357 29.9987 495.911 30.8073 496.72 31.3613C497.529 31.9154 498.569 32.1924 499.842 32.1924C500.935 32.1924 501.789 31.9453 502.403 31.4512C503.032 30.9421 503.346 30.2533 503.346 29.3848C503.346 28.2318 502.238 27.2435 500.022 26.4199C499.273 26.1504 498.697 25.9258 498.292 25.7461C496.016 24.8027 494.422 23.8444 493.508 22.8711C492.61 21.8978 492.16 20.7148 492.16 19.3223C492.16 17.4206 492.902 15.8783 494.384 14.6953C495.881 13.5124 497.858 12.9209 500.314 12.9209C501.961 12.9209 503.368 13.2279 504.536 13.8418C505.719 14.4408 506.58 15.3018 507.119 16.4248L503.66 18.8057C503.406 18.1318 502.957 17.6003 502.313 17.2109C501.684 16.8066 500.95 16.6045 500.112 16.6045C499.183 16.6045 498.435 16.8291 497.866 17.2783C497.312 17.7126 497.034 18.2965 497.034 19.0303C497.034 20.1383 498.292 21.1491 500.808 22.0625C501.602 22.347 502.215 22.5791 502.65 22.7588C504.611 23.5374 506.011 24.4209 506.85 25.4092C507.703 26.3825 508.13 27.6029 508.13 29.0703C508.13 31.1966 507.359 32.8662 505.817 34.0791C504.274 35.277 502.148 35.876 499.438 35.876C497.356 35.876 495.627 35.4867 494.249 34.708C492.872 33.9294 491.794 32.7389 491.015 31.1367ZM514.78 29.4297L519.16 31.0469L513.32 43.0859L510.423 41.9404L514.78 29.4297ZM3.07617 77V64.0459H0.239258V60.7988H3.07617V56.458C3.07617 54.3047 3.52051 52.7153 4.40918 51.6899C5.30924 50.6646 6.69922 50.1519 8.5791 50.1519C8.97786 50.1519 9.38802 50.1803 9.80957 50.2373C10.2311 50.2943 10.6584 50.3854 11.0913 50.5107V53.8604C10.7951 53.6895 10.4932 53.5641 10.1855 53.4844C9.88932 53.3932 9.5874 53.3477 9.27979 53.3477C8.39111 53.3477 7.75309 53.6211 7.36572 54.168C6.97835 54.7148 6.78467 55.6377 6.78467 56.9365V60.7988H10.6812V64.0459H6.78467V77H3.07617ZM15.6044 63.3794C16.0032 62.3084 16.5272 61.5166 17.1767 61.0039C17.8375 60.4912 18.6521 60.2349 19.6205 60.2349C20.1446 60.2349 20.6573 60.2975 21.1586 60.4229C21.6713 60.5482 22.1726 60.7305 22.6625 60.9697L21.3295 64.1143C21.0105 63.8864 20.663 63.7212 20.287 63.6187C19.9224 63.5047 19.5123 63.4478 19.0565 63.4478C17.8261 63.4478 16.9431 63.9434 16.4076 64.9346C15.8721 65.9144 15.6044 67.5664 15.6044 69.8906V77H11.8959V60.7646H15.6044V63.3794ZM36.1136 68.9507C36.1136 67.4468 35.6294 66.1764 34.6609 65.1396C33.6925 64.0915 32.5076 63.5674 31.1063 63.5674C29.7163 63.5674 28.5314 64.0915 27.5516 65.1396C26.5831 66.1764 26.0989 67.4468 26.0989 68.9507C26.0989 70.4546 26.5831 71.7306 27.5516 72.7788C28.5314 73.8156 29.7163 74.334 31.1063 74.334C32.4962 74.334 33.6754 73.8156 34.6438 72.7788C35.6237 71.7306 36.1136 70.4546 36.1136 68.9507ZM22.1854 68.9165C22.1854 67.7316 22.4075 66.6151 22.8519 65.5669C23.3076 64.5073 23.957 63.5674 24.8001 62.7471C25.6318 61.9382 26.5888 61.3172 27.6712 60.8843C28.7535 60.4513 29.8872 60.2349 31.0721 60.2349C32.2911 60.2349 33.4362 60.4513 34.5071 60.8843C35.5895 61.3172 36.5579 61.9552 37.4124 62.7983C38.2669 63.63 38.9163 64.57 39.3606 65.6182C39.805 66.6663 40.0271 67.7658 40.0271 68.9165C40.0271 70.1128 39.805 71.235 39.3606 72.2832C38.9277 73.3314 38.2897 74.2599 37.4466 75.0688C36.5579 75.9233 35.5724 76.5671 34.49 77C33.4077 77.4443 32.2684 77.6665 31.0721 77.6665C29.8986 77.6665 28.7706 77.4443 27.6883 77C26.6059 76.5671 25.6432 75.9347 24.8001 75.103C23.9456 74.2599 23.2962 73.3143 22.8519 72.2661C22.4075 71.2179 22.1854 70.1014 22.1854 68.9165ZM46.2663 77H42.5578V60.7988H46.0441V63.4478C46.7847 62.3198 47.6221 61.4995 48.5563 60.9868C49.502 60.4627 50.6128 60.2007 51.8889 60.2007C53.1535 60.2007 54.2017 60.4684 55.0334 61.0039C55.8651 61.528 56.4974 62.3312 56.9304 63.4136C57.7849 62.297 58.6906 61.4824 59.6477 60.9697C60.6161 60.457 61.7155 60.2007 62.946 60.2007C64.017 60.2007 64.9512 60.4001 65.7487 60.7988C66.5463 61.1862 67.1672 61.7559 67.6115 62.5078C67.8166 62.861 67.9647 63.2826 68.0559 63.7725C68.1584 64.2624 68.2097 64.9631 68.2097 65.8745V67.1733V77H64.5012V68.6772C64.5012 66.5011 64.2676 65.0713 63.8005 64.3877C63.3448 63.6927 62.5244 63.3452 61.3396 63.3452C59.8812 63.3452 58.8387 63.8123 58.2121 64.7466C57.5969 65.6694 57.2893 67.293 57.2893 69.6172V77H53.5466V68.6772C53.5466 66.672 53.3016 65.2821 52.8117 64.5073C52.3332 63.7326 51.5015 63.3452 50.3166 63.3452C49.5874 63.3452 48.9209 63.5104 48.3171 63.8408C47.7132 64.1712 47.2347 64.627 46.8815 65.208C46.6537 65.584 46.4942 66.0454 46.403 66.5923C46.3119 67.1392 46.2663 68.1475 46.2663 69.6172V77ZM101.333 58.0645C100.182 57.0846 98.9627 56.3498 97.6753 55.8599C96.3993 55.37 95.0549 55.125 93.6421 55.125C90.9077 55.125 88.6803 56.0023 86.96 57.7568C85.251 59.5114 84.3965 61.7843 84.3965 64.5757C84.3965 67.2759 85.2282 69.5033 86.8916 71.2578C88.5664 73.0124 90.6742 73.8896 93.2148 73.8896C94.696 73.8896 96.103 73.6276 97.436 73.1035C98.7804 72.5794 100.068 71.7876 101.298 70.728V75.3252C100.205 76.1113 99.014 76.6981 97.7266 77.0854C96.4391 77.4728 95.0435 77.6665 93.5396 77.6665C91.6255 77.6665 89.8538 77.3532 88.2246 76.7266C86.6068 76.0999 85.1826 75.1771 83.9521 73.958C82.7331 72.7617 81.7931 71.3547 81.1323 69.7368C80.4829 68.1076 80.1582 66.3758 80.1582 64.5415C80.1582 62.7072 80.4829 60.9868 81.1323 59.3804C81.7931 57.7625 82.7445 56.3441 83.9863 55.125C85.2282 53.8945 86.6523 52.966 88.2588 52.3394C89.8652 51.7013 91.6027 51.3823 93.4712 51.3823C94.9409 51.3823 96.3423 51.5988 97.6753 52.0317C99.0083 52.4533 100.301 53.097 101.555 53.9629L101.333 58.0645ZM119.911 77H116.202V74.8979C115.541 75.8322 114.767 76.5272 113.878 76.9829C113.001 77.4386 111.992 77.6665 110.853 77.6665C108.563 77.6665 106.757 76.8861 105.435 75.3252C104.125 73.7529 103.47 71.6053 103.47 68.8823C103.47 66.2961 104.142 64.2111 105.487 62.6274C106.831 61.0324 108.586 60.2349 110.75 60.2349C112.072 60.2349 113.2 60.514 114.134 61.0723C115.08 61.6191 115.769 62.411 116.202 63.4478V60.7988H119.911V77ZM116.305 68.8481C116.305 67.1733 115.912 65.8688 115.125 64.9346C114.351 64.0003 113.263 63.5332 111.861 63.5332C110.46 63.5332 109.355 64.0174 108.546 64.9858C107.748 65.9429 107.35 67.2759 107.35 68.9849C107.35 70.7052 107.737 72.0326 108.512 72.9668C109.286 73.901 110.38 74.3682 111.793 74.3682C113.126 74.3682 114.208 73.8612 115.04 72.8472C115.883 71.8332 116.305 70.5002 116.305 68.8481ZM121.775 74.0605L124.851 72.3857C125.079 73.1947 125.5 73.8099 126.116 74.2314C126.731 74.653 127.523 74.8638 128.491 74.8638C129.323 74.8638 129.972 74.6758 130.439 74.2998C130.918 73.9124 131.157 73.3883 131.157 72.7275C131.157 71.8503 130.314 71.0983 128.628 70.4717C128.058 70.2666 127.619 70.0957 127.312 69.959C125.58 69.2412 124.367 68.512 123.672 67.7715C122.988 67.0309 122.646 66.1309 122.646 65.0713C122.646 63.6243 123.21 62.4508 124.338 61.5508C125.478 60.6507 126.981 60.2007 128.85 60.2007C130.103 60.2007 131.174 60.4342 132.063 60.9014C132.963 61.3571 133.618 62.0122 134.028 62.8667L131.396 64.6782C131.203 64.1655 130.861 63.7611 130.371 63.4648C129.892 63.1572 129.334 63.0034 128.696 63.0034C127.99 63.0034 127.42 63.1743 126.987 63.5161C126.566 63.8465 126.355 64.2909 126.355 64.8491C126.355 65.6922 127.312 66.4613 129.226 67.1562C129.83 67.3727 130.297 67.5493 130.627 67.686C132.12 68.2785 133.185 68.9507 133.823 69.7026C134.472 70.4432 134.797 71.3717 134.797 72.4883C134.797 74.1061 134.21 75.3765 133.037 76.2993C131.863 77.2108 130.246 77.6665 128.183 77.6665C126.6 77.6665 125.284 77.3703 124.236 76.7778C123.187 76.1854 122.367 75.2796 121.775 74.0605ZM140.729 60.7988V69.9248C140.729 71.4971 141.053 72.625 141.703 73.3086C142.352 73.9922 143.406 74.334 144.864 74.334C146.323 74.334 147.377 73.9922 148.026 73.3086C148.675 72.625 149 71.4971 149 69.9248V60.7988H152.709V68.814C152.709 71.9129 152.088 74.1631 150.846 75.5645C149.604 76.9658 147.622 77.6665 144.899 77.6665C142.13 77.6665 140.125 76.9715 138.883 75.5815C137.641 74.1916 137.02 71.9357 137.02 68.814V60.7988H140.729ZM171.56 77H167.852V74.8979C167.191 75.8322 166.416 76.5272 165.527 76.9829C164.65 77.4386 163.642 77.6665 162.503 77.6665C160.212 77.6665 158.407 76.8861 157.085 75.3252C155.775 73.7529 155.12 71.6053 155.12 68.8823C155.12 66.2961 155.792 64.2111 157.136 62.6274C158.481 61.0324 160.235 60.2349 162.4 60.2349C163.722 60.2349 164.85 60.514 165.784 61.0723C166.729 61.6191 167.419 62.411 167.852 63.4478V60.7988H171.56V77ZM167.954 68.8481C167.954 67.1733 167.561 65.8688 166.775 64.9346C166 64.0003 164.912 63.5332 163.511 63.5332C162.109 63.5332 161.004 64.0174 160.195 64.9858C159.398 65.9429 158.999 67.2759 158.999 68.9849C158.999 70.7052 159.386 72.0326 160.161 72.9668C160.936 73.901 162.03 74.3682 163.442 74.3682C164.775 74.3682 165.858 73.8612 166.69 72.8472C167.533 71.8332 167.954 70.5002 167.954 68.8481ZM175.458 77V50.5107H179.167V77H175.458ZM193.115 77V64.0459H190.278V60.7988H193.115V54.6636H196.823V60.7988H199.66V64.0459H196.823V77H193.115ZM214.205 68.9507C214.205 67.4468 213.721 66.1764 212.752 65.1396C211.784 64.0915 210.599 63.5674 209.197 63.5674C207.807 63.5674 206.623 64.0915 205.643 65.1396C204.674 66.1764 204.19 67.4468 204.19 68.9507C204.19 70.4546 204.674 71.7306 205.643 72.7788C206.623 73.8156 207.807 74.334 209.197 74.334C210.587 74.334 211.767 73.8156 212.735 72.7788C213.715 71.7306 214.205 70.4546 214.205 68.9507ZM200.277 68.9165C200.277 67.7316 200.499 66.6151 200.943 65.5669C201.399 64.5073 202.048 63.5674 202.891 62.7471C203.723 61.9382 204.68 61.3172 205.762 60.8843C206.845 60.4513 207.978 60.2349 209.163 60.2349C210.382 60.2349 211.527 60.4513 212.598 60.8843C213.681 61.3172 214.649 61.9552 215.504 62.7983C216.358 63.63 217.008 64.57 217.452 65.6182C217.896 66.6663 218.118 67.7658 218.118 68.9165C218.118 70.1128 217.896 71.235 217.452 72.2832C217.019 73.3314 216.381 74.2599 215.538 75.0688C214.649 75.9233 213.664 76.5671 212.581 77C211.499 77.4443 210.36 77.6665 209.163 77.6665C207.99 77.6665 206.862 77.4443 205.779 77C204.697 76.5671 203.734 75.9347 202.891 75.103C202.037 74.2599 201.387 73.3143 200.943 72.2661C200.499 71.2179 200.277 70.1014 200.277 68.9165ZM250.199 58.0645C249.048 57.0846 247.829 56.3498 246.542 55.8599C245.265 55.37 243.921 55.125 242.508 55.125C239.774 55.125 237.547 56.0023 235.826 57.7568C234.117 59.5114 233.263 61.7843 233.263 64.5757C233.263 67.2759 234.094 69.5033 235.758 71.2578C237.433 73.0124 239.54 73.8896 242.081 73.8896C243.562 73.8896 244.969 73.6276 246.302 73.1035C247.647 72.5794 248.934 71.7876 250.165 70.728V75.3252C249.071 76.1113 247.88 76.6981 246.593 77.0854C245.305 77.4728 243.91 77.6665 242.406 77.6665C240.492 77.6665 238.72 77.3532 237.091 76.7266C235.473 76.0999 234.049 75.1771 232.818 73.958C231.599 72.7617 230.659 71.3547 229.999 69.7368C229.349 68.1076 229.024 66.3758 229.024 64.5415C229.024 62.7072 229.349 60.9868 229.999 59.3804C230.659 57.7625 231.611 56.3441 232.853 55.125C234.094 53.8945 235.519 52.966 237.125 52.3394C238.731 51.7013 240.469 51.3823 242.337 51.3823C243.807 51.3823 245.208 51.5988 246.542 52.0317C247.875 52.4533 249.168 53.097 250.421 53.9629L250.199 58.0645ZM266.265 68.9507C266.265 67.4468 265.78 66.1764 264.812 65.1396C263.843 64.0915 262.659 63.5674 261.257 63.5674C259.867 63.5674 258.682 64.0915 257.703 65.1396C256.734 66.1764 256.25 67.4468 256.25 68.9507C256.25 70.4546 256.734 71.7306 257.703 72.7788C258.682 73.8156 259.867 74.334 261.257 74.334C262.647 74.334 263.826 73.8156 264.795 72.7788C265.775 71.7306 266.265 70.4546 266.265 68.9507ZM252.336 68.9165C252.336 67.7316 252.559 66.6151 253.003 65.5669C253.459 64.5073 254.108 63.5674 254.951 62.7471C255.783 61.9382 256.74 61.3172 257.822 60.8843C258.905 60.4513 260.038 60.2349 261.223 60.2349C262.442 60.2349 263.587 60.4513 264.658 60.8843C265.74 61.3172 266.709 61.9552 267.563 62.7983C268.418 63.63 269.067 64.57 269.512 65.6182C269.956 66.6663 270.178 67.7658 270.178 68.9165C270.178 70.1128 269.956 71.235 269.512 72.2832C269.079 73.3314 268.441 74.2599 267.598 75.0688C266.709 75.9233 265.723 76.5671 264.641 77C263.559 77.4443 262.419 77.6665 261.223 77.6665C260.05 77.6665 258.922 77.4443 257.839 77C256.757 76.5671 255.794 75.9347 254.951 75.103C254.097 74.2599 253.447 73.3143 253.003 72.2661C252.559 71.2179 252.336 70.1014 252.336 68.9165ZM270.846 74.0605L273.922 72.3857C274.15 73.1947 274.572 73.8099 275.187 74.2314C275.802 74.653 276.594 74.8638 277.562 74.8638C278.394 74.8638 279.043 74.6758 279.511 74.2998C279.989 73.9124 280.228 73.3883 280.228 72.7275C280.228 71.8503 279.385 71.0983 277.699 70.4717C277.129 70.2666 276.691 70.0957 276.383 69.959C274.651 69.2412 273.438 68.512 272.743 67.7715C272.059 67.0309 271.718 66.1309 271.718 65.0713C271.718 63.6243 272.282 62.4508 273.409 61.5508C274.549 60.6507 276.053 60.2007 277.921 60.2007C279.174 60.2007 280.245 60.4342 281.134 60.9014C282.034 61.3571 282.689 62.0122 283.099 62.8667L280.468 64.6782C280.274 64.1655 279.932 63.7611 279.442 63.4648C278.964 63.1572 278.405 63.0034 277.767 63.0034C277.061 63.0034 276.491 63.1743 276.058 63.5161C275.637 63.8465 275.426 64.2909 275.426 64.8491C275.426 65.6922 276.383 66.4613 278.297 67.1562C278.901 67.3727 279.368 67.5493 279.699 67.686C281.191 68.2785 282.256 68.9507 282.894 69.7026C283.544 70.4432 283.868 71.3717 283.868 72.4883C283.868 74.1061 283.282 75.3765 282.108 76.2993C280.935 77.2108 279.317 77.6665 277.255 77.6665C275.671 77.6665 274.355 77.3703 273.307 76.7778C272.259 76.1854 271.438 75.2796 270.846 74.0605ZM288.997 84.6221H285.186L289.629 75.5986L283.682 60.7988H287.783L290.757 69.1899C290.928 69.7026 291.076 70.2267 291.201 70.7622C291.338 71.2863 291.446 71.8218 291.526 72.3687C291.674 71.799 292.027 70.8932 292.586 69.6514L292.671 69.4463L296.67 60.7988H300.686L288.997 84.6221ZM298.756 75.103C298.756 74.4764 298.973 73.9409 299.406 73.4966C299.839 73.0522 300.369 72.8301 300.995 72.8301C301.622 72.8301 302.152 73.0522 302.585 73.4966C303.018 73.9409 303.234 74.4764 303.234 75.103C303.234 75.7183 303.018 76.2424 302.585 76.6753C302.152 77.0968 301.622 77.3076 300.995 77.3076C300.369 77.3076 299.839 77.0968 299.406 76.6753C298.973 76.2424 298.756 75.7183 298.756 75.103Z" fill="white"/>
</svg>
