<svg width="495" height="85" viewBox="0 0 495 85" fill="none" xmlns="http://www.w3.org/2000/svg">
<path d="M2.77344 35V2.11719H8.11914V30.2158H20.0684V35H2.77344ZM42.2166 35H37.3426V32.2373C36.4741 33.4652 35.4559 34.3786 34.2879 34.9775C33.1349 35.5765 31.8097 35.876 30.3123 35.876C27.3026 35.876 24.9292 34.8503 23.1922 32.7988C21.4702 30.7324 20.6092 27.9098 20.6092 24.3311C20.6092 20.932 21.4927 18.1917 23.2596 16.1104C25.0265 14.014 27.3325 12.9658 30.1776 12.9658C31.9146 12.9658 33.397 13.3327 34.6248 14.0664C35.8677 14.7852 36.7736 15.8258 37.3426 17.1885V13.707H42.2166V35ZM37.4774 24.2861C37.4774 22.085 36.9608 20.3704 35.9276 19.1426C34.9093 17.9147 33.4793 17.3008 31.6375 17.3008C29.7957 17.3008 28.3433 17.9372 27.2801 19.21C26.2319 20.4678 25.7079 22.2197 25.7079 24.4658C25.7079 26.7269 26.217 28.4714 27.2352 29.6992C28.2534 30.9271 29.6909 31.541 31.5477 31.541C33.2996 31.541 34.7222 30.8747 35.8153 29.542C36.9233 28.2093 37.4774 26.4574 37.4774 24.2861ZM47.1149 35V13.707H51.697V17.1885C52.6703 15.721 53.8158 14.6504 55.1335 13.9766C56.4512 13.3027 58.0534 12.9658 59.9401 12.9658C61.5274 12.9658 62.875 13.2204 63.9831 13.7295C65.1061 14.2236 65.9821 14.9648 66.611 15.9531C66.9854 16.5371 67.2549 17.2184 67.4196 17.9971C67.5843 18.7757 67.6667 20.1383 67.6667 22.085V35H62.7477V24.0615C62.7477 21.2614 62.4033 19.4046 61.7145 18.4912C61.0407 17.5628 59.8353 17.0986 58.0983 17.0986C56.9603 17.0986 55.9421 17.3083 55.0436 17.7275C54.1602 18.1468 53.4639 18.7383 52.9548 19.502C52.5954 20.0111 52.3408 20.6699 52.1911 21.4785C52.0563 22.2721 51.9889 23.5449 51.9889 25.2969V35H47.1149ZM87.6138 24.2861C87.6138 22.085 87.0972 20.3704 86.064 19.1426C85.0458 17.9147 83.6157 17.3008 81.7739 17.3008C79.9322 17.3008 78.4797 17.9372 77.4165 19.21C76.3683 20.4678 75.8443 22.2197 75.8443 24.4658C75.8443 26.7269 76.3534 28.4714 77.3716 29.6992C78.3898 30.9271 79.8273 31.541 81.6841 31.541C83.451 31.541 84.881 30.8822 85.9741 29.5645C87.0672 28.2318 87.6138 26.4723 87.6138 24.2861ZM87.479 0.185547H92.3531V35H87.479V32.2373C86.6105 33.4652 85.5923 34.3786 84.4243 34.9775C83.2713 35.5765 81.9461 35.876 80.4488 35.876C77.439 35.876 75.0656 34.8503 73.3286 32.7988C71.6066 30.7324 70.7456 27.9098 70.7456 24.3311C70.7456 20.932 71.6291 18.1917 73.396 16.1104C75.1629 14.014 77.4689 12.9658 80.314 12.9658C82.051 12.9658 83.5334 13.3327 84.7613 14.0664C86.0041 14.7852 86.91 15.8258 87.479 17.1885V0.185547ZM94.8031 31.1367L98.8461 28.9355C99.1455 29.9987 99.6996 30.8073 100.508 31.3613C101.317 31.9154 102.357 32.1924 103.63 32.1924C104.723 32.1924 105.577 31.9453 106.191 31.4512C106.82 30.9421 107.134 30.2533 107.134 29.3848C107.134 28.2318 106.026 27.2435 103.81 26.4199C103.061 26.1504 102.485 25.9258 102.08 25.7461C99.8044 24.8027 98.2097 23.8444 97.2962 22.8711C96.3978 21.8978 95.9486 20.7148 95.9486 19.3223C95.9486 17.4206 96.6898 15.8783 98.1722 14.6953C99.6696 13.5124 101.646 12.9209 104.102 12.9209C105.749 12.9209 107.157 13.2279 108.325 13.8418C109.508 14.4408 110.369 15.3018 110.908 16.4248L107.449 18.8057C107.194 18.1318 106.745 17.6003 106.101 17.2109C105.472 16.8066 104.738 16.6045 103.9 16.6045C102.971 16.6045 102.223 16.8291 101.654 17.2783C101.1 17.7126 100.823 18.2965 100.823 19.0303C100.823 20.1383 102.08 21.1491 104.596 22.0625C105.39 22.347 106.004 22.5791 106.438 22.7588C108.399 23.5374 109.8 24.4209 110.638 25.4092C111.492 26.3825 111.918 27.6029 111.918 29.0703C111.918 31.1966 111.147 32.8662 109.605 34.0791C108.063 35.277 105.936 35.876 103.226 35.876C101.145 35.876 99.4151 35.4867 98.0375 34.708C96.6599 33.9294 95.5817 32.7389 94.8031 31.1367ZM130.9 19.7715C130.151 18.9479 129.275 18.319 128.272 17.8848C127.283 17.4505 126.213 17.2334 125.06 17.2334C123.068 17.2334 121.474 17.8773 120.276 19.165C119.078 20.4528 118.479 22.1598 118.479 24.2861C118.479 26.5023 119.078 28.2467 120.276 29.5195C121.488 30.7773 123.158 31.4062 125.284 31.4062C126.467 31.4062 127.523 31.1891 128.451 30.7549C129.38 30.3057 130.196 29.6318 130.9 28.7334V34.3486C130.001 34.8577 129.035 35.2396 128.002 35.4941C126.984 35.7487 125.898 35.876 124.745 35.876C121.406 35.876 118.681 34.8128 116.57 32.6865C114.473 30.5602 113.425 27.805 113.425 24.4209C113.425 20.9919 114.511 18.2292 116.682 16.1328C118.868 14.0215 121.721 12.9658 125.239 12.9658C126.348 12.9658 127.366 13.0781 128.294 13.3027C129.223 13.5124 130.091 13.8418 130.9 14.291V19.7715ZM154.081 35H149.207V32.2373C148.339 33.4652 147.32 34.3786 146.152 34.9775C144.999 35.5765 143.674 35.876 142.177 35.876C139.167 35.876 136.794 34.8503 135.057 32.7988C133.335 30.7324 132.474 27.9098 132.474 24.3311C132.474 20.932 133.357 18.1917 135.124 16.1104C136.891 14.014 139.197 12.9658 142.042 12.9658C143.779 12.9658 145.261 13.3327 146.489 14.0664C147.732 14.7852 148.638 15.8258 149.207 17.1885V13.707H154.081V35ZM149.342 24.2861C149.342 22.085 148.825 20.3704 147.792 19.1426C146.774 17.9147 145.344 17.3008 143.502 17.3008C141.66 17.3008 140.208 17.9372 139.145 19.21C138.096 20.4678 137.572 22.2197 137.572 24.4658C137.572 26.7269 138.081 28.4714 139.1 29.6992C140.118 30.9271 141.555 31.541 143.412 31.541C145.164 31.541 146.587 30.8747 147.68 29.542C148.788 28.2093 149.342 26.4574 149.342 24.2861ZM163.696 24.2861C163.696 26.4873 164.243 28.2467 165.336 29.5645C166.444 30.8822 167.896 31.541 169.693 31.541C171.535 31.541 172.958 30.9271 173.961 29.6992C174.979 28.4714 175.488 26.7269 175.488 24.4658C175.488 22.2197 174.957 20.4678 173.893 19.21C172.845 17.9372 171.4 17.3008 169.558 17.3008C167.717 17.3008 166.279 17.9147 165.246 19.1426C164.213 20.3704 163.696 22.085 163.696 24.2861ZM158.979 45.0176V13.707H163.853V17.1885C164.422 15.8408 165.328 14.8001 166.571 14.0664C167.829 13.3327 169.326 12.9658 171.063 12.9658C173.893 12.9658 176.184 14.014 177.936 16.1104C179.703 18.1917 180.587 20.932 180.587 24.3311C180.587 27.9098 179.718 30.7324 177.981 32.7988C176.259 34.8503 173.893 35.876 170.884 35.876C169.386 35.876 168.054 35.5765 166.886 34.9775C165.733 34.3786 164.722 33.4652 163.853 32.2373V45.0176H158.979ZM204.42 25.0723H187.394C187.514 27.0638 188.106 28.6211 189.169 29.7441C190.232 30.8522 191.647 31.4062 193.414 31.4062C194.986 31.4062 196.296 31.0768 197.344 30.418C198.393 29.7591 199.306 28.696 200.085 27.2285L204.195 29.5195C202.997 31.6608 201.515 33.2555 199.748 34.3037C197.981 35.3519 195.907 35.876 193.526 35.876C190.112 35.876 187.394 34.8353 185.373 32.7539C183.351 30.6725 182.341 27.8949 182.341 24.4209C182.341 21.0817 183.381 18.3415 185.463 16.2002C187.559 14.0439 190.247 12.9658 193.526 12.9658C196.955 12.9658 199.628 13.9466 201.545 15.9082C203.461 17.8698 204.42 20.6175 204.42 24.1514V25.0723ZM199.366 21.793C199.171 20.2656 198.587 19.1051 197.614 18.3115C196.641 17.5029 195.308 17.0986 193.616 17.0986C192.014 17.0986 190.726 17.488 189.753 18.2666C188.779 19.0452 188.098 20.2207 187.709 21.793H199.366ZM222.974 24.2861C222.974 22.085 222.458 20.3704 221.424 19.1426C220.406 17.9147 218.976 17.3008 217.134 17.3008C215.293 17.3008 213.84 17.9372 212.777 19.21C211.729 20.4678 211.205 22.2197 211.205 24.4658C211.205 26.7269 211.714 28.4714 212.732 29.6992C213.75 30.9271 215.188 31.541 217.044 31.541C218.811 31.541 220.241 30.8822 221.335 29.5645C222.428 28.2318 222.974 26.4723 222.974 24.2861ZM222.839 0.185547H227.713V35H222.839V32.2373C221.971 33.4652 220.953 34.3786 219.785 34.9775C218.632 35.5765 217.307 35.876 215.809 35.876C212.799 35.876 210.426 34.8503 208.689 32.7988C206.967 30.7324 206.106 27.9098 206.106 24.3311C206.106 20.932 206.989 18.1917 208.756 16.1104C210.523 14.014 212.829 12.9658 215.674 12.9658C217.411 12.9658 218.894 13.3327 220.122 14.0664C221.364 14.7852 222.27 15.8258 222.839 17.1885V0.185547ZM241.149 2.11719H246.427L252.649 18.7158C253.053 19.8089 253.39 20.7673 253.659 21.5908C253.944 22.4144 254.191 23.1855 254.401 23.9043C254.925 22.1673 255.471 20.4678 256.04 18.8057C256.115 18.596 256.168 18.4538 256.197 18.3789L262.801 0.814453L269.764 18.7158C270.093 19.5843 270.4 20.4528 270.685 21.3213C270.984 22.1898 271.261 23.0658 271.516 23.9492C271.666 23.2754 271.868 22.5342 272.122 21.7256C272.377 20.917 272.706 19.9587 273.111 18.8506L279.287 2.11719H284.611L271.875 36.2803L264.373 17.5254C264.044 16.6868 263.744 15.8857 263.475 15.1221C263.205 14.3434 262.966 13.6097 262.756 12.9209C262.502 13.8044 262.247 14.6354 261.992 15.4141C261.738 16.1777 261.476 16.9115 261.206 17.6152L253.839 36.2803L241.149 2.11719ZM303.547 35H298.673V32.2373C297.804 33.4652 296.786 34.3786 295.618 34.9775C294.465 35.5765 293.14 35.876 291.643 35.876C288.633 35.876 286.26 34.8503 284.523 32.7988C282.801 30.7324 281.94 27.9098 281.94 24.3311C281.94 20.932 282.823 18.1917 284.59 16.1104C286.357 14.014 288.663 12.9658 291.508 12.9658C293.245 12.9658 294.727 13.3327 295.955 14.0664C297.198 14.7852 298.104 15.8258 298.673 17.1885V13.707H303.547V35ZM298.808 24.2861C298.808 22.085 298.291 20.3704 297.258 19.1426C296.24 17.9147 294.81 17.3008 292.968 17.3008C291.126 17.3008 289.674 17.9372 288.61 19.21C287.562 20.4678 287.038 22.2197 287.038 24.4658C287.038 26.7269 287.547 28.4714 288.566 29.6992C289.584 30.9271 291.021 31.541 292.878 31.541C294.63 31.541 296.053 30.8747 297.146 29.542C298.254 28.2093 298.808 26.4574 298.808 24.2861ZM309.591 35V17.9746H305.862V13.707H309.591V5.64355H314.465V13.707H318.193V17.9746H314.465V35H309.591ZM341.083 25.0723H324.057C324.177 27.0638 324.769 28.6211 325.832 29.7441C326.895 30.8522 328.31 31.4062 330.077 31.4062C331.649 31.4062 332.959 31.0768 334.008 30.418C335.056 29.7591 335.969 28.696 336.748 27.2285L340.858 29.5195C339.66 31.6608 338.178 33.2555 336.411 34.3037C334.644 35.3519 332.57 35.876 330.189 35.876C326.775 35.876 324.057 34.8353 322.036 32.7539C320.014 30.6725 319.004 27.8949 319.004 24.4209C319.004 21.0817 320.044 18.3415 322.126 16.2002C324.222 14.0439 326.91 12.9658 330.189 12.9658C333.618 12.9658 336.291 13.9466 338.208 15.9082C340.124 17.8698 341.083 20.6175 341.083 24.1514V25.0723ZM336.029 21.793C335.834 20.2656 335.25 19.1051 334.277 18.3115C333.304 17.5029 331.971 17.0986 330.279 17.0986C328.677 17.0986 327.389 17.488 326.416 18.2666C325.442 19.0452 324.761 20.2207 324.372 21.793H336.029ZM349.215 17.0986C349.74 15.6911 350.428 14.6504 351.282 13.9766C352.15 13.3027 353.221 12.9658 354.494 12.9658C355.183 12.9658 355.856 13.0482 356.515 13.2129C357.189 13.3776 357.848 13.6172 358.492 13.9316L356.74 18.0645C356.321 17.765 355.864 17.5479 355.37 17.4131C354.891 17.2633 354.351 17.1885 353.753 17.1885C352.135 17.1885 350.975 17.8398 350.271 19.1426C349.567 20.4303 349.215 22.6016 349.215 25.6562V35H344.341V13.6621H349.215V17.0986ZM364.154 24.2861C364.154 26.4574 364.708 28.2093 365.816 29.542C366.939 30.8747 368.384 31.541 370.151 31.541C371.993 31.541 373.415 30.9271 374.418 29.6992C375.437 28.4714 375.946 26.7269 375.946 24.4658C375.946 22.2197 375.414 20.4678 374.351 19.21C373.303 17.9372 371.858 17.3008 370.016 17.3008C368.174 17.3008 366.737 17.9147 365.704 19.1426C364.67 20.3704 364.154 22.085 364.154 24.2861ZM364.311 0.185547V17.1885C364.88 15.8408 365.786 14.8001 367.029 14.0664C368.287 13.3327 369.784 12.9658 371.521 12.9658C374.351 12.9658 376.642 14.014 378.394 16.1104C380.161 18.1917 381.044 20.932 381.044 24.3311C381.044 27.9098 380.176 30.7324 378.439 32.7988C376.717 34.8503 374.351 35.876 371.341 35.876C369.844 35.876 368.511 35.5765 367.343 34.9775C366.19 34.3786 365.179 33.4652 364.311 32.2373V35H359.437V0.185547H364.311ZM401.104 24.4209C401.104 22.4443 400.467 20.7747 399.195 19.4121C397.922 18.0345 396.365 17.3457 394.523 17.3457C392.696 17.3457 391.139 18.0345 389.851 19.4121C388.578 20.7747 387.942 22.4443 387.942 24.4209C387.942 26.3975 388.578 28.0745 389.851 29.4521C391.139 30.8148 392.696 31.4961 394.523 31.4961C396.35 31.4961 397.899 30.8148 399.172 29.4521C400.46 28.0745 401.104 26.3975 401.104 24.4209ZM382.798 24.376C382.798 22.8187 383.09 21.3512 383.674 19.9736C384.273 18.5811 385.127 17.3457 386.235 16.2676C387.328 15.2044 388.586 14.3883 390.008 13.8193C391.431 13.2503 392.921 12.9658 394.478 12.9658C396.08 12.9658 397.585 13.2503 398.992 13.8193C400.415 14.3883 401.688 15.2269 402.811 16.335C403.934 17.4281 404.787 18.6634 405.371 20.041C405.955 21.4186 406.247 22.8636 406.247 24.376C406.247 25.9482 405.955 27.4232 405.371 28.8008C404.802 30.1784 403.964 31.3988 402.856 32.4619C401.688 33.585 400.393 34.431 398.97 35C397.547 35.584 396.05 35.876 394.478 35.876C392.935 35.876 391.453 35.584 390.031 35C388.608 34.431 387.343 33.5999 386.235 32.5068C385.112 31.3988 384.258 30.1559 383.674 28.7783C383.09 27.4007 382.798 25.9333 382.798 24.376ZM424.869 24.2861C424.869 22.085 424.353 20.3704 423.319 19.1426C422.301 17.9147 420.871 17.3008 419.029 17.3008C417.188 17.3008 415.735 17.9372 414.672 19.21C413.624 20.4678 413.1 22.2197 413.1 24.4658C413.1 26.7269 413.609 28.4714 414.627 29.6992C415.645 30.9271 417.083 31.541 418.94 31.541C420.707 31.541 422.137 30.8822 423.23 29.5645C424.323 28.2318 424.869 26.4723 424.869 24.2861ZM424.734 0.185547H429.609V35H424.734V32.2373C423.866 33.4652 422.848 34.3786 421.68 34.9775C420.527 35.5765 419.202 35.876 417.704 35.876C414.694 35.876 412.321 34.8503 410.584 32.7988C408.862 30.7324 408.001 27.9098 408.001 24.3311C408.001 20.932 408.885 18.1917 410.651 16.1104C412.418 14.014 414.724 12.9658 417.569 12.9658C419.306 12.9658 420.789 13.3327 422.017 14.0664C423.26 14.7852 424.165 15.8258 424.734 17.1885V0.185547ZM434.08 4.49805C434.08 3.67448 434.38 2.96322 434.978 2.36426C435.592 1.7653 436.319 1.46582 437.157 1.46582C438.026 1.46582 438.744 1.75781 439.313 2.3418C439.897 2.91081 440.189 3.62956 440.189 4.49805C440.189 5.36654 439.897 6.10026 439.313 6.69922C438.729 7.2832 438.011 7.5752 437.157 7.5752C436.319 7.5752 435.592 7.27572 434.978 6.67676C434.38 6.06283 434.08 5.33659 434.08 4.49805ZM434.731 35V13.707H439.605V35H434.731ZM465.258 25.0723H448.232C448.352 27.0638 448.944 28.6211 450.007 29.7441C451.07 30.8522 452.485 31.4062 454.252 31.4062C455.824 31.4062 457.134 31.0768 458.182 30.418C459.231 29.7591 460.144 28.696 460.923 27.2285L465.033 29.5195C463.835 31.6608 462.353 33.2555 460.586 34.3037C458.819 35.3519 456.745 35.876 454.364 35.876C450.95 35.876 448.232 34.8353 446.211 32.7539C444.189 30.6725 443.179 27.8949 443.179 24.4209C443.179 21.0817 444.219 18.3415 446.301 16.2002C448.397 14.0439 451.085 12.9658 454.364 12.9658C457.793 12.9658 460.466 13.9466 462.383 15.9082C464.299 17.8698 465.258 20.6175 465.258 24.1514V25.0723ZM460.204 21.793C460.009 20.2656 459.425 19.1051 458.452 18.3115C457.479 17.5029 456.146 17.0986 454.454 17.0986C452.852 17.0986 451.564 17.488 450.591 18.2666C449.617 19.0452 448.936 20.2207 448.547 21.793H460.204ZM466.068 31.1367L470.111 28.9355C470.41 29.9987 470.964 30.8073 471.773 31.3613C472.582 31.9154 473.622 32.1924 474.895 32.1924C475.988 32.1924 476.842 31.9453 477.456 31.4512C478.085 30.9421 478.399 30.2533 478.399 29.3848C478.399 28.2318 477.291 27.2435 475.075 26.4199C474.326 26.1504 473.75 25.9258 473.345 25.7461C471.069 24.8027 469.475 23.8444 468.561 22.8711C467.663 21.8978 467.214 20.7148 467.214 19.3223C467.214 17.4206 467.955 15.8783 469.437 14.6953C470.935 13.5124 472.911 12.9209 475.367 12.9209C477.014 12.9209 478.422 13.2279 479.589 13.8418C480.772 14.4408 481.633 15.3018 482.172 16.4248L478.714 18.8057C478.459 18.1318 478.01 17.6003 477.366 17.2109C476.737 16.8066 476.003 16.6045 475.165 16.6045C474.236 16.6045 473.488 16.8291 472.919 17.2783C472.365 17.7126 472.088 18.2965 472.088 19.0303C472.088 20.1383 473.345 21.1491 475.861 22.0625C476.655 22.347 477.269 22.5791 477.703 22.7588C479.664 23.5374 481.064 24.4209 481.903 25.4092C482.756 26.3825 483.183 27.6029 483.183 29.0703C483.183 31.1966 482.412 32.8662 480.87 34.0791C479.327 35.277 477.201 35.876 474.491 35.876C472.409 35.876 470.68 35.4867 469.302 34.708C467.925 33.9294 466.847 32.7389 466.068 31.1367ZM489.833 29.4297L494.213 31.0469L488.374 43.0859L485.476 41.9404L489.833 29.4297ZM16.8076 77H13.0991V74.8979C12.4383 75.8322 11.6636 76.5272 10.7749 76.9829C9.89762 77.4386 8.88932 77.6665 7.75 77.6665C5.45996 77.6665 3.65413 76.8861 2.33252 75.3252C1.0223 73.7529 0.367188 71.6053 0.367188 68.8823C0.367188 66.2961 1.03939 64.2111 2.38379 62.6274C3.72819 61.0324 5.48275 60.2349 7.64746 60.2349C8.96908 60.2349 10.097 60.514 11.0312 61.0723C11.9769 61.6191 12.6662 62.411 13.0991 63.4478V60.7988H16.8076V77ZM13.2017 68.8481C13.2017 67.1733 12.8086 65.8688 12.0225 64.9346C11.2477 64.0003 10.1597 63.5332 8.7583 63.5332C7.35693 63.5332 6.25179 64.0174 5.44287 64.9858C4.64535 65.9429 4.24658 67.2759 4.24658 68.9849C4.24658 70.7052 4.63395 72.0326 5.40869 72.9668C6.18343 73.901 7.27718 74.3682 8.68994 74.3682C10.0229 74.3682 11.1053 73.8612 11.937 72.8472C12.7801 71.8332 13.2017 70.5002 13.2017 68.8481ZM43.8636 64.1826H53.7757C53.7757 64.3535 53.7814 64.5928 53.7928 64.9004C53.827 65.7093 53.844 66.2562 53.844 66.541C53.844 70.0615 52.8357 72.7959 50.8191 74.7441C48.8025 76.6924 45.9599 77.6665 42.2913 77.6665C40.2405 77.6665 38.4119 77.3646 36.8055 76.7607C35.199 76.1569 33.792 75.2454 32.5843 74.0264C31.3994 72.8187 30.4879 71.4002 29.8499 69.771C29.2233 68.1418 28.91 66.3986 28.91 64.5415C28.91 62.6502 29.229 60.9071 29.867 59.312C30.5164 57.717 31.4734 56.3099 32.7381 55.0908C33.9572 53.8945 35.387 52.9831 37.0276 52.3564C38.6683 51.7298 40.4228 51.4165 42.2913 51.4165C44.2623 51.4165 46.0226 51.7754 47.5721 52.4932C49.1329 53.2109 50.5229 54.3104 51.742 55.7915L48.7684 58.0303C47.9253 57.0505 46.9739 56.3213 45.9144 55.8428C44.8548 55.3643 43.6699 55.125 42.3597 55.125C39.6481 55.125 37.4321 55.9966 35.7117 57.7397C34.0027 59.4715 33.1482 61.7274 33.1482 64.5073C33.1482 67.3328 34.0027 69.6286 35.7117 71.3945C37.4321 73.1491 39.6595 74.0264 42.3938 74.0264C44.7181 74.0264 46.5467 73.4852 47.8797 72.4028C49.2127 71.3205 49.8792 69.8451 49.8792 67.9766V67.6177H43.8636V64.1826ZM71.6701 77H67.9616V74.8979C67.3008 75.8322 66.5261 76.5272 65.6374 76.9829C64.7601 77.4386 63.7518 77.6665 62.6125 77.6665C60.3225 77.6665 58.5166 76.8861 57.195 75.3252C55.8848 73.7529 55.2297 71.6053 55.2297 68.8823C55.2297 66.2961 55.9019 64.2111 57.2463 62.6274C58.5907 61.0324 60.3452 60.2349 62.51 60.2349C63.8316 60.2349 64.9595 60.514 65.8937 61.0723C66.8394 61.6191 67.5287 62.411 67.9616 63.4478V60.7988H71.6701V77ZM68.0642 68.8481C68.0642 67.1733 67.6711 65.8688 66.885 64.9346C66.1102 64.0003 65.0222 63.5332 63.6208 63.5332C62.2194 63.5332 61.1143 64.0174 60.3054 64.9858C59.5078 65.9429 59.1091 67.2759 59.1091 68.9849C59.1091 70.7052 59.4965 72.0326 60.2712 72.9668C61.0459 73.901 62.1397 74.3682 63.5524 74.3682C64.8854 74.3682 65.9678 73.8612 66.7995 72.8472C67.6426 71.8332 68.0642 70.5002 68.0642 68.8481ZM76.2687 77V64.0459H73.4317V60.7988H76.2687V54.6636H79.9771V60.7988H82.8141V64.0459H79.9771V77H76.2687ZM100.23 69.4463H87.2759C87.367 70.9616 87.8171 72.1465 88.626 73.001C89.4349 73.8441 90.5116 74.2656 91.856 74.2656C93.0522 74.2656 94.0492 74.015 94.8467 73.5137C95.6442 73.0124 96.3392 72.2035 96.9316 71.0869L100.059 72.8301C99.1476 74.4593 98.0197 75.6727 96.6753 76.4702C95.3309 77.2677 93.7529 77.6665 91.9414 77.6665C89.3438 77.6665 87.2759 76.8747 85.7378 75.291C84.1997 73.7074 83.4307 71.5939 83.4307 68.9507C83.4307 66.41 84.2225 64.325 85.8062 62.6958C87.4012 61.0552 89.4463 60.2349 91.9414 60.2349C94.5505 60.2349 96.5841 60.9811 98.0425 62.4736C99.5008 63.9661 100.23 66.0568 100.23 68.7456V69.4463ZM96.3848 66.9512C96.2367 65.7891 95.7923 64.9061 95.0518 64.3022C94.3112 63.687 93.2972 63.3794 92.0098 63.3794C90.7907 63.3794 89.8109 63.6756 89.0703 64.2681C88.3298 64.8605 87.8114 65.7549 87.5151 66.9512H96.3848ZM118.21 77.9741L114.467 69.5488C114.182 68.8994 113.949 68.3241 113.767 67.8228C113.584 67.3101 113.419 66.8088 113.271 66.3188C113.02 67.0594 112.798 67.6974 112.604 68.2329C112.411 68.757 112.257 69.1501 112.143 69.4121L108.298 77.9741L99.9066 60.7988H103.854L107.495 68.6089C107.643 68.9393 107.785 69.395 107.922 69.9761C108.07 70.5457 108.195 71.1781 108.298 71.873C108.309 71.4629 108.378 71.0356 108.503 70.5913C108.628 70.147 108.839 69.6001 109.135 68.9507L113.1 60.2007H113.408L117.441 68.9507C117.691 69.4976 117.874 70.0046 117.988 70.4717C118.113 70.9388 118.187 71.4059 118.21 71.873C118.312 71.2578 118.443 70.6768 118.603 70.1299C118.762 69.583 118.945 69.0874 119.15 68.6431L122.722 60.7988H126.635L118.21 77.9741ZM142.804 77H139.095V74.8979C138.434 75.8322 137.659 76.5272 136.771 76.9829C135.894 77.4386 134.885 77.6665 133.746 77.6665C131.456 77.6665 129.65 76.8861 128.328 75.3252C127.018 73.7529 126.363 71.6053 126.363 68.8823C126.363 66.2961 127.035 64.2111 128.38 62.6274C129.724 61.0324 131.479 60.2349 133.643 60.2349C134.965 60.2349 136.093 60.514 137.027 61.0723C137.973 61.6191 138.662 62.411 139.095 63.4478V60.7988H142.804V77ZM139.198 68.8481C139.198 67.1733 138.804 65.8688 138.018 64.9346C137.244 64.0003 136.156 63.5332 134.754 63.5332C133.353 63.5332 132.248 64.0174 131.439 64.9858C130.641 65.9429 130.242 67.2759 130.242 68.9849C130.242 70.7052 130.63 72.0326 131.405 72.9668C132.179 73.901 133.273 74.3682 134.686 74.3682C136.019 74.3682 137.101 73.8612 137.933 72.8472C138.776 71.8332 139.198 70.5002 139.198 68.8481ZM149.316 84.6221H145.505L149.948 75.5986L144.001 60.7988H148.103L151.076 69.1899C151.247 69.7026 151.395 70.2267 151.521 70.7622C151.657 71.2863 151.766 71.8218 151.845 72.3687C151.994 71.799 152.347 70.8932 152.905 69.6514L152.99 69.4463L156.989 60.7988H161.006L149.316 84.6221ZM171.672 77V64.0459H168.835V60.7988H171.672V54.6636H175.381V60.7988H178.218V64.0459H175.381V77H171.672ZM192.763 68.9507C192.763 67.4468 192.278 66.1764 191.31 65.1396C190.342 64.0915 189.157 63.5674 187.755 63.5674C186.365 63.5674 185.18 64.0915 184.201 65.1396C183.232 66.1764 182.748 67.4468 182.748 68.9507C182.748 70.4546 183.232 71.7306 184.201 72.7788C185.18 73.8156 186.365 74.334 187.755 74.334C189.145 74.334 190.324 73.8156 191.293 72.7788C192.273 71.7306 192.763 70.4546 192.763 68.9507ZM178.834 68.9165C178.834 67.7316 179.057 66.6151 179.501 65.5669C179.957 64.5073 180.606 63.5674 181.449 62.7471C182.281 61.9382 183.238 61.3172 184.32 60.8843C185.403 60.4513 186.536 60.2349 187.721 60.2349C188.94 60.2349 190.085 60.4513 191.156 60.8843C192.239 61.3172 193.207 61.9552 194.061 62.7983C194.916 63.63 195.565 64.57 196.01 65.6182C196.454 66.6663 196.676 67.7658 196.676 68.9165C196.676 70.1128 196.454 71.235 196.01 72.2832C195.577 73.3314 194.939 74.2599 194.096 75.0688C193.207 75.9233 192.221 76.5671 191.139 77C190.057 77.4443 188.917 77.6665 187.721 77.6665C186.548 77.6665 185.42 77.4443 184.337 77C183.255 76.5671 182.292 75.9347 181.449 75.103C180.595 74.2599 179.945 73.3143 179.501 72.2661C179.057 71.2179 178.834 70.1014 178.834 68.9165ZM216.759 55.4326V77H212.692V55.4326H206.044V51.9805H223.373V55.4326H216.759ZM225.613 63.3794C226.012 62.3084 226.536 61.5166 227.186 61.0039C227.846 60.4912 228.661 60.2349 229.629 60.2349C230.154 60.2349 230.666 60.2975 231.168 60.4229C231.68 60.5482 232.182 60.7305 232.671 60.9697L231.338 64.1143C231.019 63.8864 230.672 63.7212 230.296 63.6187C229.931 63.5047 229.521 63.4478 229.066 63.4478C227.835 63.4478 226.952 63.9434 226.417 64.9346C225.881 65.9144 225.613 67.5664 225.613 69.8906V77H221.905V60.7646H225.613V63.3794ZM248.635 77H244.926V74.8979C244.265 75.8322 243.491 76.5272 242.602 76.9829C241.725 77.4386 240.716 77.6665 239.577 77.6665C237.287 77.6665 235.481 76.8861 234.16 75.3252C232.849 73.7529 232.194 71.6053 232.194 68.8823C232.194 66.2961 232.867 64.2111 234.211 62.6274C235.555 61.0324 237.31 60.2349 239.475 60.2349C240.796 60.2349 241.924 60.514 242.858 61.0723C243.804 61.6191 244.493 62.411 244.926 63.4478V60.7988H248.635V77ZM245.029 68.8481C245.029 67.1733 244.636 65.8688 243.85 64.9346C243.075 64.0003 241.987 63.5332 240.585 63.5332C239.184 63.5332 238.079 64.0174 237.27 64.9858C236.472 65.9429 236.074 67.2759 236.074 68.9849C236.074 70.7052 236.461 72.0326 237.236 72.9668C238.011 73.901 239.104 74.3682 240.517 74.3682C241.85 74.3682 242.932 73.8612 243.764 72.8472C244.607 71.8332 245.029 70.5002 245.029 68.8481ZM252.362 77V60.7988H255.848V63.4478C256.589 62.3312 257.46 61.5166 258.463 61.0039C259.465 60.4912 260.684 60.2349 262.12 60.2349C263.328 60.2349 264.353 60.4285 265.196 60.8159C266.051 61.1919 266.717 61.7559 267.196 62.5078C267.481 62.9521 267.686 63.4705 267.811 64.063C267.936 64.6554 267.999 65.6922 267.999 67.1733V77H264.256V68.6772C264.256 66.5467 263.994 65.134 263.47 64.439C262.957 63.7326 262.04 63.3794 260.719 63.3794C259.853 63.3794 259.078 63.5389 258.394 63.8579C257.722 64.1769 257.192 64.627 256.805 65.208C256.532 65.5954 256.338 66.0967 256.224 66.7119C256.121 67.3158 256.07 68.2842 256.07 69.6172V77H252.362ZM283.176 68.8481C283.176 67.1733 282.783 65.8688 281.997 64.9346C281.222 64.0003 280.134 63.5332 278.733 63.5332C277.331 63.5332 276.226 64.0174 275.417 64.9858C274.62 65.9429 274.221 67.2759 274.221 68.9849C274.221 70.7052 274.608 72.0326 275.383 72.9668C276.158 73.901 277.252 74.3682 278.664 74.3682C280.02 74.3682 281.108 73.8669 281.929 72.8643C282.76 71.8617 283.176 70.5229 283.176 68.8481ZM286.782 84.6221H283.074V74.8979C282.413 75.8322 281.638 76.5272 280.749 76.9829C279.872 77.4386 278.864 77.6665 277.724 77.6665C275.434 77.6665 273.629 76.8861 272.307 75.3252C270.997 73.7529 270.342 71.6053 270.342 68.8823C270.342 66.2961 271.014 64.2111 272.358 62.6274C273.703 61.0324 275.457 60.2349 277.622 60.2349C278.944 60.2349 280.071 60.514 281.006 61.0723C281.951 61.6191 282.641 62.411 283.074 63.4478V60.7988H286.782V84.6221ZM294.098 60.7988V69.9248C294.098 71.4971 294.423 72.625 295.072 73.3086C295.721 73.9922 296.775 74.334 298.234 74.334C299.692 74.334 300.746 73.9922 301.395 73.3086C302.045 72.625 302.369 71.4971 302.369 69.9248V60.7988H306.078V68.814C306.078 71.9129 305.457 74.1631 304.215 75.5645C302.973 76.9658 300.991 77.6665 298.268 77.6665C295.499 77.6665 293.494 76.9715 292.252 75.5815C291.01 74.1916 290.389 71.9357 290.389 68.814V60.7988H294.098ZM309.36 53.792C309.36 53.1654 309.588 52.6242 310.044 52.1685C310.511 51.7127 311.064 51.4849 311.702 51.4849C312.363 51.4849 312.909 51.707 313.342 52.1514C313.787 52.5843 314.009 53.1312 314.009 53.792C314.009 54.4528 313.787 55.0111 313.342 55.4668C312.898 55.9111 312.351 56.1333 311.702 56.1333C311.064 56.1333 310.511 55.9054 310.044 55.4497C309.588 54.9826 309.36 54.43 309.36 53.792ZM309.856 77V60.7988H313.565V77H309.856ZM317.65 77V50.5107H321.359V77H317.65ZM324.949 53.792C324.949 53.1654 325.177 52.6242 325.633 52.1685C326.1 51.7127 326.652 51.4849 327.29 51.4849C327.951 51.4849 328.498 51.707 328.931 52.1514C329.375 52.5843 329.598 53.1312 329.598 53.792C329.598 54.4528 329.375 55.0111 328.931 55.4668C328.487 55.9111 327.94 56.1333 327.29 56.1333C326.652 56.1333 326.1 55.9054 325.633 55.4497C325.177 54.9826 324.949 54.43 324.949 53.792ZM325.445 77V60.7988H329.153V77H325.445ZM333.94 77V64.0459H331.103V60.7988H333.94V54.6636H337.648V60.7988H340.485V64.0459H337.648V77H333.94ZM345.084 84.6221H341.273L345.716 75.5986L339.769 60.7988H343.87L346.844 69.1899C347.015 69.7026 347.163 70.2267 347.288 70.7622C347.425 71.2863 347.533 71.8218 347.613 72.3687C347.761 71.799 348.114 70.8932 348.673 69.6514L348.758 69.4463L352.757 60.7988H356.773L345.084 84.6221ZM354.843 75.103C354.843 74.4764 355.06 73.9409 355.493 73.4966C355.926 73.0522 356.455 72.8301 357.082 72.8301C357.709 72.8301 358.239 73.0522 358.671 73.4966C359.104 73.9409 359.321 74.4764 359.321 75.103C359.321 75.7183 359.104 76.2424 358.671 76.6753C358.239 77.0968 357.709 77.3076 357.082 77.3076C356.455 77.3076 355.926 77.0968 355.493 76.6753C355.06 76.2424 354.843 75.7183 354.843 75.103Z" fill="white"/>
</svg>
