<?xml version="1.0" encoding="UTF-8"?>
<!-- Generator: https://ezgif.com/png-to-svg -->
<svg version="1.1" xmlns="http://www.w3.org/2000/svg" width="1628" height="468">
<path d="M0 0 C11.42 -0.02 22.83 -0.04 34.25 -0.05 C39.55 -0.06 44.86 -0.06 50.16 -0.08 C90.8 -0.16 90.8 -0.16 106.16 0.39 C107.59 0.44 107.59 0.44 109.05 0.49 C129.11 1.38 150.86 5.02 168 16 C168.63 16.39 169.25 16.78 169.9 17.18 C174.55 20.48 176.01 24.61 177 30 C178.68 44.67 172.8 57.44 166 70 C164.12 67.18 163.29 65.11 162.3 61.91 C155.89 41.61 149.69 25.11 129.83 14.73 C110.26 5.34 85.23 7.55 65 7 C65 81.25 65 155.5 65 232 C96.12 232.52 96.12 232.52 126.56 226.31 C127.64 225.92 127.64 225.92 128.74 225.52 C157.38 214.66 175.93 189.09 188.15 162.02 C193.86 148.5 196.47 134.66 196 120 C195.9 120.95 195.8 121.91 195.7 122.89 C195.55 124.14 195.4 125.4 195.25 126.69 C195.11 127.93 194.97 129.17 194.83 130.45 C193.91 134.4 193.03 136.31 190 139 C186.26 139.71 184.64 139.41 181.44 137.35 C172.63 129.09 165.8 120.84 164.68 108.48 C164.32 96.85 167.9 88.24 172.65 77.72 C180.12 61.17 184.58 46.11 186 28 C206.19 41.37 220.73 65.93 225.71 89.36 C228.66 106.4 226.27 120.68 217.07 135.39 C214.41 138.74 211.32 141.32 208 144 C207.98 142.63 207.98 142.63 207.96 141.22 C207.89 137.74 207.82 134.26 207.74 130.78 C207.7 129.29 207.68 127.8 207.65 126.31 C207.44 113.11 206.58 100.15 201 88 C201.31 91.33 201.62 94.67 201.94 98 C202.02 98.93 202.11 99.87 202.2 100.83 C202.59 104.92 202.99 109 203.55 113.07 C206.93 142.66 199.11 171.37 181.56 195.44 C180.07 197.31 178.55 199.17 177 201 C176.16 202 175.32 203.01 174.45 204.04 C157.39 223.81 132.95 236.9 107 240 C101.58 240.25 96.16 240.21 90.73 240.16 C89.16 240.15 87.58 240.14 86.01 240.13 C81 240.1 76 240.05 71 240 C69.34 239.98 67.68 239.97 66.01 239.95 C55.26 239.84 44.51 239.69 33.76 239.54 C29.47 239.47 25.19 239.42 20.9 239.36 C12.6 239.24 4.3 239.12 -4 239 C-4 237.35 -4 235.7 -4 234 C6.06 231.67 15.48 231.55 26 231 C25.67 156.75 25.34 82.5 25 6 C24.01 6.5 24.01 6.5 23 7 C21.26 7.08 19.52 7.11 17.77 7.1 C16.74 7.09 15.71 7.09 14.65 7.09 C13.03 7.08 13.03 7.08 11.38 7.06 C9.74 7.06 9.74 7.06 8.08 7.05 C5.39 7.04 2.69 7.02 0 7 C0 4.69 0 2.38 0 0 Z " fill="#27A71D" transform="translate(1204,205)"/>
<path d="M0 0 C3.86 3.59 6.71 7.31 9.38 11.88 C9.76 12.53 10.15 13.18 10.54 13.86 C24.83 38.53 32.18 64.89 24.85 93.22 C20.84 107.17 11.36 118.51 -1 126 C-1.66 126 -2.32 126 -3 126 C-2.78 124.51 -2.78 124.51 -2.56 123 C-1.61 116.31 -0.72 109.77 -1 103 C-2.32 107.62 -3.64 112.24 -5 117 C-5.66 117 -6.32 117 -7 117 C-7.25 118.17 -7.5 119.34 -7.76 120.55 C-8.85 124.88 -10.55 128.4 -12.88 132.19 C-13.27 132.83 -13.66 133.47 -14.06 134.13 C-21.54 145.92 -31.04 154.79 -43 162 C-44 162.61 -44 162.61 -45.02 163.24 C-53.32 168.25 -61.72 172.56 -70.81 175.94 C-71.54 176.21 -72.27 176.48 -73.02 176.76 C-79.63 179.09 -86.05 180.4 -93 182 C-93.33 213.68 -93.66 245.36 -94 278 C-83.77 278 -73.54 278 -63 278 C-63 280.31 -63 282.62 -63 285 C-83.5 285.1 -103.99 284.83 -124.48 284.54 C-128.84 284.47 -133.2 284.42 -137.56 284.36 C-146.04 284.24 -154.52 284.12 -163 284 C-163 282.35 -163 280.7 -163 279 C-153.07 277.76 -143.01 278 -133 278 C-133.33 204.08 -133.66 130.16 -134 54 C-140.6 53.67 -147.2 53.34 -154 53 C-156.97 52.01 -159.94 51.02 -163 50 C-162.67 49.34 -162.34 48.68 -162 48 C-151.54 46.11 -140.28 46.84 -129.68 46.83 C-127.84 46.83 -126.01 46.83 -124.17 46.82 C-120.36 46.82 -116.54 46.81 -112.72 46.81 C-107.83 46.81 -102.93 46.8 -98.04 46.78 C-94.26 46.77 -90.49 46.77 -86.71 46.77 C-84.9 46.77 -83.1 46.77 -81.29 46.76 C-78.78 46.75 -76.27 46.75 -73.75 46.76 C-73.01 46.75 -72.26 46.75 -71.5 46.74 C-67.78 46.76 -66.18 46.88 -63 49 C-72.68 56.68 -78.55 53 -94 53 C-94 90.62 -94 128.24 -94 167 C-61.91 156.3 -26.48 142.65 -9 111 C-8.31 108.81 -7.89 106.71 -7.53 104.45 C-6.44 99.4 -4.09 94.71 -2 90 C0.64 90.99 3.28 91.98 6 93 C5.67 92.34 5.34 91.68 5 91 C4.72 89.31 4.49 87.61 4.28 85.91 C4.15 84.9 4.03 83.89 3.89 82.84 C3.76 81.78 3.63 80.72 3.5 79.62 C3.24 77.53 2.98 75.44 2.72 73.35 C2.6 72.42 2.49 71.49 2.37 70.53 C2.04 68.3 1.59 66.18 1 64 C0.77 64.89 0.54 65.77 0.3 66.68 C-8.24 99.14 -8.24 99.14 -16 112 C-16.75 113.41 -16.75 113.41 -17.52 114.86 C-19 117 -19 117 -22.38 117.62 C-27.03 116.82 -28.15 115.75 -31 112 C-37.99 100.24 -41.35 87.67 -38.34 74.02 C-34.21 61.69 -26.33 51.65 -18.57 41.44 C-8.42 28.05 -2.4 16.7 0 0 Z " fill="#26A61C" transform="translate(791,160)"/>
<path d="M0 0 C1.66 0 3.31 0 4.97 -0 C9.44 -0 13.92 0.01 18.39 0.01 C23.08 0.02 27.76 0.02 32.45 0.02 C41.31 0.02 50.17 0.03 59.03 0.04 C69.12 0.05 79.21 0.06 89.3 0.06 C110.06 0.07 130.81 0.09 151.56 0.11 C151.63 9.1 151.68 18.09 151.71 27.08 C151.73 31.25 151.75 35.43 151.78 39.6 C151.82 43.64 151.83 47.67 151.84 51.7 C151.85 53.24 151.86 54.77 151.87 56.3 C152.03 71.51 152.03 71.51 148.56 78.11 C147.57 78.61 147.57 78.61 146.56 79.11 C146.4 77.67 146.4 77.67 146.24 76.2 C145.84 72.57 145.43 68.93 145.01 65.3 C144.84 63.74 144.66 62.18 144.49 60.62 C142.37 36.63 142.37 36.63 128.89 17.68 C105.47 2.01 66.32 7.11 41.56 7.11 C41.56 47.04 41.56 86.97 41.56 128.11 C45.85 124.81 50.14 121.51 54.56 118.11 C56.86 116.58 59.18 115.09 61.56 113.68 C63.1 112.75 63.1 112.75 64.68 111.8 C65.63 111.25 66.58 110.69 67.56 110.11 C68.46 109.55 69.37 108.98 70.31 108.39 C72.56 107.11 72.56 107.11 74.56 107.11 C74.82 106.53 75.09 105.96 75.36 105.36 C79.31 97.94 85.86 91.93 93.9 89.37 C110.84 85.48 127.11 90 141.63 98.88 C147.49 102.63 153.23 106.63 158.56 111.11 C158.56 111.77 158.56 112.43 158.56 113.11 C157.71 113.3 156.85 113.48 155.98 113.67 C144.49 116.42 134.21 121.07 123.56 126.11 C121.06 127.28 118.56 128.45 116.06 129.61 C115.08 130.08 114.1 130.54 113.09 131.02 C105.58 134.26 98.93 133.48 91.41 130.59 C85.1 127.33 79.48 122.05 75.56 116.11 C75.56 115.45 75.56 114.79 75.56 114.11 C63.43 121.66 51.02 129.85 44.56 143.11 C44.21 143.81 43.87 144.5 43.52 145.22 C42.29 148.93 42.25 152.43 42.24 156.3 C42.23 157.11 42.22 157.92 42.21 158.76 C42.18 161.42 42.16 164.09 42.14 166.76 C42.12 168.61 42.1 170.47 42.08 172.32 C42.03 177.19 41.99 182.06 41.96 186.93 C41.92 191.91 41.86 196.88 41.81 201.85 C41.72 211.61 41.63 221.36 41.56 231.11 C49.2 231.05 56.85 230.96 64.49 230.85 C67.09 230.82 69.68 230.79 72.27 230.77 C107.29 231.22 107.29 231.22 137.56 215.7 C140.08 212.44 142.04 209.08 143.93 205.43 C144.25 204.8 144.58 204.18 144.91 203.54 C150.91 190.92 151.53 176.62 152.86 162.93 C153.1 160.53 153.34 158.13 153.59 155.73 C153.66 154.99 153.73 154.25 153.8 153.5 C154.33 148.34 154.33 148.34 156.56 146.11 C160.06 151.36 161.11 155.12 160.8 161.47 C160.78 162.29 160.75 163.11 160.73 163.96 C160.65 166.59 160.54 169.23 160.43 171.86 C160.38 173.49 160.33 175.12 160.28 176.75 C159.61 197.21 158.51 217.67 157.56 238.11 C97.83 238.11 38.1 238.11 -23.44 238.11 C-23.44 232.11 -23.44 232.11 -22.44 231.11 C-20.52 230.96 -18.59 230.86 -16.66 230.8 C-14.9 230.73 -14.9 230.73 -13.11 230.67 C-11.88 230.63 -10.65 230.59 -9.38 230.55 C-7.53 230.49 -7.53 230.49 -5.64 230.42 C-2.57 230.31 0.49 230.21 3.56 230.11 C3.49 228.84 3.41 227.57 3.34 226.26 C2.67 213.55 2.42 200.9 2.44 188.19 C2.44 186.19 2.44 184.2 2.44 182.21 C2.44 176.87 2.45 171.53 2.46 166.19 C2.46 160.59 2.46 154.98 2.46 149.38 C2.47 138.8 2.47 128.22 2.48 117.63 C2.5 105.57 2.5 93.51 2.51 81.45 C2.52 56.67 2.53 31.89 2.56 7.11 C0.75 7.17 0.75 7.17 -1.1 7.22 C-2.71 7.25 -4.33 7.27 -5.94 7.3 C-6.74 7.33 -7.53 7.35 -8.34 7.38 C-14.06 7.45 -18.25 6.58 -23.44 4.11 C-24.1 3.12 -24.76 2.13 -25.44 1.11 C-16.97 -0.09 -8.54 -0.02 0 0 Z M82.56 102.11 C85.23 104.78 88.12 105.29 91.68 106.18 C92.73 106.44 92.73 106.44 93.81 106.71 C101.34 108.48 108.85 108.91 116.56 109.11 C111.47 103.43 103.68 102.74 96.42 102.23 C91.8 102.04 87.18 102.03 82.56 102.11 Z M84.56 109.11 C84.23 110.76 83.9 112.41 83.56 114.11 C85.45 114.8 85.45 114.8 87.56 115.11 C88.22 114.45 88.88 113.79 89.56 113.11 C89.56 111.79 89.56 110.47 89.56 109.11 C87.91 109.11 86.26 109.11 84.56 109.11 Z " fill="#27A71D" transform="translate(1447.443603515625,205.886474609375)"/>
<path d="M0 0 C13.68 -0.05 27.37 -0.08 41.05 -0.1 C47.41 -0.11 53.77 -0.13 60.12 -0.15 C66.28 -0.17 72.43 -0.18 78.58 -0.19 C80.91 -0.19 83.24 -0.2 85.57 -0.21 C150.15 -0.5 150.15 -0.5 171.13 18.98 C174.86 23.01 177.29 26.78 179 32 C179.62 33.7 179.62 33.7 180.25 35.44 C179.96 39.51 179.47 40.17 176.69 43 C168.1 49.95 152.12 56.67 141 56 C140.83 54.7 140.66 53.39 140.48 52.05 C138.1 31.27 138.1 31.27 126 15 C107.64 4.68 85.08 7 65 7 C64.67 43.63 64.34 80.26 64 118 C78.86 118.12 78.86 118.12 93.44 116.75 C94.37 116.62 95.29 116.48 96.25 116.35 C108.17 114.51 118.13 111.07 126.14 101.68 C128.51 98.26 130.27 94.68 132.06 90.94 C137.26 80.17 137.26 80.17 142 76 C142.78 75.3 143.56 74.6 144.37 73.88 C151.2 68.26 158.2 64.89 166.41 61.74 C172.32 59.45 176.61 56.62 181 52 C181.47 67.92 177.18 86.35 166.56 98.5 C165.06 100.02 163.55 101.53 162 103 C161.46 103.55 160.92 104.1 160.36 104.66 C135.32 128.31 95.75 124.6 64 125 C64.01 125.74 64.03 126.48 64.04 127.24 C64.2 136.66 64.35 146.08 64.5 155.5 C64.51 156.25 64.52 157 64.54 157.77 C64.92 182.18 65.13 206.59 65 231 C74.9 231 84.8 231 95 231 C95 231.66 95 232.32 95 233 C95.66 233 96.32 233 97 233 C97 234.98 97 236.96 97 239 C76.66 239.1 56.32 238.83 35.98 238.54 C31.68 238.47 27.38 238.42 23.08 238.36 C14.72 238.24 6.36 238.12 -2 238 C-2 236.68 -2 235.36 -2 234 C-2.66 233.67 -3.32 233.34 -4 233 C-2 232.65 -0 232.32 2 232 C3.11 231.81 4.23 231.63 5.38 231.44 C12.22 230.79 19.12 231 26 231 C26 156.75 26 82.5 26 6 C17.42 6 8.84 6 0 6 C0 4.02 0 2.04 0 0 Z " fill="#26A61C" transform="translate(21,206)"/>
<path d="M0 0 C12.42 -0.05 24.85 -0.08 37.27 -0.1 C43.05 -0.11 48.82 -0.13 54.59 -0.15 C148.24 -0.51 148.24 -0.51 170.75 19.44 C175.3 24.62 178.71 29.03 180 36 C179.72 38.83 179.38 40.52 177.6 42.77 C167.63 50.85 154.39 54.46 142 57 C141.88 56.39 141.75 55.77 141.63 55.14 C141.3 53.49 140.96 51.84 140.63 50.19 C140.18 47.9 139.75 45.61 139.34 43.31 C137.45 33.06 135.34 23 127 16 C109.3 4.79 84.24 7.55 65 7 C65 81.25 65 155.5 65 232 C74.9 232 84.8 232 95 232 C95 233.98 95 235.96 95 238 C61.99 238.17 29 237.68 -4 237 C-4 235.35 -4 233.7 -4 232 C10.85 231.5 10.85 231.5 26 231 C25.99 226.06 25.98 221.12 25.96 216.02 C25.95 208.81 25.94 201.59 25.94 194.38 C25.94 193.42 25.94 192.47 25.93 191.48 C25.9 150.45 26.18 109.41 26.5 68.38 C26.51 67.61 26.51 66.85 26.52 66.07 C26.67 46.38 26.83 26.69 27 7 C18.09 7 9.18 7 0 7 C0 4.69 0 2.38 0 0 Z " fill="#27A71D" transform="translate(405,207)"/>
<path d="M0 0 C7.97 23.21 15.86 46.45 23.57 69.75 C26.43 78.39 29.33 87.02 32.39 95.6 C32.91 97.08 33.44 98.55 33.96 100.03 C34.91 102.71 35.87 105.37 36.85 108.03 C39.29 114.89 40.69 120.7 40 128 C30.64 132.58 22.35 132.13 12.19 130.69 C11.16 130.56 10.14 130.43 9.09 130.29 C0.39 129.11 0.39 129.11 -3 127 C-3.96 125.22 -3.96 125.22 -4.61 123.05 C-4.87 122.24 -5.12 121.42 -5.38 120.58 C-5.64 119.69 -5.9 118.8 -6.17 117.88 C-6.6 116.49 -6.6 116.49 -7.04 115.08 C-7.96 112.1 -8.85 109.11 -9.75 106.12 C-14.81 89.39 -19.92 72.57 -28 57 C-32.5 66.4 -36.21 76.07 -39.88 85.81 C-40.18 86.63 -40.49 87.45 -40.81 88.29 C-44.48 98.03 -48.1 107.78 -51.31 117.69 C-51.58 118.51 -51.85 119.33 -52.13 120.18 C-55.51 130.99 -55.52 138.96 -50.44 149.12 C-45.34 155.14 -38.43 159.42 -31 162 C-30.01 162 -29.02 162 -28 162 C-27.52 160.93 -27.03 159.85 -26.53 158.75 C-19.04 142.64 -19.04 142.64 -12 139 C-5.93 137.17 -0.55 136.74 5.76 136.84 C6.66 136.85 7.57 136.85 8.51 136.86 C11.38 136.87 14.25 136.9 17.12 136.94 C20.01 136.97 22.89 136.99 25.77 137.01 C27.55 137.02 29.34 137.04 31.12 137.06 C35.54 137.1 39.65 136.9 44 136 C39.22 152.16 28.89 170.12 14.06 178.72 C5.72 182.21 -4.46 183.5 -13 180 C-16.84 177.9 -19.62 176.28 -21 172 C-21 171.01 -21 170.02 -21 169 C-21.58 168.97 -22.17 168.95 -22.77 168.92 C-37.2 167.92 -49.45 162.32 -59.19 151.56 C-60.47 150.05 -61.75 148.54 -63 147 C-66.48 155.42 -69.59 163.97 -72.69 172.53 C-73.56 174.93 -74.44 177.33 -75.31 179.72 C-81.41 195.84 -81.41 195.84 -83.38 212.81 C-83.39 213.52 -83.4 214.23 -83.41 214.97 C-83.38 219.74 -82.36 222.89 -80 227 C-79.67 227.99 -79.34 228.98 -79 230 C-77.18 231.12 -77.18 231.12 -75 232 C-73.99 232.51 -73.99 232.51 -72.95 233.03 C-67.62 235.57 -62.99 236.72 -57.12 237.12 C-56.3 237.2 -55.47 237.27 -54.61 237.34 C-51.74 237.58 -48.87 237.79 -46 238 C-43.57 238.19 -41.13 238.37 -38.7 238.56 C-32.13 239.06 -25.57 239.54 -19 240 C-18.96 241.67 -18.96 243.33 -19 245 C-20.87 246.87 -24.04 246.13 -26.53 246.13 C-27.56 246.13 -27.56 246.13 -28.61 246.13 C-30.91 246.14 -33.2 246.14 -35.5 246.13 C-37.11 246.13 -38.73 246.14 -40.34 246.14 C-44.67 246.14 -49 246.14 -53.32 246.13 C-55.99 246.13 -58.65 246.12 -61.32 246.12 C-81.55 246.11 -101.78 246.07 -122 245.56 C-122.82 245.54 -123.65 245.52 -124.49 245.5 C-137.94 245.17 -137.94 245.17 -143 244 C-140.22 241.74 -137.71 240.35 -134.33 239.17 C-133.44 238.84 -132.54 238.52 -131.62 238.19 C-129.77 237.53 -127.92 236.87 -126.06 236.22 C-113.12 231.51 -104.89 224.47 -98.6 212.25 C-98.22 211.52 -97.84 210.79 -97.44 210.03 C-93.14 201.58 -89.74 192.8 -86.38 183.94 C-85.69 182.15 -85 180.36 -84.31 178.57 C-82.19 173.05 -80.09 167.53 -78 162 C-77.67 161.13 -77.34 160.26 -77 159.36 C-71.21 144.09 -65.51 128.79 -59.84 113.47 C-50.71 88.81 -41.43 64.21 -32.02 39.66 C-31.1 37.25 -30.18 34.84 -29.26 32.43 C-27.89 28.86 -26.51 25.31 -25.12 21.75 C-24.76 20.8 -24.4 19.85 -24.03 18.87 C-21.21 11.76 -18.12 6.5 -10.88 3.19 C-10.03 2.79 -9.18 2.39 -8.3 1.98 C-5.36 0.73 -3.22 0 0 0 Z M1.87 157.14 C0.67 157.41 -0.53 157.67 -1.76 157.95 C-3.02 158.23 -4.27 158.52 -5.56 158.81 C-6.82 159.09 -8.08 159.36 -9.37 159.64 C-15.75 160.71 -15.75 160.71 -21 164 C-15.47 166.95 -9.32 166.91 -3.38 165.28 C2.04 163.24 6.45 160.56 11 157 C7.35 155.78 5.61 156.32 1.87 157.14 Z " fill="#27A71D" transform="translate(281,199)"/>
<path d="M0 0 C-5.59 5.9 -5.59 5.9 -10.64 6.11 C-11.67 6.11 -12.7 6.1 -13.76 6.1 C-14.88 6.09 -16 6.09 -17.15 6.09 C-18.32 6.08 -19.48 6.07 -20.69 6.06 C-21.87 6.06 -23.05 6.05 -24.26 6.05 C-27.17 6.04 -30.09 6.02 -33 6 C-33 7.11 -33 8.21 -33 9.35 C-32.98 36.28 -32.96 63.2 -32.95 90.13 C-32.94 103.15 -32.94 116.17 -32.92 129.19 C-32.91 140.53 -32.91 151.88 -32.91 163.23 C-32.9 169.24 -32.9 175.25 -32.89 181.26 C-32.89 186.91 -32.89 192.57 -32.89 198.23 C-32.89 200.3 -32.88 202.38 -32.88 204.45 C-32.88 207.29 -32.88 210.12 -32.88 212.96 C-32.88 213.78 -32.87 214.6 -32.87 215.44 C-32.88 220.07 -33.23 224.44 -34 229 C-33.03 229.04 -33.03 229.04 -32.05 229.08 C-29.07 229.19 -26.1 229.32 -23.12 229.44 C-22.11 229.48 -21.1 229.52 -20.05 229.56 C-13.67 229.82 -7.35 230.28 -1 231 C-1.33 233.31 -1.66 235.62 -2 238 C-22.5 238.1 -42.99 237.83 -63.48 237.54 C-67.84 237.47 -72.2 237.42 -76.56 237.36 C-85.04 237.24 -93.52 237.12 -102 237 C-102 235.35 -102 233.7 -102 232 C-99.31 230.65 -96.97 230.68 -93.97 230.46 C-92.77 230.38 -91.56 230.29 -90.32 230.2 C-89.06 230.11 -87.8 230.03 -86.5 229.94 C-84.61 229.8 -84.61 229.8 -82.68 229.66 C-73.39 229 -73.39 229 -71 229 C-71.03 227.99 -71.06 226.97 -71.09 225.93 C-72.3 183.62 -72.12 141.3 -72.07 98.97 C-72.06 88.81 -72.06 78.64 -72.05 68.48 C-72.04 47.65 -72.02 26.83 -72 6 C-72.85 6.03 -72.85 6.03 -73.71 6.06 C-76.31 6.15 -78.9 6.2 -81.5 6.25 C-82.39 6.28 -83.27 6.32 -84.19 6.35 C-90.58 6.45 -94.49 5.27 -100 2 C-100 1.34 -100 0.68 -100 0 C-66.71 -1.56 -33.29 -1.72 0 0 Z " fill="#26A71D" transform="translate(1167,207)"/>
<path d="M0 0 C-0.53 17.68 -5.29 32.73 -17.56 45.77 C-22.12 49.94 -27.74 54.06 -34 55 C-36.31 54.87 -38.63 54.72 -40.94 54.56 C-51.75 54.16 -61.27 58.73 -71 63 C-70.21 63.16 -69.42 63.32 -68.61 63.48 C-51.7 67.1 -38.49 72.81 -28 87 C-19.55 100.75 -16.91 115.67 -16.79 131.53 C-16.76 133.56 -16.73 135.59 -16.7 137.62 C-16.66 140.78 -16.62 143.94 -16.6 147.11 C-16.57 150.19 -16.53 153.26 -16.48 156.34 C-16.47 157.27 -16.47 158.21 -16.47 159.17 C-16.34 166.12 -15.46 172.8 -11.12 178.44 C-6.51 181.83 -2.7 182.41 3 182 C7.03 180.88 9.45 179.33 12 176 C12.54 173.13 12.5 170.29 12.5 167.38 C12.71 160.1 13.58 154.52 17 148 C17.53 146.92 18.05 145.84 18.6 144.73 C20.04 141.81 21.51 138.9 23 136 C25.8 139.35 27.46 143 29.12 147 C29.39 147.62 29.65 148.23 29.93 148.87 C32.92 155.94 34.74 163.56 32.32 171.13 C30.08 175.41 27.26 177.87 23 180 C21.59 180.22 20.17 180.38 18.75 180.5 C17.51 180.66 16.27 180.83 15 181 C14.3 182.31 13.64 183.65 13 185 C5.62 191.52 -1.74 193.32 -11.38 192.88 C-21.4 191.86 -29.45 188.67 -37 182 C-37.61 181.48 -38.21 180.95 -38.84 180.41 C-53.34 166.95 -56.2 147.78 -57 129 C-57.08 126.1 -57.14 123.2 -57.2 120.29 C-57.21 119.53 -57.23 118.76 -57.24 117.97 C-57.32 114.12 -57.38 110.28 -57.4 106.43 C-57.5 96.56 -58.17 86.42 -64.56 78.38 C-68.73 74.32 -71.98 73.51 -77.56 72.94 C-78.33 72.86 -79.09 72.77 -79.88 72.69 C-91.21 71.57 -102.62 71.33 -114 71 C-110.57 63.61 -110.57 63.61 -106.8 62.15 C-105.94 61.98 -105.09 61.81 -104.21 61.64 C-103.24 61.45 -102.27 61.25 -101.27 61.05 C-100.22 60.85 -99.17 60.66 -98.09 60.46 C-97.02 60.24 -95.94 60.03 -94.83 59.81 C-91.39 59.13 -87.95 58.47 -84.5 57.81 C-81.06 57.14 -77.61 56.46 -74.17 55.78 C-72.02 55.36 -69.88 54.95 -67.73 54.54 C-66.28 54.25 -66.28 54.25 -64.79 53.97 C-63.94 53.8 -63.08 53.64 -62.2 53.47 C-59.84 53.01 -59.84 53.01 -57 52 C-56.96 50.81 -56.93 49.61 -56.89 48.38 C-56.18 29.95 -56.18 29.95 -53 25 C-49.47 21.75 -45.78 19.75 -41.44 17.75 C-40.8 17.46 -40.16 17.16 -39.5 16.86 C-33.15 13.98 -26.66 11.46 -20.16 8.93 C-14.47 6.67 -9.18 4.16 -3.9 1.03 C-2 0 -2 0 0 0 Z M-36 36 C-38.59 38.38 -38.59 38.38 -40 41 C-39.87 43.75 -39.87 43.75 -39 46 C-33.7 45.58 -30.79 44.79 -27 41 C-23.67 37.04 -23.67 37.04 -23.25 32.12 C-23.5 31.42 -23.75 30.72 -24 30 C-29.53 30 -31.94 32.49 -36 36 Z " fill="#27A71D" transform="translate(591,253)"/>
<path d="M0 0 C3.04 3.04 5.42 5.77 7.94 9.19 C8.73 10.26 9.53 11.33 10.32 12.41 C10.75 12.98 11.18 13.56 11.62 14.16 C14.14 17.52 16.69 20.85 19.25 24.19 C19.8 24.91 20.35 25.63 20.92 26.37 C22.05 27.84 23.18 29.32 24.31 30.79 C27.04 34.36 29.77 37.93 32.5 41.5 C33.58 42.91 34.66 44.32 35.74 45.73 C37.94 48.62 40.15 51.5 42.36 54.39 C47.48 61.1 52.61 67.8 57.75 74.5 C58.55 75.54 59.35 76.58 60.17 77.66 C61.79 79.84 61.79 79.84 63 81 C63.33 54.27 63.66 27.54 64 0 C70.6 0 77.2 0 84 0 C84 46.53 84 93.06 84 141 C80.35 137.35 77.13 133.8 74 129.75 C73.3 128.85 73.3 128.85 72.58 127.93 C67.72 121.68 62.92 115.39 58.12 109.09 C55.42 105.55 52.71 102.02 50 98.5 C46.2 93.57 42.41 88.63 38.62 83.69 C38.14 83.06 37.66 82.43 37.17 81.79 C31.39 74.24 25.71 66.61 20 59 C19.67 86.06 19.34 113.12 19 141 C12.73 141 6.46 141 0 141 C0 94.47 0 47.94 0 0 Z " fill="#393636" transform="translate(194,25)"/>
<path d="M0 0 C1.38 0.4 2.75 0.82 4.12 1.25 C4.89 1.48 5.66 1.71 6.45 1.95 C20.75 7.82 32.23 23.43 38.4 37.11 C44.86 55.24 43.89 81.47 36 99 C25.83 117.96 11.09 130.57 -9.5 137.25 C-32.53 143.77 -54.83 141.84 -77.25 134.31 C-86.5 131.22 -95.2 128.35 -104.56 132.62 C-107.27 135.27 -109.08 137.75 -111 141 C-113.58 137.13 -113.56 133.63 -113.85 129.12 C-113.92 128.22 -113.98 127.31 -114.05 126.38 C-114.25 123.4 -114.44 120.42 -114.62 117.44 C-114.72 115.92 -114.72 115.92 -114.83 114.36 C-116.2 92.9 -116.33 71.5 -116 50 C-106.99 58.14 -105.04 72.46 -102.13 83.75 C-97.54 100.66 -87.08 115.28 -71.83 124.2 C-59.09 131.25 -44.58 135.13 -30 133 C-24.64 131.4 -19.82 128.78 -15 126 C-13.48 125.16 -13.48 125.16 -11.93 124.29 C0.88 116.68 8.97 106.26 13.44 92.06 C17.42 70.97 9.03 49.57 -2.64 32.3 C-10.16 21.71 -19.06 12.34 -29 4 C-23.87 2.33 -19.82 3.94 -15 6 C-6.52 10.87 -0.78 17.24 5 25 C4.64 23.95 4.28 22.9 3.91 21.82 C1.42 14.38 -0.71 7.93 0 0 Z " fill="#27A71D" transform="translate(1004,309)"/>
<path d="M0 0 C2.94 3.5 5.25 7.01 7.43 11.02 C7.9 11.88 7.9 11.88 8.39 12.76 C9.06 13.99 9.73 15.22 10.4 16.45 C12.18 19.74 13.97 23.01 15.77 26.29 C16.31 27.28 16.31 27.28 16.86 28.29 C20.07 34.14 23.33 39.95 26.62 45.75 C27.68 47.61 28.73 49.47 29.79 51.33 C30.31 52.26 30.84 53.18 31.38 54.13 C38.39 66.53 45.39 78.94 52.15 91.48 C53.25 93.52 54.36 95.54 55.49 97.56 C57.93 101.97 60.17 106.23 61.86 110.99 C64.24 117.36 64.24 117.36 69 122 C76.94 124.21 85.25 124.14 93.44 123.96 C96 124 96 124 98 125 C98.04 126.67 98.04 128.33 98 130 C97 131 97 131 93.2 131.08 C91.46 131.07 89.72 131.05 87.98 131.02 C87.04 131.01 86.09 131 85.11 130.99 C81.97 130.96 78.83 130.92 75.68 130.88 C73.51 130.85 71.34 130.83 69.16 130.81 C63.43 130.74 57.7 130.68 51.97 130.61 C46.12 130.53 40.28 130.47 34.43 130.4 C22.95 130.28 11.48 130.14 0 130 C0 127.69 0 125.38 0 123 C7.92 123 15.84 123 24 123 C18.44 111.72 12.74 100.58 6.67 89.57 C2.84 82.6 -0.85 75.57 -4.5 68.5 C-9.19 59.41 -14.02 50.41 -18.95 41.44 C-22.46 35.04 -25.81 28.58 -29 22 C-28.48 21.62 -27.95 21.24 -27.41 20.84 C-13.5 10.69 -13.5 10.69 0 0 Z " fill="#26A61C" transform="translate(769,314)"/>
<path d="M0 0 C1.55 2.32 2.59 4.19 3.64 6.72 C3.95 7.46 4.27 8.21 4.59 8.98 C4.92 9.79 5.26 10.6 5.61 11.43 C5.96 12.29 6.32 13.14 6.68 14.01 C7.85 16.82 9.02 19.63 10.19 22.44 C11.01 24.4 11.82 26.36 12.64 28.33 C14.31 32.32 15.97 36.31 17.63 40.3 C19.73 45.34 21.83 50.38 23.93 55.42 C30.64 71.5 37.32 87.59 44 103.69 C44.35 104.54 44.7 105.38 45.07 106.26 C47.06 111.06 49.04 115.85 51.03 120.65 C52.04 123.09 53.05 125.52 54.05 127.95 C54.7 129.51 55.35 131.08 56 132.64 C56.3 133.37 56.61 134.1 56.92 134.85 C59 139.89 59 139.89 59 141 C51.74 141 44.48 141 37 141 C35.19 136.65 33.37 132.3 31.56 127.95 C30.89 126.36 30.23 124.76 29.56 123.17 C25.49 113.41 21.43 103.64 17.39 93.87 C16.63 92.03 15.87 90.18 15.11 88.34 C14 85.66 12.89 82.98 11.79 80.3 C8.01 71.13 4.22 61.98 0 53 C-5.96 67.77 -11.84 82.57 -17.66 97.39 C-17.91 98.02 -18.15 98.65 -18.41 99.29 C-20.93 105.71 -23.44 112.12 -25.96 118.54 C-26.68 120.39 -27.41 122.24 -28.13 124.09 C-29.04 126.4 -29.94 128.7 -30.84 131 C-31.44 132.54 -31.44 132.54 -32.06 134.11 C-32.41 135.01 -32.76 135.91 -33.13 136.84 C-34 139 -34 139 -35 141 C-41.93 141 -48.86 141 -56 141 C-55.29 137.44 -54.63 134.76 -53.32 131.48 C-52.97 130.6 -52.63 129.73 -52.27 128.82 C-51.89 127.87 -51.51 126.93 -51.11 125.95 C-50.71 124.94 -50.31 123.93 -49.9 122.88 C-48.56 119.53 -47.22 116.18 -45.88 112.84 C-44.95 110.49 -44.01 108.14 -43.07 105.79 C-41.1 100.84 -39.13 95.9 -37.16 90.96 C-34.66 84.71 -32.16 78.46 -29.67 72.2 C-27.26 66.16 -24.85 60.12 -22.45 54.09 C-22 52.97 -21.55 51.85 -21.1 50.7 C-16.07 38.1 -11.01 25.51 -5.91 12.93 C-5.2 11.16 -5.2 11.16 -4.47 9.36 C-4.03 8.28 -3.59 7.2 -3.14 6.09 C-2.75 5.13 -2.36 4.17 -1.96 3.18 C-1 1 -1 1 0 0 Z " fill="#393636" transform="translate(651,25)"/>
<path d="M0 0 C2.63 2.63 3.63 5.65 4.99 9.04 C5.29 9.77 5.59 10.5 5.89 11.26 C6.55 12.86 7.2 14.46 7.84 16.07 C9.63 20.5 11.44 24.93 13.25 29.36 C13.63 30.3 14.01 31.24 14.41 32.21 C18.86 43.12 23.4 54 27.94 64.88 C28.78 66.9 29.62 68.92 30.47 70.94 C32.15 74.97 33.83 79 35.51 83.02 C39.14 91.73 42.77 100.44 46.39 109.15 C47.12 110.9 47.85 112.65 48.58 114.39 C52.25 123.2 55.84 131.99 59 141 C51.74 141 44.48 141 37 141 C35.83 138.16 34.65 135.31 33.44 132.38 C29.63 123.16 25.82 113.93 22.01 104.71 C19.41 98.41 16.81 92.11 14.21 85.8 C12.64 82 11.07 78.2 9.49 74.4 C8.75 72.59 8 70.78 7.26 68.98 C6.22 66.47 5.19 63.96 4.15 61.45 C3.84 60.7 3.54 59.96 3.22 59.19 C2.01 55.85 2.01 55.85 0 53 C-2.14 58.4 -4.27 63.81 -6.41 69.21 C-7.18 71.15 -7.94 73.09 -8.71 75.03 C-12.93 85.71 -17.15 96.39 -21.36 107.07 C-22.05 108.8 -22.73 110.54 -23.41 112.27 C-24.39 114.74 -25.36 117.21 -26.33 119.68 C-27.23 121.96 -28.13 124.24 -29.02 126.52 C-29.28 127.17 -29.54 127.83 -29.81 128.51 C-31.46 132.71 -33.22 136.85 -35 141 C-41.93 141 -48.86 141 -56 141 C-55.14 136.7 -53.93 132.99 -52.3 128.96 C-51.88 127.92 -51.88 127.92 -51.46 126.86 C-50.53 124.55 -49.61 122.25 -48.68 119.95 C-48.02 118.31 -47.36 116.67 -46.71 115.03 C-44.94 110.64 -43.18 106.24 -41.41 101.85 C-39.58 97.31 -37.76 92.77 -35.94 88.23 C-33.74 82.75 -31.54 77.27 -29.34 71.79 C-25.15 61.37 -20.98 50.95 -16.82 40.52 C-16.03 38.53 -15.24 36.54 -14.45 34.56 C-11.55 27.29 -11.55 27.29 -8.65 20.02 C-7.37 16.78 -6.08 13.55 -4.79 10.32 C-4.41 9.37 -4.04 8.43 -3.65 7.46 C-3.31 6.61 -2.97 5.76 -2.63 4.89 C-2.19 3.79 -2.19 3.79 -1.74 2.67 C-1 1 -1 1 0 0 Z " fill="#393636" transform="translate(102,25)"/>
<path d="M0 0 C7.26 0 14.52 0 22 0 C25.3 7.89 25.3 7.89 26.45 10.64 C28.4 15.29 30.35 19.95 32.3 24.6 C36.17 33.84 40.03 43.07 43.89 52.31 C45.55 56.27 47.21 60.24 48.87 64.2 C49.66 66.11 50.46 68.02 51.26 69.92 C52.37 72.59 53.48 75.25 54.6 77.91 C54.93 78.7 55.26 79.5 55.6 80.32 C57.22 84.2 57.22 84.2 59 88 C67.01 68.04 74.97 48.07 82.85 28.06 C86.54 18.69 90.25 9.34 94 0 C100.93 0 107.86 0 115 0 C114.29 3.56 113.63 6.24 112.32 9.52 C111.97 10.4 111.63 11.27 111.27 12.18 C110.89 13.13 110.51 14.07 110.11 15.05 C109.71 16.06 109.31 17.07 108.9 18.12 C107.56 21.47 106.22 24.82 104.88 28.16 C103.95 30.51 103.01 32.86 102.07 35.21 C100.1 40.16 98.13 45.1 96.16 50.04 C93.66 56.29 91.16 62.54 88.67 68.8 C86.26 74.84 83.85 80.88 81.45 86.91 C81 88.03 80.55 89.15 80.1 90.3 C73.47 106.9 66.76 123.46 60 140 C59.34 140 58.68 140 58 140 C49.03 118.77 40.12 97.52 31.3 76.22 C30.6 74.51 29.89 72.8 29.18 71.09 C28.83 70.25 28.48 69.4 28.13 68.54 C25.74 62.78 23.35 57.04 20.95 51.29 C13.82 34.25 6.79 17.18 0 0 Z " fill="#393636" transform="translate(310,25)"/>
<path d="M0 0 C27.72 0 55.44 0 84 0 C84 6.27 84 12.54 84 19 C73.44 19 62.88 19 52 19 C52 59.26 52 99.52 52 141 C45.4 141 38.8 141 32 141 C32 100.74 32 60.48 32 19 C21.44 19 10.88 19 0 19 C0 12.73 0 6.46 0 0 Z " fill="#393736" transform="translate(510,25)"/>
<path d="M0 0 C0.66 0 1.32 0 2 0 C2.38 1.11 2.75 2.22 3.14 3.36 C11.08 26.74 19.09 50.1 27.25 73.41 C27.55 74.28 27.86 75.15 28.17 76.05 C28.74 77.66 29.3 79.27 29.87 80.89 C30.12 81.61 30.37 82.33 30.63 83.07 C30.85 83.69 31.07 84.31 31.29 84.94 C32.21 87.62 33.1 90.31 34 93 C47.86 93.5 47.86 93.5 62 94 C62 95.98 62 97.96 62 100 C28.01 100 -5.98 100 -41 100 C-41 98.02 -41 96.04 -41 94 C-31.43 94 -21.86 94 -12 94 C-12.81 91.58 -13.62 89.15 -14.45 86.65 C-16.06 81.81 -17.68 76.96 -19.29 72.12 C-19.69 70.93 -19.69 70.93 -20.09 69.72 C-20.62 68.13 -21.15 66.54 -21.68 64.96 C-22.93 61.17 -24.21 57.4 -25.55 53.65 C-25.78 52.97 -26.02 52.29 -26.27 51.59 C-26.91 49.76 -27.57 47.93 -28.23 46.1 C-29.03 42.88 -29.04 41.13 -28 38 C-26.47 36.55 -26.47 36.55 -24.5 35.31 C-12.28 26.72 -4.93 13.84 0 0 Z " fill="#26A61C" transform="translate(328,344)"/>
<path d="M0 0 C0.33 0 0.66 0 1 0 C1.05 10.51 1.08 21.02 1.1 31.53 C1.11 36.41 1.13 41.29 1.15 46.17 C1.17 50.87 1.18 55.58 1.19 60.29 C1.19 62.09 1.2 63.88 1.21 65.68 C1.23 68.2 1.23 70.71 1.23 73.22 C1.23 73.97 1.24 74.72 1.25 75.49 C1.23 79.22 1.12 80.81 -1 84 C-5.92 74.99 -9.84 66 -13.06 56.25 C-19.29 37.62 -28.08 24.76 -45.83 15.53 C-58.82 9.3 -74.62 7.29 -88.56 11.62 C-99.37 15.95 -106.29 20.97 -111.75 31.31 C-114.66 39.9 -115.31 48.42 -115.19 57.44 C-115.18 58.44 -115.17 59.44 -115.17 60.47 C-115.1 67.35 -114.82 74.16 -114 81 C-124.04 80.55 -135.11 78.61 -143 72 C-146.5 66.75 -144.93 60.03 -144 54 C-140.63 37.28 -133.67 22.07 -119.22 12.27 C-99.68 -0.59 -76.49 -1.2 -54.22 3.27 C-50.2 4.18 -46.21 5.22 -42.22 6.27 C-41.44 6.48 -40.66 6.68 -39.86 6.9 C-35.9 7.94 -31.95 9.02 -28.01 10.13 C-26.53 10.53 -25.05 10.93 -23.57 11.33 C-22.9 11.53 -22.23 11.73 -21.53 11.93 C-17.03 13.13 -14.23 12.96 -10 11 C-7.1 8.46 -4.69 5.65 -2.25 2.69 C-1.14 1.36 -1.14 1.36 0 0 Z " fill="#27A71D" transform="translate(1035,197)"/>
<path d="M0 0 C0.77 0.35 1.54 0.71 2.34 1.07 C15.24 6.22 28.1 5.65 41.81 5.56 C45.39 5.55 48.97 5.54 52.54 5.55 C54.75 5.56 56.96 5.55 59.17 5.52 C70.2 5.56 77.82 8.96 85.73 16.58 C92.29 23.58 94.38 28.48 95 38 C81.59 37.15 68.6 35.87 55.51 32.8 C52.27 31.93 52.27 31.93 50 32 C58.78 36.81 67.08 39.75 76.92 41.53 C84.56 43.14 88.68 46.49 93 53 C93.72 54.65 94.4 56.31 95 58 C76.24 63.32 60.49 64.51 42.67 55.27 C23 43.94 9.67 25.77 1 5 C0.63 3.34 0.28 1.68 0 0 Z " fill="#26A61C" transform="translate(892,274)"/>
<path d="M0 0 C6.6 0 13.2 0 20 0 C20 46.53 20 93.06 20 141 C13.4 141 6.8 141 0 141 C0 94.47 0 47.94 0 0 Z " fill="#3B3938" transform="translate(457,25)"/>
<path d="" fill="#81C765" transform="translate(0,0)"/>
</svg>
