<svg width="242" height="28" viewBox="0 0 242 28" fill="none" xmlns="http://www.w3.org/2000/svg">
<path d="M0.871094 27V0.989258L16.7646 16.2847C17.1976 16.7176 17.6362 17.179 18.0806 17.6689C18.5249 18.1589 18.992 18.7114 19.4819 19.3267V1.98047H23.2417V27.9741L7.02344 12.4053C6.59049 11.9837 6.16895 11.5394 5.75879 11.0723C5.36003 10.6051 4.97835 10.1152 4.61377 9.60254V27H0.871094ZM42.8964 19.4463H29.9423C30.0334 20.9616 30.4835 22.1465 31.2924 23.001C32.1013 23.8441 33.178 24.2656 34.5224 24.2656C35.7187 24.2656 36.7156 24.015 37.5131 23.5137C38.3106 23.0124 39.0056 22.2035 39.598 21.0869L42.7255 22.8301C41.814 24.4593 40.6861 25.6727 39.3417 26.4702C37.9973 27.2677 36.4193 27.6665 34.6078 27.6665C32.0102 27.6665 29.9423 26.8747 28.4042 25.291C26.8661 23.7074 26.0971 21.5939 26.0971 18.9507C26.0971 16.41 26.8889 14.325 28.4726 12.6958C30.0676 11.0552 32.1127 10.2349 34.6078 10.2349C37.2169 10.2349 39.2506 10.9811 40.7089 12.4736C42.1672 13.9661 42.8964 16.0568 42.8964 18.7456V19.4463ZM39.0512 16.9512C38.9031 15.7891 38.4587 14.9061 37.7182 14.3022C36.9776 13.687 35.9636 13.3794 34.6762 13.3794C33.4571 13.3794 32.4773 13.6756 31.7367 14.2681C30.9962 14.8605 30.4778 15.7549 30.1815 16.9512H39.0512ZM43.513 24.0605L46.5892 22.3857C46.817 23.1947 47.2386 23.8099 47.8538 24.2314C48.469 24.653 49.2609 24.8638 50.2293 24.8638C51.061 24.8638 51.7104 24.6758 52.1775 24.2998C52.6561 23.9124 52.8953 23.3883 52.8953 22.7275C52.8953 21.8503 52.0522 21.0983 50.366 20.4717C49.7964 20.2666 49.3577 20.0957 49.0501 19.959C47.3183 19.2412 46.1049 18.512 45.41 17.7715C44.7264 17.0309 44.3846 16.1309 44.3846 15.0713C44.3846 13.6243 44.9485 12.4508 46.0765 11.5508C47.2158 10.6507 48.7197 10.2007 50.5882 10.2007C51.8414 10.2007 52.9124 10.4342 53.8011 10.9014C54.7011 11.3571 55.3563 12.0122 55.7664 12.8667L53.1346 14.6782C52.9409 14.1655 52.5991 13.7611 52.1092 13.4648C51.6307 13.1572 51.0724 13.0034 50.4344 13.0034C49.728 13.0034 49.1583 13.1743 48.7254 13.5161C48.3038 13.8465 48.0931 14.2909 48.0931 14.8491C48.0931 15.6922 49.0501 16.4613 50.9642 17.1562C51.568 17.3727 52.0351 17.5493 52.3655 17.686C53.858 18.2785 54.9233 18.9507 55.5613 19.7026C56.2107 20.4432 56.5354 21.3717 56.5354 22.4883C56.5354 24.1061 55.9487 25.3765 54.7752 26.2993C53.6017 27.2108 51.9839 27.6665 49.9217 27.6665C48.338 27.6665 47.0221 27.3703 45.9739 26.7778C44.9257 26.1854 44.1054 25.2796 43.513 24.0605ZM59.7497 27V14.0459H56.9128V10.7988H59.7497V4.66357H63.4582V10.7988H66.2951V14.0459H63.4582V27H59.7497ZM68.2789 27V0.510742H71.9874V27H68.2789ZM91.5054 19.4463H78.5513C78.6424 20.9616 79.0924 22.1465 79.9014 23.001C80.7103 23.8441 81.7869 24.2656 83.1313 24.2656C84.3276 24.2656 85.3245 24.015 86.1221 23.5137C86.9196 23.0124 87.6146 22.2035 88.207 21.0869L91.3345 22.8301C90.423 24.4593 89.2951 25.6727 87.9507 26.4702C86.6063 27.2677 85.0283 27.6665 83.2168 27.6665C80.6191 27.6665 78.5513 26.8747 77.0132 25.291C75.4751 23.7074 74.7061 21.5939 74.7061 18.9507C74.7061 16.41 75.4979 14.325 77.0815 12.6958C78.6766 11.0552 80.7217 10.2349 83.2168 10.2349C85.8258 10.2349 87.8595 10.9811 89.3179 12.4736C90.7762 13.9661 91.5054 16.0568 91.5054 18.7456V19.4463ZM87.6602 16.9512C87.512 15.7891 87.0677 14.9061 86.3271 14.3022C85.5866 13.687 84.5726 13.3794 83.2852 13.3794C82.0661 13.3794 81.0863 13.6756 80.3457 14.2681C79.6051 14.8605 79.0868 15.7549 78.7905 16.9512H87.6602ZM103.522 27V1.98047H107.59V27H103.522ZM111.727 27V10.7988H115.213V13.4478C115.954 12.3312 116.825 11.5166 117.828 11.0039C118.83 10.4912 120.05 10.2349 121.485 10.2349C122.693 10.2349 123.718 10.4285 124.561 10.8159C125.416 11.1919 126.082 11.7559 126.561 12.5078C126.846 12.9521 127.051 13.4705 127.176 14.063C127.301 14.6554 127.364 15.6922 127.364 17.1733V27H123.621V18.6772C123.621 16.5467 123.359 15.134 122.835 14.439C122.322 13.7326 121.405 13.3794 120.084 13.3794C119.218 13.3794 118.443 13.5389 117.759 13.8579C117.087 14.1769 116.557 14.627 116.17 15.208C115.897 15.5954 115.703 16.0967 115.589 16.7119C115.487 17.3158 115.435 18.2842 115.435 19.6172V27H111.727ZM140.372 27V0.989258L156.266 16.2847C156.699 16.7176 157.137 17.179 157.582 17.6689C158.026 18.1589 158.493 18.7114 158.983 19.3267V1.98047H162.743V27.9741L146.524 12.4053C146.091 11.9837 145.67 11.5394 145.26 11.0723C144.861 10.6051 144.479 10.1152 144.115 9.60254V27H140.372ZM182.038 27H178.33V24.8979C177.669 25.8322 176.894 26.5272 176.006 26.9829C175.128 27.4386 174.12 27.6665 172.981 27.6665C170.691 27.6665 168.885 26.8861 167.563 25.3252C166.253 23.7529 165.598 21.6053 165.598 18.8823C165.598 16.2961 166.27 14.2111 167.615 12.6274C168.959 11.0324 170.714 10.2349 172.878 10.2349C174.2 10.2349 175.328 10.514 176.262 11.0723C177.208 11.6191 177.897 12.411 178.33 13.4478V10.7988H182.038V27ZM178.433 18.8481C178.433 17.1733 178.039 15.8688 177.253 14.9346C176.479 14.0003 175.391 13.5332 173.989 13.5332C172.588 13.5332 171.483 14.0174 170.674 14.9858C169.876 15.9429 169.477 17.2759 169.477 18.9849C169.477 20.7052 169.865 22.0326 170.64 22.9668C171.414 23.901 172.508 24.3682 173.921 24.3682C175.254 24.3682 176.336 23.8612 177.168 22.8472C178.011 21.8332 178.433 20.5002 178.433 18.8481ZM186.637 27V14.0459H183.8V10.7988H186.637V4.66357H190.346V10.7988H193.182V14.0459H190.346V27H186.637ZM198.584 10.7988V19.9248C198.584 21.4971 198.909 22.625 199.558 23.3086C200.208 23.9922 201.262 24.334 202.72 24.334C204.178 24.334 205.232 23.9922 205.882 23.3086C206.531 22.625 206.856 21.4971 206.856 19.9248V10.7988H210.564V18.814C210.564 21.9129 209.943 24.1631 208.701 25.5645C207.46 26.9658 205.477 27.6665 202.754 27.6665C199.986 27.6665 197.98 26.9715 196.738 25.5815C195.497 24.1916 194.876 21.9357 194.876 18.814V10.7988H198.584ZM217.88 13.3794C218.279 12.3084 218.803 11.5166 219.452 11.0039C220.113 10.4912 220.928 10.2349 221.896 10.2349C222.42 10.2349 222.933 10.2975 223.434 10.4229C223.947 10.5482 224.448 10.7305 224.938 10.9697L223.605 14.1143C223.286 13.8864 222.939 13.7212 222.563 13.6187C222.198 13.5047 221.788 13.4478 221.332 13.4478C220.102 13.4478 219.219 13.9434 218.683 14.9346C218.148 15.9144 217.88 17.5664 217.88 19.8906V27H214.171V10.7646H217.88V13.3794ZM241.26 19.4463H228.306C228.397 20.9616 228.847 22.1465 229.656 23.001C230.465 23.8441 231.542 24.2656 232.886 24.2656C234.083 24.2656 235.079 24.015 235.877 23.5137C236.674 23.0124 237.369 22.2035 237.962 21.0869L241.089 22.8301C240.178 24.4593 239.05 25.6727 237.706 26.4702C236.361 27.2677 234.783 27.6665 232.972 27.6665C230.374 27.6665 228.306 26.8747 226.768 25.291C225.23 23.7074 224.461 21.5939 224.461 18.9507C224.461 16.41 225.253 14.325 226.836 12.6958C228.431 11.0552 230.477 10.2349 232.972 10.2349C235.581 10.2349 237.614 10.9811 239.073 12.4736C240.531 13.9661 241.26 16.0568 241.26 18.7456V19.4463ZM237.415 16.9512C237.267 15.7891 236.823 14.9061 236.082 14.3022C235.341 13.687 234.327 13.3794 233.04 13.3794C231.821 13.3794 230.841 13.6756 230.101 14.2681C229.36 14.8605 228.842 15.7549 228.545 16.9512H237.415Z" fill="white"/>
</svg>
