<svg width="304" height="35" viewBox="0 0 304 35" fill="none" xmlns="http://www.w3.org/2000/svg">
<path d="M0.871094 27V0.989258L16.7646 16.2847C17.1976 16.7176 17.6362 17.179 18.0806 17.6689C18.5249 18.1589 18.992 18.7114 19.4819 19.3267V1.98047H23.2417V27.9741L7.02344 12.4053C6.59049 11.9837 6.16895 11.5394 5.75879 11.0723C5.36003 10.6051 4.97835 10.1152 4.61377 9.60254V27H0.871094ZM40.0253 18.9507C40.0253 17.4468 39.5411 16.1764 38.5727 15.1396C37.6042 14.0915 36.4193 13.5674 35.018 13.5674C33.628 13.5674 32.4431 14.0915 31.4633 15.1396C30.4949 16.1764 30.0106 17.4468 30.0106 18.9507C30.0106 20.4546 30.4949 21.7306 31.4633 22.7788C32.4431 23.8156 33.628 24.334 35.018 24.334C36.4079 24.334 37.5871 23.8156 38.5556 22.7788C39.5354 21.7306 40.0253 20.4546 40.0253 18.9507ZM26.0971 18.9165C26.0971 17.7316 26.3192 16.6151 26.7636 15.5669C27.2193 14.5073 27.8687 13.5674 28.7118 12.7471C29.5435 11.9382 30.5006 11.3172 31.5829 10.8843C32.6653 10.4513 33.7989 10.2349 34.9838 10.2349C36.2029 10.2349 37.3479 10.4513 38.4188 10.8843C39.5012 11.3172 40.4696 11.9552 41.3241 12.7983C42.1786 13.63 42.828 14.57 43.2724 15.6182C43.7167 16.6663 43.9389 17.7658 43.9389 18.9165C43.9389 20.1128 43.7167 21.235 43.2724 22.2832C42.8394 23.3314 42.2014 24.2599 41.3583 25.0688C40.4696 25.9233 39.4841 26.5671 38.4018 27C37.3194 27.4443 36.1801 27.6665 34.9838 27.6665C33.8103 27.6665 32.6824 27.4443 31.6 27C30.5176 26.5671 29.5549 25.9347 28.7118 25.103C27.8573 24.2599 27.2079 23.3143 26.7636 22.2661C26.3192 21.2179 26.0971 20.1014 26.0971 18.9165ZM50.178 13.3794C50.5768 12.3084 51.1009 11.5166 51.7503 11.0039C52.4111 10.4912 53.2257 10.2349 54.1941 10.2349C54.7182 10.2349 55.2309 10.2975 55.7322 10.4229C56.2449 10.5482 56.7462 10.7305 57.2361 10.9697L55.9031 14.1143C55.5841 13.8864 55.2366 13.7212 54.8606 13.6187C54.4961 13.5047 54.0859 13.4478 53.6302 13.4478C52.3997 13.4478 51.5167 13.9434 50.9813 14.9346C50.4458 15.9144 50.178 17.5664 50.178 19.8906V27H46.4695V10.7646H50.178V13.3794ZM58.8269 27V14.0459H55.9899V10.7988H58.8269V4.66357H62.5354V10.7988H65.3723V14.0459H62.5354V27H58.8269ZM67.1852 27V0.510742H70.6715V13.4478C71.412 12.3312 72.2836 11.5166 73.2862 11.0039C74.2888 10.4912 75.5079 10.2349 76.9435 10.2349C78.1511 10.2349 79.1765 10.4285 80.0196 10.8159C80.8741 11.1919 81.5406 11.7559 82.0191 12.5078C82.304 12.9521 82.5091 13.4705 82.6344 14.063C82.7597 14.6554 82.8224 15.6922 82.8224 17.1733V27H79.0797V18.6772C79.0797 16.5467 78.8176 15.134 78.2936 14.439C77.7809 13.7326 76.8637 13.3794 75.5421 13.3794C74.6762 13.3794 73.9015 13.5389 73.2179 13.8579C72.5457 14.1769 72.0159 14.627 71.6285 15.208C71.3551 15.5954 71.1614 16.0967 71.0475 16.7119C70.9449 17.3158 70.8937 18.2842 70.8937 19.6172V27H67.1852ZM95.8305 27V1.98047H109.793V5.43262H99.8979V11.6704H109.793V15.2422H99.8979V27H95.8305ZM127.756 27H124.047V24.8979C123.386 25.8322 122.612 26.5272 121.723 26.9829C120.846 27.4386 119.837 27.6665 118.698 27.6665C116.408 27.6665 114.602 26.8861 113.281 25.3252C111.97 23.7529 111.315 21.6053 111.315 18.8823C111.315 16.2961 111.987 14.2111 113.332 12.6274C114.676 11.0324 116.431 10.2349 118.596 10.2349C119.917 10.2349 121.045 10.514 121.979 11.0723C122.925 11.6191 123.614 12.411 124.047 13.4478V10.7988H127.756V27ZM124.15 18.8481C124.15 17.1733 123.757 15.8688 122.971 14.9346C122.196 14.0003 121.108 13.5332 119.706 13.5332C118.305 13.5332 117.2 14.0174 116.391 14.9858C115.593 15.9429 115.195 17.2759 115.195 18.9849C115.195 20.7052 115.582 22.0326 116.357 22.9668C117.131 23.901 118.225 24.3682 119.638 24.3682C120.971 24.3682 122.053 23.8612 122.885 22.8472C123.728 21.8332 124.15 20.5002 124.15 18.8481ZM143.582 15.4131C143.013 14.7865 142.346 14.3079 141.583 13.9775C140.831 13.6471 140.016 13.4819 139.139 13.4819C137.624 13.4819 136.41 13.9718 135.499 14.9517C134.587 15.9315 134.132 17.2303 134.132 18.8481C134.132 20.5343 134.587 21.8617 135.499 22.8301C136.422 23.7871 137.692 24.2656 139.31 24.2656C140.21 24.2656 141.013 24.1004 141.719 23.77C142.426 23.4282 143.047 22.9155 143.582 22.2319V26.5044C142.899 26.8918 142.164 27.1823 141.378 27.376C140.603 27.5697 139.777 27.6665 138.9 27.6665C136.359 27.6665 134.285 26.8576 132.679 25.2397C131.084 23.6219 130.286 21.5256 130.286 18.9507C130.286 16.3416 131.112 14.2396 132.764 12.6445C134.428 11.0381 136.598 10.2349 139.276 10.2349C140.119 10.2349 140.893 10.3203 141.6 10.4912C142.306 10.6507 142.967 10.9014 143.582 11.2432V15.4131ZM145.651 3.79199C145.651 3.16536 145.879 2.62419 146.335 2.16846C146.802 1.71273 147.355 1.48486 147.993 1.48486C148.654 1.48486 149.2 1.70703 149.633 2.15137C150.078 2.58431 150.3 3.13118 150.3 3.79199C150.3 4.4528 150.078 5.01107 149.633 5.4668C149.189 5.91113 148.642 6.1333 147.993 6.1333C147.355 6.1333 146.802 5.90544 146.335 5.44971C145.879 4.98258 145.651 4.43001 145.651 3.79199ZM146.147 27V10.7988H149.856V27H146.147ZM153.771 27V10.7988H157.257V13.4478C157.997 12.3312 158.869 11.5166 159.872 11.0039C160.874 10.4912 162.093 10.2349 163.529 10.2349C164.736 10.2349 165.762 10.4285 166.605 10.8159C167.459 11.1919 168.126 11.7559 168.604 12.5078C168.889 12.9521 169.094 13.4705 169.22 14.063C169.345 14.6554 169.408 15.6922 169.408 17.1733V27H165.665V18.6772C165.665 16.5467 165.403 15.134 164.879 14.439C164.366 13.7326 163.449 13.3794 162.127 13.3794C161.262 13.3794 160.487 13.5389 159.803 13.8579C159.131 14.1769 158.601 14.627 158.214 15.208C157.94 15.5954 157.747 16.0967 157.633 16.7119C157.53 17.3158 157.479 18.2842 157.479 19.6172V27H153.771ZM184.585 18.8481C184.585 17.1733 184.192 15.8688 183.406 14.9346C182.631 14.0003 181.543 13.5332 180.142 13.5332C178.74 13.5332 177.635 14.0174 176.826 14.9858C176.029 15.9429 175.63 17.2759 175.63 18.9849C175.63 20.7052 176.017 22.0326 176.792 22.9668C177.567 23.901 178.66 24.3682 180.073 24.3682C181.406 24.3682 182.489 23.8612 183.32 22.8472C184.163 21.8332 184.585 20.5002 184.585 18.8481ZM188.191 25.9917C188.191 29.159 187.559 31.3864 186.294 32.6738C185.029 33.9727 182.899 34.6221 179.902 34.6221C177.669 34.6221 175.886 34.1493 174.553 33.2036C173.22 32.2694 172.542 31.0218 172.519 29.4609L176.501 29.4438C176.558 30.1388 176.883 30.6686 177.475 31.0332C178.068 31.3978 178.9 31.5801 179.971 31.5801C181.554 31.5801 182.694 31.2326 183.389 30.5376C184.084 29.8426 184.437 28.6805 184.448 27.0513L184.482 24.8979C183.822 25.8322 183.047 26.5272 182.158 26.9829C181.281 27.4386 180.273 27.6665 179.133 27.6665C176.843 27.6665 175.037 26.8861 173.716 25.3252C172.406 23.7529 171.75 21.6053 171.75 18.8823C171.75 16.2961 172.423 14.2111 173.767 12.6274C175.111 11.0324 176.866 10.2349 179.031 10.2349C180.352 10.2349 181.48 10.514 182.414 11.0723C183.36 11.6191 184.049 12.411 184.482 13.4478V10.7988H188.191V25.9917ZM201.387 27V1.98047H205.454V11.209H217.759V1.98047H221.826V27H217.759V14.8491H205.454V27H201.387ZM238.593 18.9507C238.593 17.4468 238.109 16.1764 237.14 15.1396C236.172 14.0915 234.987 13.5674 233.586 13.5674C232.196 13.5674 231.011 14.0915 230.031 15.1396C229.062 16.1764 228.578 17.4468 228.578 18.9507C228.578 20.4546 229.062 21.7306 230.031 22.7788C231.011 23.8156 232.196 24.334 233.586 24.334C234.976 24.334 236.155 23.8156 237.123 22.7788C238.103 21.7306 238.593 20.4546 238.593 18.9507ZM224.665 18.9165C224.665 17.7316 224.887 16.6151 225.331 15.5669C225.787 14.5073 226.436 13.5674 227.279 12.7471C228.111 11.9382 229.068 11.3172 230.15 10.8843C231.233 10.4513 232.366 10.2349 233.551 10.2349C234.77 10.2349 235.915 10.4513 236.986 10.8843C238.069 11.3172 239.037 11.9552 239.892 12.7983C240.746 13.63 241.396 14.57 241.84 15.6182C242.284 16.6663 242.506 17.7658 242.506 18.9165C242.506 20.1128 242.284 21.235 241.84 22.2832C241.407 23.3314 240.769 24.2599 239.926 25.0688C239.037 25.9233 238.052 26.5671 236.969 27C235.887 27.4443 234.748 27.6665 233.551 27.6665C232.378 27.6665 231.25 27.4443 230.168 27C229.085 26.5671 228.122 25.9347 227.279 25.103C226.425 24.2599 225.775 23.3143 225.331 22.2661C224.887 21.2179 224.665 20.1014 224.665 18.9165ZM248.746 27H245.037V10.7988H248.523V13.4478C249.264 12.3198 250.101 11.4995 251.036 10.9868C251.981 10.4627 253.092 10.2007 254.368 10.2007C255.633 10.2007 256.681 10.4684 257.513 11.0039C258.344 11.528 258.977 12.3312 259.41 13.4136C260.264 12.297 261.17 11.4824 262.127 10.9697C263.095 10.457 264.195 10.2007 265.425 10.2007C266.496 10.2007 267.431 10.4001 268.228 10.7988C269.026 11.1862 269.646 11.7559 270.091 12.5078C270.296 12.861 270.444 13.2826 270.535 13.7725C270.638 14.2624 270.689 14.9631 270.689 15.8745V17.1733V27H266.98V18.6772C266.98 16.5011 266.747 15.0713 266.28 14.3877C265.824 13.6927 265.004 13.3452 263.819 13.3452C262.361 13.3452 261.318 13.8123 260.691 14.7466C260.076 15.6694 259.769 17.293 259.769 19.6172V27H256.026V18.6772C256.026 16.672 255.781 15.2821 255.291 14.5073C254.812 13.7326 253.981 13.3452 252.796 13.3452C252.067 13.3452 251.4 13.5104 250.796 13.8408C250.193 14.1712 249.714 14.627 249.361 15.208C249.133 15.584 248.973 16.0454 248.882 16.5923C248.791 17.1392 248.746 18.1475 248.746 19.6172V27ZM289.865 19.4463H276.911C277.002 20.9616 277.452 22.1465 278.261 23.001C279.07 23.8441 280.147 24.2656 281.491 24.2656C282.687 24.2656 283.684 24.015 284.482 23.5137C285.279 23.0124 285.974 22.2035 286.567 21.0869L289.694 22.8301C288.783 24.4593 287.655 25.6727 286.31 26.4702C284.966 27.2677 283.388 27.6665 281.577 27.6665C278.979 27.6665 276.911 26.8747 275.373 25.291C273.835 23.7074 273.066 21.5939 273.066 18.9507C273.066 16.41 273.858 14.325 275.441 12.6958C277.036 11.0552 279.081 10.2349 281.577 10.2349C284.186 10.2349 286.219 10.9811 287.678 12.4736C289.136 13.9661 289.865 16.0568 289.865 18.7456V19.4463ZM286.02 16.9512C285.872 15.7891 285.427 14.9061 284.687 14.3022C283.946 13.687 282.932 13.3794 281.645 13.3794C280.426 13.3794 279.446 13.6756 278.705 14.2681C277.965 14.8605 277.447 15.7549 277.15 16.9512H286.02ZM290.482 24.0605L293.558 22.3857C293.786 23.1947 294.207 23.8099 294.823 24.2314C295.438 24.653 296.23 24.8638 297.198 24.8638C298.03 24.8638 298.679 24.6758 299.146 24.2998C299.625 23.9124 299.864 23.3883 299.864 22.7275C299.864 21.8503 299.021 21.0983 297.335 20.4717C296.765 20.2666 296.326 20.0957 296.019 19.959C294.287 19.2412 293.074 18.512 292.379 17.7715C291.695 17.0309 291.353 16.1309 291.353 15.0713C291.353 13.6243 291.917 12.4508 293.045 11.5508C294.185 10.6507 295.688 10.2007 297.557 10.2007C298.81 10.2007 299.881 10.4342 300.77 10.9014C301.67 11.3571 302.325 12.0122 302.735 12.8667L300.103 14.6782C299.91 14.1655 299.568 13.7611 299.078 13.4648C298.599 13.1572 298.041 13.0034 297.403 13.0034C296.697 13.0034 296.127 13.1743 295.694 13.5161C295.273 13.8465 295.062 14.2909 295.062 14.8491C295.062 15.6922 296.019 16.4613 297.933 17.1562C298.537 17.3727 299.004 17.5493 299.334 17.686C300.827 18.2785 301.892 18.9507 302.53 19.7026C303.18 20.4432 303.504 21.3717 303.504 22.4883C303.504 24.1061 302.917 25.3765 301.744 26.2993C300.57 27.2108 298.953 27.6665 296.89 27.6665C295.307 27.6665 293.991 27.3703 292.943 26.7778C291.895 26.1854 291.074 25.2796 290.482 24.0605Z" fill="white"/>
</svg>
