<svg width="398" height="119" viewBox="0 0 398 119" fill="none" xmlns="http://www.w3.org/2000/svg">
<path d="M24.2847 14.5415C24.2847 13.2769 24.0511 12.0749 23.584 10.9355C23.1283 9.79622 22.4674 8.78223 21.6016 7.89355C20.7585 7.01628 19.7786 6.34408 18.6621 5.87695C17.557 5.39844 16.3892 5.15918 15.1587 5.15918C13.9282 5.15918 12.7547 5.39274 11.6382 5.85986C10.533 6.32699 9.54753 7.00488 8.68164 7.89355C7.81576 8.77083 7.15495 9.77913 6.69922 10.9185C6.24349 12.0578 6.01562 13.2655 6.01562 14.5415C6.01562 15.8062 6.24349 17.0024 6.69922 18.1304C7.15495 19.2583 7.81576 20.2666 8.68164 21.1553C9.54753 22.0439 10.533 22.7218 11.6382 23.189C12.7433 23.6561 13.9168 23.8896 15.1587 23.8896C16.3778 23.8896 17.5342 23.6561 18.6279 23.189C19.7331 22.7218 20.7243 22.0439 21.6016 21.1553C22.4674 20.2666 23.1283 19.2583 23.584 18.1304C24.0511 16.991 24.2847 15.7948 24.2847 14.5415ZM28.5229 14.5415C28.5229 16.3188 28.1868 17.9993 27.5146 19.583C26.8538 21.1667 25.8854 22.5794 24.6094 23.8213C23.3219 25.0632 21.8693 26.0145 20.2515 26.6753C18.6336 27.3361 16.936 27.6665 15.1587 27.6665C13.3586 27.6665 11.6382 27.3361 9.99756 26.6753C8.36833 26.0031 6.92708 25.0518 5.67383 23.8213C4.39779 22.5794 3.42936 21.1724 2.76855 19.6001C2.10775 18.0278 1.77734 16.3416 1.77734 14.5415C1.77734 12.7528 2.10775 11.0666 2.76855 9.48291C3.42936 7.89925 4.39779 6.48079 5.67383 5.22754C6.94987 3.98568 8.39681 3.04004 10.0146 2.39062C11.6325 1.74121 13.3472 1.4165 15.1587 1.4165C16.9588 1.4165 18.6621 1.74121 20.2686 2.39062C21.8864 3.04004 23.3333 3.98568 24.6094 5.22754C25.8854 6.49219 26.8538 7.92204 27.5146 9.51709C28.1868 11.1007 28.5229 12.7756 28.5229 14.5415ZM37.1718 27.9741L28.6781 10.7988H32.7284L36.266 18.9507C36.3799 19.2013 36.5167 19.5773 36.6762 20.0786C36.8357 20.5799 37.0009 21.1781 37.1718 21.873C37.2857 21.3831 37.4167 20.8989 37.5648 20.4204C37.7243 19.9305 37.9123 19.4406 38.1288 18.9507L41.6493 10.7988H45.6825L37.1718 27.9741ZM62.2269 19.4463H49.2728C49.3639 20.9616 49.8139 22.1465 50.6229 23.001C51.4318 23.8441 52.5084 24.2656 53.8528 24.2656C55.0491 24.2656 56.046 24.015 56.8436 23.5137C57.6411 23.0124 58.3361 22.2035 58.9285 21.0869L62.056 22.8301C61.1445 24.4593 60.0166 25.6727 58.6722 26.4702C57.3278 27.2677 55.7498 27.6665 53.9383 27.6665C51.3406 27.6665 49.2728 26.8747 47.7347 25.291C46.1966 23.7074 45.4275 21.5939 45.4275 18.9507C45.4275 16.41 46.2194 14.325 47.803 12.6958C49.3981 11.0552 51.4432 10.2349 53.9383 10.2349C56.5473 10.2349 58.581 10.9811 60.0394 12.4736C61.4977 13.9661 62.2269 16.0568 62.2269 18.7456V19.4463ZM58.3816 16.9512C58.2335 15.7891 57.7892 14.9061 57.0486 14.3022C56.3081 13.687 55.2941 13.3794 54.0066 13.3794C52.7876 13.3794 51.8077 13.6756 51.0672 14.2681C50.3266 14.8605 49.8082 15.7549 49.512 16.9512H58.3816ZM68.4147 13.3794C68.8135 12.3084 69.3376 11.5166 69.987 11.0039C70.6478 10.4912 71.4624 10.2349 72.4309 10.2349C72.9549 10.2349 73.4676 10.2975 73.9689 10.4229C74.4816 10.5482 74.9829 10.7305 75.4729 10.9697L74.1398 14.1143C73.8208 13.8864 73.4733 13.7212 73.0974 13.6187C72.7328 13.5047 72.3226 13.4478 71.8669 13.4478C70.6364 13.4478 69.7534 13.9434 69.218 14.9346C68.6825 15.9144 68.4147 17.5664 68.4147 19.8906V27H64.7062V10.7646H68.4147V13.3794ZM86.7036 26.4702L96.9233 5.43262H85.3535V2.21973H102.597L90.002 27.9399L86.7036 26.4702ZM106.58 21.0186C107.162 22.0895 107.908 22.9098 108.819 23.4795C109.731 24.0492 110.745 24.334 111.861 24.334C113.513 24.334 114.852 23.8099 115.877 22.7617C116.903 21.7021 117.415 20.3122 117.415 18.5918C117.415 16.9398 116.874 15.5954 115.792 14.5586C114.721 13.5218 113.314 13.0034 111.571 13.0034C110.523 13.0034 109.548 13.1857 108.648 13.5503C107.76 13.9035 106.974 14.4333 106.29 15.1396L105.282 14.9175L108.392 2.21973H120.218V5.51807H110.836L109.366 11.0381C110.05 10.7533 110.711 10.5425 111.349 10.4058C111.987 10.269 112.625 10.2007 113.263 10.2007C115.644 10.2007 117.581 10.964 119.073 12.4907C120.566 14.0174 121.312 16.0055 121.312 18.4551C121.312 21.2578 120.44 23.4966 118.697 25.1714C116.954 26.8348 114.618 27.6665 111.69 27.6665C109.959 27.6665 108.455 27.3703 107.179 26.7778C105.903 26.174 104.803 25.2454 103.88 23.9922L106.58 21.0186ZM139.618 17.1733H146.591L144.027 11.4653C143.879 11.1007 143.725 10.6849 143.566 10.2178C143.406 9.73926 143.247 9.20947 143.087 8.62842C142.95 9.17529 142.802 9.68799 142.643 10.1665C142.495 10.6336 142.341 11.0666 142.181 11.4653L139.618 17.1733ZM150.863 27L148.026 20.5571H138.114L135.209 27H130.936L143.053 0.989258L155.153 27H150.863ZM159.512 27H155.803V10.7988H159.29V13.4478C160.03 12.3198 160.868 11.4995 161.802 10.9868C162.747 10.4627 163.858 10.2007 165.134 10.2007C166.399 10.2007 167.447 10.4684 168.279 11.0039C169.111 11.528 169.743 12.3312 170.176 13.4136C171.03 12.297 171.936 11.4824 172.893 10.9697C173.862 10.457 174.961 10.2007 176.191 10.2007C177.262 10.2007 178.197 10.4001 178.994 10.7988C179.792 11.1862 180.413 11.7559 180.857 12.5078C181.062 12.861 181.21 13.2826 181.301 13.7725C181.404 14.2624 181.455 14.9631 181.455 15.8745V17.1733V27H177.747V18.6772C177.747 16.5011 177.513 15.0713 177.046 14.3877C176.59 13.6927 175.77 13.3452 174.585 13.3452C173.127 13.3452 172.084 13.8123 171.458 14.7466C170.842 15.6694 170.535 17.293 170.535 19.6172V27H166.792V18.6772C166.792 16.672 166.547 15.2821 166.057 14.5073C165.579 13.7326 164.747 13.3452 163.562 13.3452C162.833 13.3452 162.166 13.5104 161.563 13.8408C160.959 14.1712 160.48 14.627 160.127 15.208C159.899 15.584 159.74 16.0454 159.649 16.5923C159.557 17.1392 159.512 18.1475 159.512 19.6172V27ZM200.631 19.4463H187.677C187.768 20.9616 188.218 22.1465 189.027 23.001C189.836 23.8441 190.913 24.2656 192.257 24.2656C193.454 24.2656 194.451 24.015 195.248 23.5137C196.046 23.0124 196.741 22.2035 197.333 21.0869L200.46 22.8301C199.549 24.4593 198.421 25.6727 197.077 26.4702C195.732 27.2677 194.154 27.6665 192.343 27.6665C189.745 27.6665 187.677 26.8747 186.139 25.291C184.601 23.7074 183.832 21.5939 183.832 18.9507C183.832 16.41 184.624 14.325 186.208 12.6958C187.803 11.0552 189.848 10.2349 192.343 10.2349C194.952 10.2349 196.986 10.9811 198.444 12.4736C199.902 13.9661 200.631 16.0568 200.631 18.7456V19.4463ZM196.786 16.9512C196.638 15.7891 196.194 14.9061 195.453 14.3022C194.713 13.687 193.699 13.3794 192.411 13.3794C191.192 13.3794 190.212 13.6756 189.472 14.2681C188.731 14.8605 188.213 15.7549 187.917 16.9512H196.786ZM203.111 27V10.7988H206.597V13.4478C207.338 12.3312 208.209 11.5166 209.212 11.0039C210.214 10.4912 211.434 10.2349 212.869 10.2349C214.077 10.2349 215.102 10.4285 215.945 10.8159C216.8 11.1919 217.466 11.7559 217.945 12.5078C218.23 12.9521 218.435 13.4705 218.56 14.063C218.685 14.6554 218.748 15.6922 218.748 17.1733V27H215.005V18.6772C215.005 16.5467 214.743 15.134 214.219 14.439C213.706 13.7326 212.789 13.3794 211.468 13.3794C210.602 13.3794 209.827 13.5389 209.143 13.8579C208.471 14.1769 207.941 14.627 207.554 15.208C207.281 15.5954 207.087 16.0967 206.973 16.7119C206.871 17.3158 206.819 18.2842 206.819 19.6172V27H203.111ZM221.962 3.79199C221.962 3.16536 222.19 2.62419 222.646 2.16846C223.113 1.71273 223.665 1.48486 224.304 1.48486C224.964 1.48486 225.511 1.70703 225.944 2.15137C226.388 2.58431 226.611 3.13118 226.611 3.79199C226.611 4.4528 226.388 5.01107 225.944 5.4668C225.5 5.91113 224.953 6.1333 224.304 6.1333C223.665 6.1333 223.113 5.90544 222.646 5.44971C222.19 4.98258 221.962 4.43001 221.962 3.79199ZM222.458 27V10.7988H226.166V27H222.458ZM230.953 27V14.0459H228.116V10.7988H230.953V4.66357H234.661V10.7988H237.498V14.0459H234.661V27H230.953ZM238.986 3.79199C238.986 3.16536 239.214 2.62419 239.67 2.16846C240.137 1.71273 240.69 1.48486 241.328 1.48486C241.989 1.48486 242.535 1.70703 242.968 2.15137C243.413 2.58431 243.635 3.13118 243.635 3.79199C243.635 4.4528 243.413 5.01107 242.968 5.4668C242.524 5.91113 241.977 6.1333 241.328 6.1333C240.69 6.1333 240.137 5.90544 239.67 5.44971C239.214 4.98258 238.986 4.43001 238.986 3.79199ZM239.482 27V10.7988H243.191V27H239.482ZM262.708 19.4463H249.754C249.846 20.9616 250.296 22.1465 251.104 23.001C251.913 23.8441 252.99 24.2656 254.334 24.2656C255.531 24.2656 256.528 24.015 257.325 23.5137C258.123 23.0124 258.818 22.2035 259.41 21.0869L262.538 22.8301C261.626 24.4593 260.498 25.6727 259.154 26.4702C257.809 27.2677 256.231 27.6665 254.42 27.6665C251.822 27.6665 249.754 26.8747 248.216 25.291C246.678 23.7074 245.909 21.5939 245.909 18.9507C245.909 16.41 246.701 14.325 248.285 12.6958C249.88 11.0552 251.925 10.2349 254.42 10.2349C257.029 10.2349 259.063 10.9811 260.521 12.4736C261.979 13.9661 262.708 16.0568 262.708 18.7456V19.4463ZM258.863 16.9512C258.715 15.7891 258.271 14.9061 257.53 14.3022C256.79 13.687 255.776 13.3794 254.488 13.3794C253.269 13.3794 252.289 13.6756 251.549 14.2681C250.808 14.8605 250.29 15.7549 249.994 16.9512H258.863ZM263.325 24.0605L266.401 22.3857C266.629 23.1947 267.051 23.8099 267.666 24.2314C268.281 24.653 269.073 24.8638 270.041 24.8638C270.873 24.8638 271.523 24.6758 271.99 24.2998C272.468 23.9124 272.707 23.3883 272.707 22.7275C272.707 21.8503 271.864 21.0983 270.178 20.4717C269.608 20.2666 269.17 20.0957 268.862 19.959C267.13 19.2412 265.917 18.512 265.222 17.7715C264.538 17.0309 264.197 16.1309 264.197 15.0713C264.197 13.6243 264.761 12.4508 265.889 11.5508C267.028 10.6507 268.532 10.2007 270.4 10.2007C271.654 10.2007 272.725 10.4342 273.613 10.9014C274.513 11.3571 275.168 12.0122 275.579 12.8667L272.947 14.6782C272.753 14.1655 272.411 13.7611 271.921 13.4648C271.443 13.1572 270.885 13.0034 270.246 13.0034C269.54 13.0034 268.97 13.1743 268.538 13.5161C268.116 13.8465 267.905 14.2909 267.905 14.8491C267.905 15.6922 268.862 16.4613 270.776 17.1562C271.38 17.3727 271.847 17.5493 272.178 17.686C273.67 18.2785 274.735 18.9507 275.373 19.7026C276.023 20.4432 276.348 21.3717 276.348 22.4883C276.348 24.1061 275.761 25.3765 274.587 26.2993C273.414 27.2108 271.796 27.6665 269.734 27.6665C268.15 27.6665 266.834 27.3703 265.786 26.7778C264.738 26.1854 263.918 25.2796 263.325 24.0605ZM281.408 22.7617L284.74 23.9922L280.297 33.1523L278.092 32.2808L281.408 22.7617ZM2.23877 45.792C2.23877 45.1654 2.46663 44.6242 2.92236 44.1685C3.38949 43.7127 3.94206 43.4849 4.58008 43.4849C5.24089 43.4849 5.78776 43.707 6.2207 44.1514C6.66504 44.5843 6.88721 45.1312 6.88721 45.792C6.88721 46.4528 6.66504 47.0111 6.2207 47.4668C5.77637 47.9111 5.22949 48.1333 4.58008 48.1333C3.94206 48.1333 3.38949 47.9054 2.92236 47.4497C2.46663 46.9826 2.23877 46.43 2.23877 45.792ZM2.73438 69V52.7988H6.44287V69H2.73438ZM10.3578 69V52.7988H13.8441V55.4478C14.5847 54.3312 15.4563 53.5166 16.4589 53.0039C17.4615 52.4912 18.6806 52.2349 20.1161 52.2349C21.3238 52.2349 22.3492 52.4285 23.1923 52.8159C24.0468 53.1919 24.7133 53.7559 25.1918 54.5078C25.4766 54.9521 25.6817 55.4705 25.807 56.063C25.9324 56.6554 25.995 57.6922 25.995 59.1733V69H22.2523V60.6772C22.2523 58.5467 21.9903 57.134 21.4662 56.439C20.9535 55.7326 20.0364 55.3794 18.7147 55.3794C17.8489 55.3794 17.0741 55.5389 16.3905 55.8579C15.7183 56.1769 15.1885 56.627 14.8012 57.208C14.5277 57.5954 14.334 58.0967 14.2201 58.7119C14.1176 59.3158 14.0663 60.2842 14.0663 61.6172V69H10.3578ZM41.6336 57.4131C41.0639 56.7865 40.3974 56.3079 39.6341 55.9775C38.8821 55.6471 38.0675 55.4819 37.1902 55.4819C35.6749 55.4819 34.4616 55.9718 33.5501 56.9517C32.6386 57.9315 32.1829 59.2303 32.1829 60.8481C32.1829 62.5343 32.6386 63.8617 33.5501 64.8301C34.4729 65.7871 35.7433 66.2656 37.3611 66.2656C38.2612 66.2656 39.0644 66.1004 39.7708 65.77C40.4772 65.4282 41.0981 64.9155 41.6336 64.2319V68.5044C40.95 68.8918 40.2151 69.1823 39.429 69.376C38.6543 69.5697 37.8283 69.6665 36.951 69.6665C34.4103 69.6665 32.3367 68.8576 30.7303 67.2397C29.1352 65.6219 28.3377 63.5256 28.3377 60.9507C28.3377 58.3416 29.1637 56.2396 30.8157 54.6445C32.4791 53.0381 34.6495 52.2349 37.327 52.2349C38.1701 52.2349 38.9448 52.3203 39.6512 52.4912C40.3576 52.6507 41.0184 52.9014 41.6336 53.2432V57.4131ZM44.1984 69V42.5107H47.9069V69H44.1984ZM55.4107 52.7988V61.9248C55.4107 63.4971 55.7355 64.625 56.3849 65.3086C57.0343 65.9922 58.0882 66.334 59.5465 66.334C61.0048 66.334 62.0587 65.9922 62.7081 65.3086C63.3575 64.625 63.6822 63.4971 63.6822 61.9248V52.7988H67.3907V60.814C67.3907 63.9129 66.7698 66.1631 65.5279 67.5645C64.2861 68.9658 62.3036 69.6665 59.5807 69.6665C56.8121 69.6665 54.8069 68.9715 53.565 67.5815C52.3232 66.1916 51.7022 63.9357 51.7022 60.814V52.7988H55.4107ZM82.6362 60.8481C82.6362 59.1733 82.2432 57.8688 81.457 56.9346C80.6823 56.0003 79.5942 55.5332 78.1929 55.5332C76.7915 55.5332 75.6864 56.0174 74.8774 56.9858C74.0799 57.9429 73.6812 59.2759 73.6812 60.9849C73.6812 62.7052 74.0685 64.0326 74.8433 64.9668C75.618 65.901 76.7118 66.3682 78.1245 66.3682C79.4689 66.3682 80.557 65.8669 81.3887 64.8643C82.2204 63.8503 82.6362 62.5116 82.6362 60.8481ZM82.5337 42.5107H86.2422V69H82.5337V66.8979C81.8729 67.8322 81.0981 68.5272 80.2095 68.9829C79.3322 69.4386 78.3239 69.6665 77.1846 69.6665C74.8945 69.6665 73.0887 68.8861 71.7671 67.3252C70.4569 65.7529 69.8018 63.6053 69.8018 60.8823C69.8018 58.2961 70.474 56.2111 71.8184 54.6274C73.1628 53.0324 74.9173 52.2349 77.082 52.2349C78.4036 52.2349 79.5316 52.514 80.4658 53.0723C81.4115 53.6191 82.1007 54.411 82.5337 55.4478V42.5107ZM89.6444 45.792C89.6444 45.1654 89.8723 44.6242 90.328 44.1685C90.7951 43.7127 91.3477 43.4849 91.9857 43.4849C92.6465 43.4849 93.1934 43.707 93.6264 44.1514C94.0707 44.5843 94.2929 45.1312 94.2929 45.792C94.2929 46.4528 94.0707 47.0111 93.6264 47.4668C93.182 47.9111 92.6352 48.1333 91.9857 48.1333C91.3477 48.1333 90.7951 47.9054 90.328 47.4497C89.8723 46.9826 89.6444 46.43 89.6444 45.792ZM90.14 69V52.7988H93.8485V69H90.14ZM97.7635 69V52.7988H101.25V55.4478C101.99 54.3312 102.862 53.5166 103.865 53.0039C104.867 52.4912 106.086 52.2349 107.522 52.2349C108.729 52.2349 109.755 52.4285 110.598 52.8159C111.452 53.1919 112.119 53.7559 112.597 54.5078C112.882 54.9521 113.087 55.4705 113.213 56.063C113.338 56.6554 113.401 57.6922 113.401 59.1733V69H109.658V60.6772C109.658 58.5467 109.396 57.134 108.872 56.439C108.359 55.7326 107.442 55.3794 106.12 55.3794C105.255 55.3794 104.48 55.5389 103.796 55.8579C103.124 56.1769 102.594 56.627 102.207 57.208C101.933 57.5954 101.74 58.0967 101.626 58.7119C101.523 59.3158 101.472 60.2842 101.472 61.6172V69H97.7635ZM128.578 60.8481C128.578 59.1733 128.185 57.8688 127.399 56.9346C126.624 56.0003 125.536 55.5332 124.134 55.5332C122.733 55.5332 121.628 56.0174 120.819 56.9858C120.022 57.9429 119.623 59.2759 119.623 60.9849C119.623 62.7052 120.01 64.0326 120.785 64.9668C121.56 65.901 122.653 66.3682 124.066 66.3682C125.399 66.3682 126.481 65.8612 127.313 64.8472C128.156 63.8332 128.578 62.5002 128.578 60.8481ZM132.184 67.9917C132.184 71.159 131.551 73.3864 130.287 74.6738C129.022 75.9727 126.892 76.6221 123.895 76.6221C121.662 76.6221 119.879 76.1493 118.546 75.2036C117.213 74.2694 116.535 73.0218 116.512 71.4609L120.494 71.4438C120.551 72.1388 120.876 72.6686 121.468 73.0332C122.061 73.3978 122.893 73.5801 123.964 73.5801C125.547 73.5801 126.687 73.2326 127.382 72.5376C128.077 71.8426 128.43 70.6805 128.441 69.0513L128.475 66.8979C127.814 67.8322 127.04 68.5272 126.151 68.9829C125.274 69.4386 124.265 69.6665 123.126 69.6665C120.836 69.6665 119.03 68.8861 117.709 67.3252C116.398 65.7529 115.743 63.6053 115.743 60.8823C115.743 58.2961 116.416 56.2111 117.76 54.6274C119.104 53.0324 120.859 52.2349 123.024 52.2349C124.345 52.2349 125.473 52.514 126.407 53.0723C127.353 53.6191 128.042 54.411 128.475 55.4478V52.7988H132.184V67.9917ZM160.316 69H156.608V66.8979C155.947 67.8322 155.172 68.5272 154.284 68.9829C153.406 69.4386 152.398 69.6665 151.259 69.6665C148.969 69.6665 147.163 68.8861 145.841 67.3252C144.531 65.7529 143.876 63.6053 143.876 60.8823C143.876 58.2961 144.548 56.2111 145.893 54.6274C147.237 53.0324 148.992 52.2349 151.156 52.2349C152.478 52.2349 153.606 52.514 154.54 53.0723C155.486 53.6191 156.175 54.411 156.608 55.4478V52.7988H160.316V69ZM156.71 60.8481C156.71 59.1733 156.317 57.8688 155.531 56.9346C154.757 56.0003 153.668 55.5332 152.267 55.5332C150.866 55.5332 149.761 56.0174 148.952 56.9858C148.154 57.9429 147.755 59.2759 147.755 60.9849C147.755 62.7052 148.143 64.0326 148.917 64.9668C149.692 65.901 150.786 66.3682 152.199 66.3682C153.532 66.3682 154.614 65.8612 155.446 64.8472C156.289 63.8332 156.71 62.5002 156.71 60.8481ZM164.214 69V42.5107H167.923V69H164.214ZM172.009 69V42.5107H175.717V69H172.009ZM201.525 60.9507C201.525 59.4468 201.041 58.1764 200.073 57.1396C199.104 56.0915 197.92 55.5674 196.518 55.5674C195.128 55.5674 193.943 56.0915 192.963 57.1396C191.995 58.1764 191.511 59.4468 191.511 60.9507C191.511 62.4546 191.995 63.7306 192.963 64.7788C193.943 65.8156 195.128 66.334 196.518 66.334C197.908 66.334 199.087 65.8156 200.056 64.7788C201.036 63.7306 201.525 62.4546 201.525 60.9507ZM187.597 60.9165C187.597 59.7316 187.819 58.6151 188.264 57.5669C188.719 56.5073 189.369 55.5674 190.212 54.7471C191.044 53.9382 192.001 53.3172 193.083 52.8843C194.165 52.4513 195.299 52.2349 196.484 52.2349C197.703 52.2349 198.848 52.4513 199.919 52.8843C201.001 53.3172 201.97 53.9552 202.824 54.7983C203.679 55.63 204.328 56.57 204.773 57.6182C205.217 58.6663 205.439 59.7658 205.439 60.9165C205.439 62.1128 205.217 63.235 204.773 64.2832C204.34 65.3314 203.702 66.2599 202.858 67.0688C201.97 67.9233 200.984 68.5671 199.902 69C198.82 69.4443 197.68 69.6665 196.484 69.6665C195.31 69.6665 194.183 69.4443 193.1 69C192.018 68.5671 191.055 67.9347 190.212 67.103C189.358 66.2599 188.708 65.3143 188.264 64.2661C187.819 63.2179 187.597 62.1014 187.597 60.9165ZM211.559 52.7988V61.9248C211.559 63.4971 211.883 64.625 212.533 65.3086C213.182 65.9922 214.236 66.334 215.694 66.334C217.153 66.334 218.207 65.9922 218.856 65.3086C219.505 64.625 219.83 63.4971 219.83 61.9248V52.7988H223.539V60.814C223.539 63.9129 222.918 66.1631 221.676 67.5645C220.434 68.9658 218.451 69.6665 215.729 69.6665C212.96 69.6665 210.955 68.9715 209.713 67.5815C208.471 66.1916 207.85 63.9357 207.85 60.814V52.7988H211.559ZM228.017 69V56.0459H225.181V52.7988H228.017V46.6636H231.726V52.7988H234.563V56.0459H231.726V69H228.017ZM248.014 60.8481C248.014 59.1733 247.621 57.8688 246.835 56.9346C246.06 56.0003 244.972 55.5332 243.571 55.5332C242.169 55.5332 241.064 56.0174 240.255 56.9858C239.458 57.9429 239.059 59.2759 239.059 60.9849C239.059 62.7052 239.446 64.0326 240.221 64.9668C240.996 65.901 242.089 66.3682 243.502 66.3682C244.847 66.3682 245.935 65.8669 246.766 64.8643C247.598 63.8503 248.014 62.5116 248.014 60.8481ZM247.911 42.5107H251.62V69H247.911V66.8979C247.251 67.8322 246.476 68.5272 245.587 68.9829C244.71 69.4386 243.702 69.6665 242.562 69.6665C240.272 69.6665 238.466 68.8861 237.145 67.3252C235.835 65.7529 235.179 63.6053 235.179 60.8823C235.179 58.2961 235.852 56.2111 237.196 54.6274C238.54 53.0324 240.295 52.2349 242.46 52.2349C243.781 52.2349 244.909 52.514 245.844 53.0723C246.789 53.6191 247.478 54.411 247.911 55.4478V42.5107ZM268.079 60.9507C268.079 59.4468 267.595 58.1764 266.626 57.1396C265.658 56.0915 264.473 55.5674 263.071 55.5674C261.682 55.5674 260.497 56.0915 259.517 57.1396C258.548 58.1764 258.064 59.4468 258.064 60.9507C258.064 62.4546 258.548 63.7306 259.517 64.7788C260.497 65.8156 261.682 66.334 263.071 66.334C264.461 66.334 265.641 65.8156 266.609 64.7788C267.589 63.7306 268.079 62.4546 268.079 60.9507ZM254.151 60.9165C254.151 59.7316 254.373 58.6151 254.817 57.5669C255.273 56.5073 255.922 55.5674 256.765 54.7471C257.597 53.9382 258.554 53.3172 259.636 52.8843C260.719 52.4513 261.852 52.2349 263.037 52.2349C264.256 52.2349 265.401 52.4513 266.472 52.8843C267.555 53.3172 268.523 53.9552 269.378 54.7983C270.232 55.63 270.882 56.57 271.326 57.6182C271.77 58.6663 271.992 59.7658 271.992 60.9165C271.992 62.1128 271.77 63.235 271.326 64.2832C270.893 65.3314 270.255 66.2599 269.412 67.0688C268.523 67.9233 267.538 68.5671 266.455 69C265.373 69.4443 264.234 69.6665 263.037 69.6665C261.864 69.6665 260.736 69.4443 259.654 69C258.571 68.5671 257.608 67.9347 256.765 67.103C255.911 66.2599 255.261 65.3143 254.817 64.2661C254.373 63.2179 254.151 62.1014 254.151 60.9165ZM287.255 60.9507C287.255 59.4468 286.771 58.1764 285.802 57.1396C284.834 56.0915 283.649 55.5674 282.248 55.5674C280.858 55.5674 279.673 56.0915 278.693 57.1396C277.725 58.1764 277.24 59.4468 277.24 60.9507C277.24 62.4546 277.725 63.7306 278.693 64.7788C279.673 65.8156 280.858 66.334 282.248 66.334C283.638 66.334 284.817 65.8156 285.785 64.7788C286.765 63.7306 287.255 62.4546 287.255 60.9507ZM273.327 60.9165C273.327 59.7316 273.549 58.6151 273.993 57.5669C274.449 56.5073 275.098 55.5674 275.941 54.7471C276.773 53.9382 277.73 53.3172 278.813 52.8843C279.895 52.4513 281.029 52.2349 282.213 52.2349C283.433 52.2349 284.578 52.4513 285.649 52.8843C286.731 53.3172 287.699 53.9552 288.554 54.7983C289.408 55.63 290.058 56.57 290.502 57.6182C290.946 58.6663 291.169 59.7658 291.169 60.9165C291.169 62.1128 290.946 63.235 290.502 64.2832C290.069 65.3314 289.431 66.2599 288.588 67.0688C287.699 67.9233 286.714 68.5671 285.631 69C284.549 69.4443 283.41 69.6665 282.213 69.6665C281.04 69.6665 279.912 69.4443 278.83 69C277.747 68.5671 276.785 67.9347 275.941 67.103C275.087 66.2599 274.438 65.3143 273.993 64.2661C273.549 63.2179 273.327 62.1014 273.327 60.9165ZM297.408 55.3794C297.806 54.3084 298.331 53.5166 298.98 53.0039C299.641 52.4912 300.455 52.2349 301.424 52.2349C301.948 52.2349 302.461 52.2975 302.962 52.4229C303.475 52.5482 303.976 52.7305 304.466 52.9697L303.133 56.1143C302.814 55.8864 302.466 55.7212 302.09 55.6187C301.726 55.5047 301.316 55.4478 300.86 55.4478C299.629 55.4478 298.746 55.9434 298.211 56.9346C297.675 57.9144 297.408 59.5664 297.408 61.8906V69H293.699V52.7646H297.408V55.3794ZM312.484 66.0605L315.56 64.3857C315.788 65.1947 316.209 65.8099 316.825 66.2314C317.44 66.653 318.232 66.8638 319.2 66.8638C320.032 66.8638 320.681 66.6758 321.148 66.2998C321.627 65.9124 321.866 65.3883 321.866 64.7275C321.866 63.8503 321.023 63.0983 319.337 62.4717C318.767 62.2666 318.328 62.0957 318.021 61.959C316.289 61.2412 315.076 60.512 314.381 59.7715C313.697 59.0309 313.355 58.1309 313.355 57.0713C313.355 55.6243 313.919 54.4508 315.047 53.5508C316.187 52.6507 317.69 52.2007 319.559 52.2007C320.812 52.2007 321.883 52.4342 322.772 52.9014C323.672 53.3571 324.327 54.0122 324.737 54.8667L322.105 56.6782C321.912 56.1655 321.57 55.7611 321.08 55.4648C320.601 55.1572 320.043 55.0034 319.405 55.0034C318.699 55.0034 318.129 55.1743 317.696 55.5161C317.275 55.8465 317.064 56.2909 317.064 56.8491C317.064 57.6922 318.021 58.4613 319.935 59.1562C320.539 59.3727 321.006 59.5493 321.336 59.686C322.829 60.2785 323.894 60.9507 324.532 61.7026C325.181 62.4432 325.506 63.3717 325.506 64.4883C325.506 66.1061 324.919 67.3765 323.746 68.2993C322.572 69.2108 320.955 69.6665 318.892 69.6665C317.309 69.6665 315.993 69.3703 314.945 68.7778C313.896 68.1854 313.076 67.2796 312.484 66.0605ZM331.438 60.8481C331.438 62.5229 331.854 63.8617 332.685 64.8643C333.528 65.8669 334.633 66.3682 336.001 66.3682C337.402 66.3682 338.484 65.901 339.248 64.9668C340.022 64.0326 340.41 62.7052 340.41 60.9849C340.41 59.2759 340.005 57.9429 339.196 56.9858C338.399 56.0174 337.299 55.5332 335.898 55.5332C334.497 55.5332 333.403 56.0003 332.617 56.9346C331.831 57.8688 331.438 59.1733 331.438 60.8481ZM327.849 76.6221V52.7988H331.557V55.4478C331.99 54.4224 332.68 53.6305 333.625 53.0723C334.582 52.514 335.722 52.2349 337.043 52.2349C339.196 52.2349 340.94 53.0324 342.273 54.6274C343.617 56.2111 344.289 58.2961 344.289 60.8823C344.289 63.6053 343.628 65.7529 342.307 67.3252C340.997 68.8861 339.196 69.6665 336.906 69.6665C335.767 69.6665 334.753 69.4386 333.864 68.9829C332.987 68.5272 332.218 67.8322 331.557 66.8979V76.6221H327.849ZM359.552 60.9507C359.552 59.4468 359.068 58.1764 358.099 57.1396C357.131 56.0915 355.946 55.5674 354.545 55.5674C353.155 55.5674 351.97 56.0915 350.99 57.1396C350.021 58.1764 349.537 59.4468 349.537 60.9507C349.537 62.4546 350.021 63.7306 350.99 64.7788C351.97 65.8156 353.155 66.334 354.545 66.334C355.934 66.334 357.114 65.8156 358.082 64.7788C359.062 63.7306 359.552 62.4546 359.552 60.9507ZM345.624 60.9165C345.624 59.7316 345.846 58.6151 346.29 57.5669C346.746 56.5073 347.395 55.5674 348.238 54.7471C349.07 53.9382 350.027 53.3172 351.109 52.8843C352.192 52.4513 353.325 52.2349 354.51 52.2349C355.729 52.2349 356.874 52.4513 357.945 52.8843C359.028 53.3172 359.996 53.9552 360.851 54.7983C361.705 55.63 362.355 56.57 362.799 57.6182C363.243 58.6663 363.465 59.7658 363.465 60.9165C363.465 62.1128 363.243 63.235 362.799 64.2832C362.366 65.3314 361.728 66.2599 360.885 67.0688C359.996 67.9233 359.011 68.5671 357.928 69C356.846 69.4443 355.707 69.6665 354.51 69.6665C353.337 69.6665 352.209 69.4443 351.127 69C350.044 68.5671 349.081 67.9347 348.238 67.103C347.384 66.2599 346.734 65.3143 346.29 64.2661C345.846 63.2179 345.624 62.1014 345.624 60.9165ZM369.705 55.3794C370.103 54.3084 370.627 53.5166 371.277 53.0039C371.938 52.4912 372.752 52.2349 373.721 52.2349C374.245 52.2349 374.757 52.2975 375.259 52.4229C375.771 52.5482 376.273 52.7305 376.763 52.9697L375.43 56.1143C375.111 55.8864 374.763 55.7212 374.387 55.6187C374.023 55.5047 373.612 55.4478 373.157 55.4478C371.926 55.4478 371.043 55.9434 370.508 56.9346C369.972 57.9144 369.705 59.5664 369.705 61.8906V69H365.996V52.7646H369.705V55.3794ZM378.353 69V56.0459H375.517V52.7988H378.353V46.6636H382.062V52.7988H384.899V56.0459H382.062V69H378.353ZM384.849 66.0605L387.925 64.3857C388.153 65.1947 388.575 65.8099 389.19 66.2314C389.805 66.653 390.597 66.8638 391.565 66.8638C392.397 66.8638 393.046 66.6758 393.513 66.2998C393.992 65.9124 394.231 65.3883 394.231 64.7275C394.231 63.8503 393.388 63.0983 391.702 62.4717C391.132 62.2666 390.694 62.0957 390.386 61.959C388.654 61.2412 387.441 60.512 386.746 59.7715C386.062 59.0309 385.721 58.1309 385.721 57.0713C385.721 55.6243 386.284 54.4508 387.412 53.5508C388.552 52.6507 390.056 52.2007 391.924 52.2007C393.177 52.2007 394.248 52.4342 395.137 52.9014C396.037 53.3571 396.692 54.0122 397.102 54.8667L394.471 56.6782C394.277 56.1655 393.935 55.7611 393.445 55.4648C392.967 55.1572 392.408 55.0034 391.77 55.0034C391.064 55.0034 390.494 55.1743 390.061 55.5161C389.64 55.8465 389.429 56.2909 389.429 56.8491C389.429 57.6922 390.386 58.4613 392.3 59.1562C392.904 59.3727 393.371 59.5493 393.701 59.686C395.194 60.2785 396.259 60.9507 396.897 61.7026C397.547 62.4432 397.871 63.3717 397.871 64.4883C397.871 66.1061 397.285 67.3765 396.111 68.2993C394.938 69.2108 393.32 69.6665 391.258 69.6665C389.674 69.6665 388.358 69.3703 387.31 68.7778C386.262 68.1854 385.441 67.2796 384.849 66.0605ZM3.07617 111V98.0459H0.239258V94.7988H3.07617V90.458C3.07617 88.3047 3.52051 86.7153 4.40918 85.6899C5.30924 84.6646 6.69922 84.1519 8.5791 84.1519C8.97786 84.1519 9.38802 84.1803 9.80957 84.2373C10.2311 84.2943 10.6584 84.3854 11.0913 84.5107V87.8604C10.7951 87.6895 10.4932 87.5641 10.1855 87.4844C9.88932 87.3932 9.5874 87.3477 9.27979 87.3477C8.39111 87.3477 7.75309 87.6211 7.36572 88.168C6.97835 88.7148 6.78467 89.6377 6.78467 90.9365V94.7988H10.6812V98.0459H6.78467V111H3.07617ZM27.14 111H23.4315V108.898C22.7707 109.832 21.996 110.527 21.1073 110.983C20.23 111.439 19.2217 111.667 18.0824 111.667C15.7924 111.667 13.9866 110.886 12.6649 109.325C11.3547 107.753 10.6996 105.605 10.6996 102.882C10.6996 100.296 11.3718 98.2111 12.7162 96.6274C14.0606 95.0324 15.8152 94.2349 17.9799 94.2349C19.3015 94.2349 20.4294 94.514 21.3637 95.0723C22.3093 95.6191 22.9986 96.411 23.4315 97.4478V94.7988H27.14V111ZM23.5341 102.848C23.5341 101.173 23.141 99.8688 22.3549 98.9346C21.5801 98.0003 20.4921 97.5332 19.0907 97.5332C17.6894 97.5332 16.5842 98.0174 15.7753 98.9858C14.9778 99.9429 14.579 101.276 14.579 102.985C14.579 104.705 14.9664 106.033 15.7411 106.967C16.5159 107.901 17.6096 108.368 19.0224 108.368C20.3554 108.368 21.4377 107.861 22.2694 106.847C23.1125 105.833 23.5341 104.5 23.5341 102.848ZM42.9666 99.4131C42.3969 98.7865 41.7304 98.3079 40.9671 97.9775C40.2151 97.6471 39.4005 97.4819 38.5232 97.4819C37.0079 97.4819 35.7946 97.9718 34.8831 98.9517C33.9716 99.9315 33.5159 101.23 33.5159 102.848C33.5159 104.534 33.9716 105.862 34.8831 106.83C35.806 107.787 37.0763 108.266 38.6941 108.266C39.5942 108.266 40.3974 108.1 41.1038 107.77C41.8102 107.428 42.4311 106.916 42.9666 106.232V110.504C42.283 110.892 41.5481 111.182 40.762 111.376C39.9873 111.57 39.1613 111.667 38.284 111.667C35.7433 111.667 33.6697 110.858 32.0633 109.24C30.4682 107.622 29.6707 105.526 29.6707 102.951C29.6707 100.342 30.4967 98.2396 32.1487 96.6445C33.8121 95.0381 35.9826 94.2349 38.66 94.2349C39.5031 94.2349 40.2778 94.3203 40.9842 94.4912C41.6906 94.6507 42.3514 94.9014 42.9666 95.2432V99.4131ZM45.0358 87.792C45.0358 87.1654 45.2637 86.6242 45.7194 86.1685C46.1866 85.7127 46.7391 85.4849 47.3771 85.4849C48.038 85.4849 48.5848 85.707 49.0178 86.1514C49.4621 86.5843 49.6843 87.1312 49.6843 87.792C49.6843 88.4528 49.4621 89.0111 49.0178 89.4668C48.5734 89.9111 48.0266 90.1333 47.3771 90.1333C46.7391 90.1333 46.1866 89.9054 45.7194 89.4497C45.2637 88.9826 45.0358 88.43 45.0358 87.792ZM45.5314 111V94.7988H49.2399V111H45.5314ZM53.3258 111V84.5107H57.0343V111H53.3258ZM60.6245 87.792C60.6245 87.1654 60.8524 86.6242 61.3081 86.1685C61.7752 85.7127 62.3278 85.4849 62.9658 85.4849C63.6266 85.4849 64.1735 85.707 64.6064 86.1514C65.0508 86.5843 65.2729 87.1312 65.2729 87.792C65.2729 88.4528 65.0508 89.0111 64.6064 89.4668C64.1621 89.9111 63.6152 90.1333 62.9658 90.1333C62.3278 90.1333 61.7752 89.9054 61.3081 89.4497C60.8524 88.9826 60.6245 88.43 60.6245 87.792ZM61.1201 111V94.7988H64.8286V111H61.1201ZM69.6151 111V98.0459H66.7782V94.7988H69.6151V88.6636H73.3236V94.7988H76.1605V98.0459H73.3236V111H69.6151ZM77.6487 87.792C77.6487 87.1654 77.8766 86.6242 78.3323 86.1685C78.7994 85.7127 79.352 85.4849 79.99 85.4849C80.6508 85.4849 81.1977 85.707 81.6307 86.1514C82.075 86.5843 82.2972 87.1312 82.2972 87.792C82.2972 88.4528 82.075 89.0111 81.6307 89.4668C81.1863 89.9111 80.6395 90.1333 79.99 90.1333C79.352 90.1333 78.7994 89.9054 78.3323 89.4497C77.8766 88.9826 77.6487 88.43 77.6487 87.792ZM78.1443 111V94.7988H81.8528V111H78.1443ZM101.371 103.446H88.4167C88.5078 104.962 88.9579 106.146 89.7668 107.001C90.5757 107.844 91.6524 108.266 92.9968 108.266C94.1931 108.266 95.19 108.015 95.9875 107.514C96.785 107.012 97.48 106.203 98.0725 105.087L101.2 106.83C100.288 108.459 99.1605 109.673 97.8161 110.47C96.4717 111.268 94.8938 111.667 93.0822 111.667C90.4846 111.667 88.4167 110.875 86.8786 109.291C85.3405 107.707 84.5715 105.594 84.5715 102.951C84.5715 100.41 85.3633 98.325 86.947 96.6958C88.542 95.0552 90.5871 94.2349 93.0822 94.2349C95.6913 94.2349 97.725 94.9811 99.1833 96.4736C100.642 97.9661 101.371 100.057 101.371 102.746V103.446ZM97.5256 100.951C97.3775 99.7891 96.9331 98.9061 96.1926 98.3022C95.452 97.687 94.438 97.3794 93.1506 97.3794C91.9315 97.3794 90.9517 97.6756 90.2111 98.2681C89.4706 98.8605 88.9522 99.7549 88.656 100.951H97.5256ZM101.987 108.061L105.064 106.386C105.291 107.195 105.713 107.81 106.328 108.231C106.943 108.653 107.735 108.864 108.704 108.864C109.535 108.864 110.185 108.676 110.652 108.3C111.13 107.912 111.37 107.388 111.37 106.728C111.37 105.85 110.527 105.098 108.84 104.472C108.271 104.267 107.832 104.096 107.525 103.959C105.793 103.241 104.579 102.512 103.884 101.771C103.201 101.031 102.859 100.131 102.859 99.0713C102.859 97.6243 103.423 96.4508 104.551 95.5508C105.69 94.6507 107.194 94.2007 109.063 94.2007C110.316 94.2007 111.387 94.4342 112.275 94.9014C113.176 95.3571 113.831 96.0122 114.241 96.8667L111.609 98.6782C111.415 98.1655 111.074 97.7611 110.584 97.4648C110.105 97.1572 109.547 97.0034 108.909 97.0034C108.202 97.0034 107.633 97.1743 107.2 97.5161C106.778 97.8465 106.567 98.2909 106.567 98.8491C106.567 99.6922 107.525 100.461 109.439 101.156C110.042 101.373 110.51 101.549 110.84 101.686C112.332 102.278 113.398 102.951 114.036 103.703C114.685 104.443 115.01 105.372 115.01 106.488C115.01 108.106 114.423 109.376 113.25 110.299C112.076 111.211 110.458 111.667 108.396 111.667C106.812 111.667 105.497 111.37 104.448 110.778C103.4 110.185 102.58 109.28 101.987 108.061ZM141.758 111H138.05V108.898C137.389 109.832 136.614 110.527 135.725 110.983C134.848 111.439 133.84 111.667 132.701 111.667C130.411 111.667 128.605 110.886 127.283 109.325C125.973 107.753 125.318 105.605 125.318 102.882C125.318 100.296 125.99 98.2111 127.334 96.6274C128.679 95.0324 130.433 94.2349 132.598 94.2349C133.92 94.2349 135.048 94.514 135.982 95.0723C136.927 95.6191 137.617 96.411 138.05 97.4478V94.7988H141.758V111ZM138.152 102.848C138.152 101.173 137.759 99.8688 136.973 98.9346C136.198 98.0003 135.11 97.5332 133.709 97.5332C132.308 97.5332 131.202 98.0174 130.393 98.9858C129.596 99.9429 129.197 101.276 129.197 102.985C129.197 104.705 129.585 106.033 130.359 106.967C131.134 107.901 132.228 108.368 133.641 108.368C134.974 108.368 136.056 107.861 136.888 106.847C137.731 105.833 138.152 104.5 138.152 102.848ZM149.194 97.3794C149.592 96.3084 150.117 95.5166 150.766 95.0039C151.427 94.4912 152.241 94.2349 153.21 94.2349C153.734 94.2349 154.247 94.2975 154.748 94.4229C155.261 94.5482 155.762 94.7305 156.252 94.9697L154.919 98.1143C154.6 97.8864 154.252 97.7212 153.876 97.6187C153.512 97.5047 153.102 97.4478 152.646 97.4478C151.415 97.4478 150.532 97.9434 149.997 98.9346C149.461 99.9144 149.194 101.566 149.194 103.891V111H145.485V94.7646H149.194V97.3794ZM172.574 103.446H159.62C159.711 104.962 160.161 106.146 160.97 107.001C161.779 107.844 162.856 108.266 164.2 108.266C165.396 108.266 166.393 108.015 167.191 107.514C167.988 107.012 168.683 106.203 169.276 105.087L172.403 106.83C171.492 108.459 170.364 109.673 169.019 110.47C167.675 111.268 166.097 111.667 164.285 111.667C161.688 111.667 159.62 110.875 158.082 109.291C156.544 107.707 155.775 105.594 155.775 102.951C155.775 100.41 156.566 98.325 158.15 96.6958C159.745 95.0552 161.79 94.2349 164.285 94.2349C166.894 94.2349 168.928 94.9811 170.386 96.4736C171.845 97.9661 172.574 100.057 172.574 102.746V103.446ZM168.729 100.951C168.581 99.7891 168.136 98.9061 167.396 98.3022C166.655 97.687 165.641 97.3794 164.354 97.3794C163.135 97.3794 162.155 97.6756 161.414 98.2681C160.674 98.8605 160.155 99.7549 159.859 100.951H168.729ZM187.804 102.848C187.804 104.523 188.22 105.862 189.051 106.864C189.894 107.867 191 108.368 192.367 108.368C193.768 108.368 194.85 107.901 195.614 106.967C196.389 106.033 196.776 104.705 196.776 102.985C196.776 101.276 196.371 99.9429 195.562 98.9858C194.765 98.0174 193.666 97.5332 192.264 97.5332C190.863 97.5332 189.769 98.0003 188.983 98.9346C188.197 99.8688 187.804 101.173 187.804 102.848ZM184.215 118.622V94.7988H187.923V97.4478C188.356 96.4224 189.046 95.6305 189.991 95.0723C190.948 94.514 192.088 94.2349 193.409 94.2349C195.562 94.2349 197.306 95.0324 198.639 96.6274C199.983 98.2111 200.655 100.296 200.655 102.882C200.655 105.605 199.994 107.753 198.673 109.325C197.363 110.886 195.562 111.667 193.272 111.667C192.133 111.667 191.119 111.439 190.23 110.983C189.353 110.527 188.584 109.832 187.923 108.898V118.622H184.215ZM206.894 97.3794C207.293 96.3084 207.817 95.5166 208.467 95.0039C209.128 94.4912 209.942 94.2349 210.911 94.2349C211.435 94.2349 211.947 94.2975 212.449 94.4229C212.961 94.5482 213.463 94.7305 213.953 94.9697L212.62 98.1143C212.301 97.8864 211.953 97.7212 211.577 97.6187C211.212 97.5047 210.802 97.4478 210.347 97.4478C209.116 97.4478 208.233 97.9434 207.698 98.9346C207.162 99.9144 206.894 101.566 206.894 103.891V111H203.186V94.7646H206.894V97.3794ZM227.404 102.951C227.404 101.447 226.919 100.176 225.951 99.1396C224.983 98.0915 223.798 97.5674 222.396 97.5674C221.006 97.5674 219.821 98.0915 218.842 99.1396C217.873 100.176 217.389 101.447 217.389 102.951C217.389 104.455 217.873 105.731 218.842 106.779C219.821 107.816 221.006 108.334 222.396 108.334C223.786 108.334 224.965 107.816 225.934 106.779C226.914 105.731 227.404 104.455 227.404 102.951ZM213.475 102.917C213.475 101.732 213.698 100.615 214.142 99.5669C214.598 98.5073 215.247 97.5674 216.09 96.7471C216.922 95.9382 217.879 95.3172 218.961 94.8843C220.044 94.4513 221.177 94.2349 222.362 94.2349C223.581 94.2349 224.726 94.4513 225.797 94.8843C226.88 95.3172 227.848 95.9552 228.702 96.7983C229.557 97.63 230.206 98.57 230.651 99.6182C231.095 100.666 231.317 101.766 231.317 102.917C231.317 104.113 231.095 105.235 230.651 106.283C230.218 107.331 229.58 108.26 228.737 109.069C227.848 109.923 226.862 110.567 225.78 111C224.698 111.444 223.558 111.667 222.362 111.667C221.189 111.667 220.061 111.444 218.978 111C217.896 110.567 216.933 109.935 216.09 109.103C215.236 108.26 214.586 107.314 214.142 106.266C213.698 105.218 213.475 104.101 213.475 102.917ZM239.539 111.974L231.045 94.7988H235.095L238.633 102.951C238.747 103.201 238.884 103.577 239.043 104.079C239.203 104.58 239.368 105.178 239.539 105.873C239.653 105.383 239.784 104.899 239.932 104.42C240.091 103.931 240.279 103.441 240.496 102.951L244.016 94.7988H248.05L239.539 111.974ZM248.666 87.792C248.666 87.1654 248.894 86.6242 249.35 86.1685C249.817 85.7127 250.369 85.4849 251.007 85.4849C251.668 85.4849 252.215 85.707 252.648 86.1514C253.092 86.5843 253.315 87.1312 253.315 87.792C253.315 88.4528 253.092 89.0111 252.648 89.4668C252.204 89.9111 251.657 90.1333 251.007 90.1333C250.369 90.1333 249.817 89.9054 249.35 89.4497C248.894 88.9826 248.666 88.43 248.666 87.792ZM249.162 111V94.7988H252.87V111H249.162ZM268.423 102.848C268.423 101.173 268.03 99.8688 267.244 98.9346C266.469 98.0003 265.381 97.5332 263.98 97.5332C262.579 97.5332 261.473 98.0174 260.665 98.9858C259.867 99.9429 259.468 101.276 259.468 102.985C259.468 104.705 259.856 106.033 260.63 106.967C261.405 107.901 262.499 108.368 263.912 108.368C265.256 108.368 266.344 107.867 267.176 106.864C268.007 105.85 268.423 104.512 268.423 102.848ZM268.321 84.5107H272.029V111H268.321V108.898C267.66 109.832 266.885 110.527 265.997 110.983C265.119 111.439 264.111 111.667 262.972 111.667C260.682 111.667 258.876 110.886 257.554 109.325C256.244 107.753 255.589 105.605 255.589 102.882C255.589 100.296 256.261 98.2111 257.605 96.6274C258.95 95.0324 260.704 94.2349 262.869 94.2349C264.191 94.2349 265.319 94.514 266.253 95.0723C267.199 95.6191 267.888 96.411 268.321 97.4478V84.5107ZM291.359 103.446H278.405C278.496 104.962 278.946 106.146 279.755 107.001C280.564 107.844 281.641 108.266 282.985 108.266C284.182 108.266 285.178 108.015 285.976 107.514C286.774 107.012 287.468 106.203 288.061 105.087L291.188 106.83C290.277 108.459 289.149 109.673 287.805 110.47C286.46 111.268 284.882 111.667 283.071 111.667C280.473 111.667 278.405 110.875 276.867 109.291C275.329 107.707 274.56 105.594 274.56 102.951C274.56 100.41 275.352 98.325 276.935 96.6958C278.531 95.0552 280.576 94.2349 283.071 94.2349C285.68 94.2349 287.713 94.9811 289.172 96.4736C290.63 97.9661 291.359 100.057 291.359 102.746V103.446ZM287.514 100.951C287.366 99.7891 286.922 98.9061 286.181 98.3022C285.441 97.687 284.427 97.3794 283.139 97.3794C281.92 97.3794 280.94 97.6756 280.2 98.2681C279.459 98.8605 278.941 99.7549 278.644 100.951H287.514ZM305.477 102.848C305.477 101.173 305.084 99.8688 304.298 98.9346C303.523 98.0003 302.435 97.5332 301.034 97.5332C299.632 97.5332 298.527 98.0174 297.718 98.9858C296.921 99.9429 296.522 101.276 296.522 102.985C296.522 104.705 296.909 106.033 297.684 106.967C298.459 107.901 299.552 108.368 300.965 108.368C302.31 108.368 303.398 107.867 304.229 106.864C305.061 105.85 305.477 104.512 305.477 102.848ZM305.374 84.5107H309.083V111H305.374V108.898C304.714 109.832 303.939 110.527 303.05 110.983C302.173 111.439 301.165 111.667 300.025 111.667C297.735 111.667 295.929 110.886 294.608 109.325C293.298 107.753 292.642 105.605 292.642 102.882C292.642 100.296 293.315 98.2111 294.659 96.6274C296.003 95.0324 297.758 94.2349 299.923 94.2349C301.244 94.2349 302.372 94.514 303.306 95.0723C304.252 95.6191 304.941 96.411 305.374 97.4478V84.5107ZM313.288 109.103C313.288 108.476 313.505 107.941 313.938 107.497C314.371 107.052 314.9 106.83 315.527 106.83C316.154 106.83 316.683 107.052 317.116 107.497C317.549 107.941 317.766 108.476 317.766 109.103C317.766 109.718 317.549 110.242 317.116 110.675C316.683 111.097 316.154 111.308 315.527 111.308C314.9 111.308 314.371 111.097 313.938 110.675C313.505 110.242 313.288 109.718 313.288 109.103Z" fill="white"/>
</svg>
