<svg width="294" height="112" viewBox="0 0 294 112" fill="none" xmlns="http://www.w3.org/2000/svg">
<path d="M24.2847 14.5415C24.2847 13.2769 24.0511 12.0749 23.584 10.9355C23.1283 9.79622 22.4674 8.78223 21.6016 7.89355C20.7585 7.01628 19.7786 6.34408 18.6621 5.87695C17.557 5.39844 16.3892 5.15918 15.1587 5.15918C13.9282 5.15918 12.7547 5.39274 11.6382 5.85986C10.533 6.32699 9.54753 7.00488 8.68164 7.89355C7.81576 8.77083 7.15495 9.77913 6.69922 10.9185C6.24349 12.0578 6.01562 13.2655 6.01562 14.5415C6.01562 15.8062 6.24349 17.0024 6.69922 18.1304C7.15495 19.2583 7.81576 20.2666 8.68164 21.1553C9.54753 22.0439 10.533 22.7218 11.6382 23.189C12.7433 23.6561 13.9168 23.8896 15.1587 23.8896C16.3778 23.8896 17.5342 23.6561 18.6279 23.189C19.7331 22.7218 20.7243 22.0439 21.6016 21.1553C22.4674 20.2666 23.1283 19.2583 23.584 18.1304C24.0511 16.991 24.2847 15.7948 24.2847 14.5415ZM28.5229 14.5415C28.5229 16.3188 28.1868 17.9993 27.5146 19.583C26.8538 21.1667 25.8854 22.5794 24.6094 23.8213C23.3219 25.0632 21.8693 26.0145 20.2515 26.6753C18.6336 27.3361 16.936 27.6665 15.1587 27.6665C13.3586 27.6665 11.6382 27.3361 9.99756 26.6753C8.36833 26.0031 6.92708 25.0518 5.67383 23.8213C4.39779 22.5794 3.42936 21.1724 2.76855 19.6001C2.10775 18.0278 1.77734 16.3416 1.77734 14.5415C1.77734 12.7528 2.10775 11.0666 2.76855 9.48291C3.42936 7.89925 4.39779 6.48079 5.67383 5.22754C6.94987 3.98568 8.39681 3.04004 10.0146 2.39062C11.6325 1.74121 13.3472 1.4165 15.1587 1.4165C16.9588 1.4165 18.6621 1.74121 20.2686 2.39062C21.8864 3.04004 23.3333 3.98568 24.6094 5.22754C25.8854 6.49219 26.8538 7.92204 27.5146 9.51709C28.1868 11.1007 28.5229 12.7756 28.5229 14.5415ZM37.1718 27.9741L28.6781 10.7988H32.7284L36.266 18.9507C36.3799 19.2013 36.5167 19.5773 36.6762 20.0786C36.8357 20.5799 37.0009 21.1781 37.1718 21.873C37.2857 21.3831 37.4167 20.8989 37.5648 20.4204C37.7243 19.9305 37.9123 19.4406 38.1288 18.9507L41.6493 10.7988H45.6825L37.1718 27.9741ZM62.2269 19.4463H49.2728C49.3639 20.9616 49.8139 22.1465 50.6229 23.001C51.4318 23.8441 52.5084 24.2656 53.8528 24.2656C55.0491 24.2656 56.046 24.015 56.8436 23.5137C57.6411 23.0124 58.3361 22.2035 58.9285 21.0869L62.056 22.8301C61.1445 24.4593 60.0166 25.6727 58.6722 26.4702C57.3278 27.2677 55.7498 27.6665 53.9383 27.6665C51.3406 27.6665 49.2728 26.8747 47.7347 25.291C46.1966 23.7074 45.4275 21.5939 45.4275 18.9507C45.4275 16.41 46.2194 14.325 47.803 12.6958C49.3981 11.0552 51.4432 10.2349 53.9383 10.2349C56.5473 10.2349 58.581 10.9811 60.0394 12.4736C61.4977 13.9661 62.2269 16.0568 62.2269 18.7456V19.4463ZM58.3816 16.9512C58.2335 15.7891 57.7892 14.9061 57.0486 14.3022C56.3081 13.687 55.2941 13.3794 54.0066 13.3794C52.7876 13.3794 51.8077 13.6756 51.0672 14.2681C50.3266 14.8605 49.8082 15.7549 49.512 16.9512H58.3816ZM68.4147 13.3794C68.8135 12.3084 69.3376 11.5166 69.987 11.0039C70.6478 10.4912 71.4624 10.2349 72.4309 10.2349C72.9549 10.2349 73.4676 10.2975 73.9689 10.4229C74.4816 10.5482 74.9829 10.7305 75.4729 10.9697L74.1398 14.1143C73.8208 13.8864 73.4733 13.7212 73.0974 13.6187C72.7328 13.5047 72.3226 13.4478 71.8669 13.4478C70.6364 13.4478 69.7534 13.9434 69.218 14.9346C68.6825 15.9144 68.4147 17.5664 68.4147 19.8906V27H64.7062V10.7646H68.4147V13.3794ZM100.29 23.7529V27H83.5249L92.873 15.8062C94.0352 14.4048 94.884 13.1743 95.4194 12.1147C95.9549 11.0552 96.2227 10.0924 96.2227 9.22656C96.2227 7.9847 95.8524 7.01058 95.1118 6.3042C94.3826 5.58643 93.38 5.22754 92.104 5.22754C90.9647 5.22754 90.0247 5.58643 89.2842 6.3042C88.5436 7.01058 88.1278 7.94482 88.0366 9.10693H84.123C84.123 6.86247 84.875 5.07373 86.3789 3.74072C87.8828 2.39632 89.9051 1.72412 92.4458 1.72412C94.8612 1.72412 96.7638 2.34505 98.1538 3.58691C99.5552 4.82878 100.256 6.52067 100.256 8.6626C100.256 10.1893 99.8514 11.7331 99.0425 13.2939C98.245 14.8434 96.5474 17.0993 93.9497 20.0615L90.771 23.7529H100.29ZM122.115 14.9517C122.115 18.9279 121.312 22.0439 119.705 24.2998C118.11 26.5443 115.912 27.6665 113.109 27.6665C110.272 27.6665 108.062 26.5329 106.478 24.2656C104.906 21.987 104.12 18.7912 104.12 14.6782C104.12 10.5994 104.917 7.42074 106.512 5.14209C108.107 2.86344 110.323 1.72412 113.16 1.72412C116.031 1.72412 118.241 2.86914 119.791 5.15918C121.34 7.43783 122.115 10.702 122.115 14.9517ZM113.04 24.1631C114.704 24.1631 115.951 23.3713 116.783 21.7876C117.626 20.1925 118.048 17.8114 118.048 14.644C118.048 11.5679 117.632 9.22656 116.8 7.62012C115.98 6.00228 114.778 5.19336 113.194 5.19336C111.542 5.19336 110.295 5.99658 109.452 7.60303C108.608 9.20947 108.187 11.5793 108.187 14.7124C108.187 17.7544 108.603 20.09 109.434 21.7192C110.278 23.3485 111.48 24.1631 113.04 24.1631ZM141.872 14.9517C141.872 18.9279 141.069 22.0439 139.463 24.2998C137.868 26.5443 135.669 27.6665 132.866 27.6665C130.029 27.6665 127.819 26.5329 126.235 24.2656C124.663 21.987 123.877 18.7912 123.877 14.6782C123.877 10.5994 124.674 7.42074 126.269 5.14209C127.864 2.86344 130.08 1.72412 132.917 1.72412C135.788 1.72412 137.999 2.86914 139.548 5.15918C141.098 7.43783 141.872 10.702 141.872 14.9517ZM132.798 24.1631C134.461 24.1631 135.709 23.3713 136.54 21.7876C137.383 20.1925 137.805 17.8114 137.805 14.644C137.805 11.5679 137.389 9.22656 136.557 7.62012C135.737 6.00228 134.535 5.19336 132.951 5.19336C131.299 5.19336 130.052 5.99658 129.209 7.60303C128.366 9.20947 127.944 11.5793 127.944 14.7124C127.944 17.7544 128.36 20.09 129.192 21.7192C130.035 23.3485 131.237 24.1631 132.798 24.1631ZM165.425 18.8481C165.425 17.1733 165.032 15.8688 164.246 14.9346C163.471 14.0003 162.383 13.5332 160.982 13.5332C159.58 13.5332 158.475 14.0174 157.666 14.9858C156.869 15.9429 156.47 17.2759 156.47 18.9849C156.47 20.7052 156.857 22.0326 157.632 22.9668C158.407 23.901 159.5 24.3682 160.913 24.3682C162.258 24.3682 163.346 23.8669 164.177 22.8643C165.009 21.8503 165.425 20.5116 165.425 18.8481ZM165.322 0.510742H169.031V27H165.322V24.8979C164.662 25.8322 163.887 26.5272 162.998 26.9829C162.121 27.4386 161.113 27.6665 159.973 27.6665C157.683 27.6665 155.877 26.8861 154.556 25.3252C153.246 23.7529 152.59 21.6053 152.59 18.8823C152.59 16.2961 153.263 14.2111 154.607 12.6274C155.951 11.0324 157.706 10.2349 159.871 10.2349C161.192 10.2349 162.32 10.514 163.254 11.0723C164.2 11.6191 164.889 12.411 165.322 13.4478V0.510742ZM188.361 19.4463H175.407C175.498 20.9616 175.948 22.1465 176.757 23.001C177.566 23.8441 178.642 24.2656 179.987 24.2656C181.183 24.2656 182.18 24.015 182.978 23.5137C183.775 23.0124 184.47 22.2035 185.062 21.0869L188.19 22.8301C187.278 24.4593 186.151 25.6727 184.806 26.4702C183.462 27.2677 181.884 27.6665 180.072 27.6665C177.475 27.6665 175.407 26.8747 173.869 25.291C172.331 23.7074 171.562 21.5939 171.562 18.9507C171.562 16.41 172.353 14.325 173.937 12.6958C175.532 11.0552 177.577 10.2349 180.072 10.2349C182.681 10.2349 184.715 10.9811 186.173 12.4736C187.632 13.9661 188.361 16.0568 188.361 18.7456V19.4463ZM184.516 16.9512C184.368 15.7891 183.923 14.9061 183.183 14.3022C182.442 13.687 181.428 13.3794 180.141 13.3794C178.922 13.3794 177.942 13.6756 177.201 14.2681C176.461 14.8605 175.942 15.7549 175.646 16.9512H184.516ZM202.478 18.8481C202.478 17.1733 202.085 15.8688 201.299 14.9346C200.524 14.0003 199.436 13.5332 198.035 13.5332C196.634 13.5332 195.529 14.0174 194.72 14.9858C193.922 15.9429 193.523 17.2759 193.523 18.9849C193.523 20.7052 193.911 22.0326 194.685 22.9668C195.46 23.901 196.554 24.3682 197.967 24.3682C199.311 24.3682 200.399 23.8669 201.231 22.8643C202.063 21.8503 202.478 20.5116 202.478 18.8481ZM202.376 0.510742H206.084V27H202.376V24.8979C201.715 25.8322 200.94 26.5272 200.052 26.9829C199.174 27.4386 198.166 27.6665 197.027 27.6665C194.737 27.6665 192.931 26.8861 191.609 25.3252C190.299 23.7529 189.644 21.6053 189.644 18.8823C189.644 16.2961 190.316 14.2111 191.661 12.6274C193.005 11.0324 194.76 10.2349 196.924 10.2349C198.246 10.2349 199.374 10.514 200.308 11.0723C201.254 11.6191 201.943 12.411 202.376 13.4478V0.510742ZM209.487 3.79199C209.487 3.16536 209.714 2.62419 210.17 2.16846C210.637 1.71273 211.19 1.48486 211.828 1.48486C212.489 1.48486 213.036 1.70703 213.469 2.15137C213.913 2.58431 214.135 3.13118 214.135 3.79199C214.135 4.4528 213.913 5.01107 213.469 5.4668C213.024 5.91113 212.477 6.1333 211.828 6.1333C211.19 6.1333 210.637 5.90544 210.17 5.44971C209.714 4.98258 209.487 4.43001 209.487 3.79199ZM209.982 27V10.7988H213.691V27H209.982ZM229.705 15.4131C229.136 14.7865 228.469 14.3079 227.706 13.9775C226.954 13.6471 226.139 13.4819 225.262 13.4819C223.747 13.4819 222.533 13.9718 221.622 14.9517C220.71 15.9315 220.255 17.2303 220.255 18.8481C220.255 20.5343 220.71 21.8617 221.622 22.8301C222.545 23.7871 223.815 24.2656 225.433 24.2656C226.333 24.2656 227.136 24.1004 227.842 23.77C228.549 23.4282 229.17 22.9155 229.705 22.2319V26.5044C229.022 26.8918 228.287 27.1823 227.501 27.376C226.726 27.5697 225.9 27.6665 225.023 27.6665C222.482 27.6665 220.408 26.8576 218.802 25.2397C217.207 23.6219 216.409 21.5256 216.409 18.9507C216.409 16.3416 217.235 14.2396 218.887 12.6445C220.551 11.0381 222.721 10.2349 225.399 10.2349C226.242 10.2349 227.016 10.3203 227.723 10.4912C228.429 10.6507 229.09 10.9014 229.705 11.2432V15.4131ZM247.343 27H243.635V24.8979C242.974 25.8322 242.199 26.5272 241.311 26.9829C240.433 27.4386 239.425 27.6665 238.286 27.6665C235.996 27.6665 234.19 26.8861 232.868 25.3252C231.558 23.7529 230.903 21.6053 230.903 18.8823C230.903 16.2961 231.575 14.2111 232.92 12.6274C234.264 11.0324 236.018 10.2349 238.183 10.2349C239.505 10.2349 240.633 10.514 241.567 11.0723C242.513 11.6191 243.202 12.411 243.635 13.4478V10.7988H247.343V27ZM243.737 18.8481C243.737 17.1733 243.344 15.8688 242.558 14.9346C241.783 14.0003 240.695 13.5332 239.294 13.5332C237.893 13.5332 236.788 14.0174 235.979 14.9858C235.181 15.9429 234.782 17.2759 234.782 18.9849C234.782 20.7052 235.17 22.0326 235.944 22.9668C236.719 23.901 237.813 24.3682 239.226 24.3682C240.559 24.3682 241.641 23.8612 242.473 22.8472C243.316 21.8332 243.737 20.5002 243.737 18.8481ZM251.942 27V14.0459H249.105V10.7988H251.942V4.66357H255.65V10.7988H258.487V14.0459H255.65V27H251.942ZM275.903 19.4463H262.949C263.04 20.9616 263.49 22.1465 264.299 23.001C265.108 23.8441 266.185 24.2656 267.529 24.2656C268.725 24.2656 269.722 24.015 270.52 23.5137C271.317 23.0124 272.012 22.2035 272.605 21.0869L275.732 22.8301C274.821 24.4593 273.693 25.6727 272.349 26.4702C271.004 27.2677 269.426 27.6665 267.615 27.6665C265.017 27.6665 262.949 26.8747 261.411 25.291C259.873 23.7074 259.104 21.5939 259.104 18.9507C259.104 16.41 259.896 14.325 261.479 12.6958C263.074 11.0552 265.12 10.2349 267.615 10.2349C270.224 10.2349 272.257 10.9811 273.716 12.4736C275.174 13.9661 275.903 16.0568 275.903 18.7456V19.4463ZM272.058 16.9512C271.91 15.7891 271.466 14.9061 270.725 14.3022C269.984 13.687 268.97 13.3794 267.683 13.3794C266.464 13.3794 265.484 13.6756 264.744 14.2681C264.003 14.8605 263.485 15.7549 263.188 16.9512H272.058ZM290.021 18.8481C290.021 17.1733 289.628 15.8688 288.842 14.9346C288.067 14.0003 286.979 13.5332 285.577 13.5332C284.176 13.5332 283.071 14.0174 282.262 14.9858C281.464 15.9429 281.066 17.2759 281.066 18.9849C281.066 20.7052 281.453 22.0326 282.228 22.9668C283.003 23.901 284.096 24.3682 285.509 24.3682C286.853 24.3682 287.942 23.8669 288.773 22.8643C289.605 21.8503 290.021 20.5116 290.021 18.8481ZM289.918 0.510742H293.627V27H289.918V24.8979C289.257 25.8322 288.483 26.5272 287.594 26.9829C286.717 27.4386 285.708 27.6665 284.569 27.6665C282.279 27.6665 280.473 26.8861 279.152 25.3252C277.841 23.7529 277.186 21.6053 277.186 18.8823C277.186 16.2961 277.859 14.2111 279.203 12.6274C280.547 11.0324 282.302 10.2349 284.467 10.2349C285.788 10.2349 286.916 10.514 287.85 11.0723C288.796 11.6191 289.485 12.411 289.918 13.4478V0.510742ZM22.9517 50.0645C21.8009 49.0846 20.5819 48.3498 19.2944 47.8599C18.0184 47.37 16.674 47.125 15.2612 47.125C12.5269 47.125 10.2995 48.0023 8.5791 49.7568C6.87012 51.5114 6.01562 53.7843 6.01562 56.5757C6.01562 59.2759 6.84733 61.5033 8.51074 63.2578C10.1855 65.0124 12.2933 65.8896 14.834 65.8896C16.3151 65.8896 17.7222 65.6276 19.0552 65.1035C20.3996 64.5794 21.687 63.7876 22.9175 62.728V67.3252C21.8237 68.1113 20.6331 68.6981 19.3457 69.0854C18.0583 69.4728 16.6626 69.6665 15.1587 69.6665C13.2446 69.6665 11.473 69.3532 9.84375 68.7266C8.22591 68.0999 6.80176 67.1771 5.57129 65.958C4.35221 64.7617 3.41227 63.3547 2.75146 61.7368C2.10205 60.1076 1.77734 58.3758 1.77734 56.5415C1.77734 54.7072 2.10205 52.9868 2.75146 51.3804C3.41227 49.7625 4.36361 48.3441 5.60547 47.125C6.84733 45.8945 8.27148 44.966 9.87793 44.3394C11.4844 43.7013 13.2218 43.3823 15.0903 43.3823C16.5601 43.3823 17.9614 43.5988 19.2944 44.0317C20.6274 44.4533 21.9206 45.097 23.1738 45.9629L22.9517 50.0645ZM41.5297 69H37.8212V66.8979C37.1604 67.8322 36.3856 68.5272 35.497 68.9829C34.6197 69.4386 33.6114 69.6665 32.4721 69.6665C30.182 69.6665 28.3762 68.8861 27.0546 67.3252C25.7444 65.7529 25.0893 63.6053 25.0893 60.8823C25.0893 58.2961 25.7615 56.2111 27.1059 54.6274C28.4503 53.0324 30.2048 52.2349 32.3695 52.2349C33.6911 52.2349 34.8191 52.514 35.7533 53.0723C36.699 53.6191 37.3882 54.411 37.8212 55.4478V52.7988H41.5297V69ZM37.9237 60.8481C37.9237 59.1733 37.5307 57.8688 36.7445 56.9346C35.9698 56.0003 34.8817 55.5332 33.4804 55.5332C32.079 55.5332 30.9739 56.0174 30.1649 56.9858C29.3674 57.9429 28.9687 59.2759 28.9687 60.9849C28.9687 62.7052 29.356 64.0326 30.1308 64.9668C30.9055 65.901 31.9993 66.3682 33.412 66.3682C34.745 66.3682 35.8274 65.8612 36.6591 64.8472C37.5022 63.8332 37.9237 62.5002 37.9237 60.8481ZM48.9651 55.3794C49.3639 54.3084 49.888 53.5166 50.5374 53.0039C51.1982 52.4912 52.0128 52.2349 52.9813 52.2349C53.5053 52.2349 54.018 52.2975 54.5193 52.4229C55.032 52.5482 55.5333 52.7305 56.0232 52.9697L54.6902 56.1143C54.3712 55.8864 54.0237 55.7212 53.6478 55.6187C53.2832 55.5047 52.873 55.4478 52.4173 55.4478C51.1868 55.4478 50.3038 55.9434 49.7684 56.9346C49.2329 57.9144 48.9651 59.5664 48.9651 61.8906V69H45.2566V52.7646H48.9651V55.3794ZM70.2789 54.4395H71.3214C73.5772 54.4395 75.0812 54.1945 75.8331 53.7046C76.5851 53.2147 76.961 52.3488 76.961 51.1069C76.961 49.7739 76.5566 48.834 75.7477 48.2871C74.9501 47.7402 73.4747 47.4668 71.3214 47.4668H70.2789V54.4395ZM70.0226 57.772V69H66.2115V43.9805H72.3639C74.1868 43.9805 75.5255 44.083 76.38 44.2881C77.2459 44.4818 77.9978 44.8065 78.6358 45.2622C79.422 45.8433 80.0372 46.6294 80.4815 47.6206C80.9259 48.6004 81.148 49.6828 81.148 50.8677C81.148 52.0526 80.9259 53.1463 80.4815 54.1489C80.0372 55.1515 79.422 55.9377 78.6358 56.5073C77.9978 56.9631 77.2459 57.2878 76.38 57.4814C75.5255 57.6751 74.1868 57.772 72.3639 57.772H71.5606H70.0226ZM97.1113 69H93.4028V66.8979C92.742 67.8322 91.9673 68.5272 91.0786 68.9829C90.2013 69.4386 89.193 69.6665 88.0537 69.6665C85.7637 69.6665 83.9578 68.8861 82.6362 67.3252C81.326 65.7529 80.6709 63.6053 80.6709 60.8823C80.6709 58.2961 81.3431 56.2111 82.6875 54.6274C84.0319 53.0324 85.7865 52.2349 87.9512 52.2349C89.2728 52.2349 90.4007 52.514 91.335 53.0723C92.2806 53.6191 92.9699 54.411 93.4028 55.4478V52.7988H97.1113V69ZM93.5054 60.8481C93.5054 59.1733 93.1123 57.8688 92.3262 56.9346C91.5514 56.0003 90.4634 55.5332 89.062 55.5332C87.6606 55.5332 86.5555 56.0174 85.7466 56.9858C84.9491 57.9429 84.5503 59.2759 84.5503 60.9849C84.5503 62.7052 84.9377 64.0326 85.7124 64.9668C86.4871 65.901 87.5809 66.3682 88.9937 66.3682C90.3267 66.3682 91.409 65.8612 92.2407 64.8472C93.0838 63.8332 93.5054 62.5002 93.5054 60.8481ZM104.547 55.3794C104.946 54.3084 105.47 53.5166 106.119 53.0039C106.78 52.4912 107.594 52.2349 108.563 52.2349C109.087 52.2349 109.6 52.2975 110.101 52.4229C110.614 52.5482 111.115 52.7305 111.605 52.9697L110.272 56.1143C109.953 55.8864 109.605 55.7212 109.229 55.6187C108.865 55.5047 108.455 55.4478 107.999 55.4478C106.768 55.4478 105.885 55.9434 105.35 56.9346C104.815 57.9144 104.547 59.5664 104.547 61.8906V69H100.838V52.7646H104.547V55.3794ZM112.324 69V42.5107H116.033V59.5151L122.817 52.7988H127.397L120.049 59.9424L128.098 69H123.313L116.033 60.6431V69H112.324ZM128.68 45.792C128.68 45.1654 128.908 44.6242 129.364 44.1685C129.831 43.7127 130.384 43.4849 131.022 43.4849C131.682 43.4849 132.229 43.707 132.662 44.1514C133.107 44.5843 133.329 45.1312 133.329 45.792C133.329 46.4528 133.107 47.0111 132.662 47.4668C132.218 47.9111 131.671 48.1333 131.022 48.1333C130.384 48.1333 129.831 47.9054 129.364 47.4497C128.908 46.9826 128.68 46.43 128.68 45.792ZM129.176 69V52.7988H132.884V69H129.176ZM136.799 69V52.7988H140.286V55.4478C141.026 54.3312 141.898 53.5166 142.9 53.0039C143.903 52.4912 145.122 52.2349 146.558 52.2349C147.765 52.2349 148.791 52.4285 149.634 52.8159C150.488 53.1919 151.155 53.7559 151.633 54.5078C151.918 54.9521 152.123 55.4705 152.249 56.063C152.374 56.6554 152.437 57.6922 152.437 59.1733V69H148.694V60.6772C148.694 58.5467 148.432 57.134 147.908 56.439C147.395 55.7326 146.478 55.3794 145.156 55.3794C144.29 55.3794 143.516 55.5389 142.832 55.8579C142.16 56.1769 141.63 56.627 141.243 57.208C140.969 57.5954 140.776 58.0967 140.662 58.7119C140.559 59.3158 140.508 60.2842 140.508 61.6172V69H136.799ZM167.614 60.8481C167.614 59.1733 167.221 57.8688 166.435 56.9346C165.66 56.0003 164.572 55.5332 163.17 55.5332C161.769 55.5332 160.664 56.0174 159.855 56.9858C159.057 57.9429 158.659 59.2759 158.659 60.9849C158.659 62.7052 159.046 64.0326 159.821 64.9668C160.596 65.901 161.689 66.3682 163.102 66.3682C164.435 66.3682 165.517 65.8612 166.349 64.8472C167.192 63.8332 167.614 62.5002 167.614 60.8481ZM171.22 67.9917C171.22 71.159 170.587 73.3864 169.323 74.6738C168.058 75.9727 165.928 76.6221 162.931 76.6221C160.698 76.6221 158.915 76.1493 157.582 75.2036C156.249 74.2694 155.571 73.0218 155.548 71.4609L159.53 71.4438C159.587 72.1388 159.912 72.6686 160.504 73.0332C161.097 73.3978 161.929 73.5801 163 73.5801C164.583 73.5801 165.722 73.2326 166.417 72.5376C167.112 71.8426 167.466 70.6805 167.477 69.0513L167.511 66.8979C166.85 67.8322 166.076 68.5272 165.187 68.9829C164.31 69.4386 163.301 69.6665 162.162 69.6665C159.872 69.6665 158.066 68.8861 156.745 67.3252C155.434 65.7529 154.779 63.6053 154.779 60.8823C154.779 58.2961 155.451 56.2111 156.796 54.6274C158.14 53.0324 159.895 52.2349 162.06 52.2349C163.381 52.2349 164.509 52.514 165.443 53.0723C166.389 53.6191 167.078 54.411 167.511 55.4478V52.7988H171.22V67.9917ZM182.245 66.0605L185.322 64.3857C185.549 65.1947 185.971 65.8099 186.586 66.2314C187.201 66.653 187.993 66.8638 188.962 66.8638C189.793 66.8638 190.443 66.6758 190.91 66.2998C191.388 65.9124 191.628 65.3883 191.628 64.7275C191.628 63.8503 190.785 63.0983 189.098 62.4717C188.529 62.2666 188.09 62.0957 187.783 61.959C186.051 61.2412 184.837 60.512 184.142 59.7715C183.459 59.0309 183.117 58.1309 183.117 57.0713C183.117 55.6243 183.681 54.4508 184.809 53.5508C185.948 52.6507 187.452 52.2007 189.321 52.2007C190.574 52.2007 191.645 52.4342 192.533 52.9014C193.434 53.3571 194.089 54.0122 194.499 54.8667L191.867 56.6782C191.673 56.1655 191.332 55.7611 190.842 55.4648C190.363 55.1572 189.805 55.0034 189.167 55.0034C188.46 55.0034 187.891 55.1743 187.458 55.5161C187.036 55.8465 186.825 56.2909 186.825 56.8491C186.825 57.6922 187.783 58.4613 189.697 59.1562C190.3 59.3727 190.768 59.5493 191.098 59.686C192.59 60.2785 193.656 60.9507 194.294 61.7026C194.943 62.4432 195.268 63.3717 195.268 64.4883C195.268 66.1061 194.681 67.3765 193.508 68.2993C192.334 69.2108 190.716 69.6665 188.654 69.6665C187.07 69.6665 185.755 69.3703 184.706 68.7778C183.658 68.1854 182.838 67.2796 182.245 66.0605ZM201.199 60.8481C201.199 62.5229 201.615 63.8617 202.447 64.8643C203.29 65.8669 204.395 66.3682 205.762 66.3682C207.164 66.3682 208.246 65.901 209.009 64.9668C209.784 64.0326 210.172 62.7052 210.172 60.9849C210.172 59.2759 209.767 57.9429 208.958 56.9858C208.161 56.0174 207.061 55.5332 205.66 55.5332C204.258 55.5332 203.165 56.0003 202.379 56.9346C201.592 57.8688 201.199 59.1733 201.199 60.8481ZM197.611 76.6221V52.7988H201.319V55.4478C201.752 54.4224 202.441 53.6305 203.387 53.0723C204.344 52.514 205.483 52.2349 206.805 52.2349C208.958 52.2349 210.701 53.0324 212.034 54.6274C213.379 56.2111 214.051 58.2961 214.051 60.8823C214.051 63.6053 213.39 65.7529 212.069 67.3252C210.758 68.8861 208.958 69.6665 206.668 69.6665C205.529 69.6665 204.515 69.4386 203.626 68.9829C202.749 68.5272 201.98 67.8322 201.319 66.8979V76.6221H197.611ZM231.826 69H228.117V66.8979C227.456 67.8322 226.682 68.5272 225.793 68.9829C224.916 69.4386 223.907 69.6665 222.768 69.6665C220.478 69.6665 218.672 68.8861 217.351 67.3252C216.04 65.7529 215.385 63.6053 215.385 60.8823C215.385 58.2961 216.058 56.2111 217.402 54.6274C218.746 53.0324 220.501 52.2349 222.666 52.2349C223.987 52.2349 225.115 52.514 226.049 53.0723C226.995 53.6191 227.684 54.411 228.117 55.4478V52.7988H231.826V69ZM228.22 60.8481C228.22 59.1733 227.827 57.8688 227.041 56.9346C226.266 56.0003 225.178 55.5332 223.776 55.5332C222.375 55.5332 221.27 56.0174 220.461 56.9858C219.664 57.9429 219.265 59.2759 219.265 60.9849C219.265 62.7052 219.652 64.0326 220.427 64.9668C221.202 65.901 222.295 66.3682 223.708 66.3682C225.041 66.3682 226.123 65.8612 226.955 64.8472C227.798 63.8332 228.22 62.5002 228.22 60.8481ZM247.652 57.4131C247.083 56.7865 246.416 56.3079 245.653 55.9775C244.901 55.6471 244.086 55.4819 243.209 55.4819C241.694 55.4819 240.48 55.9718 239.569 56.9517C238.657 57.9315 238.202 59.2303 238.202 60.8481C238.202 62.5343 238.657 63.8617 239.569 64.8301C240.492 65.7871 241.762 66.2656 243.38 66.2656C244.28 66.2656 245.083 66.1004 245.79 65.77C246.496 65.4282 247.117 64.9155 247.652 64.2319V68.5044C246.969 68.8918 246.234 69.1823 245.448 69.376C244.673 69.5697 243.847 69.6665 242.97 69.6665C240.429 69.6665 238.355 68.8576 236.749 67.2397C235.154 65.6219 234.356 63.5256 234.356 60.9507C234.356 58.3416 235.182 56.2396 236.834 54.6445C238.498 53.0381 240.668 52.2349 243.346 52.2349C244.189 52.2349 244.964 52.3203 245.67 52.4912C246.376 52.6507 247.037 52.9014 247.652 53.2432V57.4131ZM265.649 61.4463H252.695C252.786 62.9616 253.236 64.1465 254.045 65.001C254.854 65.8441 255.931 66.2656 257.275 66.2656C258.472 66.2656 259.468 66.015 260.266 65.5137C261.064 65.0124 261.759 64.2035 262.351 63.0869L265.478 64.8301C264.567 66.4593 263.439 67.6727 262.095 68.4702C260.75 69.2677 259.172 69.6665 257.361 69.6665C254.763 69.6665 252.695 68.8747 251.157 67.291C249.619 65.7074 248.85 63.5939 248.85 60.9507C248.85 58.41 249.642 56.325 251.225 54.6958C252.821 53.0552 254.866 52.2349 257.361 52.2349C259.97 52.2349 262.003 52.9811 263.462 54.4736C264.92 55.9661 265.649 58.0568 265.649 60.7456V61.4463ZM261.804 58.9512C261.656 57.7891 261.212 56.9061 260.471 56.3022C259.731 55.687 258.717 55.3794 257.429 55.3794C256.21 55.3794 255.23 55.6756 254.49 56.2681C253.749 56.8605 253.231 57.7549 252.934 58.9512H261.804ZM266.266 66.0605L269.342 64.3857C269.57 65.1947 269.992 65.8099 270.607 66.2314C271.222 66.653 272.014 66.8638 272.982 66.8638C273.814 66.8638 274.463 66.6758 274.93 66.2998C275.409 65.9124 275.648 65.3883 275.648 64.7275C275.648 63.8503 274.805 63.0983 273.119 62.4717C272.549 62.2666 272.111 62.0957 271.803 61.959C270.071 61.2412 268.858 60.512 268.163 59.7715C267.479 59.0309 267.138 58.1309 267.138 57.0713C267.138 55.6243 267.701 54.4508 268.829 53.5508C269.969 52.6507 271.473 52.2007 273.341 52.2007C274.594 52.2007 275.665 52.4342 276.554 52.9014C277.454 53.3571 278.109 54.0122 278.519 54.8667L275.888 56.6782C275.694 56.1655 275.352 55.7611 274.862 55.4648C274.384 55.1572 273.825 55.0034 273.187 55.0034C272.481 55.0034 271.911 55.1743 271.478 55.5161C271.057 55.8465 270.846 56.2909 270.846 56.8491C270.846 57.6922 271.803 58.4613 273.717 59.1562C274.321 59.3727 274.788 59.5493 275.118 59.686C276.611 60.2785 277.676 60.9507 278.314 61.7026C278.964 62.4432 279.288 63.3717 279.288 64.4883C279.288 66.1061 278.702 67.3765 277.528 68.2993C276.355 69.2108 274.737 69.6665 272.675 69.6665C271.091 69.6665 269.775 69.3703 268.727 68.7778C267.679 68.1854 266.858 67.2796 266.266 66.0605ZM3.07617 111V98.0459H0.239258V94.7988H3.07617V90.458C3.07617 88.3047 3.52051 86.7153 4.40918 85.6899C5.30924 84.6646 6.69922 84.1519 8.5791 84.1519C8.97786 84.1519 9.38802 84.1803 9.80957 84.2373C10.2311 84.2943 10.6584 84.3854 11.0913 84.5107V87.8604C10.7951 87.6895 10.4932 87.5641 10.1855 87.4844C9.88932 87.3932 9.5874 87.3477 9.27979 87.3477C8.39111 87.3477 7.75309 87.6211 7.36572 88.168C6.97835 88.7148 6.78467 89.6377 6.78467 90.9365V94.7988H10.6812V98.0459H6.78467V111H3.07617ZM24.6278 102.951C24.6278 101.447 24.1436 100.176 23.1752 99.1396C22.2068 98.0915 21.0219 97.5674 19.6205 97.5674C18.2305 97.5674 17.0456 98.0915 16.0658 99.1396C15.0974 100.176 14.6132 101.447 14.6132 102.951C14.6132 104.455 15.0974 105.731 16.0658 106.779C17.0456 107.816 18.2305 108.334 19.6205 108.334C21.0105 108.334 22.1897 107.816 23.1581 106.779C24.1379 105.731 24.6278 104.455 24.6278 102.951ZM10.6996 102.917C10.6996 101.732 10.9218 100.615 11.3661 99.5669C11.8218 98.5073 12.4713 97.5674 13.3144 96.7471C14.1461 95.9382 15.1031 95.3172 16.1854 94.8843C17.2678 94.4513 18.4014 94.2349 19.5863 94.2349C20.8054 94.2349 21.9504 94.4513 23.0214 94.8843C24.1037 95.3172 25.0722 95.9552 25.9267 96.7983C26.7812 97.63 27.4306 98.57 27.8749 99.6182C28.3192 100.666 28.5414 101.766 28.5414 102.917C28.5414 104.113 28.3192 105.235 27.8749 106.283C27.442 107.331 26.8039 108.26 25.9608 109.069C25.0722 109.923 24.0867 110.567 23.0043 111C21.9219 111.444 20.7826 111.667 19.5863 111.667C18.4128 111.667 17.2849 111.444 16.2025 111C15.1202 110.567 14.1575 109.935 13.3144 109.103C12.4599 108.26 11.8104 107.314 11.3661 106.266C10.9218 105.218 10.6996 104.101 10.6996 102.917ZM34.7806 97.3794C35.1793 96.3084 35.7034 95.5166 36.3528 95.0039C37.0136 94.4912 37.8283 94.2349 38.7967 94.2349C39.3208 94.2349 39.8335 94.2975 40.3348 94.4229C40.8475 94.5482 41.3488 94.7305 41.8387 94.9697L40.5057 98.1143C40.1867 97.8864 39.8392 97.7212 39.4632 97.6187C39.0986 97.5047 38.6884 97.4478 38.2327 97.4478C37.0022 97.4478 36.1193 97.9434 35.5838 98.9346C35.0483 99.9144 34.7806 101.566 34.7806 103.891V111H31.0721V94.7646H34.7806V97.3794ZM59.9737 111.974L48.8141 85.9805H53.0353L58.6407 99.3105C58.9711 100.085 59.2446 100.803 59.461 101.464C59.6775 102.113 59.8484 102.734 59.9737 103.327C60.1218 102.7 60.3098 102.051 60.5377 101.378C60.7656 100.706 61.0333 100.017 61.3409 99.3105L66.9293 85.9805H71.1334L59.9737 111.974ZM71.6304 87.792C71.6304 87.1654 71.8582 86.6242 72.314 86.1685C72.7811 85.7127 73.3337 85.4849 73.9717 85.4849C74.6325 85.4849 75.1794 85.707 75.6123 86.1514C76.0566 86.5843 76.2788 87.1312 76.2788 87.792C76.2788 88.4528 76.0566 89.0111 75.6123 89.4668C75.168 89.9111 74.6211 90.1333 73.9717 90.1333C73.3337 90.1333 72.7811 89.9054 72.314 89.4497C71.8582 88.9826 71.6304 88.43 71.6304 87.792ZM72.126 111V94.7988H75.8345V111H72.126ZM77.8866 108.061L80.9628 106.386C81.1907 107.195 81.6122 107.81 82.2274 108.231C82.8427 108.653 83.6345 108.864 84.6029 108.864C85.4346 108.864 86.084 108.676 86.5512 108.3C87.0297 107.912 87.2689 107.388 87.2689 106.728C87.2689 105.85 86.4258 105.098 84.7396 104.472C84.17 104.267 83.7313 104.096 83.4237 103.959C81.692 103.241 80.4786 102.512 79.7836 101.771C79.1 101.031 78.7582 100.131 78.7582 99.0713C78.7582 97.6243 79.3222 96.4508 80.4501 95.5508C81.5894 94.6507 83.0933 94.2007 84.9618 94.2007C86.2151 94.2007 87.286 94.4342 88.1747 94.9014C89.0748 95.3571 89.7299 96.0122 90.14 96.8667L87.5082 98.6782C87.3145 98.1655 86.9727 97.7611 86.4828 97.4648C86.0043 97.1572 85.446 97.0034 84.808 97.0034C84.1016 97.0034 83.532 97.1743 83.099 97.5161C82.6775 97.8465 82.4667 98.2909 82.4667 98.8491C82.4667 99.6922 83.4237 100.461 85.3378 101.156C85.9416 101.373 86.4088 101.549 86.7392 101.686C88.2317 102.278 89.2969 102.951 89.935 103.703C90.5844 104.443 90.9091 105.372 90.9091 106.488C90.9091 108.106 90.3223 109.376 89.1488 110.299C87.9753 111.211 86.3575 111.667 84.2953 111.667C82.7117 111.667 81.3957 111.37 80.3476 110.778C79.2994 110.185 78.4791 109.28 77.8866 108.061ZM92.927 87.792C92.927 87.1654 93.1549 86.6242 93.6106 86.1685C94.0778 85.7127 94.6303 85.4849 95.2684 85.4849C95.9292 85.4849 96.476 85.707 96.909 86.1514C97.3533 86.5843 97.5755 87.1312 97.5755 87.792C97.5755 88.4528 97.3533 89.0111 96.909 89.4668C96.4646 89.9111 95.9178 90.1333 95.2684 90.1333C94.6303 90.1333 94.0778 89.9054 93.6106 89.4497C93.1549 88.9826 92.927 88.43 92.927 87.792ZM93.4227 111V94.7988H97.1311V111H93.4227ZM101.918 111V98.0459H99.0808V94.7988H101.918V88.6636H105.626V94.7988H108.463V98.0459H105.626V111H101.918ZM123.008 102.951C123.008 101.447 122.524 100.176 121.555 99.1396C120.587 98.0915 119.402 97.5674 118.001 97.5674C116.611 97.5674 115.426 98.0915 114.446 99.1396C113.477 100.176 112.993 101.447 112.993 102.951C112.993 104.455 113.477 105.731 114.446 106.779C115.426 107.816 116.611 108.334 118.001 108.334C119.391 108.334 120.57 107.816 121.538 106.779C122.518 105.731 123.008 104.455 123.008 102.951ZM109.08 102.917C109.08 101.732 109.302 100.615 109.746 99.5669C110.202 98.5073 110.851 97.5674 111.694 96.7471C112.526 95.9382 113.483 95.3172 114.566 94.8843C115.648 94.4513 116.782 94.2349 117.966 94.2349C119.185 94.2349 120.331 94.4513 121.401 94.8843C122.484 95.3172 123.452 95.9552 124.307 96.7983C125.161 97.63 125.811 98.57 126.255 99.6182C126.699 100.666 126.921 101.766 126.921 102.917C126.921 104.113 126.699 105.235 126.255 106.283C125.822 107.331 125.184 108.26 124.341 109.069C123.452 109.923 122.467 110.567 121.384 111C120.302 111.444 119.163 111.667 117.966 111.667C116.793 111.667 115.665 111.444 114.583 111C113.5 110.567 112.538 109.935 111.694 109.103C110.84 108.26 110.191 107.314 109.746 106.266C109.302 105.218 109.08 104.101 109.08 102.917ZM133.161 97.3794C133.559 96.3084 134.083 95.5166 134.733 95.0039C135.394 94.4912 136.208 94.2349 137.177 94.2349C137.701 94.2349 138.214 94.2975 138.715 94.4229C139.228 94.5482 139.729 94.7305 140.219 94.9697L138.886 98.1143C138.567 97.8864 138.219 97.7212 137.843 97.6187C137.479 97.5047 137.069 97.4478 136.613 97.4478C135.382 97.4478 134.499 97.9434 133.964 98.9346C133.428 99.9144 133.161 101.566 133.161 103.891V111H129.452V94.7646H133.161V97.3794ZM139.075 108.061L142.151 106.386C142.379 107.195 142.801 107.81 143.416 108.231C144.031 108.653 144.823 108.864 145.791 108.864C146.623 108.864 147.273 108.676 147.74 108.3C148.218 107.912 148.457 107.388 148.457 106.728C148.457 105.85 147.614 105.098 145.928 104.472C145.358 104.267 144.92 104.096 144.612 103.959C142.88 103.241 141.667 102.512 140.972 101.771C140.288 101.031 139.947 100.131 139.947 99.0713C139.947 97.6243 140.511 96.4508 141.639 95.5508C142.778 94.6507 144.282 94.2007 146.15 94.2007C147.404 94.2007 148.475 94.4342 149.363 94.9014C150.263 95.3571 150.918 96.0122 151.329 96.8667L148.697 98.6782C148.503 98.1655 148.161 97.7611 147.671 97.4648C147.193 97.1572 146.635 97.0034 145.996 97.0034C145.29 97.0034 144.72 97.1743 144.288 97.5161C143.866 97.8465 143.655 98.2909 143.655 98.8491C143.655 99.6922 144.612 100.461 146.526 101.156C147.13 101.373 147.597 101.549 147.928 101.686C149.42 102.278 150.485 102.951 151.123 103.703C151.773 104.443 152.098 105.372 152.098 106.488C152.098 108.106 151.511 109.376 150.337 110.299C149.164 111.211 147.546 111.667 145.484 111.667C143.9 111.667 142.584 111.37 141.536 110.778C140.488 110.185 139.668 109.28 139.075 108.061ZM154.919 109.103C154.919 108.476 155.135 107.941 155.568 107.497C156.001 107.052 156.531 106.83 157.158 106.83C157.784 106.83 158.314 107.052 158.747 107.497C159.18 107.941 159.396 108.476 159.396 109.103C159.396 109.718 159.18 110.242 158.747 110.675C158.314 111.097 157.784 111.308 157.158 111.308C156.531 111.308 156.001 111.097 155.568 110.675C155.135 110.242 154.919 109.718 154.919 109.103Z" fill="white"/>
</svg>
