<svg width="293" height="119" viewBox="0 0 293 119" fill="none" xmlns="http://www.w3.org/2000/svg">
<path d="M23.2847 14.5415C23.2847 13.2769 23.0511 12.0749 22.584 10.9355C22.1283 9.79622 21.4674 8.78223 20.6016 7.89355C19.7585 7.01628 18.7786 6.34408 17.6621 5.87695C16.557 5.39844 15.3892 5.15918 14.1587 5.15918C12.9282 5.15918 11.7547 5.39274 10.6382 5.85986C9.53304 6.32699 8.54753 7.00488 7.68164 7.89355C6.81576 8.77083 6.15495 9.77913 5.69922 10.9185C5.24349 12.0578 5.01562 13.2655 5.01562 14.5415C5.01562 15.8062 5.24349 17.0024 5.69922 18.1304C6.15495 19.2583 6.81576 20.2666 7.68164 21.1553C8.54753 22.0439 9.53304 22.7218 10.6382 23.189C11.7433 23.6561 12.9168 23.8896 14.1587 23.8896C15.3778 23.8896 16.5342 23.6561 17.6279 23.189C18.7331 22.7218 19.7243 22.0439 20.6016 21.1553C21.4674 20.2666 22.1283 19.2583 22.584 18.1304C23.0511 16.991 23.2847 15.7948 23.2847 14.5415ZM27.5229 14.5415C27.5229 16.3188 27.1868 17.9993 26.5146 19.583C25.8538 21.1667 24.8854 22.5794 23.6094 23.8213C22.3219 25.0632 20.8693 26.0145 19.2515 26.6753C17.6336 27.3361 15.936 27.6665 14.1587 27.6665C12.3586 27.6665 10.6382 27.3361 8.99756 26.6753C7.36833 26.0031 5.92708 25.0518 4.67383 23.8213C3.39779 22.5794 2.42936 21.1724 1.76855 19.6001C1.10775 18.0278 0.777344 16.3416 0.777344 14.5415C0.777344 12.7528 1.10775 11.0666 1.76855 9.48291C2.42936 7.89925 3.39779 6.48079 4.67383 5.22754C5.94987 3.98568 7.39681 3.04004 9.01465 2.39062C10.6325 1.74121 12.3472 1.4165 14.1587 1.4165C15.9588 1.4165 17.6621 1.74121 19.2686 2.39062C20.8864 3.04004 22.3333 3.98568 23.6094 5.22754C24.8854 6.49219 25.8538 7.92204 26.5146 9.51709C27.1868 11.1007 27.5229 12.7756 27.5229 14.5415ZM36.1718 27.9741L27.6781 10.7988H31.7284L35.266 18.9507C35.3799 19.2013 35.5167 19.5773 35.6762 20.0786C35.8357 20.5799 36.0009 21.1781 36.1718 21.873C36.2857 21.3831 36.4167 20.8989 36.5648 20.4204C36.7243 19.9305 36.9123 19.4406 37.1288 18.9507L40.6493 10.7988H44.6825L36.1718 27.9741ZM61.2269 19.4463H48.2728C48.3639 20.9616 48.8139 22.1465 49.6229 23.001C50.4318 23.8441 51.5084 24.2656 52.8528 24.2656C54.0491 24.2656 55.046 24.015 55.8436 23.5137C56.6411 23.0124 57.3361 22.2035 57.9285 21.0869L61.056 22.8301C60.1445 24.4593 59.0166 25.6727 57.6722 26.4702C56.3278 27.2677 54.7498 27.6665 52.9383 27.6665C50.3406 27.6665 48.2728 26.8747 46.7347 25.291C45.1966 23.7074 44.4275 21.5939 44.4275 18.9507C44.4275 16.41 45.2194 14.325 46.803 12.6958C48.3981 11.0552 50.4432 10.2349 52.9383 10.2349C55.5473 10.2349 57.581 10.9811 59.0394 12.4736C60.4977 13.9661 61.2269 16.0568 61.2269 18.7456V19.4463ZM57.3816 16.9512C57.2335 15.7891 56.7892 14.9061 56.0486 14.3022C55.3081 13.687 54.2941 13.3794 53.0066 13.3794C51.7876 13.3794 50.8077 13.6756 50.0672 14.2681C49.3266 14.8605 48.8082 15.7549 48.512 16.9512H57.3816ZM67.4147 13.3794C67.8135 12.3084 68.3376 11.5166 68.987 11.0039C69.6478 10.4912 70.4624 10.2349 71.4309 10.2349C71.9549 10.2349 72.4676 10.2975 72.9689 10.4229C73.4816 10.5482 73.9829 10.7305 74.4729 10.9697L73.1398 14.1143C72.8208 13.8864 72.4733 13.7212 72.0974 13.6187C71.7328 13.5047 71.3226 13.4478 70.8669 13.4478C69.6364 13.4478 68.7534 13.9434 68.218 14.9346C67.6825 15.9144 67.4147 17.5664 67.4147 19.8906V27H63.7062V10.7646H67.4147V13.3794ZM83.3965 20.3179H87.293V20.5229C87.293 21.6737 87.686 22.5908 88.4722 23.2744C89.2583 23.958 90.3236 24.2998 91.668 24.2998C93.1833 24.2998 94.3511 23.9238 95.1714 23.1719C96.0031 22.4085 96.4189 21.3148 96.4189 19.8906C96.4189 18.3981 95.9917 17.2759 95.1372 16.5239C94.2941 15.7606 93.0295 15.3789 91.3433 15.3789C91.2635 15.3789 91.1382 15.3846 90.9673 15.396C90.7964 15.4074 90.6654 15.4131 90.5742 15.4131V12.1318C90.654 12.1318 90.7736 12.1375 90.9331 12.1489C91.104 12.1603 91.2293 12.166 91.3091 12.166C92.7902 12.166 93.9067 11.8584 94.6587 11.2432C95.4106 10.6165 95.7866 9.69938 95.7866 8.4917C95.7866 7.42074 95.4448 6.57194 94.7612 5.94531C94.089 5.30729 93.1833 4.98828 92.0439 4.98828C90.8249 4.98828 89.8678 5.28451 89.1729 5.87695C88.4893 6.45801 88.1304 7.27832 88.0962 8.33789H84.4219C84.5358 6.20736 85.2593 4.57243 86.5923 3.43311C87.9253 2.29378 89.7767 1.72412 92.1465 1.72412C94.4365 1.72412 96.248 2.32227 97.5811 3.51855C98.9255 4.71484 99.5977 6.33268 99.5977 8.37207C99.5977 9.91016 99.216 11.1748 98.4526 12.166C97.7007 13.1458 96.6525 13.7383 95.3081 13.9434C96.8918 14.2282 98.0938 14.9232 98.9141 16.0283C99.7458 17.1335 100.162 18.5975 100.162 20.4204C100.162 22.6421 99.3812 24.408 97.8203 25.7183C96.2708 27.0171 94.1688 27.6665 91.5142 27.6665C89.1102 27.6665 87.1733 27.0057 85.7036 25.6841C84.2339 24.3511 83.4648 22.5623 83.3965 20.3179ZM104.589 25.103C104.589 24.4764 104.806 23.9409 105.239 23.4966C105.672 23.0522 106.201 22.8301 106.828 22.8301C107.455 22.8301 107.984 23.0522 108.417 23.4966C108.85 23.9409 109.067 24.4764 109.067 25.103C109.067 25.7183 108.85 26.2424 108.417 26.6753C107.984 27.0968 107.455 27.3076 106.828 27.3076C106.201 27.3076 105.672 27.0968 105.239 26.6753C104.806 26.2424 104.589 25.7183 104.589 25.103ZM128.209 23.7529V27H111.444L120.792 15.8062C121.954 14.4048 122.803 13.1743 123.338 12.1147C123.874 11.0552 124.141 10.0924 124.141 9.22656C124.141 7.9847 123.771 7.01058 123.031 6.3042C122.301 5.58643 121.299 5.22754 120.023 5.22754C118.883 5.22754 117.943 5.58643 117.203 6.3042C116.462 7.01058 116.047 7.94482 115.955 9.10693H112.042C112.042 6.86247 112.794 5.07373 114.298 3.74072C115.802 2.39632 117.824 1.72412 120.365 1.72412C122.78 1.72412 124.683 2.34505 126.073 3.58691C127.474 4.82878 128.175 6.52067 128.175 8.6626C128.175 10.1893 127.77 11.7331 126.961 13.2939C126.164 14.8434 124.466 17.0993 121.868 20.0615L118.69 23.7529H128.209ZM147.779 17.1733H154.752L152.189 11.4653C152.04 11.1007 151.887 10.6849 151.727 10.2178C151.568 9.73926 151.408 9.20947 151.249 8.62842C151.112 9.17529 150.964 9.68799 150.804 10.1665C150.656 10.6336 150.502 11.0666 150.343 11.4653L147.779 17.1733ZM159.025 27L156.188 20.5571H146.275L143.37 27H139.098L151.214 0.989258L163.314 27H159.025ZM176.064 15.4131C175.495 14.7865 174.828 14.3079 174.065 13.9775C173.313 13.6471 172.498 13.4819 171.621 13.4819C170.106 13.4819 168.892 13.9718 167.981 14.9517C167.069 15.9315 166.614 17.2303 166.614 18.8481C166.614 20.5343 167.069 21.8617 167.981 22.8301C168.904 23.7871 170.174 24.2656 171.792 24.2656C172.692 24.2656 173.495 24.1004 174.202 23.77C174.908 23.4282 175.529 22.9155 176.064 22.2319V26.5044C175.381 26.8918 174.646 27.1823 173.86 27.376C173.085 27.5697 172.259 27.6665 171.382 27.6665C168.841 27.6665 166.768 26.8576 165.161 25.2397C163.566 23.6219 162.769 21.5256 162.769 18.9507C162.769 16.3416 163.595 14.2396 165.247 12.6445C166.91 11.0381 169.08 10.2349 171.758 10.2349C172.601 10.2349 173.376 10.3203 174.082 10.4912C174.788 10.6507 175.449 10.9014 176.064 11.2432V15.4131ZM182.167 13.3794C182.566 12.3084 183.09 11.5166 183.739 11.0039C184.4 10.4912 185.215 10.2349 186.183 10.2349C186.707 10.2349 187.22 10.2975 187.721 10.4229C188.234 10.5482 188.735 10.7305 189.225 10.9697L187.892 14.1143C187.573 13.8864 187.225 13.7212 186.85 13.6187C186.485 13.5047 186.075 13.4478 185.619 13.4478C184.389 13.4478 183.506 13.9434 182.97 14.9346C182.435 15.9144 182.167 17.5664 182.167 19.8906V27H178.458V10.7646H182.167V13.3794ZM205.547 19.4463H192.593C192.684 20.9616 193.134 22.1465 193.943 23.001C194.752 23.8441 195.829 24.2656 197.173 24.2656C198.369 24.2656 199.366 24.015 200.164 23.5137C200.961 23.0124 201.656 22.2035 202.249 21.0869L205.376 22.8301C204.465 24.4593 203.337 25.6727 201.992 26.4702C200.648 27.2677 199.07 27.6665 197.259 27.6665C194.661 27.6665 192.593 26.8747 191.055 25.291C189.517 23.7074 188.748 21.5939 188.748 18.9507C188.748 16.41 189.54 14.325 191.123 12.6958C192.718 11.0552 194.763 10.2349 197.259 10.2349C199.868 10.2349 201.901 10.9811 203.36 12.4736C204.818 13.9661 205.547 16.0568 205.547 18.7456V19.4463ZM201.702 16.9512C201.554 15.7891 201.11 14.9061 200.369 14.3022C199.628 13.687 198.614 13.3794 197.327 13.3794C196.108 13.3794 195.128 13.6756 194.387 14.2681C193.647 14.8605 193.129 15.7549 192.832 16.9512H201.702ZM206.164 24.0605L209.24 22.3857C209.468 23.1947 209.889 23.8099 210.505 24.2314C211.12 24.653 211.912 24.8638 212.88 24.8638C213.712 24.8638 214.361 24.6758 214.828 24.2998C215.307 23.9124 215.546 23.3883 215.546 22.7275C215.546 21.8503 214.703 21.0983 213.017 20.4717C212.447 20.2666 212.008 20.0957 211.701 19.959C209.969 19.2412 208.756 18.512 208.061 17.7715C207.377 17.0309 207.035 16.1309 207.035 15.0713C207.035 13.6243 207.599 12.4508 208.727 11.5508C209.867 10.6507 211.37 10.2007 213.239 10.2007C214.492 10.2007 215.563 10.4342 216.452 10.9014C217.352 11.3571 218.007 12.0122 218.417 12.8667L215.785 14.6782C215.592 14.1655 215.25 13.7611 214.76 13.4648C214.281 13.1572 213.723 13.0034 213.085 13.0034C212.379 13.0034 211.809 13.1743 211.376 13.5161C210.955 13.8465 210.744 14.2909 210.744 14.8491C210.744 15.6922 211.701 16.4613 213.615 17.1562C214.219 17.3727 214.686 17.5493 215.016 17.686C216.509 18.2785 217.574 18.9507 218.212 19.7026C218.862 20.4432 219.186 21.3717 219.186 22.4883C219.186 24.1061 218.599 25.3765 217.426 26.2993C216.252 27.2108 214.635 27.6665 212.572 27.6665C210.989 27.6665 209.673 27.3703 208.625 26.7778C207.577 26.1854 206.756 25.2796 206.164 24.0605ZM1.23877 45.792C1.23877 45.1654 1.46663 44.6242 1.92236 44.1685C2.38949 43.7127 2.94206 43.4849 3.58008 43.4849C4.24089 43.4849 4.78776 43.707 5.2207 44.1514C5.66504 44.5843 5.88721 45.1312 5.88721 45.792C5.88721 46.4528 5.66504 47.0111 5.2207 47.4668C4.77637 47.9111 4.22949 48.1333 3.58008 48.1333C2.94206 48.1333 2.38949 47.9054 1.92236 47.4497C1.46663 46.9826 1.23877 46.43 1.23877 45.792ZM1.73438 69V52.7988H5.44287V69H1.73438ZM7.49502 66.0605L10.5712 64.3857C10.7991 65.1947 11.2206 65.8099 11.8358 66.2314C12.4511 66.653 13.2429 66.8638 14.2113 66.8638C15.043 66.8638 15.6924 66.6758 16.1596 66.2998C16.6381 65.9124 16.8773 65.3883 16.8773 64.7275C16.8773 63.8503 16.0342 63.0983 14.348 62.4717C13.7784 62.2666 13.3397 62.0957 13.0321 61.959C11.3004 61.2412 10.087 60.512 9.39199 59.7715C8.7084 59.0309 8.3666 58.1309 8.3666 57.0713C8.3666 55.6243 8.93057 54.4508 10.0585 53.5508C11.1978 52.6507 12.7017 52.2007 14.5702 52.2007C15.8235 52.2007 16.8944 52.4342 17.7831 52.9014C18.6832 53.3571 19.3383 54.0122 19.7484 54.8667L17.1166 56.6782C16.9229 56.1655 16.5811 55.7611 16.0912 55.4648C15.6127 55.1572 15.0544 55.0034 14.4164 55.0034C13.71 55.0034 13.1404 55.1743 12.7074 55.5161C12.2859 55.8465 12.0751 56.2909 12.0751 56.8491C12.0751 57.6922 13.0321 58.4613 14.9462 59.1562C15.55 59.3727 16.0172 59.5493 16.3476 59.686C17.8401 60.2785 18.9053 60.9507 19.5434 61.7026C20.1928 62.4432 20.5175 63.3717 20.5175 64.4883C20.5175 66.1061 19.9307 67.3765 18.7572 68.2993C17.5837 69.2108 15.9659 69.6665 13.9037 69.6665C12.3201 69.6665 11.0041 69.3703 9.95596 68.7778C8.90778 68.1854 8.08747 67.2796 7.49502 66.0605ZM35.7302 55.3794C36.1289 54.3084 36.653 53.5166 37.3024 53.0039C37.9632 52.4912 38.7779 52.2349 39.7463 52.2349C40.2704 52.2349 40.7831 52.2975 41.2844 52.4229C41.7971 52.5482 42.2984 52.7305 42.7883 52.9697L41.4553 56.1143C41.1363 55.8864 40.7888 55.7212 40.4128 55.6187C40.0482 55.5047 39.6381 55.4478 39.1823 55.4478C37.9519 55.4478 37.0689 55.9434 36.5334 56.9346C35.9979 57.9144 35.7302 59.5664 35.7302 61.8906V69H32.0217V52.7646H35.7302V55.3794ZM59.1105 61.4463H46.1563C46.2475 62.9616 46.6975 64.1465 47.5064 65.001C48.3154 65.8441 49.392 66.2656 50.7364 66.2656C51.9327 66.2656 52.9296 66.015 53.7271 65.5137C54.5247 65.0124 55.2197 64.2035 55.8121 63.0869L58.9396 64.8301C58.0281 66.4593 56.9002 67.6727 55.5558 68.4702C54.2114 69.2677 52.6334 69.6665 50.8219 69.6665C48.2242 69.6665 46.1563 68.8747 44.6183 67.291C43.0802 65.7074 42.3111 63.5939 42.3111 60.9507C42.3111 58.41 43.103 56.325 44.6866 54.6958C46.2817 53.0552 48.3268 52.2349 50.8219 52.2349C53.4309 52.2349 55.4646 52.9811 56.923 54.4736C58.3813 55.9661 59.1105 58.0568 59.1105 60.7456V61.4463ZM55.2652 58.9512C55.1171 57.7891 54.6728 56.9061 53.9322 56.3022C53.1917 55.687 52.1777 55.3794 50.8902 55.3794C49.6712 55.3794 48.6913 55.6756 47.9508 56.2681C47.2102 56.8605 46.6918 57.7549 46.3956 58.9512H55.2652ZM59.7271 66.0605L62.8032 64.3857C63.0311 65.1947 63.4526 65.8099 64.0679 66.2314C64.6831 66.653 65.4749 66.8638 66.4434 66.8638C67.2751 66.8638 67.9245 66.6758 68.3916 66.2998C68.8701 65.9124 69.1094 65.3883 69.1094 64.7275C69.1094 63.8503 68.2663 63.0983 66.5801 62.4717C66.0104 62.2666 65.5718 62.0957 65.2642 61.959C63.5324 61.2412 62.319 60.512 61.624 59.7715C60.9404 59.0309 60.5986 58.1309 60.5986 57.0713C60.5986 55.6243 61.1626 54.4508 62.2905 53.5508C63.4299 52.6507 64.9338 52.2007 66.8022 52.2007C68.0555 52.2007 69.1265 52.4342 70.0151 52.9014C70.9152 53.3571 71.5703 54.0122 71.9805 54.8667L69.3486 56.6782C69.1549 56.1655 68.8132 55.7611 68.3232 55.4648C67.8447 55.1572 67.2865 55.0034 66.6484 55.0034C65.9421 55.0034 65.3724 55.1743 64.9395 55.5161C64.5179 55.8465 64.3071 56.2909 64.3071 56.8491C64.3071 57.6922 65.2642 58.4613 67.1782 59.1562C67.7821 59.3727 68.2492 59.5493 68.5796 59.686C70.0721 60.2785 71.1374 60.9507 71.7754 61.7026C72.4248 62.4432 72.7495 63.3717 72.7495 64.4883C72.7495 66.1061 72.1628 67.3765 70.9893 68.2993C69.8158 69.2108 68.1979 69.6665 66.1357 69.6665C64.5521 69.6665 63.2362 69.3703 62.188 68.7778C61.1398 68.1854 60.3195 67.2796 59.7271 66.0605ZM90.6952 61.4463H77.7411C77.8323 62.9616 78.2823 64.1465 79.0912 65.001C79.9001 65.8441 80.9768 66.2656 82.3212 66.2656C83.5175 66.2656 84.5144 66.015 85.3119 65.5137C86.1094 65.0124 86.8044 64.2035 87.3969 63.0869L90.5243 64.8301C89.6129 66.4593 88.4849 67.6727 87.1405 68.4702C85.7961 69.2677 84.2182 69.6665 82.4066 69.6665C79.809 69.6665 77.7411 68.8747 76.203 67.291C74.6649 65.7074 73.8959 63.5939 73.8959 60.9507C73.8959 58.41 74.6877 56.325 76.2714 54.6958C77.8664 53.0552 79.9115 52.2349 82.4066 52.2349C85.0157 52.2349 87.0494 52.9811 88.5077 54.4736C89.966 55.9661 90.6952 58.0568 90.6952 60.7456V61.4463ZM86.85 58.9512C86.7019 57.7891 86.2576 56.9061 85.517 56.3022C84.7764 55.687 83.7624 55.3794 82.475 55.3794C81.2559 55.3794 80.2761 55.6756 79.5355 56.2681C78.795 56.8605 78.2766 57.7549 77.9804 58.9512H86.85ZM96.8831 55.3794C97.2819 54.3084 97.806 53.5166 98.4554 53.0039C99.1162 52.4912 99.9308 52.2349 100.899 52.2349C101.423 52.2349 101.936 52.2975 102.437 52.4229C102.95 52.5482 103.451 52.7305 103.941 52.9697L102.608 56.1143C102.289 55.8864 101.942 55.7212 101.566 55.6187C101.201 55.5047 100.791 55.4478 100.335 55.4478C99.1048 55.4478 98.2218 55.9434 97.6863 56.9346C97.1508 57.9144 96.8831 59.5664 96.8831 61.8906V69H93.1746V52.7646H96.8831V55.3794ZM110.351 69.9741L101.858 52.7988H105.908L109.446 60.9507C109.559 61.2013 109.696 61.5773 109.856 62.0786C110.015 62.5799 110.18 63.1781 110.351 63.873C110.465 63.3831 110.596 62.8989 110.744 62.4204C110.904 61.9305 111.092 61.4406 111.308 60.9507L114.829 52.7988H118.862L110.351 69.9741ZM135.406 61.4463H122.452C122.543 62.9616 122.993 64.1465 123.802 65.001C124.611 65.8441 125.688 66.2656 127.032 66.2656C128.229 66.2656 129.226 66.015 130.023 65.5137C130.821 65.0124 131.516 64.2035 132.108 63.0869L135.235 64.8301C134.324 66.4593 133.196 67.6727 131.852 68.4702C130.507 69.2677 128.929 69.6665 127.118 69.6665C124.52 69.6665 122.452 68.8747 120.914 67.291C119.376 65.7074 118.607 63.5939 118.607 60.9507C118.607 58.41 119.399 56.325 120.983 54.6958C122.578 53.0552 124.623 52.2349 127.118 52.2349C129.727 52.2349 131.761 52.9811 133.219 54.4736C134.677 55.9661 135.406 58.0568 135.406 60.7456V61.4463ZM131.561 58.9512C131.413 57.7891 130.969 56.9061 130.228 56.3022C129.488 55.687 128.474 55.3794 127.186 55.3794C125.967 55.3794 124.987 55.6756 124.247 56.2681C123.506 56.8605 122.988 57.7549 122.692 58.9512H131.561ZM149.524 60.8481C149.524 59.1733 149.131 57.8688 148.345 56.9346C147.57 56.0003 146.482 55.5332 145.081 55.5332C143.679 55.5332 142.574 56.0174 141.765 56.9858C140.968 57.9429 140.569 59.2759 140.569 60.9849C140.569 62.7052 140.956 64.0326 141.731 64.9668C142.506 65.901 143.599 66.3682 145.012 66.3682C146.357 66.3682 147.445 65.8669 148.276 64.8643C149.108 63.8503 149.524 62.5116 149.524 60.8481ZM149.421 42.5107H153.13V69H149.421V66.8979C148.761 67.8322 147.986 68.5272 147.097 68.9829C146.22 69.4386 145.212 69.6665 144.072 69.6665C141.782 69.6665 139.976 68.8861 138.655 67.3252C137.345 65.7529 136.689 63.6053 136.689 60.8823C136.689 58.2961 137.362 56.2111 138.706 54.6274C140.05 53.0324 141.805 52.2349 143.97 52.2349C145.291 52.2349 146.419 52.514 147.354 53.0723C148.299 53.6191 148.988 54.411 149.421 55.4478V42.5107ZM166.531 69V56.0459H163.694V52.7988H166.531V48.458C166.531 46.3047 166.975 44.7153 167.864 43.6899C168.764 42.6646 170.154 42.1519 172.034 42.1519C172.433 42.1519 172.843 42.1803 173.264 42.2373C173.686 42.2943 174.113 42.3854 174.546 42.5107V45.8604C174.25 45.6895 173.948 45.5641 173.64 45.4844C173.344 45.3932 173.042 45.3477 172.735 45.3477C171.846 45.3477 171.208 45.6211 170.821 46.168C170.433 46.7148 170.24 47.6377 170.24 48.9365V52.7988H174.136V56.0459H170.24V69H166.531ZM188.083 60.9507C188.083 59.4468 187.599 58.1764 186.63 57.1396C185.662 56.0915 184.477 55.5674 183.075 55.5674C181.685 55.5674 180.501 56.0915 179.521 57.1396C178.552 58.1764 178.068 59.4468 178.068 60.9507C178.068 62.4546 178.552 63.7306 179.521 64.7788C180.501 65.8156 181.685 66.334 183.075 66.334C184.465 66.334 185.645 65.8156 186.613 64.7788C187.593 63.7306 188.083 62.4546 188.083 60.9507ZM174.154 60.9165C174.154 59.7316 174.377 58.6151 174.821 57.5669C175.277 56.5073 175.926 55.5674 176.769 54.7471C177.601 53.9382 178.558 53.3172 179.64 52.8843C180.723 52.4513 181.856 52.2349 183.041 52.2349C184.26 52.2349 185.405 52.4513 186.476 52.8843C187.559 53.3172 188.527 53.9552 189.382 54.7983C190.236 55.63 190.885 56.57 191.33 57.6182C191.774 58.6663 191.996 59.7658 191.996 60.9165C191.996 62.1128 191.774 63.235 191.33 64.2832C190.897 65.3314 190.259 66.2599 189.416 67.0688C188.527 67.9233 187.542 68.5671 186.459 69C185.377 69.4443 184.238 69.6665 183.041 69.6665C181.868 69.6665 180.74 69.4443 179.657 69C178.575 68.5671 177.612 67.9347 176.769 67.103C175.915 66.2599 175.265 65.3143 174.821 64.2661C174.377 63.2179 174.154 62.1014 174.154 60.9165ZM198.235 55.3794C198.634 54.3084 199.158 53.5166 199.808 53.0039C200.469 52.4912 201.283 52.2349 202.252 52.2349C202.776 52.2349 203.288 52.2975 203.79 52.4229C204.302 52.5482 204.804 52.7305 205.294 52.9697L203.961 56.1143C203.642 55.8864 203.294 55.7212 202.918 55.6187C202.553 55.5047 202.143 55.4478 201.688 55.4478C200.457 55.4478 199.574 55.9434 199.039 56.9346C198.503 57.9144 198.235 59.5664 198.235 61.8906V69H194.527V52.7646H198.235V55.3794ZM13.6631 99.4131C13.0934 98.7865 12.4269 98.3079 11.6636 97.9775C10.9116 97.6471 10.097 97.4819 9.21973 97.4819C7.70443 97.4819 6.49105 97.9718 5.57959 98.9517C4.66813 99.9315 4.2124 101.23 4.2124 102.848C4.2124 104.534 4.66813 105.862 5.57959 106.83C6.50244 107.787 7.77279 108.266 9.39062 108.266C10.2907 108.266 11.0939 108.1 11.8003 107.77C12.5067 107.428 13.1276 106.916 13.6631 106.232V110.504C12.9795 110.892 12.2446 111.182 11.4585 111.376C10.6838 111.57 9.85775 111.667 8.98047 111.667C6.43978 111.667 4.36621 110.858 2.75977 109.24C1.16471 107.622 0.367188 105.526 0.367188 102.951C0.367188 100.342 1.1932 98.2396 2.84521 96.6445C4.50863 95.0381 6.67904 94.2349 9.35645 94.2349C10.1995 94.2349 10.9743 94.3203 11.6807 94.4912C12.387 94.6507 13.0479 94.9014 13.6631 95.2432V99.4131ZM28.789 102.951C28.789 101.447 28.3048 100.176 27.3363 99.1396C26.3679 98.0915 25.183 97.5674 23.7816 97.5674C22.3917 97.5674 21.2068 98.0915 20.227 99.1396C19.2585 100.176 18.7743 101.447 18.7743 102.951C18.7743 104.455 19.2585 105.731 20.227 106.779C21.2068 107.816 22.3917 108.334 23.7816 108.334C25.1716 108.334 26.3508 107.816 27.3192 106.779C28.2991 105.731 28.789 104.455 28.789 102.951ZM14.8607 102.917C14.8607 101.732 15.0829 100.615 15.5272 99.5669C15.983 98.5073 16.6324 97.5674 17.4755 96.7471C18.3072 95.9382 19.2642 95.3172 20.3466 94.8843C21.4289 94.4513 22.5626 94.2349 23.7475 94.2349C24.9665 94.2349 26.1116 94.4513 27.1825 94.8843C28.2649 95.3172 29.2333 95.9552 30.0878 96.7983C30.9423 97.63 31.5917 98.57 32.036 99.6182C32.4804 100.666 32.7025 101.766 32.7025 102.917C32.7025 104.113 32.4804 105.235 32.036 106.283C31.6031 107.331 30.9651 108.26 30.122 109.069C29.2333 109.923 28.2478 110.567 27.1654 111C26.0831 111.444 24.9438 111.667 23.7475 111.667C22.574 111.667 21.446 111.444 20.3637 111C19.2813 110.567 18.3186 109.935 17.4755 109.103C16.621 108.26 15.9716 107.314 15.5272 106.266C15.0829 105.218 14.8607 104.101 14.8607 102.917ZM38.9417 111H35.2332V94.7988H38.7195V97.4478C39.4601 96.3198 40.2975 95.4995 41.2317 94.9868C42.1774 94.4627 43.2882 94.2007 44.5643 94.2007C45.8289 94.2007 46.8771 94.4684 47.7088 95.0039C48.5405 95.528 49.1728 96.3312 49.6058 97.4136C50.4603 96.297 51.366 95.4824 52.323 94.9697C53.2915 94.457 54.3909 94.2007 55.6214 94.2007C56.6924 94.2007 57.6266 94.4001 58.4241 94.7988C59.2216 95.1862 59.8426 95.7559 60.2869 96.5078C60.492 96.861 60.6401 97.2826 60.7313 97.7725C60.8338 98.2624 60.8851 98.9631 60.8851 99.8745V101.173V111H57.1766V102.677C57.1766 100.501 56.943 99.0713 56.4759 98.3877C56.0202 97.6927 55.1998 97.3452 54.0149 97.3452C52.5566 97.3452 51.5141 97.8123 50.8875 98.7466C50.2723 99.6694 49.9646 101.293 49.9646 103.617V111H46.222V102.677C46.222 100.672 45.977 99.2821 45.4871 98.5073C45.0086 97.7326 44.1769 97.3452 42.992 97.3452C42.2628 97.3452 41.5963 97.5104 40.9925 97.8408C40.3886 98.1712 39.9101 98.627 39.5569 99.208C39.3291 99.584 39.1696 100.045 39.0784 100.592C38.9873 101.139 38.9417 102.147 38.9417 103.617V111ZM68.1667 111H64.4582V94.7988H67.9445V97.4478C68.6851 96.3198 69.5225 95.4995 70.4567 94.9868C71.4024 94.4627 72.5132 94.2007 73.7893 94.2007C75.0539 94.2007 76.1021 94.4684 76.9338 95.0039C77.7655 95.528 78.3978 96.3312 78.8308 97.4136C79.6853 96.297 80.591 95.4824 81.548 94.9697C82.5165 94.457 83.6159 94.2007 84.8464 94.2007C85.9173 94.2007 86.8516 94.4001 87.6491 94.7988C88.4466 95.1862 89.0676 95.7559 89.5119 96.5078C89.717 96.861 89.8651 97.2826 89.9562 97.7725C90.0588 98.2624 90.1101 98.9631 90.1101 99.8745V101.173V111H86.4016V102.677C86.4016 100.501 86.168 99.0713 85.7009 98.3877C85.2451 97.6927 84.4248 97.3452 83.2399 97.3452C81.7816 97.3452 80.7391 97.8123 80.1125 98.7466C79.4973 99.6694 79.1896 101.293 79.1896 103.617V111H75.447V102.677C75.447 100.672 75.202 99.2821 74.7121 98.5073C74.2336 97.7326 73.4019 97.3452 72.217 97.3452C71.4878 97.3452 70.8213 97.5104 70.2175 97.8408C69.6136 98.1712 69.1351 98.627 68.7819 99.208C68.5541 99.584 68.3946 100.045 68.3034 100.592C68.2123 101.139 68.1667 102.147 68.1667 103.617V111ZM97.2721 94.7988V103.925C97.2721 105.497 97.5968 106.625 98.2462 107.309C98.8956 107.992 99.9495 108.334 101.408 108.334C102.866 108.334 103.92 107.992 104.569 107.309C105.219 106.625 105.544 105.497 105.544 103.925V94.7988H109.252V102.814C109.252 105.913 108.631 108.163 107.389 109.564C106.147 110.966 104.165 111.667 101.442 111.667C98.6734 111.667 96.6682 110.972 95.4264 109.582C94.1845 108.192 93.5636 105.936 93.5636 102.814V94.7988H97.2721ZM112.859 111V94.7988H116.346V97.4478C117.086 96.3312 117.958 95.5166 118.96 95.0039C119.963 94.4912 121.182 94.2349 122.618 94.2349C123.825 94.2349 124.851 94.4285 125.694 94.8159C126.548 95.1919 127.215 95.7559 127.693 96.5078C127.978 96.9521 128.183 97.4705 128.309 98.063C128.434 98.6554 128.497 99.6922 128.497 101.173V111H124.754V102.677C124.754 100.547 124.492 99.134 123.968 98.439C123.455 97.7326 122.538 97.3794 121.216 97.3794C120.35 97.3794 119.576 97.5389 118.892 97.8579C118.22 98.1769 117.69 98.627 117.303 99.208C117.029 99.5954 116.836 100.097 116.722 100.712C116.619 101.316 116.568 102.284 116.568 103.617V111H112.859ZM131.711 87.792C131.711 87.1654 131.939 86.6242 132.394 86.1685C132.862 85.7127 133.414 85.4849 134.052 85.4849C134.713 85.4849 135.26 85.707 135.693 86.1514C136.137 86.5843 136.359 87.1312 136.359 87.792C136.359 88.4528 136.137 89.0111 135.693 89.4668C135.248 89.9111 134.702 90.1333 134.052 90.1333C133.414 90.1333 132.862 89.9054 132.394 89.4497C131.939 88.9826 131.711 88.43 131.711 87.792ZM132.206 111V94.7988H135.915V111H132.206ZM140.701 111V98.0459H137.865V94.7988H140.701V88.6636H144.41V94.7988H147.247V98.0459H144.41V111H140.701ZM151.845 118.622H148.034L152.478 109.599L146.53 94.7988H150.632L153.606 103.19C153.777 103.703 153.925 104.227 154.05 104.762C154.187 105.286 154.295 105.822 154.375 106.369C154.523 105.799 154.876 104.893 155.434 103.651L155.52 103.446L159.519 94.7988H163.535L151.845 118.622ZM173.843 111V98.0459H171.006V94.7988H173.843V90.458C173.843 88.3047 174.287 86.7153 175.176 85.6899C176.076 84.6646 177.466 84.1519 179.346 84.1519C179.744 84.1519 180.155 84.1803 180.576 84.2373C180.998 84.2943 181.425 84.3854 181.858 84.5107V87.8604C181.562 87.6895 181.26 87.5641 180.952 87.4844C180.656 87.3932 180.354 87.3477 180.046 87.3477C179.158 87.3477 178.52 87.6211 178.132 88.168C177.745 88.7148 177.551 89.6377 177.551 90.9365V94.7988H181.448V98.0459H177.551V111H173.843ZM197.907 111H194.198V108.898C193.537 109.832 192.763 110.527 191.874 110.983C190.997 111.439 189.988 111.667 188.849 111.667C186.559 111.667 184.753 110.886 183.432 109.325C182.121 107.753 181.466 105.605 181.466 102.882C181.466 100.296 182.138 98.2111 183.483 96.6274C184.827 95.0324 186.582 94.2349 188.746 94.2349C190.068 94.2349 191.196 94.514 192.13 95.0723C193.076 95.6191 193.765 96.411 194.198 97.4478V94.7988H197.907V111ZM194.301 102.848C194.301 101.173 193.908 99.8688 193.121 98.9346C192.347 98.0003 191.259 97.5332 189.857 97.5332C188.456 97.5332 187.351 98.0174 186.542 98.9858C185.744 99.9429 185.346 101.276 185.346 102.985C185.346 104.705 185.733 106.033 186.508 106.967C187.282 107.901 188.376 108.368 189.789 108.368C191.122 108.368 192.204 107.861 193.036 106.847C193.879 105.833 194.301 104.5 194.301 102.848ZM205.342 97.3794C205.741 96.3084 206.265 95.5166 206.914 95.0039C207.575 94.4912 208.39 94.2349 209.358 94.2349C209.882 94.2349 210.395 94.2975 210.896 94.4229C211.409 94.5482 211.91 94.7305 212.4 94.9697L211.067 98.1143C210.748 97.8864 210.401 97.7212 210.025 97.6187C209.66 97.5047 209.25 97.4478 208.794 97.4478C207.564 97.4478 206.681 97.9434 206.145 98.9346C205.61 99.9144 205.342 101.566 205.342 103.891V111H201.634V94.7646H205.342V97.3794ZM216.828 111H213.119V94.7988H216.606V97.4478C217.346 96.3198 218.184 95.4995 219.118 94.9868C220.064 94.4627 221.174 94.2007 222.45 94.2007C223.715 94.2007 224.763 94.4684 225.595 95.0039C226.427 95.528 227.059 96.3312 227.492 97.4136C228.346 96.297 229.252 95.4824 230.209 94.9697C231.178 94.457 232.277 94.2007 233.508 94.2007C234.578 94.2007 235.513 94.4001 236.31 94.7988C237.108 95.1862 237.729 95.7559 238.173 96.5078C238.378 96.861 238.526 97.2826 238.617 97.7725C238.72 98.2624 238.771 98.9631 238.771 99.8745V101.173V111H235.063V102.677C235.063 100.501 234.829 99.0713 234.362 98.3877C233.906 97.6927 233.086 97.3452 231.901 97.3452C230.443 97.3452 229.4 97.8123 228.774 98.7466C228.158 99.6694 227.851 101.293 227.851 103.617V111H224.108V102.677C224.108 100.672 223.863 99.2821 223.373 98.5073C222.895 97.7326 222.063 97.3452 220.878 97.3452C220.149 97.3452 219.482 97.5104 218.879 97.8408C218.275 98.1712 217.796 98.627 217.443 99.208C217.215 99.584 217.056 100.045 216.965 100.592C216.873 101.139 216.828 102.147 216.828 103.617V111ZM242.02 87.792C242.02 87.1654 242.247 86.6242 242.703 86.1685C243.17 85.7127 243.723 85.4849 244.361 85.4849C245.022 85.4849 245.569 85.707 246.002 86.1514C246.446 86.5843 246.668 87.1312 246.668 87.792C246.668 88.4528 246.446 89.0111 246.002 89.4668C245.557 89.9111 245.01 90.1333 244.361 90.1333C243.723 90.1333 243.17 89.9054 242.703 89.4497C242.247 88.9826 242.02 88.43 242.02 87.792ZM242.515 111V94.7988H246.224V111H242.515ZM250.139 111V94.7988H253.625V97.4478C254.366 96.3312 255.237 95.5166 256.24 95.0039C257.242 94.4912 258.461 94.2349 259.897 94.2349C261.105 94.2349 262.13 94.4285 262.973 94.8159C263.828 95.1919 264.494 95.7559 264.973 96.5078C265.257 96.9521 265.463 97.4705 265.588 98.063C265.713 98.6554 265.776 99.6922 265.776 101.173V111H262.033V102.677C262.033 100.547 261.771 99.134 261.247 98.439C260.734 97.7326 259.817 97.3794 258.496 97.3794C257.63 97.3794 256.855 97.5389 256.171 97.8579C255.499 98.1769 254.969 98.627 254.582 99.208C254.309 99.5954 254.115 100.097 254.001 100.712C253.898 101.316 253.847 102.284 253.847 103.617V111H250.139ZM280.953 102.848C280.953 101.173 280.56 99.8688 279.774 98.9346C278.999 98.0003 277.911 97.5332 276.51 97.5332C275.108 97.5332 274.003 98.0174 273.194 98.9858C272.397 99.9429 271.998 101.276 271.998 102.985C271.998 104.705 272.385 106.033 273.16 106.967C273.935 107.901 275.029 108.368 276.441 108.368C277.774 108.368 278.857 107.861 279.688 106.847C280.531 105.833 280.953 104.5 280.953 102.848ZM284.559 109.992C284.559 113.159 283.927 115.386 282.662 116.674C281.397 117.973 279.267 118.622 276.27 118.622C274.037 118.622 272.254 118.149 270.921 117.204C269.588 116.269 268.91 115.022 268.888 113.461L272.87 113.444C272.927 114.139 273.251 114.669 273.844 115.033C274.436 115.398 275.268 115.58 276.339 115.58C277.922 115.58 279.062 115.233 279.757 114.538C280.452 113.843 280.805 112.681 280.816 111.051L280.85 108.898C280.19 109.832 279.415 110.527 278.526 110.983C277.649 111.439 276.641 111.667 275.501 111.667C273.211 111.667 271.406 110.886 270.084 109.325C268.774 107.753 268.119 105.605 268.119 102.882C268.119 100.296 268.791 98.2111 270.135 96.6274C271.48 95.0324 273.234 94.2349 275.399 94.2349C276.72 94.2349 277.848 94.514 278.783 95.0723C279.728 95.6191 280.418 96.411 280.85 97.4478V94.7988H284.559V109.992ZM288.149 109.103C288.149 108.476 288.366 107.941 288.799 107.497C289.232 107.052 289.761 106.83 290.388 106.83C291.015 106.83 291.544 107.052 291.977 107.497C292.41 107.941 292.627 108.476 292.627 109.103C292.627 109.718 292.41 110.242 291.977 110.675C291.544 111.097 291.015 111.308 290.388 111.308C289.761 111.308 289.232 111.097 288.799 110.675C288.366 110.242 288.149 109.718 288.149 109.103Z" fill="white"/>
</svg>
