<svg width="238" height="28" viewBox="0 0 238 28" fill="none" xmlns="http://www.w3.org/2000/svg">
<path d="M4.93848 12.4395H5.98096C8.23682 12.4395 9.74072 12.1945 10.4927 11.7046C11.2446 11.2147 11.6206 10.3488 11.6206 9.10693C11.6206 7.77393 11.2161 6.83398 10.4072 6.28711C9.6097 5.74023 8.13428 5.4668 5.98096 5.4668H4.93848V12.4395ZM4.68213 15.772V27H0.871094V1.98047H7.02344C8.84635 1.98047 10.1851 2.08301 11.0396 2.28809C11.9054 2.48177 12.6574 2.80648 13.2954 3.26221C14.0815 3.84326 14.6968 4.62939 15.1411 5.62061C15.5854 6.60042 15.8076 7.68278 15.8076 8.86768C15.8076 10.0526 15.5854 11.1463 15.1411 12.1489C14.6968 13.1515 14.0815 13.9377 13.2954 14.5073C12.6574 14.9631 11.9054 15.2878 11.0396 15.4814C10.1851 15.6751 8.84635 15.772 7.02344 15.772H6.22021H4.68213ZM31.7709 27H28.0624V24.8979C27.4016 25.8322 26.6269 26.5272 25.7382 26.9829C24.8609 27.4386 23.8526 27.6665 22.7133 27.6665C20.4232 27.6665 18.6174 26.8861 17.2958 25.3252C15.9856 23.7529 15.3305 21.6053 15.3305 18.8823C15.3305 16.2961 16.0027 14.2111 17.3471 12.6274C18.6915 11.0324 20.446 10.2349 22.6107 10.2349C23.9324 10.2349 25.0603 10.514 25.9945 11.0723C26.9402 11.6191 27.6295 12.411 28.0624 13.4478V10.7988H31.7709V27ZM28.1649 18.8481C28.1649 17.1733 27.7719 15.8688 26.9857 14.9346C26.211 14.0003 25.1229 13.5332 23.7216 13.5332C22.3202 13.5332 21.2151 14.0174 20.4062 14.9858C19.6086 15.9429 19.2099 17.2759 19.2099 18.9849C19.2099 20.7052 19.5972 22.0326 20.372 22.9668C21.1467 23.901 22.2405 24.3682 23.6532 24.3682C24.9862 24.3682 26.0686 23.8612 26.9003 22.8472C27.7434 21.8332 28.1649 20.5002 28.1649 18.8481ZM39.2063 13.3794C39.6051 12.3084 40.1292 11.5166 40.7786 11.0039C41.4394 10.4912 42.254 10.2349 43.2225 10.2349C43.7466 10.2349 44.2592 10.2975 44.7605 10.4229C45.2732 10.5482 45.7745 10.7305 46.2645 10.9697L44.9314 14.1143C44.6124 13.8864 44.2649 13.7212 43.889 13.6187C43.5244 13.5047 43.1142 13.4478 42.6585 13.4478C41.428 13.4478 40.5451 13.9434 40.0096 14.9346C39.4741 15.9144 39.2063 17.5664 39.2063 19.8906V27H35.4979V10.7646H39.2063V13.3794ZM46.9836 27V0.510742H50.6921V17.5151L57.4768 10.7988H62.0568L54.7082 17.9424L62.7575 27H57.9724L50.6921 18.6431V27H46.9836ZM78.4146 17.1733H85.3872L82.8237 11.4653C82.6756 11.1007 82.5218 10.6849 82.3623 10.2178C82.2028 9.73926 82.0433 9.20947 81.8838 8.62842C81.7471 9.17529 81.599 9.68799 81.4395 10.1665C81.2913 10.6336 81.1375 11.0666 80.978 11.4653L78.4146 17.1733ZM89.6597 27L86.8228 20.5571H76.9106L74.0054 27H69.7329L81.8496 0.989258L93.9492 27H89.6597ZM110.203 19.4463H97.2489C97.3401 20.9616 97.7901 22.1465 98.599 23.001C99.4079 23.8441 100.485 24.2656 101.829 24.2656C103.025 24.2656 104.022 24.015 104.82 23.5137C105.617 23.0124 106.312 22.2035 106.905 21.0869L110.032 22.8301C109.121 24.4593 107.993 25.6727 106.648 26.4702C105.304 27.2677 103.726 27.6665 101.914 27.6665C99.3168 27.6665 97.2489 26.8747 95.7108 25.291C94.1728 23.7074 93.4037 21.5939 93.4037 18.9507C93.4037 16.41 94.1955 14.325 95.7792 12.6958C97.3742 11.0552 99.4193 10.2349 101.914 10.2349C104.524 10.2349 106.557 10.9811 108.016 12.4736C109.474 13.9661 110.203 16.0568 110.203 18.7456V19.4463ZM106.358 16.9512C106.21 15.7891 105.765 14.9061 105.025 14.3022C104.284 13.687 103.27 13.3794 101.983 13.3794C100.764 13.3794 99.7839 13.6756 99.0434 14.2681C98.3028 14.8605 97.7844 15.7549 97.4882 16.9512H106.358ZM116.391 13.3794C116.79 12.3084 117.314 11.5166 117.963 11.0039C118.624 10.4912 119.439 10.2349 120.407 10.2349C120.931 10.2349 121.444 10.2975 121.945 10.4229C122.458 10.5482 122.959 10.7305 123.449 10.9697L122.116 14.1143C121.797 13.8864 121.45 13.7212 121.074 13.6187C120.709 13.5047 120.299 13.4478 119.843 13.4478C118.613 13.4478 117.73 13.9434 117.194 14.9346C116.659 15.9144 116.391 17.5664 116.391 19.8906V27H112.682V10.7646H116.391V13.3794ZM123.843 3.79199C123.843 3.16536 124.071 2.62419 124.527 2.16846C124.994 1.71273 125.547 1.48486 126.185 1.48486C126.846 1.48486 127.392 1.70703 127.825 2.15137C128.27 2.58431 128.492 3.13118 128.492 3.79199C128.492 4.4528 128.27 5.01107 127.825 5.4668C127.381 5.91113 126.834 6.1333 126.185 6.1333C125.547 6.1333 124.994 5.90544 124.527 5.44971C124.071 4.98258 123.843 4.43001 123.843 3.79199ZM124.339 27V10.7988H128.048V27H124.339ZM147.207 27H143.498V24.8979C142.837 25.8322 142.063 26.5272 141.174 26.9829C140.297 27.4386 139.288 27.6665 138.149 27.6665C135.859 27.6665 134.053 26.8861 132.732 25.3252C131.421 23.7529 130.766 21.6053 130.766 18.8823C130.766 16.2961 131.438 14.2111 132.783 12.6274C134.127 11.0324 135.882 10.2349 138.046 10.2349C139.368 10.2349 140.496 10.514 141.43 11.0723C142.376 11.6191 143.065 12.411 143.498 13.4478V10.7988H147.207V27ZM143.601 18.8481C143.601 17.1733 143.208 15.8688 142.421 14.9346C141.647 14.0003 140.559 13.5332 139.157 13.5332C137.756 13.5332 136.651 14.0174 135.842 14.9858C135.044 15.9429 134.646 17.2759 134.646 18.9849C134.646 20.7052 135.033 22.0326 135.808 22.9668C136.582 23.901 137.676 24.3682 139.089 24.3682C140.422 24.3682 141.504 23.8612 142.336 22.8472C143.179 21.8332 143.601 20.5002 143.601 18.8481ZM151.104 27V0.510742H154.813V27H151.104ZM176.144 27.9741L164.984 1.98047H169.205L174.811 15.3105C175.141 16.0853 175.415 16.8031 175.631 17.4639C175.848 18.1133 176.019 18.7342 176.144 19.3267C176.292 18.7 176.48 18.0506 176.708 17.3784C176.936 16.7062 177.203 16.0169 177.511 15.3105L183.099 1.98047H187.304L176.144 27.9741ZM187.8 3.79199C187.8 3.16536 188.028 2.62419 188.484 2.16846C188.951 1.71273 189.504 1.48486 190.142 1.48486C190.803 1.48486 191.349 1.70703 191.782 2.15137C192.227 2.58431 192.449 3.13118 192.449 3.79199C192.449 4.4528 192.227 5.01107 191.782 5.4668C191.338 5.91113 190.791 6.1333 190.142 6.1333C189.504 6.1333 188.951 5.90544 188.484 5.44971C188.028 4.98258 187.8 4.43001 187.8 3.79199ZM188.296 27V10.7988H192.005V27H188.296ZM211.523 19.4463H198.568C198.66 20.9616 199.11 22.1465 199.919 23.001C200.727 23.8441 201.804 24.2656 203.149 24.2656C204.345 24.2656 205.342 24.015 206.139 23.5137C206.937 23.0124 207.632 22.2035 208.224 21.0869L211.352 22.8301C210.44 24.4593 209.312 25.6727 207.968 26.4702C206.623 27.2677 205.046 27.6665 203.234 27.6665C200.636 27.6665 198.568 26.8747 197.03 25.291C195.492 23.7074 194.723 21.5939 194.723 18.9507C194.723 16.41 195.515 14.325 197.099 12.6958C198.694 11.0552 200.739 10.2349 203.234 10.2349C205.843 10.2349 207.877 10.9811 209.335 12.4736C210.793 13.9661 211.523 16.0568 211.523 18.7456V19.4463ZM207.677 16.9512C207.529 15.7891 207.085 14.9061 206.344 14.3022C205.604 13.687 204.59 13.3794 203.302 13.3794C202.083 13.3794 201.103 13.6756 200.363 14.2681C199.622 14.8605 199.104 15.7549 198.808 16.9512H207.677ZM229.502 27.9741L225.76 19.5488C225.475 18.8994 225.241 18.3241 225.059 17.8228C224.877 17.3101 224.712 16.8088 224.563 16.3188C224.313 17.0594 224.091 17.6974 223.897 18.2329C223.703 18.757 223.549 19.1501 223.436 19.4121L219.59 27.9741L211.199 10.7988H215.147L218.787 18.6089C218.935 18.9393 219.078 19.395 219.214 19.9761C219.362 20.5457 219.488 21.1781 219.59 21.873C219.602 21.4629 219.67 21.0356 219.795 20.5913C219.921 20.147 220.132 19.6001 220.428 18.9507L224.393 10.2007H224.7L228.733 18.9507C228.984 19.4976 229.166 20.0046 229.28 20.4717C229.406 20.9388 229.48 21.4059 229.502 21.873C229.605 21.2578 229.736 20.6768 229.896 20.1299C230.055 19.583 230.237 19.0874 230.442 18.6431L234.014 10.7988H237.928L229.502 27.9741Z" fill="white"/>
</svg>
