<svg width="498" height="85" viewBox="0 0 498 85" fill="none" xmlns="http://www.w3.org/2000/svg">
<path d="M1.88672 28.4189L6.1543 26.4424C6.55859 27.9098 7.2998 29.0329 8.37793 29.8115C9.45605 30.5752 10.8337 30.957 12.5107 30.957C14.098 30.957 15.3558 30.5153 16.2842 29.6318C17.2275 28.7484 17.6992 27.5654 17.6992 26.083C17.6992 24.1514 16.097 22.4294 12.8926 20.917C12.4434 20.6924 12.099 20.5277 11.8594 20.4229C8.23568 18.6559 5.81738 17.0612 4.60449 15.6387C3.40658 14.2012 2.80762 12.4492 2.80762 10.3828C2.80762 7.70247 3.71354 5.53125 5.52539 3.86914C7.35221 2.20703 9.74056 1.37598 12.6904 1.37598C15.1162 1.37598 17.1452 1.84766 18.7773 2.79102C20.4095 3.7194 21.54 5.05957 22.1689 6.81152L17.9912 8.96777C17.3324 7.93457 16.6061 7.17839 15.8125 6.69922C15.0339 6.22005 14.1354 5.98047 13.1172 5.98047C11.6797 5.98047 10.5342 6.35482 9.68066 7.10352C8.84212 7.85221 8.42285 8.85547 8.42285 10.1133C8.42285 12.0898 10.2796 13.9316 13.9932 15.6387C14.2777 15.7734 14.5023 15.8783 14.667 15.9531C17.9163 17.4505 20.1475 18.918 21.3604 20.3555C22.5732 21.778 23.1797 23.5599 23.1797 25.7012C23.1797 28.8158 22.1989 31.2939 20.2373 33.1357C18.2757 34.9626 15.6253 35.876 12.2861 35.876C9.486 35.876 7.1875 35.2321 5.39062 33.9443C3.60872 32.6566 2.44076 30.8148 1.88672 28.4189ZM47.1473 36.2803L42.2284 25.207C41.854 24.3535 41.547 23.5973 41.3075 22.9385C41.0679 22.2646 40.8508 21.6058 40.6561 20.9619C40.3267 21.9352 40.0347 22.7738 39.7801 23.4775C39.5256 24.1663 39.3234 24.6829 39.1737 25.0273L34.12 36.2803L23.0916 13.707H28.2801L33.0643 23.9717C33.259 24.4059 33.4461 25.0049 33.6258 25.7686C33.8205 26.5173 33.9852 27.3483 34.12 28.2617C34.1349 27.7227 34.2248 27.1611 34.3895 26.5771C34.5542 25.9932 34.8312 25.2744 35.2205 24.4209L40.4315 12.9209H40.8358L46.1366 24.4209C46.466 25.1396 46.7056 25.806 46.8553 26.4199C47.02 27.0339 47.1174 27.6478 47.1473 28.2617C47.2821 27.4531 47.4543 26.6895 47.6639 25.9707C47.8735 25.252 48.1131 24.6006 48.3827 24.0166L53.077 13.707H58.2205L47.1473 36.2803ZM59.0085 4.49805C59.0085 3.67448 59.308 2.96322 59.9069 2.36426C60.5208 1.7653 61.2471 1.46582 62.0856 1.46582C62.9541 1.46582 63.6729 1.75781 64.2419 2.3418C64.8259 2.91081 65.1179 3.62956 65.1179 4.49805C65.1179 5.36654 64.8259 6.10026 64.2419 6.69922C63.6579 7.2832 62.9391 7.5752 62.0856 7.5752C61.2471 7.5752 60.5208 7.27572 59.9069 6.67676C59.308 6.06283 59.0085 5.33659 59.0085 4.49805ZM59.6598 35V13.707H64.5339V35H59.6598ZM74.5532 35H69.6792V13.707H74.2613V17.1885C75.2346 15.7061 76.3351 14.6279 77.563 13.9541C78.8058 13.2653 80.2658 12.9209 81.9429 12.9209C83.605 12.9209 84.9826 13.2728 86.0757 13.9766C87.1688 14.6654 87.9999 15.721 88.5689 17.1436C89.6919 15.6761 90.8823 14.6055 92.1402 13.9316C93.4129 13.2578 94.8579 12.9209 96.4751 12.9209C97.8827 12.9209 99.1105 13.1829 100.159 13.707C101.207 14.2161 102.023 14.9648 102.607 15.9531C102.876 16.4173 103.071 16.9714 103.191 17.6152C103.326 18.2591 103.393 19.18 103.393 20.3779V22.085V35H98.5191V24.0615C98.5191 21.2015 98.2121 19.3223 97.5982 18.4238C96.9992 17.5104 95.9211 17.0537 94.3638 17.0537C92.4471 17.0537 91.077 17.6676 90.2534 18.8955C89.4448 20.1084 89.0406 22.2422 89.0406 25.2969V35H84.1216V24.0615C84.1216 21.4261 83.7997 19.5993 83.1558 18.5811C82.5269 17.5628 81.4338 17.0537 79.8765 17.0537C78.9182 17.0537 78.0422 17.2708 77.2486 17.7051C76.4549 18.1393 75.826 18.7383 75.3618 19.502C75.0624 19.9961 74.8527 20.6025 74.7329 21.3213C74.6131 22.04 74.5532 23.3652 74.5532 25.2969V35ZM112.963 35H108.089V13.707H112.671V17.1885C113.645 15.7061 114.745 14.6279 115.973 13.9541C117.216 13.2653 118.676 12.9209 120.353 12.9209C122.015 12.9209 123.393 13.2728 124.486 13.9766C125.579 14.6654 126.41 15.721 126.979 17.1436C128.102 15.6761 129.292 14.6055 130.55 13.9316C131.823 13.2578 133.268 12.9209 134.885 12.9209C136.293 12.9209 137.521 13.1829 138.569 13.707C139.617 14.2161 140.433 14.9648 141.017 15.9531C141.286 16.4173 141.481 16.9714 141.601 17.6152C141.736 18.2591 141.803 19.18 141.803 20.3779V22.085V35H136.929V24.0615C136.929 21.2015 136.622 19.3223 136.008 18.4238C135.409 17.5104 134.331 17.0537 132.774 17.0537C130.857 17.0537 129.487 17.6676 128.663 18.8955C127.855 20.1084 127.451 22.2422 127.451 25.2969V35H122.532V24.0615C122.532 21.4261 122.21 19.5993 121.566 18.5811C120.937 17.5628 119.844 17.0537 118.286 17.0537C117.328 17.0537 116.452 17.2708 115.659 17.7051C114.865 18.1393 114.236 18.7383 113.772 19.502C113.472 19.9961 113.263 20.6025 113.143 21.3213C113.023 22.04 112.963 23.3652 112.963 25.2969V35ZM146.072 4.49805C146.072 3.67448 146.372 2.96322 146.971 2.36426C147.585 1.7653 148.311 1.46582 149.15 1.46582C150.018 1.46582 150.737 1.75781 151.306 2.3418C151.89 2.91081 152.182 3.62956 152.182 4.49805C152.182 5.36654 151.89 6.10026 151.306 6.69922C150.722 7.2832 150.003 7.5752 149.15 7.5752C148.311 7.5752 147.585 7.27572 146.971 6.67676C146.372 6.06283 146.072 5.33659 146.072 4.49805ZM146.724 35V13.707H151.598V35H146.724ZM156.743 35V13.707H161.325V17.1885C162.299 15.721 163.444 14.6504 164.762 13.9766C166.079 13.3027 167.682 12.9658 169.568 12.9658C171.156 12.9658 172.503 13.2204 173.611 13.7295C174.734 14.2236 175.61 14.9648 176.239 15.9531C176.614 16.5371 176.883 17.2184 177.048 17.9971C177.213 18.7757 177.295 20.1383 177.295 22.085V35H172.376V24.0615C172.376 21.2614 172.032 19.4046 171.343 18.4912C170.669 17.5628 169.464 17.0986 167.727 17.0986C166.589 17.0986 165.57 17.3083 164.672 17.7275C163.788 18.1468 163.092 18.7383 162.583 19.502C162.224 20.0111 161.969 20.6699 161.819 21.4785C161.685 22.2721 161.617 23.5449 161.617 25.2969V35H156.743ZM197.242 24.2861C197.242 22.085 196.725 20.3704 195.692 19.1426C194.674 17.9147 193.244 17.3008 191.402 17.3008C189.56 17.3008 188.108 17.9372 187.045 19.21C185.997 20.4678 185.473 22.2197 185.473 24.4658C185.473 26.7269 185.982 28.4714 187 29.6992C188.018 30.9271 189.456 31.541 191.312 31.541C193.064 31.541 194.487 30.8747 195.58 29.542C196.688 28.2093 197.242 26.4574 197.242 24.2861ZM201.981 33.6748C201.981 37.8376 201.15 40.765 199.488 42.457C197.826 44.1641 195.026 45.0176 191.088 45.0176C188.153 45.0176 185.809 44.3962 184.057 43.1533C182.306 41.9255 181.415 40.2858 181.385 38.2344L186.618 38.2119C186.693 39.1253 187.12 39.8216 187.898 40.3008C188.677 40.7799 189.77 41.0195 191.178 41.0195C193.259 41.0195 194.756 40.5628 195.67 39.6494C196.583 38.736 197.047 37.2087 197.062 35.0674L197.107 32.2373C196.239 33.4652 195.221 34.3786 194.053 34.9775C192.9 35.5765 191.574 35.876 190.077 35.876C187.067 35.876 184.694 34.8503 182.957 32.7988C181.235 30.7324 180.374 27.9098 180.374 24.3311C180.374 20.932 181.257 18.1917 183.024 16.1104C184.791 14.014 187.097 12.9658 189.942 12.9658C191.679 12.9658 193.162 13.3327 194.39 14.0664C195.632 14.7852 196.538 15.8258 197.107 17.1885V13.707H201.981V33.6748ZM224.67 15.8633H226.041C229.005 15.8633 230.982 15.5413 231.97 14.8975C232.959 14.2536 233.453 13.1156 233.453 11.4834C233.453 9.73145 232.921 8.49609 231.858 7.77734C230.81 7.05859 228.871 6.69922 226.041 6.69922H224.67V15.8633ZM224.334 20.2432V35H219.325V2.11719H227.411C229.807 2.11719 231.566 2.25195 232.689 2.52148C233.827 2.77604 234.815 3.2028 235.654 3.80176C236.687 4.56543 237.496 5.59863 238.08 6.90137C238.664 8.18913 238.956 9.61165 238.956 11.1689C238.956 12.7262 238.664 14.1637 238.08 15.4814C237.496 16.7992 236.687 17.8324 235.654 18.5811C234.815 19.18 233.827 19.6068 232.689 19.8613C231.566 20.1159 229.807 20.2432 227.411 20.2432H226.355H224.334ZM256.634 24.4209C256.634 22.4443 255.998 20.7747 254.725 19.4121C253.452 18.0345 251.895 17.3457 250.053 17.3457C248.226 17.3457 246.669 18.0345 245.381 19.4121C244.108 20.7747 243.472 22.4443 243.472 24.4209C243.472 26.3975 244.108 28.0745 245.381 29.4521C246.669 30.8148 248.226 31.4961 250.053 31.4961C251.88 31.4961 253.43 30.8148 254.703 29.4521C255.99 28.0745 256.634 26.3975 256.634 24.4209ZM238.329 24.376C238.329 22.8187 238.621 21.3512 239.204 19.9736C239.803 18.5811 240.657 17.3457 241.765 16.2676C242.858 15.2044 244.116 14.3883 245.538 13.8193C246.961 13.2503 248.451 12.9658 250.008 12.9658C251.61 12.9658 253.115 13.2503 254.523 13.8193C255.945 14.3883 257.218 15.2269 258.341 16.335C259.464 17.4281 260.318 18.6634 260.902 20.041C261.486 21.4186 261.778 22.8636 261.778 24.376C261.778 25.9482 261.486 27.4232 260.902 28.8008C260.333 30.1784 259.494 31.3988 258.386 32.4619C257.218 33.585 255.923 34.431 254.5 35C253.078 35.584 251.58 35.876 250.008 35.876C248.466 35.876 246.983 35.584 245.561 35C244.138 34.431 242.873 33.5999 241.765 32.5068C240.642 31.3988 239.788 30.1559 239.204 28.7783C238.621 27.4007 238.329 25.9333 238.329 24.376ZM281.837 24.4209C281.837 22.4443 281.201 20.7747 279.928 19.4121C278.655 18.0345 277.098 17.3457 275.256 17.3457C273.429 17.3457 271.872 18.0345 270.584 19.4121C269.311 20.7747 268.675 22.4443 268.675 24.4209C268.675 26.3975 269.311 28.0745 270.584 29.4521C271.872 30.8148 273.429 31.4961 275.256 31.4961C277.083 31.4961 278.633 30.8148 279.906 29.4521C281.193 28.0745 281.837 26.3975 281.837 24.4209ZM263.531 24.376C263.531 22.8187 263.823 21.3512 264.407 19.9736C265.006 18.5811 265.86 17.3457 266.968 16.2676C268.061 15.2044 269.319 14.3883 270.741 13.8193C272.164 13.2503 273.654 12.9658 275.211 12.9658C276.813 12.9658 278.318 13.2503 279.726 13.8193C281.148 14.3883 282.421 15.2269 283.544 16.335C284.667 17.4281 285.521 18.6634 286.105 20.041C286.689 21.4186 286.981 22.8636 286.981 24.376C286.981 25.9482 286.689 27.4232 286.105 28.8008C285.536 30.1784 284.697 31.3988 283.589 32.4619C282.421 33.585 281.126 34.431 279.703 35C278.281 35.584 276.783 35.876 275.211 35.876C273.669 35.876 272.186 35.584 270.764 35C269.341 34.431 268.076 33.5999 266.968 32.5068C265.845 31.3988 264.991 30.1559 264.407 28.7783C263.823 27.4007 263.531 25.9333 263.531 24.376ZM290.531 35V0.185547H295.405V35H290.531ZM304.122 29.4297L308.502 31.0469L302.662 43.0859L299.765 41.9404L304.122 29.4297ZM5.34912 84.6221H1.53809L5.98145 75.5986L0.0341797 60.7988H4.13574L7.10938 69.1899C7.28027 69.7026 7.42839 70.2267 7.55371 70.7622C7.69043 71.2863 7.79867 71.8218 7.87842 72.3687C8.02653 71.799 8.37972 70.8932 8.93799 69.6514L9.02344 69.4463L13.0225 60.7988H17.0386L5.34912 84.6221ZM30.4042 68.9507C30.4042 67.4468 29.92 66.1764 28.9516 65.1396C27.9831 64.0915 26.7982 63.5674 25.3969 63.5674C24.0069 63.5674 22.822 64.0915 21.8422 65.1396C20.8738 66.1764 20.3896 67.4468 20.3896 68.9507C20.3896 70.4546 20.8738 71.7306 21.8422 72.7788C22.822 73.8156 24.0069 74.334 25.3969 74.334C26.7868 74.334 27.966 73.8156 28.9345 72.7788C29.9143 71.7306 30.4042 70.4546 30.4042 68.9507ZM16.476 68.9165C16.476 67.7316 16.6981 66.6151 17.1425 65.5669C17.5982 64.5073 18.2476 63.5674 19.0907 62.7471C19.9224 61.9382 20.8795 61.3172 21.9618 60.8843C23.0442 60.4513 24.1778 60.2349 25.3627 60.2349C26.5818 60.2349 27.7268 60.4513 28.7978 60.8843C29.8801 61.3172 30.8485 61.9552 31.703 62.7983C32.5575 63.63 33.2069 64.57 33.6513 65.6182C34.0956 66.6663 34.3178 67.7658 34.3178 68.9165C34.3178 70.1128 34.0956 71.235 33.6513 72.2832C33.2183 73.3314 32.5803 74.2599 31.7372 75.0688C30.8485 75.9233 29.863 76.5671 28.7807 77C27.6983 77.4443 26.559 77.6665 25.3627 77.6665C24.1892 77.6665 23.0613 77.4443 21.9789 77C20.8965 76.5671 19.9338 75.9347 19.0907 75.103C18.2362 74.2599 17.5868 73.3143 17.1425 72.2661C16.6981 71.2179 16.476 70.1014 16.476 68.9165ZM40.4373 60.7988V69.9248C40.4373 71.4971 40.762 72.625 41.4114 73.3086C42.0608 73.9922 43.1147 74.334 44.573 74.334C46.0314 74.334 47.0853 73.9922 47.7347 73.3086C48.3841 72.625 48.7088 71.4971 48.7088 69.9248V60.7988H52.4173V68.814C52.4173 71.9129 51.7964 74.1631 50.5545 75.5645C49.3126 76.9658 47.3302 77.6665 44.6072 77.6665C41.8387 77.6665 39.8335 76.9715 38.5916 75.5815C37.3497 74.1916 36.7288 71.9357 36.7288 68.814V60.7988H40.4373ZM59.7331 63.3794C60.1319 62.3084 60.656 61.5166 61.3054 61.0039C61.9662 60.4912 62.7808 60.2349 63.7492 60.2349C64.2733 60.2349 64.786 60.2975 65.2873 60.4229C65.8 60.5482 66.3013 60.7305 66.7912 60.9697L65.4582 64.1143C65.1392 63.8864 64.7917 63.7212 64.4157 63.6187C64.0511 63.5047 63.641 63.4478 63.1853 63.4478C61.9548 63.4478 61.0718 63.9434 60.5363 64.9346C60.0008 65.9144 59.7331 67.5664 59.7331 69.8906V77H56.0246V60.7646H59.7331V63.3794ZM90.8394 64.1826H100.751C100.751 64.3535 100.757 64.5928 100.769 64.9004C100.803 65.7093 100.82 66.2562 100.82 66.541C100.82 70.0615 99.8115 72.7959 97.7949 74.7441C95.7783 76.6924 92.9357 77.6665 89.2671 77.6665C87.2163 77.6665 85.3877 77.3646 83.7812 76.7607C82.1748 76.1569 80.7677 75.2454 79.5601 74.0264C78.3752 72.8187 77.4637 71.4002 76.8257 69.771C76.1991 68.1418 75.8857 66.3986 75.8857 64.5415C75.8857 62.6502 76.2048 60.9071 76.8428 59.312C77.4922 57.717 78.4492 56.3099 79.7139 55.0908C80.9329 53.8945 82.3628 52.9831 84.0034 52.3564C85.644 51.7298 87.3986 51.4165 89.2671 51.4165C91.2381 51.4165 92.9984 51.7754 94.5479 52.4932C96.1087 53.2109 97.4987 54.3104 98.7178 55.7915L95.7441 58.0303C94.901 57.0505 93.9497 56.3213 92.8901 55.8428C91.8306 55.3643 90.6457 55.125 89.3354 55.125C86.6239 55.125 84.4079 55.9966 82.6875 57.7397C80.9785 59.4715 80.124 61.7274 80.124 64.5073C80.124 67.3328 80.9785 69.6286 82.6875 71.3945C84.4079 73.1491 86.6353 74.0264 89.3696 74.0264C91.6938 74.0264 93.5225 73.4852 94.8555 72.4028C96.1885 71.3205 96.855 69.8451 96.855 67.9766V67.6177H90.8394V64.1826ZM118.646 77H114.937V74.8979C114.277 75.8322 113.502 76.5272 112.613 76.9829C111.736 77.4386 110.728 77.6665 109.588 77.6665C107.298 77.6665 105.492 76.8861 104.171 75.3252C102.861 73.7529 102.205 71.6053 102.205 68.8823C102.205 66.2961 102.878 64.2111 104.222 62.6274C105.566 61.0324 107.321 60.2349 109.486 60.2349C110.807 60.2349 111.935 60.514 112.87 61.0723C113.815 61.6191 114.504 62.411 114.937 63.4478V60.7988H118.646V77ZM115.04 68.8481C115.04 67.1733 114.647 65.8688 113.861 64.9346C113.086 64.0003 111.998 63.5332 110.597 63.5332C109.195 63.5332 108.09 64.0174 107.281 64.9858C106.484 65.9429 106.085 67.2759 106.085 68.9849C106.085 70.7052 106.472 72.0326 107.247 72.9668C108.022 73.901 109.115 74.3682 110.528 74.3682C111.861 74.3682 112.944 73.8612 113.775 72.8472C114.618 71.8332 115.04 70.5002 115.04 68.8481ZM123.244 77V64.0459H120.408V60.7988H123.244V54.6636H126.953V60.7988H129.79V64.0459H126.953V77H123.244ZM147.206 69.4463H134.252C134.343 70.9616 134.793 72.1465 135.602 73.001C136.411 73.8441 137.487 74.2656 138.832 74.2656C140.028 74.2656 141.025 74.015 141.822 73.5137C142.62 73.0124 143.315 72.2035 143.907 71.0869L147.035 72.8301C146.123 74.4593 144.995 75.6727 143.651 76.4702C142.307 77.2677 140.729 77.6665 138.917 77.6665C136.32 77.6665 134.252 76.8747 132.714 75.291C131.175 73.7074 130.406 71.5939 130.406 68.9507C130.406 66.41 131.198 64.325 132.782 62.6958C134.377 61.0552 136.422 60.2349 138.917 60.2349C141.526 60.2349 143.56 60.9811 145.018 62.4736C146.477 63.9661 147.206 66.0568 147.206 68.7456V69.4463ZM143.361 66.9512C143.212 65.7891 142.768 64.9061 142.028 64.3022C141.287 63.687 140.273 63.3794 138.986 63.3794C137.766 63.3794 136.787 63.6756 136.046 64.2681C135.306 64.8605 134.787 65.7549 134.491 66.9512H143.361ZM165.186 77.9741L161.443 69.5488C161.158 68.8994 160.925 68.3241 160.742 67.8228C160.56 67.3101 160.395 66.8088 160.247 66.3188C159.996 67.0594 159.774 67.6974 159.58 68.2329C159.386 68.757 159.233 69.1501 159.119 69.4121L155.274 77.9741L146.882 60.7988H150.83L154.47 68.6089C154.618 68.9393 154.761 69.395 154.898 69.9761C155.046 70.5457 155.171 71.1781 155.274 71.873C155.285 71.4629 155.353 71.0356 155.479 70.5913C155.604 70.147 155.815 69.6001 156.111 68.9507L160.076 60.2007H160.383L164.417 68.9507C164.667 69.4976 164.85 70.0046 164.963 70.4717C165.089 70.9388 165.163 71.4059 165.186 71.873C165.288 71.2578 165.419 70.6768 165.579 70.1299C165.738 69.583 165.921 69.0874 166.126 68.6431L169.697 60.7988H173.611L165.186 77.9741ZM189.779 77H186.071V74.8979C185.41 75.8322 184.635 76.5272 183.747 76.9829C182.869 77.4386 181.861 77.6665 180.722 77.6665C178.432 77.6665 176.626 76.8861 175.304 75.3252C173.994 73.7529 173.339 71.6053 173.339 68.8823C173.339 66.2961 174.011 64.2111 175.355 62.6274C176.7 61.0324 178.454 60.2349 180.619 60.2349C181.941 60.2349 183.069 60.514 184.003 61.0723C184.949 61.6191 185.638 62.411 186.071 63.4478V60.7988H189.779V77ZM186.173 68.8481C186.173 67.1733 185.78 65.8688 184.994 64.9346C184.219 64.0003 183.131 63.5332 181.73 63.5332C180.329 63.5332 179.223 64.0174 178.415 64.9858C177.617 65.9429 177.218 67.2759 177.218 68.9849C177.218 70.7052 177.606 72.0326 178.38 72.9668C179.155 73.901 180.249 74.3682 181.662 74.3682C182.995 74.3682 184.077 73.8612 184.909 72.8472C185.752 71.8332 186.173 70.5002 186.173 68.8481ZM196.292 84.6221H192.481L196.924 75.5986L190.977 60.7988H195.079L198.052 69.1899C198.223 69.7026 198.371 70.2267 198.496 70.7622C198.633 71.2863 198.741 71.8218 198.821 72.3687C198.969 71.799 199.322 70.8932 199.881 69.6514L199.966 69.4463L203.965 60.7988H207.981L196.292 84.6221ZM218.648 77V64.0459H215.811V60.7988H218.648V54.6636H222.357V60.7988H225.194V64.0459H222.357V77H218.648ZM239.738 68.9507C239.738 67.4468 239.254 66.1764 238.286 65.1396C237.317 64.0915 236.132 63.5674 234.731 63.5674C233.341 63.5674 232.156 64.0915 231.176 65.1396C230.208 66.1764 229.724 67.4468 229.724 68.9507C229.724 70.4546 230.208 71.7306 231.176 72.7788C232.156 73.8156 233.341 74.334 234.731 74.334C236.121 74.334 237.3 73.8156 238.269 72.7788C239.248 71.7306 239.738 70.4546 239.738 68.9507ZM225.81 68.9165C225.81 67.7316 226.032 66.6151 226.477 65.5669C226.932 64.5073 227.582 63.5674 228.425 62.7471C229.257 61.9382 230.214 61.3172 231.296 60.8843C232.378 60.4513 233.512 60.2349 234.697 60.2349C235.916 60.2349 237.061 60.4513 238.132 60.8843C239.214 61.3172 240.183 61.9552 241.037 62.7983C241.892 63.63 242.541 64.57 242.985 65.6182C243.43 66.6663 243.652 67.7658 243.652 68.9165C243.652 70.1128 243.43 71.235 242.985 72.2832C242.553 73.3314 241.914 74.2599 241.071 75.0688C240.183 75.9233 239.197 76.5671 238.115 77C237.032 77.4443 235.893 77.6665 234.697 77.6665C233.523 77.6665 232.395 77.4443 231.313 77C230.231 76.5671 229.268 75.9347 228.425 75.103C227.57 74.2599 226.921 73.3143 226.477 72.2661C226.032 71.2179 225.81 70.1014 225.81 68.9165ZM255.549 51.9805H259.565V67.1733C259.565 69.4292 260.084 71.1268 261.121 72.2661C262.169 73.394 263.73 73.958 265.803 73.958C267.865 73.958 269.415 73.394 270.452 72.2661C271.5 71.1268 272.024 69.4292 272.024 67.1733V51.9805H276.091V67.5493C276.091 70.9331 275.237 73.4681 273.528 75.1543C271.819 76.8291 269.244 77.6665 265.803 77.6665C262.362 77.6665 259.793 76.8291 258.096 75.1543C256.398 73.4795 255.549 70.9445 255.549 67.5493V51.9805ZM280.16 77V50.5107H283.868V77H280.16ZM288.655 77V64.0459H285.818V60.7988H288.655V54.6636H292.363V60.7988H295.2V64.0459H292.363V77H288.655ZM296.689 53.792C296.689 53.1654 296.916 52.6242 297.372 52.1685C297.839 51.7127 298.392 51.4849 299.03 51.4849C299.691 51.4849 300.238 51.707 300.671 52.1514C301.115 52.5843 301.337 53.1312 301.337 53.792C301.337 54.4528 301.115 55.0111 300.671 55.4668C300.226 55.9111 299.679 56.1333 299.03 56.1333C298.392 56.1333 297.839 55.9054 297.372 55.4497C296.916 54.9826 296.689 54.43 296.689 53.792ZM297.184 77V60.7988H300.893V77H297.184ZM308.516 77H304.808V60.7988H308.294V63.4478C309.035 62.3198 309.872 61.4995 310.806 60.9868C311.752 60.4627 312.863 60.2007 314.139 60.2007C315.403 60.2007 316.451 60.4684 317.283 61.0039C318.115 61.528 318.747 62.3312 319.18 63.4136C320.035 62.297 320.94 61.4824 321.897 60.9697C322.866 60.457 323.965 60.2007 325.196 60.2007C326.267 60.2007 327.201 60.4001 327.999 60.7988C328.796 61.1862 329.417 61.7559 329.861 62.5078C330.066 62.861 330.215 63.2826 330.306 63.7725C330.408 64.2624 330.459 64.9631 330.459 65.8745V67.1733V77H326.751V68.6772C326.751 66.5011 326.517 65.0713 326.05 64.3877C325.595 63.6927 324.774 63.3452 323.589 63.3452C322.131 63.3452 321.089 63.8123 320.462 64.7466C319.847 65.6694 319.539 67.293 319.539 69.6172V77H315.796V68.6772C315.796 66.672 315.551 65.2821 315.062 64.5073C314.583 63.7326 313.751 63.3452 312.566 63.3452C311.837 63.3452 311.171 63.5104 310.567 63.8408C309.963 64.1712 309.485 64.627 309.131 65.208C308.903 65.584 308.744 66.0454 308.653 66.5923C308.562 67.1392 308.516 68.1475 308.516 69.6172V77ZM349.277 77H345.568V74.8979C344.907 75.8322 344.133 76.5272 343.244 76.9829C342.367 77.4386 341.358 77.6665 340.219 77.6665C337.929 77.6665 336.123 76.8861 334.802 75.3252C333.491 73.7529 332.836 71.6053 332.836 68.8823C332.836 66.2961 333.509 64.2111 334.853 62.6274C336.197 61.0324 337.952 60.2349 340.117 60.2349C341.438 60.2349 342.566 60.514 343.5 61.0723C344.446 61.6191 345.135 62.411 345.568 63.4478V60.7988H349.277V77ZM345.671 68.8481C345.671 67.1733 345.278 65.8688 344.492 64.9346C343.717 64.0003 342.629 63.5332 341.227 63.5332C339.826 63.5332 338.721 64.0174 337.912 64.9858C337.114 65.9429 336.716 67.2759 336.716 68.9849C336.716 70.7052 337.103 72.0326 337.878 72.9668C338.653 73.901 339.746 74.3682 341.159 74.3682C342.492 74.3682 343.574 73.8612 344.406 72.8472C345.249 71.8332 345.671 70.5002 345.671 68.8481ZM353.875 77V64.0459H351.038V60.7988H353.875V54.6636H357.584V60.7988H360.421V64.0459H357.584V77H353.875ZM377.837 69.4463H364.883C364.974 70.9616 365.424 72.1465 366.233 73.001C367.042 73.8441 368.118 74.2656 369.463 74.2656C370.659 74.2656 371.656 74.015 372.453 73.5137C373.251 73.0124 373.946 72.2035 374.538 71.0869L377.666 72.8301C376.754 74.4593 375.626 75.6727 374.282 76.4702C372.938 77.2677 371.36 77.6665 369.548 77.6665C366.95 77.6665 364.883 76.8747 363.344 75.291C361.806 73.7074 361.037 71.5939 361.037 68.9507C361.037 66.41 361.829 64.325 363.413 62.6958C365.008 61.0552 367.053 60.2349 369.548 60.2349C372.157 60.2349 374.191 60.9811 375.649 62.4736C377.107 63.9661 377.837 66.0568 377.837 68.7456V69.4463ZM373.991 66.9512C373.843 65.7891 373.399 64.9061 372.658 64.3022C371.918 63.687 370.904 63.3794 369.616 63.3794C368.397 63.3794 367.418 63.6756 366.677 64.2681C365.936 64.8605 365.418 65.7549 365.122 66.9512H373.991ZM389.785 77V51.9805H393.853V73.3599H402.944V77H389.785ZM420.155 69.4463H407.201C407.292 70.9616 407.742 72.1465 408.551 73.001C409.36 73.8441 410.437 74.2656 411.781 74.2656C412.977 74.2656 413.974 74.015 414.772 73.5137C415.569 73.0124 416.264 72.2035 416.857 71.0869L419.984 72.8301C419.073 74.4593 417.945 75.6727 416.6 76.4702C415.256 77.2677 413.678 77.6665 411.867 77.6665C409.269 77.6665 407.201 76.8747 405.663 75.291C404.125 73.7074 403.356 71.5939 403.356 68.9507C403.356 66.41 404.148 64.325 405.731 62.6958C407.326 61.0552 409.371 60.2349 411.867 60.2349C414.476 60.2349 416.509 60.9811 417.968 62.4736C419.426 63.9661 420.155 66.0568 420.155 68.7456V69.4463ZM416.31 66.9512C416.162 65.7891 415.718 64.9061 414.977 64.3022C414.236 63.687 413.222 63.3794 411.935 63.3794C410.716 63.3794 409.736 63.6756 408.996 64.2681C408.255 64.8605 407.737 65.7549 407.44 66.9512H416.31ZM422.31 53.792C422.31 53.1654 422.538 52.6242 422.993 52.1685C423.461 51.7127 424.013 51.4849 424.651 51.4849C425.312 51.4849 425.859 51.707 426.292 52.1514C426.736 52.5843 426.958 53.1312 426.958 53.792C426.958 54.4528 426.736 55.0111 426.292 55.4668C425.847 55.9111 425.301 56.1333 424.651 56.1333C424.013 56.1333 423.461 55.9054 422.993 55.4497C422.538 54.9826 422.31 54.43 422.31 53.792ZM422.805 77V60.7988H426.514V77H422.805ZM428.566 74.0605L431.642 72.3857C431.87 73.1947 432.292 73.8099 432.907 74.2314C433.522 74.653 434.314 74.8638 435.282 74.8638C436.114 74.8638 436.764 74.6758 437.231 74.2998C437.709 73.9124 437.948 73.3883 437.948 72.7275C437.948 71.8503 437.105 71.0983 435.419 70.4717C434.849 70.2666 434.411 70.0957 434.103 69.959C432.371 69.2412 431.158 68.512 430.463 67.7715C429.779 67.0309 429.438 66.1309 429.438 65.0713C429.438 63.6243 430.002 62.4508 431.13 61.5508C432.269 60.6507 433.773 60.2007 435.641 60.2007C436.895 60.2007 437.966 60.4342 438.854 60.9014C439.754 61.3571 440.409 62.0122 440.82 62.8667L438.188 64.6782C437.994 64.1655 437.652 63.7611 437.162 63.4648C436.684 63.1572 436.126 63.0034 435.487 63.0034C434.781 63.0034 434.211 63.1743 433.779 63.5161C433.357 63.8465 433.146 64.2909 433.146 64.8491C433.146 65.6922 434.103 66.4613 436.017 67.1562C436.621 67.3727 437.088 67.5493 437.419 67.686C438.911 68.2785 439.976 68.9507 440.614 69.7026C441.264 70.4432 441.589 71.3717 441.589 72.4883C441.589 74.1061 441.002 75.3765 439.828 76.2993C438.655 77.2108 437.037 77.6665 434.975 77.6665C433.391 77.6665 432.075 77.3703 431.027 76.7778C429.979 76.1854 429.159 75.2796 428.566 74.0605ZM447.52 60.7988V69.9248C447.52 71.4971 447.845 72.625 448.494 73.3086C449.144 73.9922 450.198 74.334 451.656 74.334C453.114 74.334 454.168 73.9922 454.817 73.3086C455.467 72.625 455.792 71.4971 455.792 69.9248V60.7988H459.5V68.814C459.5 71.9129 458.879 74.1631 457.637 75.5645C456.395 76.9658 454.413 77.6665 451.69 77.6665C448.921 77.6665 446.916 76.9715 445.674 75.5815C444.433 74.1916 443.812 71.9357 443.812 68.814V60.7988H447.52ZM466.816 63.3794C467.215 62.3084 467.739 61.5166 468.388 61.0039C469.049 60.4912 469.864 60.2349 470.832 60.2349C471.356 60.2349 471.869 60.2975 472.37 60.4229C472.883 60.5482 473.384 60.7305 473.874 60.9697L472.541 64.1143C472.222 63.8864 471.875 63.7212 471.499 63.6187C471.134 63.5047 470.724 63.4478 470.268 63.4478C469.038 63.4478 468.155 63.9434 467.619 64.9346C467.084 65.9144 466.816 67.5664 466.816 69.8906V77H463.107V60.7646H466.816V63.3794ZM490.196 69.4463H477.242C477.333 70.9616 477.783 72.1465 478.592 73.001C479.401 73.8441 480.478 74.2656 481.822 74.2656C483.018 74.2656 484.015 74.015 484.813 73.5137C485.61 73.0124 486.305 72.2035 486.898 71.0869L490.025 72.8301C489.114 74.4593 487.986 75.6727 486.642 76.4702C485.297 77.2677 483.719 77.6665 481.908 77.6665C479.31 77.6665 477.242 76.8747 475.704 75.291C474.166 73.7074 473.397 71.5939 473.397 68.9507C473.397 66.41 474.189 64.325 475.772 62.6958C477.367 61.0552 479.413 60.2349 481.908 60.2349C484.517 60.2349 486.55 60.9811 488.009 62.4736C489.467 63.9661 490.196 66.0568 490.196 68.7456V69.4463ZM486.351 66.9512C486.203 65.7891 485.759 64.9061 485.018 64.3022C484.277 63.687 483.263 63.3794 481.976 63.3794C480.757 63.3794 479.777 63.6756 479.037 64.2681C478.296 64.8605 477.778 65.7549 477.481 66.9512H486.351ZM493.154 75.103C493.154 74.4764 493.371 73.9409 493.804 73.4966C494.236 73.0522 494.766 72.8301 495.393 72.8301C496.02 72.8301 496.549 73.0522 496.982 73.4966C497.415 73.9409 497.632 74.4764 497.632 75.103C497.632 75.7183 497.415 76.2424 496.982 76.6753C496.549 77.0968 496.02 77.3076 495.393 77.3076C494.766 77.3076 494.236 77.0968 493.804 76.6753C493.371 76.2424 493.154 75.7183 493.154 75.103Z" fill="white"/>
</svg>
