<svg width="443" height="85" viewBox="0 0 443 85" fill="none" xmlns="http://www.w3.org/2000/svg">
<path d="M15.2178 36.2803L0.550781 2.11719H6.09863L13.4658 19.6367C13.9001 20.6549 14.2594 21.5983 14.5439 22.4668C14.8285 23.3203 15.0531 24.1364 15.2178 24.915C15.4124 24.0915 15.6595 23.238 15.959 22.3545C16.2585 21.471 16.6104 20.5651 17.0146 19.6367L24.3594 2.11719H29.8848L15.2178 36.2803ZM30.5379 4.49805C30.5379 3.67448 30.8374 2.96322 31.4364 2.36426C32.0503 1.7653 32.7765 1.46582 33.6151 1.46582C34.4836 1.46582 35.2023 1.75781 35.7713 2.3418C36.3553 2.91081 36.6473 3.62956 36.6473 4.49805C36.6473 5.36654 36.3553 6.10026 35.7713 6.69922C35.1873 7.2832 34.4686 7.5752 33.6151 7.5752C32.7765 7.5752 32.0503 7.27572 31.4364 6.67676C30.8374 6.06283 30.5379 5.33659 30.5379 4.49805ZM31.1893 35V13.707H36.0633V35H31.1893ZM41.4333 35V0.185547H46.3073V35H41.4333ZM51.6773 35V0.185547H56.5513V35H51.6773ZM81.7318 35H76.8578V32.2373C75.9893 33.4652 74.9711 34.3786 73.8031 34.9775C72.6501 35.5765 71.3249 35.876 69.8275 35.876C66.8177 35.876 64.4444 34.8503 62.7074 32.7988C60.9854 30.7324 60.1244 27.9098 60.1244 24.3311C60.1244 20.932 61.0078 18.1917 62.7748 16.1104C64.5417 14.014 66.8477 12.9658 69.6927 12.9658C71.4297 12.9658 72.9121 13.3327 74.14 14.0664C75.3828 14.7852 76.2888 15.8258 76.8578 17.1885V13.707H81.7318V35ZM76.9925 24.2861C76.9925 22.085 76.4759 20.3704 75.4427 19.1426C74.4245 17.9147 72.9945 17.3008 71.1527 17.3008C69.3109 17.3008 67.8584 17.9372 66.7953 19.21C65.7471 20.4678 65.223 22.2197 65.223 24.4658C65.223 26.7269 65.7321 28.4714 66.7504 29.6992C67.7686 30.9271 69.2061 31.541 71.0629 31.541C72.8148 31.541 74.2373 30.8747 75.3304 29.542C76.4385 28.2093 76.9925 26.4574 76.9925 24.2861ZM104.309 15.998H106.353C108.898 15.998 110.695 15.6536 111.743 14.9648C112.806 14.2611 113.338 13.0856 113.338 11.4385C113.338 9.6416 112.851 8.38379 111.878 7.66504C110.905 6.93132 109.063 6.56445 106.353 6.56445H104.309V15.998ZM104.309 30.5303H106.15C108.022 30.5303 109.422 30.4554 110.351 30.3057C111.279 30.1559 112.013 29.8939 112.552 29.5195C113.211 29.0853 113.72 28.5013 114.079 27.7676C114.439 27.0339 114.618 26.2253 114.618 25.3418C114.618 24.2936 114.401 23.3802 113.967 22.6016C113.533 21.8229 112.911 21.2165 112.103 20.7822C111.593 20.5277 111.009 20.3405 110.351 20.2207C109.707 20.1009 108.846 20.041 107.768 20.041H106.15H104.309V30.5303ZM99.0752 35V2.11719H107.363C109.729 2.11719 111.474 2.24447 112.597 2.49902C113.735 2.75358 114.701 3.17285 115.494 3.75684C116.512 4.50553 117.299 5.48633 117.853 6.69922C118.422 7.91211 118.706 9.25228 118.706 10.7197C118.706 12.4717 118.302 13.9391 117.493 15.1221C116.685 16.29 115.509 17.1061 113.967 17.5703C115.884 17.8698 117.388 18.7458 118.481 20.1982C119.59 21.6357 120.144 23.4551 120.144 25.6562C120.144 26.9889 119.911 28.2542 119.447 29.4521C118.983 30.6501 118.324 31.6683 117.471 32.5068C116.572 33.4202 115.457 34.0641 114.124 34.4385C112.791 34.8128 110.553 35 107.408 35H99.0752ZM143.37 35H138.496V32.2373C137.627 33.4652 136.609 34.3786 135.441 34.9775C134.288 35.5765 132.963 35.876 131.466 35.876C128.456 35.876 126.083 34.8503 124.346 32.7988C122.624 30.7324 121.763 27.9098 121.763 24.3311C121.763 20.932 122.646 18.1917 124.413 16.1104C126.18 14.014 128.486 12.9658 131.331 12.9658C133.068 12.9658 134.55 13.3327 135.778 14.0664C137.021 14.7852 137.927 15.8258 138.496 17.1885V13.707H143.37V35ZM138.631 24.2861C138.631 22.085 138.114 20.3704 137.081 19.1426C136.063 17.9147 134.633 17.3008 132.791 17.3008C130.949 17.3008 129.497 17.9372 128.433 19.21C127.385 20.4678 126.861 22.2197 126.861 24.4658C126.861 26.7269 127.37 28.4714 128.389 29.6992C129.407 30.9271 130.844 31.541 132.701 31.541C134.453 31.541 135.876 30.8747 136.969 29.542C138.077 28.2093 138.631 26.4574 138.631 24.2861ZM164.171 19.7715C163.422 18.9479 162.546 18.319 161.543 17.8848C160.554 17.4505 159.484 17.2334 158.331 17.2334C156.339 17.2334 154.745 17.8773 153.547 19.165C152.349 20.4528 151.75 22.1598 151.75 24.2861C151.75 26.5023 152.349 28.2467 153.547 29.5195C154.759 30.7773 156.429 31.4062 158.555 31.4062C159.738 31.4062 160.794 31.1891 161.722 30.7549C162.651 30.3057 163.467 29.6318 164.171 28.7334V34.3486C163.272 34.8577 162.306 35.2396 161.273 35.4941C160.255 35.7487 159.169 35.876 158.016 35.876C154.677 35.876 151.952 34.8128 149.841 32.6865C147.744 30.5602 146.696 27.805 146.696 24.4209C146.696 20.9919 147.782 18.2292 149.953 16.1328C152.139 14.0215 154.992 12.9658 158.51 12.9658C159.619 12.9658 160.637 13.0781 161.565 13.3027C162.494 13.5124 163.362 13.8418 164.171 14.291V19.7715ZM167.317 35V0.185547H172.191V22.5342L181.108 13.707H187.128L177.469 23.0957L188.048 35H181.759L172.191 24.0166V35H167.317ZM192.902 45.0176H187.893L193.733 33.1582L185.916 13.707H191.307L195.215 24.7354C195.44 25.4092 195.635 26.098 195.799 26.8018C195.979 27.4906 196.121 28.1943 196.226 28.9131C196.421 28.1644 196.885 26.974 197.619 25.3418L197.731 25.0723L202.987 13.707H208.265L192.902 45.0176ZM229.133 35H224.259V32.2373C223.391 33.4652 222.372 34.3786 221.204 34.9775C220.051 35.5765 218.726 35.876 217.229 35.876C214.219 35.876 211.846 34.8503 210.109 32.7988C208.387 30.7324 207.526 27.9098 207.526 24.3311C207.526 20.932 208.409 18.1917 210.176 16.1104C211.943 14.014 214.249 12.9658 217.094 12.9658C218.831 12.9658 220.313 13.3327 221.541 14.0664C222.784 14.7852 223.69 15.8258 224.259 17.1885V13.707H229.133V35ZM224.394 24.2861C224.394 22.085 223.877 20.3704 222.844 19.1426C221.826 17.9147 220.396 17.3008 218.554 17.3008C216.712 17.3008 215.26 17.9372 214.197 19.21C213.148 20.4678 212.624 22.2197 212.624 24.4658C212.624 26.7269 213.133 28.4714 214.152 29.6992C215.17 30.9271 216.607 31.541 218.464 31.541C220.216 31.541 221.639 30.8747 222.732 29.542C223.84 28.2093 224.394 26.4574 224.394 24.2861ZM238.905 17.0986C239.429 15.6911 240.118 14.6504 240.972 13.9766C241.84 13.3027 242.911 12.9658 244.184 12.9658C244.872 12.9658 245.546 13.0482 246.205 13.2129C246.879 13.3776 247.538 13.6172 248.182 13.9316L246.43 18.0645C246.01 17.765 245.554 17.5479 245.06 17.4131C244.58 17.2633 244.041 17.1885 243.442 17.1885C241.825 17.1885 240.665 17.8398 239.961 19.1426C239.257 20.4303 238.905 22.6016 238.905 25.6562V35H234.031V13.6621H238.905V17.0986ZM264.423 24.2861C264.423 22.085 263.906 20.3704 262.873 19.1426C261.855 17.9147 260.425 17.3008 258.583 17.3008C256.741 17.3008 255.289 17.9372 254.226 19.21C253.177 20.4678 252.653 22.2197 252.653 24.4658C252.653 26.7269 253.162 28.4714 254.181 29.6992C255.199 30.9271 256.636 31.541 258.493 31.541C260.26 31.541 261.69 30.8822 262.783 29.5645C263.876 28.2318 264.423 26.4723 264.423 24.2861ZM264.288 0.185547H269.162V35H264.288V32.2373C263.42 33.4652 262.401 34.3786 261.233 34.9775C260.08 35.5765 258.755 35.876 257.258 35.876C254.248 35.876 251.875 34.8503 250.138 32.7988C248.416 30.7324 247.555 27.9098 247.555 24.3311C247.555 20.932 248.438 18.1917 250.205 16.1104C251.972 14.014 254.278 12.9658 257.123 12.9658C258.86 12.9658 260.342 13.3327 261.57 14.0664C262.813 14.7852 263.719 15.8258 264.288 17.1885V0.185547ZM277.632 29.4297L282.011 31.0469L276.172 43.0859L273.274 41.9404L277.632 29.4297ZM4.43506 77V64.0459H1.59814V60.7988H4.43506V54.6636H8.14355V60.7988H10.9805V64.0459H8.14355V77H4.43506ZM12.7934 77V50.5107H16.2797V63.4478C17.0202 62.3312 17.8918 61.5166 18.8944 61.0039C19.897 60.4912 21.1161 60.2349 22.5517 60.2349C23.7593 60.2349 24.7847 60.4285 25.6278 60.8159C26.4823 61.1919 27.1488 61.7559 27.6273 62.5078C27.9122 62.9521 28.1173 63.4705 28.2426 64.063C28.3679 64.6554 28.4306 65.6922 28.4306 67.1733V77H24.6879V68.6772C24.6879 66.5467 24.4258 65.134 23.9018 64.439C23.3891 63.7326 22.4719 63.3794 21.1503 63.3794C20.2844 63.3794 19.5097 63.5389 18.8261 63.8579C18.1539 64.1769 17.6241 64.627 17.2367 65.208C16.9633 65.5954 16.7696 66.0967 16.6557 66.7119C16.5531 67.3158 16.5019 68.2842 16.5019 69.6172V77H12.7934ZM47.2137 77H43.5052V74.8979C42.8444 75.8322 42.0696 76.5272 41.181 76.9829C40.3037 77.4386 39.2954 77.6665 38.1561 77.6665C35.866 77.6665 34.0602 76.8861 32.7386 75.3252C31.4284 73.7529 30.7732 71.6053 30.7732 68.8823C30.7732 66.2961 31.4454 64.2111 32.7898 62.6274C34.1342 61.0324 35.8888 60.2349 38.0535 60.2349C39.3751 60.2349 40.5031 60.514 41.4373 61.0723C42.3829 61.6191 43.0722 62.411 43.5052 63.4478V60.7988H47.2137V77ZM43.6077 68.8481C43.6077 67.1733 43.2146 65.8688 42.4285 64.9346C41.6538 64.0003 40.5657 63.5332 39.1644 63.5332C37.763 63.5332 36.6578 64.0174 35.8489 64.9858C35.0514 65.9429 34.6526 67.2759 34.6526 68.9849C34.6526 70.7052 35.04 72.0326 35.8147 72.9668C36.5895 73.901 37.6832 74.3682 39.096 74.3682C40.429 74.3682 41.5114 73.8612 42.3431 72.8472C43.1862 71.8332 43.6077 70.5002 43.6077 68.8481ZM51.8122 77V64.0459H48.9753V60.7988H51.8122V54.6636H55.5207V60.7988H58.3576V64.0459H55.5207V77H51.8122ZM73.707 62.6445H74.4419C76.5952 62.6445 78.0251 62.3939 78.7314 61.8926C79.4378 61.3913 79.791 60.5026 79.791 59.2266C79.791 57.848 79.4093 56.8796 78.646 56.3213C77.894 55.7516 76.4927 55.4668 74.4419 55.4668H73.707V62.6445ZM73.4507 65.8062V77H69.6396V51.9805H75.3135C76.9769 51.9805 78.2643 52.0887 79.1758 52.3052C80.0986 52.5216 80.8848 52.8805 81.5342 53.3818C82.3089 53.9857 82.9071 54.7661 83.3286 55.7231C83.7502 56.6802 83.9609 57.7284 83.9609 58.8677C83.9609 60.8729 83.4767 62.4451 82.5083 63.5845C81.5399 64.7124 80.11 65.3903 78.2188 65.6182L86.832 77H82.2349L73.9121 65.8062H73.4507ZM102.539 69.4463H89.5849C89.676 70.9616 90.126 72.1465 90.935 73.001C91.7439 73.8441 92.8205 74.2656 94.1649 74.2656C95.3612 74.2656 96.3581 74.015 97.1557 73.5137C97.9532 73.0124 98.6482 72.2035 99.2406 71.0869L102.368 72.8301C101.457 74.4593 100.329 75.6727 98.9843 76.4702C97.6399 77.2677 96.0619 77.6665 94.2504 77.6665C91.6527 77.6665 89.5849 76.8747 88.0468 75.291C86.5087 73.7074 85.7396 71.5939 85.7396 68.9507C85.7396 66.41 86.5315 64.325 88.1151 62.6958C89.7102 61.0552 91.7553 60.2349 94.2504 60.2349C96.8594 60.2349 98.8931 60.9811 100.351 62.4736C101.81 63.9661 102.539 66.0568 102.539 68.7456V69.4463ZM98.6937 66.9512C98.5456 65.7891 98.1013 64.9061 97.3607 64.3022C96.6202 63.687 95.6062 63.3794 94.3187 63.3794C93.0997 63.3794 92.1199 63.6756 91.3793 64.2681C90.6387 64.8605 90.1203 65.7549 89.8241 66.9512H98.6937ZM116.657 68.8481C116.657 67.1733 116.263 65.8688 115.477 64.9346C114.703 64.0003 113.615 63.5332 112.213 63.5332C110.812 63.5332 109.707 64.0174 108.898 64.9858C108.1 65.9429 107.701 67.2759 107.701 68.9849C107.701 70.7052 108.089 72.0326 108.864 72.9668C109.638 73.901 110.732 74.3682 112.145 74.3682C113.489 74.3682 114.577 73.8669 115.409 72.8643C116.241 71.8503 116.657 70.5116 116.657 68.8481ZM116.554 50.5107H120.262V77H116.554V74.8979C115.893 75.8322 115.118 76.5272 114.23 76.9829C113.353 77.4386 112.344 77.6665 111.205 77.6665C108.915 77.6665 107.109 76.8861 105.787 75.3252C104.477 73.7529 103.822 71.6053 103.822 68.8823C103.822 66.2961 104.494 64.2111 105.839 62.6274C107.183 61.0324 108.938 60.2349 111.102 60.2349C112.424 60.2349 113.552 60.514 114.486 61.0723C115.432 61.6191 116.121 62.411 116.554 63.4478V50.5107ZM139.592 69.4463H126.638C126.73 70.9616 127.18 72.1465 127.988 73.001C128.797 73.8441 129.874 74.2656 131.218 74.2656C132.415 74.2656 133.412 74.015 134.209 73.5137C135.007 73.0124 135.702 72.2035 136.294 71.0869L139.422 72.8301C138.51 74.4593 137.382 75.6727 136.038 76.4702C134.693 77.2677 133.115 77.6665 131.304 77.6665C128.706 77.6665 126.638 76.8747 125.1 75.291C123.562 73.7074 122.793 71.5939 122.793 68.9507C122.793 66.41 123.585 64.325 125.169 62.6958C126.764 61.0552 128.809 60.2349 131.304 60.2349C133.913 60.2349 135.947 60.9811 137.405 62.4736C138.863 63.9661 139.592 66.0568 139.592 68.7456V69.4463ZM135.747 66.9512C135.599 65.7891 135.155 64.9061 134.414 64.3022C133.674 63.687 132.66 63.3794 131.372 63.3794C130.153 63.3794 129.173 63.6756 128.433 64.2681C127.692 64.8605 127.174 65.7549 126.878 66.9512H135.747ZM142.585 77V64.0459H139.748V60.7988H142.585V56.458C142.585 54.3047 143.029 52.7153 143.918 51.6899C144.818 50.6646 146.208 50.1519 148.087 50.1519C148.486 50.1519 148.896 50.1803 149.318 50.2373C149.74 50.2943 150.167 50.3854 150.6 50.5107V53.8604C150.303 53.6895 150.002 53.5641 149.694 53.4844C149.398 53.3932 149.096 53.3477 148.788 53.3477C147.9 53.3477 147.261 53.6211 146.874 54.168C146.487 54.7148 146.293 55.6377 146.293 56.9365V60.7988H150.19V64.0459H146.293V77H142.585ZM151.08 53.792C151.08 53.1654 151.307 52.6242 151.763 52.1685C152.23 51.7127 152.783 51.4849 153.421 51.4849C154.082 51.4849 154.629 51.707 155.062 52.1514C155.506 52.5843 155.728 53.1312 155.728 53.792C155.728 54.4528 155.506 55.0111 155.062 55.4668C154.617 55.9111 154.07 56.1333 153.421 56.1333C152.783 56.1333 152.23 55.9054 151.763 55.4497C151.307 54.9826 151.08 54.43 151.08 53.792ZM151.575 77V60.7988H155.284V77H151.575ZM159.199 77V60.7988H162.685V63.4478C163.426 62.3312 164.297 61.5166 165.3 61.0039C166.302 60.4912 167.521 60.2349 168.957 60.2349C170.165 60.2349 171.19 60.4285 172.033 60.8159C172.888 61.1919 173.554 61.7559 174.033 62.5078C174.317 62.9521 174.523 63.4705 174.648 64.063C174.773 64.6554 174.836 65.6922 174.836 67.1733V77H171.093V68.6772C171.093 66.5467 170.831 65.134 170.307 64.439C169.794 63.7326 168.877 63.3794 167.556 63.3794C166.69 63.3794 165.915 63.5389 165.231 63.8579C164.559 64.1769 164.029 64.627 163.642 65.208C163.369 65.5954 163.175 66.0967 163.061 66.7119C162.958 67.3158 162.907 68.2842 162.907 69.6172V77H159.199ZM193.978 69.4463H181.024C181.115 70.9616 181.565 72.1465 182.374 73.001C183.183 73.8441 184.259 74.2656 185.604 74.2656C186.8 74.2656 187.797 74.015 188.595 73.5137C189.392 73.0124 190.087 72.2035 190.679 71.0869L193.807 72.8301C192.895 74.4593 191.768 75.6727 190.423 76.4702C189.079 77.2677 187.501 77.6665 185.689 77.6665C183.092 77.6665 181.024 76.8747 179.486 75.291C177.948 73.7074 177.179 71.5939 177.179 68.9507C177.179 66.41 177.97 64.325 179.554 62.6958C181.149 61.0552 183.194 60.2349 185.689 60.2349C188.298 60.2349 190.332 60.9811 191.79 62.4736C193.249 63.9661 193.978 66.0568 193.978 68.7456V69.4463ZM190.133 66.9512C189.985 65.7891 189.54 64.9061 188.8 64.3022C188.059 63.687 187.045 63.3794 185.758 63.3794C184.539 63.3794 183.559 63.6756 182.818 64.2681C182.078 64.8605 181.559 65.7549 181.263 66.9512H190.133ZM194.594 74.0605L197.671 72.3857C197.898 73.1947 198.32 73.8099 198.935 74.2314C199.55 74.653 200.342 74.8638 201.311 74.8638C202.142 74.8638 202.792 74.6758 203.259 74.2998C203.738 73.9124 203.977 73.3883 203.977 72.7275C203.977 71.8503 203.134 71.0983 201.447 70.4717C200.878 70.2666 200.439 70.0957 200.132 69.959C198.4 69.2412 197.186 68.512 196.491 67.7715C195.808 67.0309 195.466 66.1309 195.466 65.0713C195.466 63.6243 196.03 62.4508 197.158 61.5508C198.297 60.6507 199.801 60.2007 201.67 60.2007C202.923 60.2007 203.994 60.4342 204.883 60.9014C205.783 61.3571 206.438 62.0122 206.848 62.8667L204.216 64.6782C204.022 64.1655 203.681 63.7611 203.191 63.4648C202.712 63.1572 202.154 63.0034 201.516 63.0034C200.809 63.0034 200.24 63.1743 199.807 63.5161C199.385 63.8465 199.175 64.2909 199.175 64.8491C199.175 65.6922 200.132 66.4613 202.046 67.1562C202.649 67.3727 203.117 67.5493 203.447 67.686C204.939 68.2785 206.005 68.9507 206.643 69.7026C207.292 70.4432 207.617 71.3717 207.617 72.4883C207.617 74.1061 207.03 75.3765 205.857 76.2993C204.683 77.2108 203.065 77.6665 201.003 77.6665C199.419 77.6665 198.104 77.3703 197.055 76.7778C196.007 76.1854 195.187 75.2796 194.594 74.0605ZM240.842 64.5415C240.842 63.2769 240.609 62.0749 240.142 60.9355C239.686 59.7962 239.025 58.7822 238.159 57.8936C237.316 57.0163 236.336 56.3441 235.22 55.877C234.115 55.3984 232.947 55.1592 231.716 55.1592C230.486 55.1592 229.312 55.3927 228.196 55.8599C227.091 56.327 226.105 57.0049 225.239 57.8936C224.373 58.7708 223.713 59.7791 223.257 60.9185C222.801 62.0578 222.573 63.2655 222.573 64.5415C222.573 65.8062 222.801 67.0024 223.257 68.1304C223.713 69.2583 224.373 70.2666 225.239 71.1553C226.105 72.0439 227.091 72.7218 228.196 73.189C229.301 73.6561 230.474 73.8896 231.716 73.8896C232.935 73.8896 234.092 73.6561 235.186 73.189C236.291 72.7218 237.282 72.0439 238.159 71.1553C239.025 70.2666 239.686 69.2583 240.142 68.1304C240.609 66.991 240.842 65.7948 240.842 64.5415ZM245.081 64.5415C245.081 66.3188 244.744 67.9993 244.072 69.583C243.411 71.1667 242.443 72.5794 241.167 73.8213C239.88 75.0632 238.427 76.0145 236.809 76.6753C235.191 77.3361 233.494 77.6665 231.716 77.6665C229.916 77.6665 228.196 77.3361 226.555 76.6753C224.926 76.0031 223.485 75.0518 222.231 73.8213C220.955 72.5794 219.987 71.1724 219.326 69.6001C218.665 68.0278 218.335 66.3416 218.335 64.5415C218.335 62.7528 218.665 61.0666 219.326 59.4829C219.987 57.8993 220.955 56.4808 222.231 55.2275C223.507 53.9857 224.954 53.04 226.572 52.3906C228.19 51.7412 229.905 51.4165 231.716 51.4165C233.516 51.4165 235.22 51.7412 236.826 52.3906C238.444 53.04 239.891 53.9857 241.167 55.2275C242.443 56.4922 243.411 57.922 244.072 59.5171C244.744 61.1007 245.081 62.7756 245.081 64.5415ZM251.627 60.7988V69.9248C251.627 71.4971 251.952 72.625 252.601 73.3086C253.251 73.9922 254.305 74.334 255.763 74.334C257.221 74.334 258.275 73.9922 258.925 73.3086C259.574 72.625 259.899 71.4971 259.899 69.9248V60.7988H263.607V68.814C263.607 71.9129 262.986 74.1631 261.745 75.5645C260.503 76.9658 258.52 77.6665 255.797 77.6665C253.029 77.6665 251.024 76.9715 249.782 75.5815C248.54 74.1916 247.919 71.9357 247.919 68.814V60.7988H251.627ZM268.086 77V64.0459H265.249V60.7988H268.086V54.6636H271.795V60.7988H274.632V64.0459H271.795V77H268.086ZM288.083 68.8481C288.083 67.1733 287.69 65.8688 286.904 64.9346C286.129 64.0003 285.041 63.5332 283.639 63.5332C282.238 63.5332 281.133 64.0174 280.324 64.9858C279.526 65.9429 279.128 67.2759 279.128 68.9849C279.128 70.7052 279.515 72.0326 280.29 72.9668C281.064 73.901 282.158 74.3682 283.571 74.3682C284.915 74.3682 286.003 73.8669 286.835 72.8643C287.667 71.8503 288.083 70.5116 288.083 68.8481ZM287.98 50.5107H291.689V77H287.98V74.8979C287.319 75.8322 286.545 76.5272 285.656 76.9829C284.779 77.4386 283.77 77.6665 282.631 77.6665C280.341 77.6665 278.535 76.8861 277.214 75.3252C275.903 73.7529 275.248 71.6053 275.248 68.8823C275.248 66.2961 275.92 64.2111 277.265 62.6274C278.609 61.0324 280.364 60.2349 282.529 60.2349C283.85 60.2349 284.978 60.514 285.912 61.0723C286.858 61.6191 287.547 62.411 287.98 63.4478V50.5107ZM308.148 68.9507C308.148 67.4468 307.663 66.1764 306.695 65.1396C305.726 64.0915 304.542 63.5674 303.14 63.5674C301.75 63.5674 300.565 64.0915 299.586 65.1396C298.617 66.1764 298.133 67.4468 298.133 68.9507C298.133 70.4546 298.617 71.7306 299.586 72.7788C300.565 73.8156 301.75 74.334 303.14 74.334C304.53 74.334 305.709 73.8156 306.678 72.7788C307.658 71.7306 308.148 70.4546 308.148 68.9507ZM294.219 68.9165C294.219 67.7316 294.441 66.6151 294.886 65.5669C295.342 64.5073 295.991 63.5674 296.834 62.7471C297.666 61.9382 298.623 61.3172 299.705 60.8843C300.788 60.4513 301.921 60.2349 303.106 60.2349C304.325 60.2349 305.47 60.4513 306.541 60.8843C307.623 61.3172 308.592 61.9552 309.446 62.7983C310.301 63.63 310.95 64.57 311.395 65.6182C311.839 66.6663 312.061 67.7658 312.061 68.9165C312.061 70.1128 311.839 71.235 311.395 72.2832C310.962 73.3314 310.324 74.2599 309.481 75.0688C308.592 75.9233 307.606 76.5671 306.524 77C305.442 77.4443 304.302 77.6665 303.106 77.6665C301.933 77.6665 300.805 77.4443 299.722 77C298.64 76.5671 297.677 75.9347 296.834 75.103C295.98 74.2599 295.33 73.3143 294.886 72.2661C294.441 71.2179 294.219 70.1014 294.219 68.9165ZM327.324 68.9507C327.324 67.4468 326.84 66.1764 325.871 65.1396C324.903 64.0915 323.718 63.5674 322.316 63.5674C320.926 63.5674 319.742 64.0915 318.762 65.1396C317.793 66.1764 317.309 67.4468 317.309 68.9507C317.309 70.4546 317.793 71.7306 318.762 72.7788C319.742 73.8156 320.926 74.334 322.316 74.334C323.706 74.334 324.886 73.8156 325.854 72.7788C326.834 71.7306 327.324 70.4546 327.324 68.9507ZM313.396 68.9165C313.396 67.7316 313.618 66.6151 314.062 65.5669C314.518 64.5073 315.167 63.5674 316.01 62.7471C316.842 61.9382 317.799 61.3172 318.881 60.8843C319.964 60.4513 321.097 60.2349 322.282 60.2349C323.501 60.2349 324.646 60.4513 325.717 60.8843C326.8 61.3172 327.768 61.9552 328.623 62.7983C329.477 63.63 330.126 64.57 330.571 65.6182C331.015 66.6663 331.237 67.7658 331.237 68.9165C331.237 70.1128 331.015 71.235 330.571 72.2832C330.138 73.3314 329.5 74.2599 328.657 75.0688C327.768 75.9233 326.783 76.5671 325.7 77C324.618 77.4443 323.479 77.6665 322.282 77.6665C321.109 77.6665 319.981 77.4443 318.898 77C317.816 76.5671 316.853 75.9347 316.01 75.103C315.156 74.2599 314.506 73.3143 314.062 72.2661C313.618 71.2179 313.396 70.1014 313.396 68.9165ZM337.476 63.3794C337.875 62.3084 338.399 61.5166 339.049 61.0039C339.71 60.4912 340.524 60.2349 341.493 60.2349C342.017 60.2349 342.529 60.2975 343.031 60.4229C343.543 60.5482 344.045 60.7305 344.535 60.9697L343.202 64.1143C342.883 63.8864 342.535 63.7212 342.159 63.6187C341.795 63.5047 341.384 63.4478 340.929 63.4478C339.698 63.4478 338.815 63.9434 338.28 64.9346C337.744 65.9144 337.476 67.5664 337.476 69.8906V77H333.768V60.7646H337.476V63.3794ZM354.723 77V51.9805H358.79V73.3599H367.882V77H354.723ZM369.165 53.792C369.165 53.1654 369.393 52.6242 369.849 52.1685C370.316 51.7127 370.868 51.4849 371.506 51.4849C372.167 51.4849 372.714 51.707 373.147 52.1514C373.591 52.5843 373.814 53.1312 373.814 53.792C373.814 54.4528 373.591 55.0111 373.147 55.4668C372.703 55.9111 372.156 56.1333 371.506 56.1333C370.868 56.1333 370.316 55.9054 369.849 55.4497C369.393 54.9826 369.165 54.43 369.165 53.792ZM369.661 77V60.7988H373.369V77H369.661ZM382.975 77.9741L374.481 60.7988H378.532L382.069 68.9507C382.183 69.2013 382.32 69.5773 382.479 70.0786C382.639 70.5799 382.804 71.1781 382.975 71.873C383.089 71.3831 383.22 70.8989 383.368 70.4204C383.528 69.9305 383.716 69.4406 383.932 68.9507L387.453 60.7988H391.486L382.975 77.9741ZM392.102 53.792C392.102 53.1654 392.33 52.6242 392.786 52.1685C393.253 51.7127 393.806 51.4849 394.444 51.4849C395.105 51.4849 395.651 51.707 396.084 52.1514C396.529 52.5843 396.751 53.1312 396.751 53.792C396.751 54.4528 396.529 55.0111 396.084 55.4668C395.64 55.9111 395.093 56.1333 394.444 56.1333C393.806 56.1333 393.253 55.9054 392.786 55.4497C392.33 54.9826 392.102 54.43 392.102 53.792ZM392.598 77V60.7988H396.307V77H392.598ZM400.221 77V60.7988H403.708V63.4478C404.448 62.3312 405.32 61.5166 406.323 61.0039C407.325 60.4912 408.544 60.2349 409.98 60.2349C411.187 60.2349 412.213 60.4285 413.056 60.8159C413.91 61.1919 414.577 61.7559 415.055 62.5078C415.34 62.9521 415.545 63.4705 415.671 64.063C415.796 64.6554 415.859 65.6922 415.859 67.1733V77H412.116V68.6772C412.116 66.5467 411.854 65.134 411.33 64.439C410.817 63.7326 409.9 63.3794 408.578 63.3794C407.713 63.3794 406.938 63.5389 406.254 63.8579C405.582 64.1769 405.052 64.627 404.665 65.208C404.391 65.5954 404.198 66.0967 404.084 66.7119C403.981 67.3158 403.93 68.2842 403.93 69.6172V77H400.221ZM431.036 68.8481C431.036 67.1733 430.643 65.8688 429.857 64.9346C429.082 64.0003 427.994 63.5332 426.592 63.5332C425.191 63.5332 424.086 64.0174 423.277 64.9858C422.48 65.9429 422.081 67.2759 422.081 68.9849C422.081 70.7052 422.468 72.0326 423.243 72.9668C424.018 73.901 425.111 74.3682 426.524 74.3682C427.857 74.3682 428.939 73.8612 429.771 72.8472C430.614 71.8332 431.036 70.5002 431.036 68.8481ZM434.642 75.9917C434.642 79.159 434.009 81.3864 432.745 82.6738C431.48 83.9727 429.35 84.6221 426.353 84.6221C424.12 84.6221 422.337 84.1493 421.004 83.2036C419.671 82.2694 418.993 81.0218 418.97 79.4609L422.952 79.4438C423.009 80.1388 423.334 80.6686 423.926 81.0332C424.519 81.3978 425.351 81.5801 426.422 81.5801C428.005 81.5801 429.145 81.2326 429.84 80.5376C430.535 79.8426 430.888 78.6805 430.899 77.0513L430.933 74.8979C430.272 75.8322 429.498 76.5272 428.609 76.9829C427.732 77.4386 426.723 77.6665 425.584 77.6665C423.294 77.6665 421.488 76.8861 420.167 75.3252C418.856 73.7529 418.201 71.6053 418.201 68.8823C418.201 66.2961 418.874 64.2111 420.218 62.6274C421.562 61.0324 423.317 60.2349 425.482 60.2349C426.803 60.2349 427.931 60.514 428.865 61.0723C429.811 61.6191 430.5 62.411 430.933 63.4478V60.7988H434.642V75.9917ZM438.232 75.103C438.232 74.4764 438.448 73.9409 438.881 73.4966C439.314 73.0522 439.844 72.8301 440.471 72.8301C441.097 72.8301 441.627 73.0522 442.06 73.4966C442.493 73.9409 442.71 74.4764 442.71 75.103C442.71 75.7183 442.493 76.2424 442.06 76.6753C441.627 77.0968 441.097 77.3076 440.471 77.3076C439.844 77.3076 439.314 77.0968 438.881 76.6753C438.448 76.2424 438.232 75.7183 438.232 75.103Z" fill="white"/>
</svg>
