<svg width="208" height="35" viewBox="0 0 208 35" fill="none" xmlns="http://www.w3.org/2000/svg">
<path d="M11.8179 27.9741L0.658203 1.98047H4.87939L10.4849 15.3105C10.8153 16.0853 11.0887 16.8031 11.3052 17.4639C11.5216 18.1133 11.6925 18.7342 11.8179 19.3267C11.966 18.7 12.154 18.0506 12.3818 17.3784C12.6097 16.7062 12.8774 16.0169 13.1851 15.3105L18.7734 1.98047H22.9775L11.8179 27.9741ZM23.4745 3.79199C23.4745 3.16536 23.7024 2.62419 24.1581 2.16846C24.6252 1.71273 25.1778 1.48486 25.8158 1.48486C26.4766 1.48486 27.0235 1.70703 27.4564 2.15137C27.9008 2.58431 28.1229 3.13118 28.1229 3.79199C28.1229 4.4528 27.9008 5.01107 27.4564 5.4668C27.0121 5.91113 26.4652 6.1333 25.8158 6.1333C25.1778 6.1333 24.6252 5.90544 24.1581 5.44971C23.7024 4.98258 23.4745 4.43001 23.4745 3.79199ZM23.9701 27V10.7988H27.6786V27H23.9701ZM29.7308 24.0605L32.8069 22.3857C33.0348 23.1947 33.4563 23.8099 34.0716 24.2314C34.6868 24.653 35.4786 24.8638 36.4471 24.8638C37.2788 24.8638 37.9282 24.6758 38.3953 24.2998C38.8738 23.9124 39.1131 23.3883 39.1131 22.7275C39.1131 21.8503 38.27 21.0983 36.5838 20.4717C36.0141 20.2666 35.5755 20.0957 35.2679 19.959C33.5361 19.2412 32.3227 18.512 31.6277 17.7715C30.9441 17.0309 30.6023 16.1309 30.6023 15.0713C30.6023 13.6243 31.1663 12.4508 32.2942 11.5508C33.4336 10.6507 34.9375 10.2007 36.806 10.2007C38.0592 10.2007 39.1302 10.4342 40.0188 10.9014C40.9189 11.3571 41.574 12.0122 41.9842 12.8667L39.3523 14.6782C39.1587 14.1655 38.8169 13.7611 38.327 13.4648C37.8484 13.1572 37.2902 13.0034 36.6521 13.0034C35.9458 13.0034 35.3761 13.1743 34.9432 13.5161C34.5216 13.8465 34.3108 14.2909 34.3108 14.8491C34.3108 15.6922 35.2679 16.4613 37.1819 17.1562C37.7858 17.3727 38.2529 17.5493 38.5833 17.686C40.0758 18.2785 41.1411 18.9507 41.7791 19.7026C42.4285 20.4432 42.7532 21.3717 42.7532 22.4883C42.7532 24.1061 42.1665 25.3765 40.993 26.2993C39.8195 27.2108 38.2016 27.6665 36.1395 27.6665C34.5558 27.6665 33.2399 27.3703 32.1917 26.7778C31.1435 26.1854 30.3232 25.2796 29.7308 24.0605ZM44.7712 3.79199C44.7712 3.16536 44.9991 2.62419 45.4548 2.16846C45.9219 1.71273 46.4745 1.48486 47.1125 1.48486C47.7733 1.48486 48.3202 1.70703 48.7531 2.15137C49.1975 2.58431 49.4196 3.13118 49.4196 3.79199C49.4196 4.4528 49.1975 5.01107 48.7531 5.4668C48.3088 5.91113 47.7619 6.1333 47.1125 6.1333C46.4745 6.1333 45.9219 5.90544 45.4548 5.44971C44.9991 4.98258 44.7712 4.43001 44.7712 3.79199ZM45.2668 27V10.7988H48.9753V27H45.2668ZM53.7618 27V14.0459H50.9249V10.7988H53.7618V4.66357H57.4703V10.7988H60.3072V14.0459H57.4703V27H53.7618ZM74.8521 18.9507C74.8521 17.4468 74.3678 16.1764 73.3994 15.1396C72.431 14.0915 71.2461 13.5674 69.8447 13.5674C68.4548 13.5674 67.2699 14.0915 66.29 15.1396C65.3216 16.1764 64.8374 17.4468 64.8374 18.9507C64.8374 20.4546 65.3216 21.7306 66.29 22.7788C67.2699 23.8156 68.4548 24.334 69.8447 24.334C71.2347 24.334 72.4139 23.8156 73.3823 22.7788C74.3621 21.7306 74.8521 20.4546 74.8521 18.9507ZM60.9238 18.9165C60.9238 17.7316 61.146 16.6151 61.5903 15.5669C62.0461 14.5073 62.6955 13.5674 63.5386 12.7471C64.3703 11.9382 65.3273 11.3172 66.4097 10.8843C67.492 10.4513 68.6257 10.2349 69.8105 10.2349C71.0296 10.2349 72.1746 10.4513 73.2456 10.8843C74.328 11.3172 75.2964 11.9552 76.1509 12.7983C77.0054 13.63 77.6548 14.57 78.0991 15.6182C78.5435 16.6663 78.7656 17.7658 78.7656 18.9165C78.7656 20.1128 78.5435 21.235 78.0991 22.2832C77.6662 23.3314 77.0282 24.2599 76.1851 25.0688C75.2964 25.9233 74.3109 26.5671 73.2285 27C72.1462 27.4443 71.0068 27.6665 69.8105 27.6665C68.637 27.6665 67.5091 27.4443 66.4268 27C65.3444 26.5671 64.3817 25.9347 63.5386 25.103C62.6841 24.2599 62.0347 23.3143 61.5903 22.2661C61.146 21.2179 60.9238 20.1014 60.9238 18.9165ZM85.0048 13.3794C85.4035 12.3084 85.9276 11.5166 86.577 11.0039C87.2379 10.4912 88.0525 10.2349 89.0209 10.2349C89.545 10.2349 90.0577 10.2975 90.559 10.4229C91.0717 10.5482 91.573 10.7305 92.0629 10.9697L90.7299 14.1143C90.4109 13.8864 90.0634 13.7212 89.6874 13.6187C89.3228 13.5047 88.9127 13.4478 88.4569 13.4478C87.2265 13.4478 86.3435 13.9434 85.808 14.9346C85.2725 15.9144 85.0048 17.5664 85.0048 19.8906V27H81.2963V10.7646H85.0048V13.3794ZM106.319 12.4395H107.361C109.617 12.4395 111.121 12.1945 111.873 11.7046C112.625 11.2147 113.001 10.3488 113.001 9.10693C113.001 7.77393 112.596 6.83398 111.787 6.28711C110.99 5.74023 109.514 5.4668 107.361 5.4668H106.319V12.4395ZM106.062 15.772V27H102.251V1.98047H108.404C110.226 1.98047 111.565 2.08301 112.42 2.28809C113.286 2.48177 114.037 2.80648 114.675 3.26221C115.462 3.84326 116.077 4.62939 116.521 5.62061C116.966 6.60042 117.188 7.68278 117.188 8.86768C117.188 10.0526 116.966 11.1463 116.521 12.1489C116.077 13.1515 115.462 13.9377 114.675 14.5073C114.037 14.9631 113.286 15.2878 112.42 15.4814C111.565 15.6751 110.226 15.772 108.404 15.772H107.6H106.062ZM133.151 27H129.442V24.8979C128.782 25.8322 128.007 26.5272 127.118 26.9829C126.241 27.4386 125.233 27.6665 124.093 27.6665C121.803 27.6665 119.997 26.8861 118.676 25.3252C117.366 23.7529 116.711 21.6053 116.711 18.8823C116.711 16.2961 117.383 14.2111 118.727 12.6274C120.072 11.0324 121.826 10.2349 123.991 10.2349C125.312 10.2349 126.44 10.514 127.375 11.0723C128.32 11.6191 129.01 12.411 129.442 13.4478V10.7988H133.151V27ZM129.545 18.8481C129.545 17.1733 129.152 15.8688 128.366 14.9346C127.591 14.0003 126.503 13.5332 125.102 13.5332C123.7 13.5332 122.595 14.0174 121.786 14.9858C120.989 15.9429 120.59 17.2759 120.59 18.9849C120.59 20.7052 120.977 22.0326 121.752 22.9668C122.527 23.901 123.621 24.3682 125.033 24.3682C126.366 24.3682 127.449 23.8612 128.28 22.8472C129.123 21.8332 129.545 20.5002 129.545 18.8481ZM140.586 13.3794C140.985 12.3084 141.509 11.5166 142.159 11.0039C142.819 10.4912 143.634 10.2349 144.603 10.2349C145.127 10.2349 145.639 10.2975 146.141 10.4229C146.653 10.5482 147.155 10.7305 147.645 10.9697L146.312 14.1143C145.993 13.8864 145.645 13.7212 145.269 13.6187C144.904 13.5047 144.494 13.4478 144.039 13.4478C142.808 13.4478 141.925 13.9434 141.39 14.9346C140.854 15.9144 140.586 17.5664 140.586 19.8906V27H136.878V10.7646H140.586V13.3794ZM148.364 27V0.510742H152.072V17.5151L158.857 10.7988H163.437L156.088 17.9424L164.138 27H159.352L152.072 18.6431V27H148.364ZM164.72 3.79199C164.72 3.16536 164.948 2.62419 165.404 2.16846C165.871 1.71273 166.423 1.48486 167.061 1.48486C167.722 1.48486 168.269 1.70703 168.702 2.15137C169.146 2.58431 169.368 3.13118 169.368 3.79199C169.368 4.4528 169.146 5.01107 168.702 5.4668C168.258 5.91113 167.711 6.1333 167.061 6.1333C166.423 6.1333 165.871 5.90544 165.404 5.44971C164.948 4.98258 164.72 4.43001 164.72 3.79199ZM165.216 27V10.7988H168.924V27H165.216ZM172.839 27V10.7988H176.325V13.4478C177.066 12.3312 177.938 11.5166 178.94 11.0039C179.943 10.4912 181.162 10.2349 182.597 10.2349C183.805 10.2349 184.83 10.4285 185.674 10.8159C186.528 11.1919 187.195 11.7559 187.673 12.5078C187.958 12.9521 188.163 13.4705 188.288 14.063C188.414 14.6554 188.476 15.6922 188.476 17.1733V27H184.734V18.6772C184.734 16.5467 184.472 15.134 183.947 14.439C183.435 13.7326 182.518 13.3794 181.196 13.3794C180.33 13.3794 179.555 13.5389 178.872 13.8579C178.2 14.1769 177.67 14.627 177.282 15.208C177.009 15.5954 176.815 16.0967 176.701 16.7119C176.599 17.3158 176.548 18.2842 176.548 19.6172V27H172.839ZM203.653 18.8481C203.653 17.1733 203.26 15.8688 202.474 14.9346C201.699 14.0003 200.611 13.5332 199.21 13.5332C197.809 13.5332 196.704 14.0174 195.895 14.9858C195.097 15.9429 194.698 17.2759 194.698 18.9849C194.698 20.7052 195.086 22.0326 195.86 22.9668C196.635 23.901 197.729 24.3682 199.142 24.3682C200.475 24.3682 201.557 23.8612 202.389 22.8472C203.232 21.8332 203.653 20.5002 203.653 18.8481ZM207.259 25.9917C207.259 29.159 206.627 31.3864 205.362 32.6738C204.098 33.9727 201.967 34.6221 198.971 34.6221C196.738 34.6221 194.955 34.1493 193.622 33.2036C192.289 32.2694 191.611 31.0218 191.588 29.4609L195.57 29.4438C195.627 30.1388 195.952 30.6686 196.544 31.0332C197.136 31.3978 197.968 31.5801 199.039 31.5801C200.623 31.5801 201.762 31.2326 202.457 30.5376C203.152 29.8426 203.505 28.6805 203.517 27.0513L203.551 24.8979C202.89 25.8322 202.115 26.5272 201.227 26.9829C200.349 27.4386 199.341 27.6665 198.202 27.6665C195.912 27.6665 194.106 26.8861 192.784 25.3252C191.474 23.7529 190.819 21.6053 190.819 18.8823C190.819 16.2961 191.491 14.2111 192.836 12.6274C194.18 11.0324 195.934 10.2349 198.099 10.2349C199.421 10.2349 200.549 10.514 201.483 11.0723C202.429 11.6191 203.118 12.411 203.551 13.4478V10.7988H207.259V25.9917Z" fill="white"/>
</svg>
